<svg xmlns="http://www.w3.org/2000/svg" version="1.0" viewBox="0 0 1101 1379"><path d="M526 63h-1.1l-.4 1.2-.5 1.3-3.5 12.4-3.5 12.4.5.5.5.6 1-1 .9-.9 3.5-12.5 3.6-12.4V63zm35.8.5-.5-.5-1.6 1.8-1.6 1.7-2 4.5-2.1 4.5.1 5.5v5.5l1.7 4.1 1.7 4.1 1.6 2.4 1.7 2.4.7-.7.7-.7-2.3-4.8-2.4-4.8v-16l2.4-4.2 2.5-4.3zm113.3-.3-1-.3-.7 2.8-.6 2.8-2.3 8-2.3 8-.7 3.2-.7 3.3h2l2-6.3 2-6.2 1.8-7 1.8-7-.1-.5-.1-.5zm27.7 1.2-2.1-1.9.6 2 .6 2 2 5.5 2 5.5.1 3.3v3.3l-2.1 6.2-2.1 6.2-1 1.2-1 1.3h3.1l2.7-5.6 2.8-5.6.4-5.2.4-5.1-2.1-5.6-2.1-5.6zM505.7 64h-3.4l-2.1 2.3-2.2 2.3V71h3v-2l2.4-1.5 2.5-1.6L508 67l2.1 1.1-.3 2.7-.3 2.7-2.7 1.3-2.8 1.3V78h4.8l.9 1.2 1 1.3.6 1.7.6 1.7-2 2.5-2 2.6h-3l-2.5-2.5-2.5-2.5H498v2.6l2 2.2 2.1 2.2h8l2.4-2.5 2.5-2.4V80l-2-2-2.1-2.1 1.6-2.2 1.5-2.1v-2.7l-2.5-2.4-2.4-2.5zm35.9 0h-1.5l-6 8.4-6.1 8.4V85h12.1l-.3 2.7-.3 2.8 1.8.3 1.7.3v-5.9l2-.5 2-.5v-2.4l-2-.5-2-.5V64zm-2.3 7h.7v10h-9.1l1.3-1.4 1.3-1.5 2.5-3.5 2.5-3.5zm147.9-7h-3.8l-2.2 2-2.2 2.1V72h3v-3l2.5-1.6 2.6-1.7 2.4 1.1L692 68v5.3l-7 7.3-7 7.2V91h18v-3h-13v-.8l6.5-6.5 6.5-6.5v-5.3l-2.5-2.4-2.4-2.5zm-109.8 1.3-1.1-.4-2 1.8-2 1.8-2.2 5.2-2.1 5.2v6l-2 1.1-2.1 1.1.7 1 .6 1 1.3-1.1 1.2-1 1.7 2.5L571 92h2.8l2.3-2.1 2.4-2.1-2 .7-2 .7-1.7.5-1.8.5-.1-1.8-.1-1.9.2-1.5.2-1.5 2.8-3.1 2.8-3.2 1.2-3.6 1.1-3.6-.3-2.2-.3-2.1zm-.4 2.2.9.5-.9 2.9-.8 2.8-1.8 2.9-1.9 2.8-.3-1.6-.3-1.6 2.2-4.6 2.1-4.6zm323.8-2-.5-.5-1.5 1.7-1.6 1.8-1.8 3.5-1.8 3.5v15l2.1 4.1 2.2 4 1.5 1.3 1.6 1.3v-1.9l-1.5-3-1.5-3-1.1-5.6-1.2-5.6 1.2-4.8 1.2-4.8 1.6-3.3 1.6-3.3zm114.1 0-.8-.5-.5.9-.6.9-3.5 12.3-3.5 12.3V93h2.5l1.7-6.8 1.8-6.7 1.9-6.8 1.9-6.7zm26.4 0-1.5-.5.7 1.7.8 1.8 1.5 4 1.6 4v13l-1.6 4-1.5 4-.8 1.8-.7 1.7 1.4-.5 1.4-.6 2.7-5.5 2.7-5.4V76.9l-2.6-5.4-2.7-5.4zm-196.2.5h-3.8l-2.1 2.3-2.2 2.3V73h2.3l2.3-2.5 2.3-2.5h1.9l2.3 1.8 2.2 1.9-.6 1.7-.7 1.8-3 1.1-3 1.1.3 1.1.4 1 2.4.3 2.4.3 1.3 1.7 1.2 1.6v3.5l-1.6 1.5-1.5 1.6H842l-1-2.5-1-2.5h-3v3.7l2.3 2.1 2.3 2.2h7.5l2.4-2.5 2.5-2.4v-7l-2.1-1.4-2.1-1.5 1.7-2.6 1.7-2.5-.7-2-.6-2.1-1.5-1.5-1.5-1.5zm19.7 0h-1.3l-1.9 6.7-1.8 6.8-1.9 6.4-1.9 6.3v.8h2.6l3.3-11.8 3.3-11.7.5-1.8.4-1.7zm15.9 0h-1.3l-6.2 8.5L867 83v3h12v7h3v-7h4v-2.2l-2-.5-2-.5V66zm-2.1 6h.4v11h-9.4l2.6-2.8 2.5-2.7 1.8-2.8 1.7-2.7zm148-6h-4.2l-1.7 1.2-1.7 1.3-.2 2.4-.3 2.4 1.3.4 1.2.5V71l2.5-1.6 2.4-1.6 2.1.7 2 .6 1.1 2 1.1 2.1-2.2 3.1-2.2 3.2-3.9 3-3.9 3-1.5 2.9-1.5 2.9v1.8l8.7-.3 8.6-.3.5-1.3.4-1.2h-12.1l-.5-.9-.6-.8 5-4.2 5-4.2 1.6-3.1 1.6-3-.6-2.3-.6-2.4-1.6-1.5-1.5-1.6zm-110.5 1h-1.8l-2.7 3.8-2.6 3.8-1.2 5.9-1.2 6-2 1.8-2.1 1.8 2.6-.5 2.7-.6.5 2 .5 2 1.6.6 1.6.6 2.7-1.8 2.8-1.7-1.3-.5-1.3-.4-1.5 1.3-1.6 1.3-1.4-1.9-1.4-1.9v-1.3l3.1-3.9 3.1-3.9 1.4-2.7 1.4-2.7V67zm-.2 2h1.1v2.1l-2 4.4-2 4.4-1.1.7-1.2.7.7-2.8.7-2.9 1.4-3.3 1.4-3.3zm-274.1 2H638l-3.1 2.8-3.1 2.8-.5 4.4-.5 4.5 2.2 2.7 2.1 2.8h7.6l2.7-2.1 2.6-2V84h-4.3l-1.9 1.7-1.9 1.7-1.7-1-1.7-1.1-.3-1.7-.4-1.8 1.2-2.9 1.3-2.9 2.4-.6 2.4-.6 1.3 1.7 1.2 1.7 2-.4 1.9-.4-.3-1.9-.3-2-1.7-1.3-1.6-1.2zm339 2H977l-3.2 2.8-3.1 2.9-.1 5.2-.1 5.3 2.4 1.9 2.3 1.9h6.9l2.4-2.5 2.5-2.4v-2l-2.1-.6-2.1-.7-1.4 2.1-1.5 2.1h-2.8l-.7-1.2-.8-1.2.2-2.9.2-2.9 1.1-1.9 1-1.9h4.8l.9 1.6.9 1.6 1.8-.3 1.8-.4.4-1.2.4-1.1-2.2-2.1-2.3-2.1zm-369.4 7h-5.6l.4 1.2.5 1.3 5.1.3 5.2.3V80zm47.1 1.4-1-.3-2.7 2.8-2.8 2.8V89h1.6l1.2-1.2 1.2-1.2V100h4.1l-.3-9.2-.3-9.1zM951 81h-5v4h10v-4zm46.8 2-1.3.1-3.4 2.9-3.3 2.8.6 1 .6 1 2-.5 2-.5V102h4V83zm-414 4h-1.9l.5 1.7.4 1.8.5 2 .5 2 .6 2.7.6 2.8h3.8l3.6-6.1 3.6-6V87h-3.5l-2.5 4.3-2.4 4.2-1-4.3-.9-4.2zm339.1 1h-1.1l.7 5.2.6 5.3.5 1.7.5 1.8h3.5l3.1-5.3 3.2-5.2.7-1.8.6-1.7h-2.1l-2 2.2-2.1 2.2-.6 1.8-.5 1.8H926v-4.1l-1-2-1.1-1.9zm-480.3 7h-2.5l-.5.8-.4.7-.7 3.8-.7 3.8-2.2-.8-2.1-.7h-2.8l-2.8.1-2.4 2.3-2.5 2.3-.6 3.4-.6 3.3.6 3.5.7 3.6 2.5 1.1 2.5 1.2 3-1.1 2.9-1.1.6.9.5.9h2.8l1-1.8.9-1.7L442 109l2.1-10.5.5-1.8.5-1.7zm-10.5 11h.8l1.5 1.6 1.6 1.5v3.8l-1.1 2.5-1.1 2.4-1.9.5-1.9.5-1.6-1.6-1.6-1.5.6-3 .6-3.1 1.7-1.8 1.6-1.8zm19.5-11h-1.3l-1.8 6.2-1.8 6.3-2.3 7.8-2.3 7.8 1.7-.3 1.6-.3.9-3.5.9-3.5 2-7 2.1-7 .7-3.3.8-3.2zm11.7 0h-3.4l-2.4 2.5-2.5 2.4v3.1h2.2l2-2.5 1.9-2.5h4.8l1.5 2.1 1.5 2.2-1.4 2.7-1.4 2.8-4.4 3.8-4.4 3.9-1.8 2.8-1.8 2.8 1 1 1 1 7.9-.3 7.9-.3.3-1.8.3-1.7h-13.6l6.4-5.8 6.3-5.9.2-4.2.1-4.3-2.4-1.9-2.3-1.9zm75.7 9h-1v111h2v-23h1.5l3.7 2.5 3.7 2.5.5-.8.5-.8-5-3.3-4.9-3.4V104zm40.2 0h-.9l-.6.7-.7.7v130.1l-1-1.5-.9-1.4-.5.5-.6.6 1.2 5.1 1.3 5.2h1.6l-.7-4.5-.6-4.6 1.3.3 1.4.3.3-65.8.2-65.7zm322.8 0h-1v111h2v-50.4l4.3 4.2 4.3 4.2.7-.7.7-.7-3.7-3.8-3.7-3.8H903v-52.3l4.1.7 4.1.7 5.6 1.9 5.6 2h.6v-5h24v5.2l1.8-.5 1.7-.6 8-2.4 8-2.5.8.5.7.4V223h2V104h-2v6.2l-4.7-.7-4.8-.7-5-1.9-5-1.9H947v5h-24v-5h-.9l-4.9 1.9-4.8 1.9-4.7.7-4.7.7V104zm-384 1h-1v5h-21v2h21v5h1l3.7-1.4 3.8-1.4 5-1.2 5-1.3.7-.6.8-.7-6.2-1.3-6.2-1.3-2.8-1.4-2.7-1.4zm81.8 0-1.3.1-1.7 1-1.8 1-7.2 1.9-7.3 1.8 1.5.5 1.5.5 8.3 2.6 8.3 2.6h.9v-5h120v-2H601v-5zM213 118h-2.9l-.7 4.5-.6 4.5h-1.4l-1.2-1.2-1.1-1.1-3.2.1-3.1.1-2.3 2.1-2.3 2.1-1.2 4.2-1.1 4.2 1 2.8 1.1 2.7 2.6 1.2 2.5 1.2 3-1.1 2.9-1.1v1.8h5v-1.3l2.6-11.6 2.5-11.6.4-1.3.4-1.2zm-10.3 10h.6l1.9 1.7 1.8 1.6v3.6l-1.2 2.6-1.1 2.5-2.3.6-2.3.6-1-.7-1.1-.6v-6.6l2.1-2.7 2-2.6zm-34.2-5H167v7h-8.2l.4 1.2.5 1.3 3.6.3 3.7.3v6.9h3v-6.9l3.7-.3 3.6-.3.5-1.3.4-1.2H170v-7zm-42 1.7-2-.5-2 .7-2 .6-2.2 1.6-2.2 1.5-1.1 2.8-1 2.7v6l2.5 2.4 2.4 2.5h5.2l2.8-1.5 2.9-1.4.6-1.6.6-1.7v-.8h-5.8l-.6 1.5-.5 1.5H120l-.5-2.3-.5-2.2.8-2.9.8-2.9 2.1-1.4 2.2-1.4 2.1 2.1 2.1 2.1 2-.6 1.9-.6v-1.6l-2.2-2-2.3-2.1z"/><path d="M844.5 125H833v91h-11.9l-.3 6.2-.3 6.3-32.7.3-32.8.2v-1.1l3.5-3 3.5-3.1V220h-1.6l-3.7 3.6-3.7 3.6.6.9.5.9H726v23l47.3.2 47.2.3v11l-33.7.3-33.7.2-.3-5-.3-5-1 .2-1 .3-.1 4.5-.1 4.5-12.2.3-12.2.3.3 11.2.3 11.2 47.3.3 47.2.2v13h12l.2 48.2.3 48.3 11.2.3 11.2.3.3-14.3.3-14.3 5.8-.3 5.7-.3V397h23v-32.9l1.4.5 1.3.5 3.1-3.5 3.1-3.6h1.1v56h2V305.3l.6-9.1.7-9.2H997v-23h-93v-12l31.8.2 31.7.3.3 5.2.3 5.3h1.9v-11h27v-23h-92.9l-.3-6.3-.3-6.2-6.2-.3-6.3-.3v-64.3l4 3.9 4 3.9v-2.6l-4-4-4-4V125h-23v91h-12v-65h8.9l.6-.9.5-1-4.7-.3-4.8-.3-.3-11.8-.3-11.7zm.5 3h9v104h17V128h18v51.7l-.1 51.8 53.1.3 53 .2v17l-53.1.2-53.1.3v17l53.1.3 53.2.2-.3 8.3-.3 8.2-52.8.5-52.8.5-.2 54.5-.2 54.5-8.7.3-8.8.3V284h-17l-.2 54.7-.3 54.8h-17v-25l6-.4 6-.5-6-.5-6-.6-.2-41-.2-41-41.5-.3-41.5-.2-.3-5.8-.3-5.7-1 .5-1 .5-.1 5-.1 5h-21.8l-.3-8.2-.3-8.3 54.2-.2 54.1-.3v-17l-53.9-.5-53.8-.5v-16l53.8-.5 53.8-.5.2-40 .2-40 4.8-.3 4.7-.3v-1.8l-4.7-.3-4.8-.3-.3-10.3-.3-10.2zm-14.5 96h2.5v5h-5v-5zm31.5 0h6v5l-6-.2-6-.3V224zm29.9 0h.9l1.6.6 1.6.6v3.8h-5v-5zm-61.4 28h2.5v12.1l-2.2-.3-2.3-.3-.3-5.8-.3-5.7zm63 0h2.5v12.1l-2.2-.3-2.3-.3-.3-5.8-.3-5.7zm-63 35h2.5v5h-5v-5zm31.4 0h6.1v5.1l-5.7-.3-5.8-.3-.3-2.3-.3-2.2zm31.6 0h2.5v5h-5v-5zM862 300h6v67.1l-5.7-.3-5.8-.3-.3-33.3-.2-33.2zm34 0h5v55l-4.1 3.8-4.1 3.7-.9.3-.9.4V300z"/><path d="M878.5 149H873v2h11v-2zm90.5 84h-1v11h2v-11zm-217 1.5-1-.6-.6 1.4-.5 1.5.3 4.3.3 4.2 1.3.5 1.2.4v-11.1zM862.5 249H854v18.1l8.3-.3 8.2-.3.3-8.8.3-8.7zm0 3h5.6l-.3 5.7-.3 5.8h-11l-.3-4.4-.3-4.3.5-1.4.5-1.4zM969 271h-1v11.1l1-.6 1-.6V271zm-88.5 96.3h-6l3.3.4 3.2.4 2.8-.4 2.7-.4zm-50-105.3h-.5v1h1v-1zm63-4h-.5v1h1v-1zM420.3 130.4l-1.3-.6v5.2h-21v1.9l10.3.3 10.2.3.3 2.2.3 2.3h1.4l5-1.9 5-1.9 4.8-.7 4.7-.7V197h2v-67h-1.9l-.3 2.7-.3 2.8-2.5-.3-2.5-.3-6.5-2-6.5-2zm40-.1-1.3-.5v58.9l-4.2 2.8-4.3 2.8 1.4.5 1.3.4 2.9-2.1 2.9-2.2V215h3l-.3-39.1-.2-39.1 4.5.7 4.5.7 5 1.9 5 1.9h1.4l.3-2.3.3-2.2 10.8-.3 10.8-.3-.6-.9-.6-1H482v-5.2l-1.7.7-1.8.8-7.9 2.3-7.9 2.4-.6-.6-.5-.5-.1-2.1v-2.1zM141.8 135l-1.3.1-3.4 2.9-3.3 2.8.6 1.1.7 1.1 2-1 1.9-1.1V154h4v-19z"/><path d="M110 152h-1v40.1l1-.6 1-.6v-23.1l3.5.6 3.4.7 5.3 1.8 5.3 1.8 1.8.8 1.7.7V169h68v5.2l1.8-.7 1.7-.8 5.5-1.9 5.5-1.9 3.7-.6 3.8-.6V192h2v-40h-2v15.1l-4.7-.7-4.6-.7-5.8-2.2-5.8-2.3-.5.6-.6.5v3.7h-68v-5h-.7l-5.9 2.4-5.9 2.4-4.2.7-4.3.7V152zm720.3 2.7-.8-.5-4.4 3.8-4.3 3.7 1 .6.9.6 4.2-3.8 4.2-3.9zM499.5 156H488v22.8l-1.2.6-1.3.6 1.3.6 1.2.6V216h-29.8l-.4.7-.3.8-12.2-.3-12.2-.3.6-1.5.5-1.4h-2l-.6 1.5-.5 1.5h-63l-.6 1-.6 1H429l-.5 2.7-.6 2.8 2.1-2.8 2.2-2.7H458v27l-30.2.2-30.3.3-.3 11.2-.3 11.2 11.8.3 11.7.3.8 4.4.8 4.5 1 1 1.1 1.1-.7-5.8-.7-5.7h35.2l.3 15.2.3 15.3 14.8.3 14.7.3v34.7l-4.2-.5-4.1-.6.6 1 .7 1.1 3.5.6 3.5.7V360h23v-60h27v26.1l-1.5.5-1.5.6v1.8h3v54h2v-7.2l4.7.7 4.8.7 5 1.9 5 1.9h1.5v-5h19v5h1.5l5-1.9 5-1.9 4.7-.7 4.7-.7.4 3.8.4 3.9-.1-56-.1-56-.2 51.2-.3 51.3h-5.1l-7.5-2.5-7.4-2.5h-1v5h-19v-5h-1.5l-5 1.9-5 1.9-4.8.7-4.7.7v-47.1l3.2-2.2 3.1-2.3-1.2-.4-1.2-.4-1.5 1.2-1.4 1.3-.6-.6-.6-.5.8-27.1.7-27.1h60.8l-.3-11.3-.3-11.2-30.2-.3-30.3-.2v-30h-30v-35h5.1l-.6-1-.6-1H511v-23zm0 2h8.5v19.8l-2.2.7-2.3.8 2.3.4 2.2.4V249h91.1l-.3 8.7-.3 8.8h-19l-.1-6-.1-6-.1-1.3-.2-1.2h-1.9l-.3 7.2-.3 7.3-34.2.3-34.3.2v67.8l-2.2.6-2.3.6H499v2h9v19h-17.1l.1-10.3.1-10.2v-34.7L491 267l-45.2-.2-45.3-.3-.3-8.8-.3-8.7h20.2l-.7 6-.7 6h3.3v-12h69v-69h6v-2h-6v-20zM477 224h11.1l-.2 6-.2 6h-2.2l1.3.8 1.2.8-.2 4.2-.1 4.2H466v-22zm46.2 0H534v12.6l-1.2 1.2-1.2 1.2h2.4v7h-23v-6.9l4.6 1.6 4.6 1.5 4.4-4.3 4.4-4.3v-1.5l-7.2 2.1-7.3 2-1.7.5-1.8.5v-11.9l.7-.6.6-.7zm.5 11.1 1.2-.1-.5 1.2-.5 1.3-2.2 1.6-2.3 1.7-2.9-1.2-3-1.3 4.5-1.5 4.5-1.6zM477 269h11v11h-1.2l-4.5-3-4.4-3h-1.4l-1.3 2.8-1.3 2.7-1 2.4-1 2.4 4.3-.6 4.3-.7 3.8-.6 3.8-.7-.3 4.9-.3 4.9-10.7.3-10.6.3-.1-11.6V269zm45.2.2 11.3.3v22l-3.8.3-3.8.3-1.5-1.2-1.6-1.3-.7 1.3-.8 1.2-4.9-.3-4.9-.3-.3-11.3-.3-11.3zm-44.5 6.8h.6l3.5 2.2 3.6 2.2-4.9 1.1-5 1.1-.7-.3-.8-.4 1.5-3 1.6-2.9z"/><path d="M468.5 230h-.5v1h1v-1zm.6 13h-1l-.6 1-.6 1h3.1v-2zm55.4-17h-.5v1h1v-1zm-3.8 3.3-.7-.6v2.6l.7-.6.6-.7zM482.5 286h-.5v1h1v-1zm-6 2h-.5v1h1v-1zm40-16h-.5v1h1v-1zm4.6 9h-1l-.6 1-.6 1h3.1v-2zM375 157.5l-1-.6V178h-5v1.6l2.9 9 2.9 8.9.5-1.5.6-1.5 2-6.5 1.9-6.5.7-1.8.7-1.7H376v-19.9zm441.3 10.2-1-.6-3.8 3.9-3.9 4 .7.7.8.7 4-4.1 4.1-4zM917.8 178h-.8v.9l3.1 3.6 3.1 3.5h1.8v-1.8l-3.2-3.1-3.2-3.1zm-441 3h-1.3l-4.4 2-4.4 2 .6.6.6.6 5-1.7 5.1-1.7V181zm325 0h-1.3l-3.4 3.5-3.4 3.5.6.6.6.6 4-3.3 4.1-3.4V181zm-277.3 1H523v1.6l5 1.6 5 1.6v-1.4l-3.5-1.7-3.6-1.7zm406.1 9h-.6v1.6l4 3.9 4 3.9v-2.3l-3.4-3.5-3.3-3.6zm-142.4 3h-.8l-3.9 4-3.9 4h2.5l3.4-3.2 3.5-3.1V194zm-459.5 1h-2.6l-.5.8-.4.7-.7 3.8-.7 3.8-1.7-.7-1.6-.7-2.7-.5-2.8-.4-3.5 3.5-3.5 3.5-.1 2.8-.1 2.9.1 2 .2 2 2.6 2.3 2.6 2.4 2.1-.7 2.1-.7 3.7.1 3.7.1.9-3.7.9-3.8 1.7-7.5 1.7-7.5.5-2.3.6-2.2zm-10.8 11h1.7l1.2 1.2 1.2 1.2v5.5l-2.3 2.7-2.3 2.7-2.2-1.2-2.2-1.2v-6l1.6-2.4 1.6-2.5zm19.6-11h-1.4l-2.1 7.1-2.2 7.2-.3 1.6-.3 1.6-1.1 4-1 4-.1 1v1h2.3l.2-1.5.3-1.5 2.2-7.5 2.2-7.4.4-2.3.4-2.2 1-2.6 1-2.5zm12.4.2-4.5-.3-2.2 2.4-2.2 2.3v3.4h2.7l1.1-2.5 1.2-2.5h5.7l1.8 2 1.8 1.9-1.8 2.8-1.8 2.8-5.3 5-5.3 5-.6 2.2-.6 2.3H358v-2.9l-6.7-.3-6.7-.3 6.1-6 6.1-6 .7-2.8.8-2.9-2-2.6-2-2.7zM114.5 199H109v2h11v-2zm19 0H128v2h11v-2zm19.1 0h-5.5l-.6 1-.6 1H158v-2zm18.4 0h-6v2h12v-2zm18.4 0H184v2h12.1l-.6-1-.6-1zm19.1 0H203v2h11v-2zm14.6.2-1.4-.5.6 1.7.7 1.8v8.2l1.1-1.1 1-1-.3-4.3-.3-4.3zm178.8.8h-35l.6 1 .6 1H437v-2zm42.9 0h-1.3l-3.3 4-3.2 3.9.9.5.8.5 3.7-4 3.6-4.1v-.8zm110.5 1.1-1.3-.1v.7l4 4.4 3.9 4.3.7-.7.7-.6-3.4-4-3.4-3.9zm388.5 3.9h-.8v1.6l4 3.9 4 3.9.7-.7.6-.7-3.9-4-3.9-4zm-168.4 2h-1.1l-3.9 3.5-3.8 3.5.8.7.7.7 4.2-4.2 4.2-4.2zM110 209h-1v11h2v-11zm56.5 6H125l.2 41.7.3 41.8h82l.3-41.8.2-41.7zm1.1 8.1 33.4.1v12.4l-1.2 1.2-1.2 1.2h2.4v53h-8.8l-.6-1.3-.6-1.2-.6 1.2-.6 1.3H133v-8.8l1.3-.6 1.2-.6-1.2-.6-1.3-.6v-53.7l.6-1.6.6-1.5z"/><path d="m186.7 225.3-.7-.6v2.6l.7-.6.6-.7zm4.8-.3h-.5v1h1v-1zm-24 1h-.5v1h1v-1zm-31.5 3h-1.3l.6.7.7.6.7-.6.6-.7zm34.5 0h-.5v1h1v-1zm26.2 2.5-.2-.2-6.7 1.9-6.7 1.8-3.2 1.3-3.2 1.3 5.7 1.9 5.6 1.9 4.5-4.9 4.5-4.8zm-5.9 2.6 1.2-.1v1.7l-2.4 2.2-2.3 2.2-3.4-1.4-3.4-1.4 4.5-1.5 4.5-1.6zM154 232h-1.3l.6.7.7.6.7-.6.6-.7zm0 3h-1.3l.6.7.7.6.7-.6.6-.7zm15.5 3h-.5v1h1v-1zm-15 4h-.5v1h1v-1zm-18.5 1h-1.3l.6.7.7.6.7-.6.6-.7zm43.7 2.3-.7-.6v2.6l.7-.6.6-.7zm8.8 1.7h-.5v1h1v-1zm-41.8 3.3-.7-.6v2.6l.7-.6.6-.7zm28.8 3.7h-.5v1h1v-1zm13.2 3.3-.7-.6v2.6l.7-.6.6-.7zM138 259h-1v3.1l1-.6 1-.6V259zm53.7.3-.7-.6v2.6l.7-.6.6-.7zm-50.6 3.3-1-.6-.5.9-.6 1 .9.5 1 .6.5-.9.6-1zm14.4.4h-.5v1h1v-1zm17.5 0h-1v3.1l1-.6 1-.6V263zm23.5 6h-.5v1h1v-1zm-12 2h-.5v1h1v-1zm-32 1h-.5v1h1v-1zm-7.8 1h-.5l-2.2 4.6-2.2 4.5.5.6.6.5 7.8-1.4 7.8-1.4-5.6-3.7-5.6-3.7zm.5 2h.9l3.6 2.4 3.6 2.5-3.9.6-3.9.6-1.7.4-1.8.3v-1.7l1.2-2.6 1.1-2.5zm21.3 0H165v2h3v-2zm22.1 5h-.5l-.6 1-.6 1h2.1v-2zm-16.9 3.3-.7-.6v2.6l.7-.6.6-.7zm-4.2.7h-.5v1h1v-1zm-17 2h-.5v1h1v-1zm21.2 2.3-.7-.6v2.6l.7-.6.6-.7zm3.3-.3h-1.3l.6.7.7.6.7-.6.6-.7zm391.9-72h-.9v1.1l2.6 4.5 2.6 4.4h1.8l-1-2.5-.9-2.5-1.7-2.5-1.6-2.5zM224 217h-1v12.1l1-.6 1-.6V217zm732.8 2h-.8v1.6l3.4 3.2 3.4 3.2h2.6l-3.9-4-3.9-4zM375 222.7l-.7-.8-2.7 8.3-2.6 8.3v1.5h5v21h2v-21h5.2l-.5-1.3-.5-1.2-2.3-7-2.2-7zM110 228h-1v11.1l1-.6 1-.6V228zm315.1 3h-1.2l-.3 1.2-.4 1.3-.6 2.7-.6 2.6-.6 1.6-.6 1.6h1.9l1.2-4.1 1.2-4.1.6-1.4.5-1.4zM224 236h-1v12.1l1-.6 1-.6V236zm-114 11h-1v11.1l1-.6 1-.6V247zm114 8h-1v12.1l1-.6 1-.6V255zm-114 10.5-1-.6v12.2l1-.6 1-.6v-9.8zm114 8.5h-1v11h2v-11zm352.2 3h-.8l-1.3 3.7-1.4 3.8-.4 1.2-.5 1.3h2.2l1.5-3.6 1.5-3.6V277zM110 284.5l-1-.6v12.2l1-.6 1-.6v-9.8zm317.1 2-1-.5-.4.7-.5.8 2.1 4.7 2.1 4.8h1.6v-2.6l-1.5-2-1.4-1.9-.1-1.7v-1.7zm537.7 1.5h-1.3l-3.3 4-3.3 4h2.6l3.3-4 3.3-4zm-208 1h-.8v1.6l3.8 3.7 3.8 3.7.7-.7.7-.7-3.7-3.8-3.7-3.8zm240.2 0h-1v125h2V289zm-773 3.5-1-.6V304h2v-10.9zm345.1 1.5h-.9l-1.2 3-1.2 2.9-1.4 1.2-1.4 1.1v1.8h2l2.5-4 2.5-4v-2zm383.2 7.7-1-.6-3.8 3.9-3.9 4 .7.7.8.7 4-4.1 4.1-4zm-182.5.3h-.8v1.6l4 3.9 4 3.9.7-.7.7-.7-3.9-4-3.9-4zM110 303h-1v12.1l1-.6 1-.6V303zm324.9 0h-.9v.7l.1.8 3.4 4 3.4 4 .7-.7.6-.7-3.2-4.1-3.2-4zm123.3 7h-.8l-3.4 3.5-3.4 3.5.7.7.7.7 3.5-3.4 3.5-3.4V310zm-334.1 1.5-1-.5-.6 1-.6 1H212v2h13v-2.9zm-100 1.5H118v2h10.9l.6-1 .6-1zm18.4 0H137v2h11v-2zm19 0H156v2h11v-2zm18.5 0h-6v2h12v-2zm19 0h-6v2h12v-2zm740.2 2h-.8l-3.9 4-3.9 4 .8.7.7.7 3.9-3.9 3.9-4 .1-.8v-.7zm-156.1 1h-1.5l4.4 4.5 4.5 4.6.4-1.2.3-1.1-3.3-3.4-3.3-3.4zm-335.5 1h-.6v1.7l4.4 3.1 4.5 3.2.6-.9.5-1-4.4-3-4.5-3.1zM129 321h-1v53.1l1-.6 1-.6V363h5l6.6 2.5 6.6 2.5h2.8v-5h33v5h3.1l3.7-1.6 3.7-1.5 5.3-1.3 5.3-1.2-8.8-2.6-8.8-2.6-1.7-.7-1.8-.7v5.2h-33v-5.2l-1.7.7-1.8.7-7.5 2.4-7.5 2.4H130v-41zm78 0h-1v51.9l1 .6 1 .6V321z"/><path d="m161 324.6-3.5-.4-2.2.5-2.3.4-2.1 3-2.1 2.9v9.2l1.8 1.9 1.7 1.9h8.6l2.5-2.7 2.5-2.7-.5-.8-.5-.8H160v1.9l-2 .6-2.1.7-1.5-1.3-1.5-1.2.7-3.1.6-3.1 1.6-1.8 1.5-1.7h3.8l.5 1.5.6 1.5h4.8v-2.6l-1.3-1.7-1.2-1.7zm307 4.6-5-2.1-.5.8-.5.9 4.9 2.1 5 2.1h1.1v-1.7zm328.8-.2h-.8v1.6l3.8 3.7 3.8 3.7.7-.7.7-.7-3.7-3.8-3.7-3.8zm129.1.1h-1.4l-3.2 3.6-3.3 3.6v1.9l.8-.4.8-.3 3.8-4.3 3.8-4.2zm-398.6 2-1.8.1-3.2 1.1-3.2 1.2-.7.7-.7.8h2.8l3.7-1 3.7-1.1.6-.9.6-1zM175.8 334l-1.3.1-2.7 3.1-2.8 3.1v1.8l2-.6 2-.6V353h4v-19zm638.5 11.9-4-4.1-.6.9-.6 1 3.9 3.8 4 3.9.7-.7.7-.8zm98.6-2.9h-1.5l-3.2 3.6-3.3 3.7.6.5.6.6 4.2-4.2 4.2-4.2zm-89.6 13H822l.1.7.1.8 3.9 3.4 4 3.4.6-.7.7-.6-3.4-3.5-3.4-3.5zM61.6 385h-1.4l-3.1 3.9-3.2 4-1.9 5.8-2 5.8v4.4l1.7 5.6 1.7 5.5h2.8l-.7-1.8-.7-1.7-.5-6.5-.5-6.5 2.1-5.9 2-5.8 2.6-3.4 2.6-3.4zm26 0h-1.5l1 3.2.9 3.3v11l-1.1 3.9-1.1 3.9-2.8 4.6-2.9 4.6.5.4.4.4 2-1.8 2.1-1.9 2.9-5.2 3-5.1v-16.2l-1-2.5-1-2.6zm25.4 0h-2v4l-2.5 10.6-2.5 10.6v1.8h4l.1-1.8.1-1.7.3-1.5.3-1.5 1.2-6 1.2-6 .8-1.5.9-1.5.6 2 .7 2 1.8 4.5 1.8 4.5 1.8 4.3 1.7 4.3 2.1-.3 2-.3 2.1-11 2.2-11 .7-2.3.7-2.2h-3.8l-2.3 10.5-2.4 10.5-.7-.7-.7-.8-2.1-5.8-2.1-5.8-2-3.9-2-4zm77.6 0h-1.5l-.4.7-.5.8-.6 4-.7 4-1.9 8.3-2 8.4v.8h4v-4.7l1.4-4.7 1.5-4.8 1.8-1.4 1.8-1.3 1.8-.1h1.8l.5 1.3.4 1.2-1.3 7.3-1.4 7.3 1.5-.3 1.6-.3 1.8-7 1.8-7-.5-2.2-.5-2.3-2.6-.6-2.5-.7-2.5 1.2-2.5 1.1h-.8l1-3.2.9-3.3V385zm75.6 0h-1.1l-.4.7-.5.8-2 8.5-2 8.5-.7 4.2-.6 4.3h3l1-3.8 1.1-3.7v-4.6l2.5-2.4 2.4-2.5h4.2l.5 1.4.5 1.4-1.5 6-1.6 6v2.2h2.8l1.6-6.5 1.6-6.4v-4.7l-1.2-1.2-1.2-1.2h-5.5l-.6 1-.6 1h-2l.7-4.5.6-4.5zm75.4 0h-1.5l-.5.8-.4.7-.7 3.8-.7 3.7h-.7l-2.5-1.1-2.5-1.2-2.5.7-2.5.6-2.6 3.7-2.5 3.8v7.3l1.8 2.2 1.8 2.2 3-.1 2.9-.2h5.4l1-3.7 1-3.7 1.6-8 1.6-8 .5-1.8.5-1.7zm-9.4 10h1.8l1.5 2.3 1.5 2.3-1 3.5-1 3.6-1.9 1.7-2 1.8-1.8-.4-1.7-.3-1.2-2.4-1.2-2.3 1-3.6 1-3.7 1.6-1.3 1.6-1.2zm275.5-8h-1.2l-1.8 6.2-1.7 6.3-2 7-1.9 7-.1 1.5v1.4l1.4-1.4 1.4-1.5 2.2-8 2.2-8 1.4-4.4 1.4-4.5V387zm13.8.8-2-.4-2 .4-2 .4-2.2 2.1-2.3 2v3.7h3l1-2.5 1-2.5h6.6l1.2 1.2 1.2 1.2v3.7l-7.6 7.4-7.6 7.5.4 1.3.5 1.2 8.6.3 8.7.3V411h-12.3l6.1-6.4 6.2-6.4v-5.9l-2.2-2-2.3-2zM509.6 389h-1.3l-2 2.2-2.1 2.3-1.6 3.2-1.6 3.3-.7 4.5-.6 4.5-1.3 1.1-1.4 1.1v2.2l1.2-1.2 1.2-1.2 2.1 2.6 2.2 2.7 2.5-.6 2.6-.7.6-1.6.6-1.6-1.7.7-1.8.7-1.7.5-1.8.5v-6.4l3.3-3.9 3.4-3.9 1.1-3.9 1.2-3.9-.6-1.6-.6-1.6zm-.6 3h1v2.1l-2 3.9-2 3.9-1 .6-1 .6v-2.6l2-4.3 1.9-4.2zm-436.7 0h-3.4l-2.6 2.6-2.5 2.5.6.6.6.6 3.3-1.8 3.4-1.8 2.6.7 2.7.6v3.7l-3.1.7-3.1.6h-5.5l-1.6 1.8-1.7 1.9v5.1l1.5 1.2 1.5 1.2 2.2-.1 2.3-.1 4.1-.1 4.1-.2 1.3-8 1.3-8-2.3-1.9-2.2-1.8zm3 10.1.7-.1v2.7l-2.1 2.7-2 2.6h-4.7l-1.1-1.4-1.1-1.3.6-1.7.6-1.6 2.2-.5 2.1-.4 2-.4 2-.5zm68.3-10.1h-3.4l-3.1 3.5-3.1 3.6v9.4l.8 1.2.7 1.2 2.7 1 2.7 1 3.7-1.3 3.7-1.2 1.9-3.5 1.8-3.4v-6.6l-2.5-2.4-2.4-2.5zm-.1 3h2.4l1.6 1.7 1.7 1.6-.6 3.5-.5 3.5-2.2 2.3-2.2 2.4h-4.3l-1.2-1.2-1.2-1.2v-7.3l2.1-2.7 2-2.6zm31.2-3h-3.3l-1.6 1.2-1.7 1.3-.1 1.5-.2 1.5.1 1.8.1 1.7 4.5 2.2 4.6 2.2-.3 2.1-.3 2-3.2.3-3.2.3-1.6-2.5-1.7-2.5-1.3.5-1.3.5.5 2 .5 2 2 1 1.9 1 2.7.1 2.7.1 2.3-.7 2.2-.7 1.1-2 1-2-1.5-2.5-1.6-2.4-3.6-1.5-3.6-1.5.4-1.7.3-1.8 2.7-.3 2.7-.3 1 2 1.1 2 1.5-.5 1.5-.6V396l-2-2-2-2zm40.4 0H212l-3.1 2.8-3.1 2.8-.5 4.7-.6 4.7 1.6 2.4 1.7 2.5 2.2.3 2.3.4 3-.9 3-1 1.3-1.5 1.2-1.6V406h-2.7l-1.8 2-1.8 2h-3.6l-1.5-1.6-1.6-1.5V403h15v-6.1l-2.5-2.4-2.4-2.5zm-.5 3h2.3l1.6 1.6 1.6 1.6-.4 1.2-.4 1.1-5.1.3-5.2.3v-2.4l1.7-1.9 1.6-1.8zm22-3h-3.3l-2.7 2.1-2.6 2v1.9h2.8l1.2-1.5 1.2-1.5h5.6l1.2 1.5 1.3 1.6-1 1-1 1-5.4.8-5.5.7-1.2.8-1.2.7v7.7l2.8.9 2.7 1 3-.8 2.9-.8 2.2.5 2.1.5.6-5.3.7-5.3.6-2.7.6-2.6-2.1-2.1-2.1-2.1zm2.2 10.1.2-.1v3.9l-2.2 2.1-2.2 2h-4.7l-.6-1.6-.6-1.7 1-1.6 1-1.6 3.9-.6 3.9-.6zm12.9-10.1h-1.3l-2.2 9.7-2.2 9.7.5.4.4.4 1.4-.5 1.4-.5.7-5.1.7-5.1 2.2-2.5 2.2-2.6 2-.3 2-.3.3-1.6.3-1.7h-3.4l-1.9 1.7-1.8 1.6V392zm39.6 0h-2.8l-2.4 1.3-2.4 1.2-1.8 3.5-1.9 3.5v4.4l1.1 2.5 1.2 2.5 2.9 1 2.9 1 2.7-1 2.7-1 1.7-1.6 1.8-1.6V406h-3l-2 2-2 2h-4l-1.6-2.5-1.6-2.4.7-1.1.6-1H298v-7l-2-2-2-2zm-.8 3h2.1l1.2 1.2 1.2 1.2v3.6h-11v-1.9l2.2-2.1 2.2-2zm21.3-3h-3.9l-2.7 2.7-2.7 2.8 1.7.3 1.8.3 1.6-1.5 1.5-1.6h3.7l1.6.6 1.6.6v3.6l-2.2.6-2.3.6h-7.4l-1.5 2.2-1.6 2.2v3.2l1.3 1.8 1.3 1.7 3.4-.1 3.5-.1 3.1-.1h3.1l1.3-7.9 1.2-8-1.7-1.9-1.8-2zm2.5 10.1.7-.1v2.7l-2.1 2.7-2 2.6h-4.7l-1.1-1.4-1.1-1.3.6-1.7.6-1.6 2.2-.5 2.1-.4 2-.4 2-.5zm260.5-7.1h-3.3l-3.1 1.9-3.1 1.9-1.2 3.3-1.1 3.2v4.6l2.3 2.6 2.3 2.7h7.6l2.9-2.8 2.9-2.8v-1.4l-2.4-.4-2.4-.5-1.6 1.9-1.6 1.8h-2.8l-1.1-1.4-1.2-1.4.7-2.9.7-2.8 1.5-1.8 1.5-1.7h3.6l.9 1.6.9 1.6 2.2-.7 2.1-.6V399l-2-2-2-2zm348 7.6-.3-2.4-8.5 2.9-8.5 2.8-.5.1-.5.1 9 2.9 9 3h.4l.3-2.3.3-2.2 25.8-.3 25.7-.2v5h1.5l9-2.9 9-3-1.5-.4-1.5-.5-7-2.3-7-2.2-1.2-.5-1.3-.4v5.2h-51.9zm-378.5.6-4.1-.3-.7 1.1-.7 1.2 1 1 .9.9 3.9-.3 3.9-.3v-3zm47 2.7-.8-.7-3.2 2.7-3.3 2.7v2.4h1.9l.6-1 .6-1 1 .6 1 .6-.2 6.2-.3 6.1h2.9l.3-8.9.3-8.9zM517 411h-2v3.5l1.3 4.9 1.3 5 1.2.4 1.1.3 3.6-5.5 3.6-5.6.5-1.5.6-1.5H524v2.5l-2.5 3-2.4 3-.1-4.3V411zm471.6 10h-1.4l-.7 3.2-.7 3.3-2.5 8.5-2.5 8.5-.4 2.3-.5 2.4 1.2-.4 1.2-.4 1.4-3.9 1.4-3.9.4-2.6.5-2.5 2-6.5 2-6.5V421zm12 0h-3.7l-2.4 2.6-2.5 2.7v2.7h3v-1.9l1.6-1.5 1.5-1.6h5.8l1.1 2 1.1 2.1-.6 1.8-.6 1.9-4.7 4.3-4.7 4.3-2.2 3-2.3 3v1.6h18v-3h-12v-1.4l6-5.6 6-5.6v-7.1l-2.3-2.1-2.3-2.2zM891 422.2l-1.6-.3-2.2 2.3-2.1 2.4-1.4 3.9-1.4 4-.7 3.6-.7 3.7-1.4 1.2-1.5 1.2v2.2l1.2-1.2 1.2-1.2h1.3l1.1 2.5 1.2 2.5h4.9l1.1-2 1.1-2h-2l-.6 1-.6 1H884v-5.2l2.9-3.7 2.8-3.6 1.7-3.3 1.7-3.3-.3-2.7-.3-2.7zm-.3 2.6.5 1.3-1.6 4.4-1.7 4.3-1.5 1.2-1.4 1.2v-2.7l2.6-5.5 2.6-5.5zm64.6 3.2-1.8.1-3.1 1.3-3.1 1.4-1.3 3.3-1.4 3.3v6.9l2.8 2.3 2.7 2.4h4.2l3.2-2 3.3-2 .5-1.4.6-1.4-.6-.6-.6-.6H957l-2.1 2.1-2 2-1.5-1.2-1.4-1.1v-5.9l1.6-2.4 1.6-2.5h3.9l.5 1.5.6 1.5h4.8v-2.5l-.8-1.1-.7-1.1-2.2-1.2-2.2-1.1zm-30.3 9h-5v3h10v-3zm-455.5 2.8-3-.4-2.5.4-2.5.4-2.2 2.1-2.3 2v4.4l2.3 2 2.2 2 4.8 2.2 4.7 2.3v4.4l-1.2 1.2-1.2 1.2h-8.7l-1.7-3-1.7-3H454v4.1l2.5 2.4 2.4 2.5h10.3l2.9-2.9 2.9-2.9v-3.7l-.9-1.4-.9-1.4-5.8-3.1-5.9-3.1v-4.8l2.6-.9 2.6-.9 2.7 1.1 2.8 1 .5 2 .5 2h2.8v-4.7l-1.7-1.5-1.8-1.5zm502.3-.8-1.3.1-2.7 2.2-2.8 2.3v2.4l2.5-.6 2.5-.6V458h3v-19zm-564.2 1h-1.2l-3.6 5.6-3.7 5.5-.7 4.6-.7 4.5.7 6.1.6 6.1 1.5 1.5 1.5 1.5.4-.5.5-.5-1-3.9-1.1-3.9.4-6.3.4-6.2 3.6-7.1 3.6-7zm8 0H414v1.5l-2.9 12.3-2.8 12.2 1 .7 1 .6 1.2-1.7 1.2-1.6 1.3 1.5 1.2 1.5h5.4l2.9-3 2.8-2.9.5-4.9.4-5-2.1-2.1-2.1-2.1h-4.6l-1.3 1.2-1.3 1.3.7-4.8.7-4.7zm3.7 9h1.2l1.4.9 1.4.9-.1 4.7-.1 4.8-1.7 1.8-1.7 1.9h-5.6l-.6-2-.6-2 .6-3 .6-2.9 2-2.6 2-2.5zm15.4-8.8-1.7-.3 1 2.6 1 2.6v12.6l-1.5 4.4-1.6 4.4-2.4 3.7-2.5 3.8v1.1l1.9-1 1.9-1 3.2-5.2 3.3-5.1.5-7.7.4-7.6-.9-3.5-.9-3.5zM537 440h-1.8l-.7 3.7-.7 3.8-.5 2.5-.4 2.5-1.5 6.3-1.4 6.3v2l1.7-.3 1.6-.3.4-2.5.4-2.5 2-9 2-9 .4-1.8.3-1.7zm8 0h-2v4.8l-2.4 10.3-2.5 10.3.5.8.5.8h2.8l.6-4.8.7-4.7 1.9-7.7 1.9-7.6V440zm19.6 0h-1.4l-.5 1.5-.6 1.4.9.6 1 .6 1-.6 1-.6V440zm73.3 0H636v4h2.8l.5-2 .5-2zm-43.3 1h-1.2l-1.2 1.2-1.2 1.2v3.6h-3v2.8l1.1.4 1.2.4-1.6 6.9-1.5 7 1 1.2 1 1.3h4.8v-3h-3v-2.8l1.2-5.3 1.2-5.2 1.8-.5 1.8-.4V447h-2.9l.9-3 .9-3zm302.8 3H896v1.9l1.1 5.3 1.1 5.3.9.9.8.9 1.5-1.2 1.4-1.2 3.6-6 3.6-6-2.2.3-2.2.3-2 3.7-1.9 3.7-.9-.5-.8-.5v-3.7l-.6-1.6-.6-1.6zm-413.9 3h-1.6l-.3 1.2-.4 1.3-1.6 7.8-1.6 7.8v1.9h2.7l1.2-5.8 1.3-5.7 1.4-2.2 1.4-2.2 2.1-1.2 2.1-1.1 1 1 .9.9-1 5.4-.9 5.4-.8 2.9-.7 2.8 1.8-.4 1.8-.3 1.6-6.9 1.6-6.9 2.8-2 2.7-2.1 1.5 1.4 1.4 1.5-1.9 7.5-2 7.5v.5h3.7l1.8-8.5 1.8-8.5-1.3-1.5-1.2-1.5h-5.4l-1.1 1.1-1.1 1.1-3.6-1.3-3.5-1.3-2.6 1.2-2.5 1.2v-2zm36.6 0h-3.7l-2.2 2-2.2 2.1v1.9h3v-1.9l2.1-1.1 2.1-1.2 2.5.7 2.4.6-.3 2.2-.3 2.2-5.5.7-5.4.6-1.8 2.2-1.7 2.1.4 2 .4 2.1 1.2 1.4 1.1 1.4h5.9l2.2-1.1 2.1-1.2.4 1.2.4 1.1h2.8v-5.9l1.1-5.2 1.1-5.3-2.2-1.8-2.2-1.8zm2.2 10.2.7-.2v3.3l-1.7 1.9-1.6 1.8h-5.8l-.5-1.5-.6-1.5 1.2-1.5 1.1-1.4 3.2-.4 3.2-.4zm40.5-10.2h-.9l-.4 1.2-.5 1.3-1.9 8-1.8 8 .4.7.4.8h2.7l.7-4 .7-4v-1l1.3-4.9 1.3-5-.6-.5-.5-.6zm8.1 0h-1l-.4 1.2-.3 1.3-1.1 5-1 5-.6 3.7-.6 3.8h2.9l1.7-7 1.7-7 2.5-2 2.6-2h2.8l.6 1.6.6 1.6-1.2 5.1-1.1 5.2-.7 2.4-.6 2.3 1.8-.3 1.8-.4 1.9-7.9 1.8-7.9-1.6-1.9-1.7-1.8h-3.6l-2.7 1.2-2.7 1.3-.5-1.3-.4-1.2zm37.7.1h-3.1l-2.1 1-2.1 1.1-1.6 2.8-1.7 2.8v7.9l2.3 2.1 2.3 2.2h6.4l3.2-2.9 3.3-3-1.8-.7-1.8-.7-1.5 2.2-1.5 2.1h-5.5l-1.2-1.2-1.2-1.2v-3.5l7.3-.3 7.2-.3.3-3.2.3-3.1-2.2-2.1-2.3-2.1zm-.5 1.9h1.8l1.5 2.2 1.6 2.2v1.6h-11v-1.4l2.2-2.3 2.1-2.3zm15.4-2h-1.3l-1 4.7-1.1 4.8-.6 3.8-.6 3.8-.6 1.5-.5 1.4h3.1l1.1-4.3 1.1-4.2 1.2-3.5 1.3-3.5 3.2-1.1 3.3-1v-1.9l-1.6-.3-1.6-.4-1.6 1.4-1.6 1.3-.4-1.3-.5-1.2zm13.1 0h-1.7l-.3 1.2-.4 1.3-1.6 7.8-1.6 7.8v1.9h2.8l1.7-7.8 1.7-7.7.5-2.3.5-2.2zm13.5 0h-3.6l-2.1 1.8-2.2 1.7-1.1 2.2-1.1 2.2-.2 4.2-.1 4.2 2.2 1.9 2.3 1.8h7.6l3.1-3.5 3.1-3.6v-8.8l-2.2-2.1-2.2-2zm.1 2h1.8l1.6 2.5 1.6 2.5-.7 2.7-.6 2.8-1.5 2.2-1.4 2.3h-6.9l-.6-2.1-.7-2.1.7-3.4.6-3.4 2.1-2 2.2-2zm15.3-2H664l-.1.7v.8l-.5 2.4-.4 2.5-1.5 6.4-1.5 6.5.4.5.5.4 1.7-.6 1.7-.6-.6-.6-.5-.5 1.3-5 1.4-5 1.5-2.5 1.6-2.4h5v-3h-3.1l-2 1-1.9 1.1V447zm-188.9 31h-1.5l-1 3.7-.9 3.8-1.2 6-1.2 6-.8 3.7-.8 3.8h3.4l1.7-7.3 1.7-7.2 1.7-1.3 1.7-1.2h4.6v5.5l-1.5 5.5-1.5 5.5v.5h4l.1-1.3.1-1.2.3-1.9.4-1.8 1.1-5 1.2-4.9-1.8-2-1.9-2.1-2.5.5-2.5.4-1.9.8-1.8.8.5-1.9.6-1.9.7-2.8.6-2.7zm75.2 0h-1.5l-1.2 6.2-1.2 6.3-1.5 6.2-1.4 6.2v2.1h2.9l1.2-5.5 1.2-5.5 1.8-3 1.9-3h4.9l.5.9.6.8-1.5 6.9-1.5 6.9v1.5h2.9l1-3.8 1-3.7.7-5 .6-5.1-1.6-1.3-1.6-1.3-2.2.5-2.3.4-1.6.7-1.7.7.5-4.5.6-4.6zm75.9 0h-1.6l-.4.7-.5.8-.7 4.2-.7 4.3-2.1-1.5-2.1-1.5h-3.8l-2.8 2-2.7 1.9-1.3 4.6-1.3 4.5 1.3 3.1 1.3 3.1 2.4.9 2.4.9 1.7-.9 1.7-.9 2.5.5 2.5.4 2.2-11.3 2.3-11.3.6-2.3.6-2.2zm-9.7 10h2.8l.6 1.6.6 1.6v6.5l-2.5 2.7-2.4 2.6H615l-2-2-2-2v-2.4l2.1-4.3 2.1-4.3zm-157.4-3h-3.3l-2.2 2.4-2.3 2.4.7 2 .6 2.1 4.4 2.1 4.5 2.2v3.8l-2.4.6-2.4.6-2.1-1.2-2.1-1.1V498h-3v3.9l1.5 1.4 1.5 1.5 2.9.7 3 .6 3-1.6 3.1-1.6v-6.6l-3.7-1.9-3.8-1.9-1.2-.8-1.2-.8.6-1.5.5-1.4h5.7l1.5 2.1 1.4 2.1 1.1-.7 1.1-.6v-1.5l-2-2.2-2.1-2.2zm40.5 0H498l-3 2.7-3.1 2.8-.7 3.5-.8 3.5.4 2.3.4 2.3 3.1 2 3.2 1.9 2.5-.5 2.5-.6 2.8-2.7 2.7-2.6-.9-.9-1-1-3.1 2.7-3.2 2.6h-2.7l-1.6-1.6-1.6-1.6.3-1.7.3-1.6 7.3-.3 7.2-.3v-6l-2.5-2.4-2.4-2.5zm.2 3.2 3 .3.8 2.2.8 2.3H495v-1.3l1.7-1.9 1.7-1.9zm21.1-3.2h-3.1l-2.7 2.1-2.6 2v1.9h2.8l1.2-1.6 1.3-1.5 3.1.3 3.1.3.3 2.1.3 2.1-5.1.5-5 .5-2 1.8-2 1.8v5.7l2.5 1.6 2.5 1.6 3.1-1.1 3.1-1.1 2.3.6 2.2.5.7-6.8.8-6.8-.1-2v-2l-1.7-1.2-1.8-1.3zm-.5 11h3.3l-.6 1.6-.6 1.6v1.8l-2.6 1.1-2.7 1-1.8-.6-1.9-.6v-3.8l1.8-1 1.7-1zm16.5-9.8-1-1.6-.9 1.4-.9 1.4-1.7 8.9-1.6 8.8 1.6-.3 1.6-.3 1.3-6 1.3-6 2.1-2.2 2.1-2.3h3.6l.6-1 .6-1-1.5-.6-1.6-.6-2.3 1.5-2.3 1.5zm38.7-1.2h-2.6l-3.2 1.9-3.1 2-.5 1.8-.5 1.8-.6 2.7-.6 2.7 1 2.5.9 2.5 2.5 1.7 2.6 1.6 2.6-.6 2.6-.7 2.5-2.5 2.5-2.6-1.1-1.1-1.2-1.2-1.7 2.1-1.7 2.2-2.1.6-2 .6-1.6-1.2-1.7-1.3-.3-2-.3-2 7.3-.3 7.2-.3.1-1.2.1-1.2-.2-2-.2-2-2.1-2.3-2-2.2zm-.7 3h3.4l.6 1.6.6 1.6v1.8h-10v-1.1l1-2 1.1-1.9zm21.6-2.9h-2.5l-2.2.9-2.2.9-1.1 2-1.1 2.1h3.9l.6-1.6.6-1.5 3.7.3 3.8.3v4l-5.4.8-5.5.7-1.8 1.7-1.8 1.6v4.6l1.5 1.5 1.5 1.5 2 .6 1.9.6 3.1-1.6 3-1.6v2.1h3.5l.1-2.8.2-2.7.7-5.6.8-5.6-2.4-1.7-2.3-1.6zm-.9 10.9h3.9v2.1l-2.5 2.4-2.4 2.5h-3l-1.5-1.6-1.6-1.5v-.8l1.6-1.5 1.5-1.6zm186.1 0h-.9l-1.5 1.7-1.5 1.8-2.8 4.4-2.7 4.4-.5 7.6-.5 7.6.9 3.5.9 3.5 1.7.3 1.6.3-1-3.3-.9-3.3v-11.2l1.5-4.4 1.6-4.4 2.4-3.7 2.5-3.8v-1zm25.3 1-1.3-1.1.5 9.8.5 9.8-4 7.7-4 7.8h2l1.9-2.3 1.9-2.2 2-3.7 2-3.6 1-4.7 1.1-4.7-1.2-5.9-1.2-5.9zm24.5 0h-1.8l-2.1 9.2-2 9.3-.3 4-.3 4 7.3.3 7.4.3 1.6-1.3 1.5-1.3-6.9-.5-6.9-.5.1-2 .1-2 .7-4 .6-4 1.4-5.8 1.3-5.7zm106.2 0h-1.9v3h3.7v-3zm30.8.5-.7-.5-1.7 1.9-1.6 1.8v3.3h-3v2.8l1.1.4 1.2.4-1.6 6.9-1.6 6.9 1.1 1.3 1 1.3h4.8v-3h-3v-2.4l1.2-5.8 1.2-5.8h3.4l.6-1.5.5-1.5h-3.1l.4-3 .5-3.1zm43.1-.5h-1.9l-.6 1.5-.5 1.5h3.7l.6-1.5.5-1.5zm-218.8 6h-.8l-2.5 1.3-2.4 1.2-2.3 3.4-2.3 3.4v6.8l2.5 2.4 2.4 2.5h5.3l3.1-3.2 3.2-3.1-1.3-.5-1.3-.4-2.4 2.2-2.3 2.2-2.4-.4-2.3-.3-.3-4.7-.3-4.8 2.5-2.5 2.5-2.5h2.1l2 2 2 2h2v-2.5l-.8-1.1-.7-1.1-2.2-1.2-2.2-1.1zm64.7.6-2.5-.5-2.4 1-2.4 1-1.3 1.7-1.3 1.7-.1.7v.8h3v-2l2.6-1.1 2.7-1 1.8.6 1.9.6v4.9h-9.6l-2.1 1.5-2.1 1.4-.5 2.1-.5 2 2 2.5 1.9 2.5h5.5l1.2-1.2 1.2-1.2 2 1.2 2 1.2.4-1.2.4-1.3 1.3-6.8 1.2-6.9-1.9-1.8-1.9-1.9zm-.7 10.5 2.7-.1v1.7l-2.1 2.7-2 2.6h-5.8l-.6-1-.6-1 .6-1.9.6-2 2.2-.4 2.2-.4zm20.3-11.1h-.2l-2.2 1.6-2.2 1.5V504h-2.9l-.7 3.7-.6 3.8-1.3 5.7-1.3 5.8.8.5.8.5 1-1.3 1-1.2.6-4.1.7-4.1 1.9-3.1 2-3.2h4.8l.5-1.4.6-1.4-1.5-.6-1.6-.6zm12.9.7-2-.5-1.5.5-1.5.6-2.2 1.9-2.1 2-1.2 2.9-1.2 2.9.6 3.4.6 3.4 3.2 1.5 3.2 1.6 1.7-1 1.8-.9h1.2l-.3 2.2-.3 2.2-2.7 1.5-2.7 1.5-1.9-1.7-1.9-1.7H879v1.7l1.8 1.6 1.9 1.7h7.9l1.7-1.3 1.7-1.2 2.5-10 2.5-10V504h-2.8l-.5 1.2-.5 1.3-.9-1.1-.8-1.1zm-1.7 2.3h.8l1.9 1.4 1.8 1.3-.1 3.8-.2 3.8-2.1 2.4-2.2 2.3h-3.3l-1.2-1.2-1.2-1.2v-7.7l2.5-2.4 2.4-2.5zm23.2-2.4-2.5-.5-2.1.9-2.1.8-2.1 2.7-2.1 2.7-.7 3.3-.6 3.3 1.4 2.8 1.3 2.9 2.6.9 2.6.9 2.4-.6 2.4-.6 2.3-2.1 2.2-2.1V517h-3.5l-1.3 2-1.2 2h-6l-1-2.6-1-2.5v-.9h15v-6.8l-1.7-2-1.8-2.1zm-1.7 2.4h.8l2 1 1.9 1.1v3.9h-10v-2.9l2.2-1.5 2.2-1.6zm43-3h-.8l-3.2 2-3.3 2v-3.2l-1.2.4-1.2.4-.8 3-.8 2.9-1 6-1 5.9.9.9.9.9.9-1.8 1-1.9 1.2-5.7 1.2-5.6 1.2-1 1.2-1 2-.6 2-.6 1.4.9 1.4.9-1.6 7.3-1.6 7.3.6.9.5.8 1.1-.4 1.1-.3 1.2-6 1.3-5.9v-3.2l.1-3.2-1.9-1.1-2-1zm28.5 0-1.3.1-2.7 1.5-2.8 1.5-1.6 3.1-1.6 3.1v6.9l2.3 2.4 2.2 2.4h5l3.2-2 3.3-2 .6-1.5.5-1.5h-3.5l-1.7 2-1.7 2h-4.6l-1.2-1.2-1.2-1.2v-3.5l7.3-.3 7.2-.3.1-3.1.1-3.1-1.1-1.5-1.1-1.5-2.2-1.1-2.2-1.2zm0 3h1.8l1.2 1.2 1.2 1.2v3.6h-10v-2l2-2 2-2zm21.8-3h-.2l-2.2 1.6-2.2 1.5V504h-2.9l-1.2 5.7-1.2 5.8-.7 3.8-.8 3.7.8.5.8.5 1-1.3 1-1.2.6-4.1.7-4.1 1.9-3.1 2-3.2h4.8l.5-1.4.6-1.4-1.5-.6-1.6-.6zm20.7 0-.8.1-3.1 1.3-3.1 1.4-1.7 2.3-1.6 2.3v9.5l2.6 2 2.7 2.1h5.9l3.4-3.4 3.4-3.4v-8l-.6-1.7-.6-1.6-2.9-1.4-2.8-1.5zm0 3h.7l2.1 2.1 2.1 2.1-.6 3.1-.6 3.1-1.5 2.3-1.5 2.3h-6l-1.2-2.5-1.1-2.5.9-3.7.9-3.8 2.5-1.2 2.5-1.3zm21.7-3h-.6l-2.2 1.6-2.2 1.5V504h-2.8l-1.6 7.2-1.6 7.3-.2 2.5-.3 2.5h2.9l.3-3.5.4-3.5 2.2-4.5 2.2-4.5 2.5-.3 2.5-.4 1-.9 1-1-1.5-.9-1.5-1zm-109.2 1h-1.5l-2.1 9.2-2.1 9.3.9.9 1 1 1-1 1-1 1.1-6 1-5.9.6-3.3.6-3.2zm73.8 0h-1.5l-.5 1.7-.4 1.8-1.8 7.7-1.8 7.8.7.7.7.7 1-1 .9-.9 2.1-8.8 2-8.8v-.9zM492 524h-.9l-2.8 4.7-2.8 4.8-.2 8.1-.2 8 3 5.2 2.9 5.2h2v-1.6l-1.3-1.9-1.4-2-1.3-4.8-1.3-4.7.6-5.8.5-5.8 2.1-4.4 2.1-4.4v-.6zm93.3.3-1.2-.4 1.9 3.8 1.8 3.8 1.2 4.4 1.2 4.5-.7 4.4-.7 4.4-1.9 4.5-2 4.6.4 1.1.3 1 2.7-3.9 2.6-3.9 1.2-5.3 1.2-5.3-1.2-5.4-1.2-5.5-2.2-3.2-2.2-3.2zm-10.1.7h-1.8l-6.2 8.7-6.2 8.7v2.6h11.9l.3 3.2.3 3.3h3l.3-3.3.3-3.2h2.9v-3h-3v-17zm-2.4 6h.2v11h-8l1.8-2.8 1.7-2.8 2-2.7 2-2.6zm-61.3 0-1 .1-2.7 1.5-2.8 1.5V532h-4.6l-1.8 9-1.9 8.9.2.8.1.8h4.4l1.6-6.6 1.7-6.6.7-1.2.7-1.1h5.9v.5l-1.5 7-1.4 7 .8.8.9.9 1.6-.4 1.7-.3v-.7l.1-.8 1.4-5.2 1.4-5.3v-5.4l-2.2-1.5-2.2-1.6zm27.9 1.2-8-.3-.7.7-.7.7v2.7h18.1l-.3-1.8-.3-1.7zm306.7 2.8h-1.6l-1.8 8.7-1.8 8.8-1 4.2-.9 4.2v1.1h2.9l1-3.8 1.1-3.7v-3l2-3.3 2-3.2h6v3.5l-1.5 5.5-1.5 5.5v2.5h2.9l.5-.9.6-.9 1.2-7.5 1.1-7.6-1.3-1.5-1.2-1.6h-5.4l-1.2 1.2-1.2 1.2-.5-.6-.6-.5 1-4.2.9-4.1zm75.6 0h-1.6l-1 3.7-1.1 3.8v4l-1.9 7.2-1.9 7.2.6.5.5.6h2.4l.7-4.2.7-4.2 1.9-4.3 1.9-4.3h5.8l.5.6.6.5-.8 3.2-.8 3.2-.7 4.7-.6 4.8h2.9l1-4.3 1-4.2.7-4.3.7-4.3-1.2-1.4-1.2-1.5h-4.9l-2 1.1-2 1 .6-4.5.7-4.6zm75.5 0h-2l-.6 4.5-.7 4.5h-1.8l-.6-1-.6-1h-6.6l-2 2.2-2.1 2.3-1.1 2.2-1.1 2.2v6.7l1.6 2.2 1.5 2.2h5l2-1 1.9-1.1v2.1h3l.5-2.3.5-2.2 2.1-10.5 2.1-10.5.5-.8.4-.7zm-9.9 10h2.3l1.2 1.2 1.2 1.2v5.7l-1.5 2.9-1.5 2.9-2.1.6-2 .7-2-1.8-1.9-1.7v-5.2l2-3.3 2-3.2zM539 541h-9v3h18v-3zm291.1 1h-3.8l-1.7 1.9-1.8 1.9.4 2.3.3 2.2 3.4 1.8 3.5 1.9 1.5 1.4 1.4 1.5-1.3 1.5-1.2 1.6h-3.9l-2.4-2.6-2.4-2.6-1 .6-1 .7.6 1.7.7 1.7 1.5 1.2 1.6 1.2 3.8.1h3.8l2.4-2.4 2.4-2.4-.6-2.2-.6-2.2-4.3-2-4.4-1.9V545h6.1l.5 1.5.6 1.5h2.8v-2.9l-1.6-1.5-1.5-1.6zm40.7 0h-4l-2.9 2.9-2.9 2.9-.1 1.9-.1 1.8.2 3.5.1 3.5 2.1 1.7 2 1.8h6.5l2.7-2.5 2.6-2.4V555h-2.5l-2.4 2.5-2.3 2.5h-3.7l-1.1-1.9-1-2v-3l7.3-.3 7.2-.3-.2-3.3-.1-3.3-1.8-2-1.7-1.9zm0 3.2 3.7.3.3 2.2.3 2.3H865v-1.1l1.1-2 1-2zM892 542h-3.6l-2.2 1.6-2.2 1.5v2.9h2.8l.6-1.6.6-1.5 3.7.3 3.8.3v4l-5.4.5-5.3.6-1.9 2.3-1.9 2.3v3.5l1.8 1.6 1.9 1.7h5.9l1.3-1.3 1.4-1.2.4 1.2.5 1.3h3.6l.7-8.7.8-8.6-1.9-1.4-1.8-1.3zm1.8 10.2 1.3-.2-.6 2.2-.7 2.3-2 1.7-2 1.8h-2.7l-1.5-1.6-1.6-1.5 1-1.9 1-1.9 3.3-.4 3.2-.4zM907 542h-.9l-.6 1.9-.6 1.9-.8 5.4-.9 5.3-.7 2.7-.7 2.8h3l1.7-6.8 1.6-6.7 1.6-1.8 1.6-1.7h4.7v-3h-3.1l-2.2 1.1-2.1 1.2-.4-1.2-.4-1.1zm39.1 0h-3.7l-2.8 2.9-2.8 2.9-.5 4.4-.5 4.3 2.2 2.7 2.1 2.8h6.1l2.9-1.7 2.9-1.7V555h-1.2l-3 2.5-3 2.5h-2.7l-1.5-2.2-1.6-2.2V553h15v-6.6l-2-2.2-2.1-2.2zm.1 3.2 3.1.3 1.1 1.7 1 1.7-.6.6-.6.6-5.1-.3-5.2-.3 1.7-2.3 1.6-2.3zm21.3-3.2h-4.2l-2.1 2.3-2.2 2.3v1.4h2.8l1.2-1.5 1.2-1.5h6.8v5h-8.1l-2.8 1.5-2.8 1.4-.5 1.8-.5 1.9.8 2.2.8 2.1 2.7.7 2.8.7 3-1.2 3.1-1.1.3 1 .4 1h2.8v-4.4l1.2-5.7 1.2-5.8-1.9-2.1-1.8-2zm1.8 10.1 1.7-.1v1.1l-1.2 2.2-1.1 2.2-1.6 1.2-1.6 1.2-1.6.1h-1.7l-1.3-1.6-1.3-1.6 1.1-1.6 1-1.7 2.9-.6 2.9-.7zm-107.2 27.5-.9-.6-2.6 3.9-2.7 3.8-1.1 5.9-1.1 6 1.6 5.5 1.7 5.6 2.1 2.6 2 2.7h1.7l-1.9-4-1.9-3.9-1.1-5-1-5 1.6-6.3 1.6-6.3 1.4-2.2 1.5-2.2zm93.5-.6h-.3l-.6.7-.7.6 1.3 2.1 1.4 2.1 1.2 4.7 1.3 4.7-.4 5.9-.4 5.8-2.2 4.4-2.1 4.4.5.5.6.6 2.4-3 2.4-3 1-3.5 1-3.5v-13l-3-5.3-3-5.2zm-10.9 1h-1.3l-6.2 8.7-6.2 8.8v3.5h12v6h3v-5.8l2-.5 2-.5v-2l-2-.5-2-.5V580zm-2.6 8h1l-.3 4.7-.3 4.8-3.7.3-3.8.3v-1.7l3.1-4.2 3.1-4.2zm-60.5-1h-2.1l-1.4.9-1.4.9-3.3-.5-3.2-.5-2.1 9-2.1 8.9v1.3h4.9l1.1-4.3 1.1-4.2.6-2 .5-2 1.6-1.8 1.5-1.7h4l-.7 5.1-.7 5.2-.6 2.8-.5 2.9h5.2l.1-.8.1-.7.3-1.5.3-1.5 1.2-5.8 1.2-5.9-1.8-1.9-1.7-1.9zm27.4 1h-9v3h18v-3zm0 8h-9v3h18v-3zM153.1 699h-3.8l-2.1 2.3-2.2 2.3v2.4h2.9l1.1-2 1.1-2h4.8l1.4 1.5 1.5 1.5-.5 2.1-.6 2.2-2.9 1.1-2.8 1v2.6h6l1.2 2.5 1.1 2.4-1.7 2.6-1.6 2.5h-4.9l-1.5-1.6-1.6-1.5V719h-3v3.9l2.6 2 2.7 2.1h6.1l2.8-2.7 2.8-2.7v-6.5l-2-1.4-2-1.4 1.5-2.9 1.5-2.9v-2.2l-2.1-2.7-2-2.6zm19.9 0h-1l-1.1 2.7-1 2.8-1.5 6.1-1.4 6-1.5 4.3-1.5 4.4v1.7h2.8l.7-3.3.7-3.2 2.2-7.5 2.3-7.5.6-3.3.7-3.2zm15.6 0h-1.4l-6.1 9.1-6.1 9v2.9h12v7h3v-6.8l2.1-.5 2.1-.6-.7-1-.6-1.1H190v-18zm-2.4 7h.8v11h-9.3l2-2.3 2-2.2 1.9-3.3 1.8-3.2zm21.8-7h-.9l-2.8 4.7-2.8 4.8v16l2.5 4.4 2.5 4.5 1.1.3 1.1.4-2.3-6.8-2.3-6.8-.1-3.3v-3.3l1.2-4.7 1.1-4.7 1.4-2 1.3-1.9V699zm114.4 0h-1.3l-1.5 5.2-1.5 5.3-1 4.5-1 4.5-1.5 4.3-1.6 4.3 1.7-.3 1.6-.3 1.2-4.5 1.2-4.5 2.5-9.3 2.5-9.2zm12.4.2-4.6-.3-2.1 2.7-2.1 2.7v2.7h3v-1.9l1.6-1.5 1.5-1.6h4.6l1.7 1.9 1.7 1.8-1 2.5-.9 2.4-5.5 5-5.4 5-1.2 2.3-1.3 2.3 1 1 .9.9 7.9-.3 7.9-.3v-3l-6.3-.5-6.4-.5 5.6-4.8 5.5-4.8 1.2-4 1.2-4-2-2.7-2-2.7zm14.2-.2h-1v1.6l1.4 2 1.4 2 1.2 6.1 1.2 6.1-1.1 5.3-1.2 5.4-2 3.3-1.9 3.4 1.7-.4 1.7-.3 2.8-5.3 2.7-5.3-.4-7.5-.4-7.5-2.6-4.4-2.6-4.5zm355.5 0H701l-2 2-2 2v3h2.5l1.3-2 1.2-2h4.6l1.2 1.2 1.2 1.2v3.7l-3 1.7-3 1.7v2.5h4.6l1.2 1.2 1.2 1.2v5.5l-2.1 1.1-2 1.1-2.2-.3-2.2-.3-1-2.3-1-2.2H697v3.9l2.6 2 2.7 2.1h5.9l3-3 3-3.1-.6-3.2-.6-3.2-2-1.4-1.9-1.3 1.4-1.5 1.5-1.4V703l-2-2-2-2zm20.1 0h-1.5l-1.1 4.2-1 4.3-2.7 9.3-2.6 9.2.7.7.6.7.9-1 .9-.9 3.2-11.9 3.2-11.8.5-1.4.5-1.4zm15.7.3-.9-.3-1.6 1.7-1.5 1.8-5.1 7.6-5.2 7.5v2.4h11.9l.3 3.2.3 3.3h3l-.3-2.8-.4-2.8 2.1-.6 2.1-.5v-2.6l-2.1-.5-2-.5.2-8.3.2-8.3zm-2.7 6.7h.4v11h-8.2l1.6-2.3 1.7-2.2 2-3.3 2.1-3.2zm22.1-7h-1.3l-2.5 4.2-2.4 4.3v18l2.4 4.2 2.5 4.3h2.6l-2.2-4.3-2.3-4.2v-18l2.3-4.3 2.2-4.2zm114.3 0h-1l-1.1 2.7-1 2.8-.9 4.5-.9 4.5-1.1 2.9-1 2.9-.9 3.8-.9 3.9h2.5l1.3-4.8 1.2-4.7 2.4-8.1 2.4-8V699zm12 .1-3.5.1-1.3.5-1.2.5-1.5 2.8-1.4 2.7.6.7.6.6h2.2l1-2.3 1-2.2 2.8-.3 2.8-.3 1.5 1.2 1.4 1.1v4.9l-7 6.9-7 6.9v4.1h17v-4h-12.4l6.2-6.2 6.2-6.2v-8.5l-2.2-1.5-2.2-1.6zm14.5-.1h-1.4l2.6 5.6 2.5 5.6-.4 8.2-.5 8.1-2.2 3.7-2.3 3.8h3.3l2.7-5.8 2.7-5.7-.1-6.5-.1-6.5-2.7-5.3-2.6-5.2zM224 700h-1.9l-2.7 4.6-2.7 4.6-.9 5.2-1 5.1-2.1 2.3-2.2 2.4 2.5-.7 2.5-.6 1 2.3 1 2.3 1.6.3 1.6.3 2.4-2 2.4-1.9-.7-.8-.8-.7-1.8 1.6-1.9 1.7h-1.2l-1.2-2.1-1.1-2.1 2.1-2.9 2.2-2.9 2.4-3.6 2.5-3.7V700zm.2 2h.8v3.1l-2.6 5-2.5 5.1-.6-.5-.5-.6 1.2-3.8 1.1-3.8 1.1-2.3 1.1-2.2zm551.7-1.8-1.7-.3-2.1 3-2.1 3-1.5 4.2-1.5 4.2v5.1l-2.2 2.4-2.3 2.4 2.1-.6 2.1-.7 1.7 2.6 1.6 2.5h2.7l1.6-1.8 1.7-1.9V723l-2.5 1.6-2.4 1.6-1.1-.7-1-.6v-5.6l2.1-1.9 2.1-1.9 2.5-4.2 2.4-4.2-.3-3.3-.3-3.3zm-.2 2.7.5 1.3-1.2 3.9-1.3 3.9-1.4 1.1-1.3 1.1v-3l2.1-4.9 2.1-4.8zm-5.2 11.1h.5v1h-1v-1zm-481.2-7.9h-2.8l-2 1-2 1-2.2 3.1-2.1 3 .2 4.6.3 4.5 2.2 1.9 2.3 1.8h4.7l2.4-1.1 2.3-1 1.2-2 1.3-2-.6-.9-.6-1h-3.1l-1.8 2.2-1.9 2.3-1.8-1.1-1.8-1.1-.3-1.7-.4-1.8 1.2-2.9 1.3-3 1.8-1 1.9-.9 2 2 2.1 2.1 2-.6 1.9-.6v-2l-2.5-2.4-2.4-2.5zm550.9-.1h-2.7l-2.7 2.3-2.6 2.2-1.1 2.2-1.1 2.2v7.8l2.3 2.1 2.3 2.2h6.6l2.9-3 3-3-.6-1-.6-1h-3.5l-1.7 2-1.7 2h-1.8l-1.2-1.6-1.3-1.5.9-3.6.9-3.6 2.2-1.4 2.1-1.4 2 2.1 2 2.2 2.1-.7 2.1-.6-1.5-2.8-1.4-2.9-1.6-.6-1.7-.6zm-714 6h-9.8l-1.2 1.2-1.2 1.2v89.5l-2.7.3-2.8.3 3.2 9.5 3.1 9.5.5-1.5.4-1.5 2.6-8.3 2.5-8.2H116v-90h20v-2zm799.7 0h-9.8l-.6 1-.6 1H936l1 2.5 1 2.5 1.9 4.3 1.9 4.2 2.2 5 2.1 5 2.9 6 2.8 6 1.7 3.8 1.7 3.9 4.8 10.9 4.9 10.9H938v-5h-.5l-9.5 3-9.4 3H917v-10.9l-1-.6-1-.6v53.3l-1.5-.5-1.4-.6-.5.8-.5.7 2 1.4 1.9 1.4V887h2v-59.8l2.3.5 2.2.6-2.2-2.5-2.3-2.4V781h5l7.2 2.5 7.1 2.5h1.7v-5l28.3.2 28.2.3v4l2-.1 2-.2 5.7-2.1 5.8-2.1h5v119h3l-.2-65.8-.3-65.7h-2l-.3 5.8-.3 5.8-1.7-.5-1.7-.4-7.5-2.2-7.5-2.2-1-.2-1-.1.3 2.3.3 2.3-14.1-.3-14.1-.3-12.2-27.1-12.2-27-1.9-4.5-1.9-4.4-1.5-1.8-1.5-1.7zM259 715h-5v4h10v-4zm552.1 0h-5l-.7 1.1-.6 1.1 1 1 .9.9 4.4-.3 4.4-.3.3-1.8.3-1.7zm-507.2 2-2.4.1-1.7 1-1.8 1v3.9h3.1l.5-1.5.6-1.5h3.6l.6 1.6.6 1.5-4.5 4.8-4.5 4.8v3.3h12v-3h-7v-.8l3.5-3.5 3.5-3.5v-4.9l-1.8-1.6-1.9-1.7zm553.9 0-1.3.1-3.3 2.7-3.2 2.7v1.7l2.5-.6 2.5-.6v13h4v-19zm-626.4 5h-1.6l.7 5.6.6 5.5.6 1.5.5 1.4h2.5l1.5-1.8 1.5-1.7 2.8-4.8 2.7-4.8-.5-.6-.6-.5-1.6.5-1.5.6-1.7 3.6-1.7 3.5h-1.3l-.7-4-.6-4zm551.1 0H781l.5 2.2.6 2.3.7 4.5.8 4.5h3.7l3.9-6.4 3.9-6.3-.6-.6-.6-.6-1.7 1-1.7 1.1-1.1 2.2-1.2 2.3-1 1-1.1 1.1-.6-2.9-.7-2.9-.4-1.3-.3-1.2z"/><path d="M767.5 763H766l.2 185.7.3 185.8h2l.3-10.2.3-10.2 2.2-.4 2.2-.4-2.2-.8-2.3-.7v-96.9l14.3.3 14.2.3V1138H827v-23.8l1.3-.5 1.2-.5-1.3-.9-1.2-.9.2-48 .3-47.9h26l.3 61.2.2 61.3h30v-5.8l.1-5.7 2 3.7 1.9 3.7 1.9 1.1 2 1h6l2.4-1.1 2.5-1.1 1.2-2.3 1.2-2.3-.7-1.1-.6-1.2-2.9 3.1-2.8 3h-5.3l-2.6-2.6-2.5-2.5.4-5.1.5-5.1 1.9-1.4 1.8-1.3h6.6l1.2 2 1.3 2h2.5v-3l-2-2-2-2h-8.1l-2 1.1-2 1-1.9 3.2-1.9 3.1-.1-52.7v-52.8l15.2.3 15.3.3.3 59.3.2 59.3 1-.6 1-.6V1080h1.3l1.2-.1 3.8-3.4 3.7-3.5v-1h-2l-4 3.6-4 3.6v-53.7l.7-15.8.6-15.7H1050v-30h-33v-3h-2v3h-97.1l.3-13.3.3-13.2 65.8-.3 65.7-.2v-29h-32.1l-2.4-1.6-2.5-1.6v3.2h-95v-19h-34v-90.2l3.6 2.7 3.5 2.7.6-.6.6-.6-4.1-3.6-4.2-3.6V768h-30v27h-7.9l-.6 1-.6 1h9.1v92h-27v-92h11.1l-.6-1-.6-1H827v-27.1l-14.6.3-14.6.3.1 13.2.2 13.3h-9l-.6.9-.5 1 4.7.3 4.8.3v91l-14.2.3-14.3.3V797h12v-2.2l-6 .4-6 .3V763zm44.5 8h12v140l16.3-.2 16.2-.3.3-69.8.2-69.8 11.8.3 11.7.3.3 69.7.2 69.8h134v4h2v-4h30.1l-.3 11.7-.3 11.8-14.7.3-14.8.3V923h-2v12H881v33h134v4h2v-4h30v23h-30v-11h-2v11H881v121h-5.9l-.6.9-.5 1 3.2.3 3.3.3v21l-11.7.3-11.8.3V1114h10.1l-.6-1-.6-1H857l-.2-60.3-.3-60.2-16.2-.3-16.3-.2v121h-5.9l-.6 1-.6 1h7.1v22h-24v-22h10v-2h-10V771zm-26.2 125.3 11.7.2.3 55.2.2 55.3h-24v-25h3v-2h-3v-83.9zm47.9-.1 6.7-.1 1.8 1.6 1.8 1.6V896h10v12h-27v-11.7zm61.7-.2h11.4l1.6.6 1.6.6V908h-4.2l.5-1.4.5-1.4-3.6 1-3.7 1-7.7.5-7.8.5V896zm2.9 41.2 11.2.3.3 13.1.4 13.1-13.4.1-13.3.1 1.5-.9 1.5-1H884v-24.2l1.5.6 1.5.5v-2zM840.1 994h13.1l-.5 1.2-.4 1.3-.7 2.2-.7 2.3h3.1v6h-27v-13zm56.9 0h13v12.8l-13 .1-13 .1v-13zm-43.5 4h.5v1h-1v-1z"/><path d="M813 795h-4.9l-.6 1-.6 1h12.2l-.6-1-.6-1zm56.5 0H864v2h11v-2zm-29 140H824l.2 16.2.3 16.3h32l.3-16.3.2-16.2zm-2.1 2.2 10.5-.2.6 1 .7 1.1 1.9-.6 1.9-.6v10.7l-1 1-1 1-.9 3.2-1 3.2h3.9v7l-13.5-.1H827v-9.6l2-1.8 2-1.8V949h-4v-10.7l.5-.5.5-.5zm15.4 15.8.4 1.2-1.1 1.1-1.1 1.1v-3.1l.7-.7.8-.7z"/><path d="m834 939.5-1-.6v2l1 .6 1 .6v-2zm9.4-.5h-1.6l.4 1.2.4 1.2 1.2.4 1.2.4V939zm-5.9 2h-.5v1h1v-1zm-7 2h-.5v1h1v-1zm17.2 3.3-.7-.6v2.6l.7-.6.6-.7zM835 954h-1.3l.6.7.7.6.7-.6.6-.7zm9 0h-1v2h2v-2zm-8.3 5.3-.7-.6v2.6l.7-.6.6-.7zm12.5.3-1.1-.6-.6 1.1-.7 1 .6.6.6.7 1.1-1.1 1.1-1.1zM778 906h-1v2h2v-2zm10.5 3h-.5v1h1v-1zm-8.4 3h-.8l-.6.6-.6.7.5.8.5.9h2.8l-.5-1.5-.6-1.5zm11.9 0h-1.3l.6.7.7.6.7-.6.6-.7zm-3.5 4h-.5v1h1v-1zm4 3h-.5v1h1v-1zm-12 5h-.5v1h1v-1zm2 4h-.5v1h1v-1zm4.7 1.2-1.2-.4v2l1.6.6 1.6.6-.4-1.2-.4-1.2zm1.8 7.8h-1.3l.6.7.7.6.7-.6.6-.7zm-2 2h-1.3l.6.7.7.6.7-.6.6-.7zm-3 1h-1.3l.6.7.7.6.7-.6.6-.7zm2.7 5.3-.7-.6v2.6l.7-.6.6-.7zm2.8 7.7h-.5v1h1v-1zm-5 6h-.5v1h1v-1zm5.2.3-.7-.6v2.6l.7-.6.6-.7zm3.8 2.7h-.5v1h1v-1zm-12 6h-.5v1h1v-1zm2.5 9h-1v2.1l1-.6 1-.6v-.9zm6.5 4h-.5v1h1v-1zm-3.5 8h-1.3l.6.7.7.6.7-.6.6-.7zm-5.2 2.4-2.6-1.4-2.1 4.3-2.1 4.3v2.6l2.3-.5 2.2-.5 5.8-1.2 5.9-1.2-3.4-2.5-3.3-2.5zm-1.8.6h.6l3.3 2.4 3.3 2.5-3.9 1-3.8 1.1H777v-1.9l1.2-2.6 1.1-2.5zm5.5 11h-.5v1h1v-1zm61-100h-.5v1h1v-1zm50-4h-.5v1h1v-1zm5.5 0h-1.3l.6.7.7.6.7-.6.6-.7zm-3.5 3h-.5v1h1v-1zm-7 38.6-1.5-.5v1.9h3v-.8zm6.5 2.4h-1.3l.6.7.7.6.7-.6.6-.7zm9 0h-1.3l.6.7.7.6.7-.6.6-.7zm-7.5 3h-.5v1h1v-1zm7 3.1-2 .1-8.5 2.8-8.5 2.9h.5l.5.1 5.1 1.9 5.1 2 4.9-5 4.8-4.9zm-3.2 2 .7-.1v.7l-2.5 2.7-2.4 2.6h-2l-2.6-1.2-2.6-1.2 5.3-1.7 5.3-1.7zM845 997h-1v2h2v-2zm-8.5 6h-.5v1h1v-1zm62.9-6h-.4v3.1l1-.6 1-.6-.5-1-.6-.9zm-12.9 8h-.5v1h1v-1zm6.7-240h-6.3l.3 11.7.3 11.8 3.7.3 3.7.3 3.9-1.1 4-1 1-2.8.9-2.7-.8-2.2-.8-2.1-1-.7-1.1-.6 1.4-2 1.4-2-.6-2.2-.5-2.2-1.6-1.2-1.6-1.2zm1.3 3h4.6l.6 1.6.6 1.7-1 1.6-1 1.6-4.2.3-4.1.3V768zm.2 9.3 4.7.5 1.3 1.8 1.3 1.8-1.4 2-1.3 2.1-4.7.3-4.6.3v-9.4zm14.8-12.3h-1.6l.3 4 .2 4h2.6v-8zm-696 1H211l-1.1 4.5-1.1 4.5h-1.7l-.6-1-.6-1h-6.5l-2.9 3-2.8 3-.5 5.4-.4 5.4 2.3 1.5 2.4 1.5h6.3l6.3-.1.3-.6.4-.6.6-3.9.6-3.9 2-7.8 2-7.7V766zm-10 11h2.5l.6 2.6.7 2.7-.9 2.5-.9 2.5-1.7 1.1-1.8 1.1-1.7-1.1-1.8-1.1-.3-2.1-.3-2.1 1.6-3 1.6-3.1zm21.1-11h-1.3l-1.3 4.7-1.2 4.8-2.4 7.8-2.4 7.8v1.9h2.8l1.6-6.8 1.5-6.7 2.1-5.9 2-5.9V766zm13.2.3-4.6-.5-2.7 2.6-2.6 2.7.3 1.1.4 1.2 1.1.3 1.1.4.7-2.1.7-2.1 2.5-1 2.4-.9 1.9 1 1.9 1 .6 2 .6 1.9-1 1.9-1 2-5.1 4.2-5.1 4.3-1.4 2.8-1.5 2.8v1.1h18v-3h-13.5l6.8-6.7 6.7-6.6v-6.3l-1.3-1.8-1.3-1.8zm502.1 1.7h-20l.6 1 .6 1H760v-2zm-10.4 3.2-.4-.4-1.6 5.8-1.6 5.9-1.5 3.8-1.4 3.7v1h5v78h-5.2l.7 1.7.8 1.8 2.3 7.9 2.4 7.9.5.5.5.5.1-1.4v-1.4l.5-2.4.4-2.4 2.4-5.8 2.3-5.8-.5-.6-.5-.5H730v-78h4.7l.5-.5.5-.6-2.3-5.7-2.3-5.7-.6-3.5-.6-3.4zM296 772h-1v99h2v-21.2l1.6.6 1.6.6 4 .7 4.1.6-.6-1-.7-1.1-5-1.2-5-1.2V772zm23 .5-1-.6-.5 1.3-.5 1.3.3 36.4.2 36.4 1.3.4 1.2.5V781h2.8l8.6 2.9 8.5 2.9.3-2.7.3-2.6 10.5-.5 10.5-.6-10.5-.4-10.5-.5-.3-2.6-.3-2.6-8.2 2.8-8.2 2.8-1.7.1H320v-6.9zm-44.6 2.5h-1.1l.1 2.2.1 2.3-11 .5-11 .6 11 .4 11 .5-.1 2.2-.1 2.3h2.2l8.6-2.7 8.6-2.7-8.6-2.8-8.6-2.8zm165.2 25h-1.5l-.9 1.7-1 1.8-.7 3.2-.7 3.3h-1.7l-.6-1-.6-1h-3.2l-3.2.1-1.5 1.2-1.6 1.2-1.7 2.5-1.7 2.4v8.6l1.9 1.9 2 2 6.6-.1 6.6-.1.3-.6.4-.6.6-3.9.6-3.9 2.1-8 2-8-.5-1.3-.5-1.4zm-10.1 12h2.5l.6 2.6.7 2.7-.9 2.5-.9 2.5-1.7 1.1-1.8 1.1-1.7-1.1-1.8-1.1-.3-2.1-.3-2.1 1.6-3 1.6-3.1zm21.5-12h-1l-1 2.6-1.1 2.7-.9 4.1-.9 4.1-2.1 5.9-2 5.9v2.7h2.7l1.3-5.8 1.4-5.7 2.3-6.9 2.3-7V800zm12.2.1h-1.7l-2.1.9-2.2.9-1.6 2.3-1.6 2.2v2.6h2.8l.5-2 .5-2 2.3-.8 2.3-.9 1.8.5 1.9.4 1 1.9 1 1.9-1.1 2.1-1.2 2.1-6.4 6.3-6.4 6.3v3.2h18v-4h-12.3l6.1-6.4 6.2-6.4v-6l-3.1-2.6-3.1-2.6zm434.6 7.9h-.8v1.3l3.8 3.4 3.7 3.3h1.5v-1.9l-3.7-3-3.8-3.1zm-494 2.3-9.3-.2-1.2.5-1.3.6V832h-5v1.6l1.9 5.4 1.9 5.5.7 3.7.7 3.8.9-.6.9-.5V846l2.5-6.6 2.5-6.6v-.8h-5v-18.9l9.8-.3 9.7-.3-.2-1-.3-1z"/><path d="M148.1 811h-.9l-.7 63.5-.7 63.5.7 63.5.7 63.5.9.6.9.5V1051h6.1l-.6-1-.6-1H149v-47h27.1l-.1 31.2-.1 31.3h28.6l.5-7 .5-7 2.9-.5 3-.5-.1-1-.1-1-3.1.3-3.1.4V1002h55v4.5l-2.5 7-2.5 7v.5h5v9h-34.1l.7 2.2.6 2.3 1.4 3.4 1.4 3.3v1.5l-5.5 1.3-5.5 1.3v1.9l3.3-.8 3.2-.8h2.9l2.9-.1 2.8 7.5 2.8 7.5v1.7l.1 1.8-14.7.2-14.8.2 15.5.6 15.4.5 4.8 13 4.8 13v.5h-27v2h29.2l-.5-2.8-.5-2.7-4.1-11-4.1-11v-1.5l16.3-.3 16.2-.3-16.7-.2-16.6-.2-1-2.8-1-2.7-4.6-12.9-4.6-12.8v-.8h31v3l-2.5.6-2.5.6v1.8h5.1l-.3 2.2-.3 2.3-2.2.3-2.3.3v.7l2.5 6.6 2.5 6.6v5h1.7l1.3-5.8 1.4-5.7 1.3-3.2 1.3-3.2v-1l-2.2-.3-2.3-.3-.3-2.8-.3-2.8 2-.6 2.1-.5v-1.9l-1.7.3-1.8.3-.3-6.8-.3-6.7h5.3l-.5-1.4-.5-1.4-2.1-6.7-2.1-6.7v-2.8h33v24.1l-1.5.5-1.5.6v1.8h3v91h2v-7h2.9l8.2 2.6 8.3 2.6 1.3.5 1.3.5v-5.2h8.9l.3 9.2.3 9.3 24.5.3 24.5.2 1.5-.7 1.5-.8-24.8-.5-24.9-.5-.1-8.3-.2-8.2h10.6l-.2 1.7-.1 1.8.1.6.1.7 9.1-2.9 9.2-2.9.8.6.9.5v7l1-.6 1-.6V1085h-2v27h-4.9l-6.9-2.5-6.9-2.5H340l.3 2.2.2 2.3-10.7.3-10.8.3v-5.1h-2.3l-6.9 2.5-6.9 2.5H297v-84l3-.7 3-.6v-1.9l-3.2.7-3.1.7.6-18.8.7-18.9V953h53v1.2l-.1 1.3-1.4 2.5-1.4 2.5-.1.7v.8h1.6l2.2-4.5 2.2-4.5h29.1l-.3-14.8-.3-14.7-14.1-.3-14.1-.3-1.3-2.4-1.3-2.5H350v1.1l1 2 1.1 1.9H298v-48h-93v-48.2l1.6.6 1.6.6 4 .7 4.1.6-.6-1-.7-1.1-5-1.2-5-1.2v-13.9l-14.7.3-14.7.3.3 6.2.2 6.3H167v1.9l4.3.3 4.2.3v48l-13.2.3-13.3.3V826h11.1l-.6-1-.6-1H149v-13zm41.9 4h12v111h151.8l.5 1.2.5 1.3 1-1.3.9-1.3 11.4.3 11.4.3v23l-88.7.3-88.8.2v98.6l-1.2 1.2-1.2 1.2h2.4v11h-24V815zm-25.1 67.3 10.6.2v111h-22l-.3-2.4-.4-2.4 1.4-.8 1.3-.9h5.6l4.5-1.1 4.4-1.1-4.7-3.4-4.8-3.4h-2.4l-1.8 3-1.7 3H153v-13.9l1.8-1.1 1.7-1-1.7-1-1.8-1.1v-82.6l.6-.6.7-.6zm48.2-.3h8l-.5.9-.6.9 1.5 1.2 1.5 1.2V882h16.6l1.2 1.2 1.2 1.2V882l24.3.2 24.2.3.3 20.2.2 20.3h-82.4l4.9-5 4.9-5h-.9l-5.5 1.5-5.5 1.5H205v-34zm-.3 33.1.2-.1v1.6l-2 2.2-2.1 2.2h-4l.3-1.7.3-1.6 3.5-1.3 3.5-1.2zM206 922h1.3l-.6.7-.7.6-.7-.6-.6-.7zm33.9 31h34.9l-.5 2.2-.5 2.3 1.6-2.3 1.7-2.2h3.5l2.3 1.6 2.3 1.6-.9.9-.9.9-4.8.4-4.7.4-.7.7-.7.7 6.5-.7 6.5-.8 1.9-.6 1.9-.7-3.4-2.2-3.4-2.3 4 .3 4 .3v40l-12.2.2-12.3.3v-2.2l-1.2 1-1.3 1-27.5.1h-27.5l-1.7-.5-1.8-.5V968h2.5l-1-.8-1-.7-.2-6.8-.3-6.7zm-80.5 26h.2l3.3 2.4 3.2 2.4-.8.5-.8.5-4.2.7-4.3.7v-2.3l1.6-2.4 1.6-2.5z"/><path d="M191.5 824H186v2h11v-2zm168.1 111h-1.4l.5 1.9.5 2-1.6 2.3-1.6 2.2v1.6h1.9l1.6-3 1.5-2.9V935zM187 1049h-4.9l-.6 1-.6 1h12.2l-.6-1-.6-1zm-24.3-165.7-.7-.6v2.6l.7-.6.6-.7zm5 9-.7-.6v2.6l.7-.6.6-.7zm-10.7.7h-1v2h2v-2zm10.5 3h-.5v1h1v-1zm-8.7 3h-1l.4 1.2.4 1.2 1.2.4 1.2.4-.6-1.6-.6-1.6zm12.2 0h-1.3l.6.7.7.6.7-.6.6-.7zm-3.5 4h-.5v1h1v-1zm4 3h-.5v1h1v-1zm-12 5h-.5v1h1v-1zm7 5H165v1.8l1.5.6 1.5.5V916zm-.5 10h-1.3l.6.7.7.6.7-.6.6-.7zm-2.5 1h-.5v1h1v-1zm2 6h-.5v1h1v-1zm6.2 9.3-.7-.6v2.6l.7-.6.6-.7zm-3.2 4.7h-.5v1h1v-1zm-11 1h-.5v1h1v-1zm3.5 7h-1.3l.6.7.7.6.7-.6.6-.7zm2 9h-1v2.1l1-.6 1-.6v-.9zm6.5 4h-.5v1h1v-1zm-3 8h-.5v1h1v-1zm-2.5 14h-1.3l.6.7.7.6.7-.6.6-.7zm47.5-107h-.5v1h1v-1zm27 0h-.5v1h1v-1zm49 0h-.5v1h1v-1zm-19.5 1h-1.3l.6.7.7.6.7-.6.6-.7zm7.5 2h-.5v1h1v-1zm5.5 0h-1.3l.6.7.7.6.7-.6.6-.7zm-23.5 1h-.5v1h1v-1zm20.2 2.3-.7-.6v2.6l.7-.6.6-.7zm-52.2.7h-.5v1h1v-1zm18.2 2.3-.7-.6v2.6l.7-.6.6-.7zm41.6-.2-.8.1-8.7 2.7-8.7 2.6-.6.6-.5.6 5.5 1.8 5.6 1.7 2.6-2.3 2.5-2.4 2-2.8 1.9-2.7zm-4.3 3 1.5-.1-3.1 3-3 3.1-3.5-1.5-3.4-1.5 1.9-.7 1.8-.7 3.2-.7 3.1-.8zm-37.5.9h-.5v1h1v-1zm-30.8 1.3-.7-.6v2.6l.7-.6.6-.7zM247 899h-1.3l.6.7.7.6.7-.6.6-.7zm12.5 0h-.5v1h1v-1zm-33.9 4h-.5l-.6 1-.6 1h2.1v-2zm18.4 0h-1.3l.6.7.7.6.7-.6.6-.7zm4.5 3h-.5v1h1v-1zm-12.5 5h-1.3l.6.7.7.6.7-.6.6-.7zm-12.5 4h-.5v1h1v-1zm15 0h-.5v1h1v-1zm14 0h-.5v1h1v-1zm28.5 1h-1.3l.6.7.7.6.7-.6.6-.7zm-54 4h-1v2h2v-2zm53.5 0h-.5v1h1v-1zM237 955h-1.3l.6.7.7.6.7-.6.6-.7zm-12.5 3h-.5v1h1v-1zm15 0h-.5v1h1v-1zm14 0h-.5v1h1v-1zm12 0h-.5v1h1v-1zm16.5 2h-1.3l.6.7.7.6.7-.6.6-.7zm-2.5 2h-.5v1h1v-1zm-51.5 1h-1v3h2v-3zm53.5 1h-.5v1h1v-1zm-50.5 3h-1v2h2v-2zm51 0h-1.3l.6.7.7.6.7-.6.6-.7zm-67 1h-1.3l.6.7.7.6.7-.6.6-.7zm30.5 0h-.5v1h1v-1zm17.5 0h-1v2h2v-2zm-48.5 3h-.5v1h1v-1zm58 1h-.5v1h1v-1zm-62 1h-.5v1h1v-1zm76 0h-.5v1h1v-1zm-12 2h-.5v1h1v-1zm-32 1h-.5v1h1v-1zm-7 2h-1.4l-1.1 1.9-1 2-1 2.7-1.1 2.7 6.6-.6 6.6-.6 1.4-.9 1.5-.8-4.5-3.2-4.6-3.2zm.3 1h.3l3.5 2.4 3.6 2.4-.9.5-.8.5-4.7.7-4.8.7v-1.4l1.7-2.9 1.7-2.9zm21.3 0h-1l-.6.9-.5 1 .8.5.9.5.7-.6.6-.6V979zm-33.1 5.1-1.2-.4.4 1.2.4 1.2h.7l.7-.1.1-.7.1-.8zm55 .9h-1v2.1l1-.6 1-.6v-.9zm-20.5 3h-.5v1h1v-1zm3 0h-.5v1h1v-1zm-46 2h-.5v1h1v-1zm19 2h-.5v1h1v-1zm461.1-174h-1.3l-1.3 4.7-1.2 4.8-1.9 7-2 7-.5 1.7-.5 1.8h2.8l1.3-4.8 1.2-4.7 2.4-8.1 2.4-8V818zm13.3.3-4.4-.4-2.1 1.5-2.2 1.5-.5 2.1-.5 2 .8.5.8.5 3-3 3-3h2.2l2 2 2 2v3.4l-5.2 5-5.3 5-2.2 3-2.2 2.9.5.8.5.9H716v-3h-13.5l6.8-6.4 6.7-6.5v-6.7l-1.3-1.8-1.3-1.8zm-111.3.7h-1.5l-2.4 3.2-2.4 3.3-1.1 3-1 3-.7 3.6-.6 3.7-1.4 1.2-1.5 1.2v2.2l1.2-1.2 1.2-1.2h1.3l1.1 2.5 1.2 2.5h3.7l1.8-2 1.8-2h-1.9l-1.1 1.1-1.2 1.2-1.5-.6-1.6-.6v-5.3l3.5-4.1 3.5-4.1 1.2-3.7 1.1-3.7-.6-1.6-.6-1.6zm-.3 2h.7v3l-2.1 4.5-2.1 4.5-.9.6-.9.5V832l2.3-5.5 2.2-5.5zM330 820h-6v24.3l7.1-.5 7.1-.5 1.5-1.6 1.6-1.6-.1-3.3-.1-3.2-1.7-1.3-1.7-1.3 1.6-1.8 1.7-1.9v-2.4l-2.5-2.4-2.4-2.5zm.4 3h3.4l1.6.6 1.6.6v4.6l-1.6.6-1.6.6H327v-7zm.9 10h4.2l1.1.8 1 .7.7 1.7.6 1.6-1.8 1.6-1.8 1.6H327v-8zm15.2-13H345v4.5l.6 2.2.6 2.3.9-.6.9-.5V820zm-221.6 4h-18l.6 1 .6 1H143v-2zm537.8 1-3.2.1-2.7 1.4-2.6 1.5-1.7 4.4-1.7 4.4.7 2.4.7 2.3 1.6 1.7 1.5 1.8h6.8l2.2-1.1 2.2-1.2.7-1.1.8-1.1V838h-4.8l-.6 1.6-.6 1.5-2.2-.3-2.3-.3-.3-3.3-.3-3.3 1.6-2.5 1.5-2.4h4.1l.5 1.5.6 1.5h4.8v-2.6l-2-2.2-2.1-2.2zm-438.3 4.3-1.4-.5v2.2l2.3.9 2.2.8 3.3.8 3.2.7v-2.1l-4.1-1.1-4-1.1zm702.4 3.7-1.3.1 3.9 3.4 3.9 3.5h1.1l1.1-.1-3.7-3.4-3.8-3.5zm-685 1h-.8v1.8l5.2 1.6 5.3 1.5.9-.9.9-.9-1.4-.5-1.4-.5-4-1-4-1.1zm390.8 0H627v3.1l5.2-.3 5.1-.3.5-1.3.4-1.2zm45.7 1.4-3-.6-2.2 2.3-2.1 2.3v1.6h4v-2h5v2.9l-4.5 5.1-4.5 5.1v1.9h12v-3h-6v-1.2l3-2.8 3-2.8v-5.7l-.8-1.2-.8-1.3zM260.5 839h-1.6l.5.9.6.9 4.4 1.1 4.5 1.1h2.1v-1.8l-4.4-1.1-4.5-1.1zm344.1 2.2-1.9-.4.6 2.4.6 2.3.7 4.3.7 4.3 2-.3 2-.3 3.9-6.3 3.9-6.3-2.3.3-2.3.3-1.5 3.2-1.5 3.3h-2.4l-.3-3.2-.3-3.3zm-325.3 2.1-1.6-.6.5 1.3.4 1.4 4.9 1.3 4.9 1.2.4-.4.4-.4-.6-.9-.6-1-3.6-.6-3.5-.7zm666.3 4.3-4.5-3.6-.5.9-.6.9 4.4 3.6 4.5 3.6.5-.9.6-.9zm-629.4 5.5h-2.7l2.1 1 2.1 1.1 1.8 3.1 1.9 3.1.3-1.1.4-1.2-1.6-3-1.6-3.1zm46.2-.1H327v2h72.1l-.6-1-.6-1zm593.4 4h-1.3l4.2 4.2 4.2 4.2.8-.8.8-.8-3.7-3.4-3.8-3.4zm-630 10.4-.8-.5v1.9l1.5 3.6 1.5 3.6h-25v2h96v-2h-68.7l-1.8-4-1.8-4.1zm643.8 1.6h-1.1l4 4 4 3.9 1.3.1h1.2l-.1-.8v-.7l-4.1-3.3-4-3.2zm-844 7h-17.5l-.6 1-.6 1H143v-2zm-10.4 3.6-.8-.4-2.3 8.1-2.4 8.2-.5 1.7-.4 1.8h5.2v30.4l1.1-1.1 1-1-.3-14.2-.3-14.1h4.2l.6-.6.6-.6-2.5-6.5-2.4-6.5v-4.7zm278 0-.9-.5-1.3 5.7-1.4 5.7-1.3 3.2-1.3 3.2v2.1h5v21h2v-21h5v-1.7l-2.5-6.1-2.5-6.2v-4.9zm591.6 1.4h-.8v1.8l4 3.2 4.1 3.2.6-.6.7-.7-3.9-3.4-4-3.5zm-651 3h-.8v1.1l2.5 5 2.6 5 .8-.6.9-.5-2.7-5-2.6-5zm406.2 6h-18.9l-.6 1-.6 1h40.2l-.6-1-.6-1zm258.8 3h-.8v1.5l4 3.2 3.9 3.3h1.3l1.3-.1-4.5-3.9-4.5-4zm-656.9 8h-.9v.7l2.6 4.7 2.6 4.6h1.7l-1.6-3.8-1.5-3.7-1-1.3-1-1.2zm674.1 41h-1v11h2v-11zm-654 13h-1v83h2v-83zm20 0h-1v107.9l1 .6 1 .6V955zm-36.7 13.9-.9-.9-2.3 4.5-2.3 4.5.4 1.2.4 1.1 2.8-4.7 2.8-4.8zM452 980h-3.1l-2.4 2.5-2.5 2.4v2.1h2.9l1.1-2 1.1-2h5.8l1.1 2 1.1 2-1.1 2-1.1 2-2.4.6-2.5.6v1.5l3 .7 3 .6 1.2 2.4 1.1 2.5-1.7 2.6-1.6 2.5h-4.9l-1.9-2.5-2-2.5H444v2.6l1.5 2 1.4 2.1 3 .6 3 .6 3.2-1.1 3.1-1.1 1.3-3 1.3-3.1-1-2.7-.9-2.7-1.5-.6-1.5-.6 1.5-2.2 1.6-2.2v-3.7l-2.5-2.4-2.4-2.5zm20 0h-.9l-2.6 8.7-2.5 8.8-1.4 4.7-1.4 4.8 1 .6.9.6.3-.3.2-.4 2.3-7.5 2.4-7.5 1.3-5.5 1.3-5.5.1-.8v-.7zm16.1 0h-.9l-3.1 3.9-3.2 4-3.4 5-3.5 5.1v2.9l5.8.3 5.7.3.3 2.7.3 2.8h2.9v-6h4v-2.8l-2-.5-2-.5V980zm-2.9 8h.9l-.3 4.7-.3 4.8-3.7.3-3.8.3v-1.3l3.2-4.4 3.1-4.4zm22.3-8h-1.6l-3.1 6.5-3 6.6.4 5.7.4 5.7 2.5 5 2.5 5 1.6.3 1.5.3-2.5-5.2-2.6-5.1.1-7.8v-7.9l2.7-4.5 2.7-4.6zm114.3 0h-1.5l-3.1 11.2-3.1 11.3-.7 2.9-.7 2.9 1.4-.5 1.3-.4.8-3 .8-2.9 2.4-9 2.5-9 .6-1.8.7-1.7zm11.4 0-1.7.1-2 1.1-2 1-1.2 1.6-1.3 1.6v2.6h3l1-2.5 1-2.5h5.9l1.5 1.6 1.6 1.5v3.3l-6.8 6.5-6.9 6.6-.5 2.2-.6 2.3H642v-3h-13.5l6.2-5.8 6.2-5.8.7-2.8.7-2.7-1.2-2.5-1.1-2.4-2.6-1-2.5-1zm14.8 0h-1v1.6l.9.9.8 1 1.7 4.9 1.6 5v7.2l-1.6 5.5-1.6 5.4-.9 1-.9.9v1.6h1.9l2.8-4.8 2.8-4.7v-16l-2.8-4.8-2.8-4.7zm-123.1 2.5-1.4-1.4-1.7 1-1.6.9-2.2 3.4-2.1 3.5-.9 5.7-1 5.8-1.5.8-1.5.9v1.7l2-.5 2-.5v3.2l2.4.6 2.4.6 2.1-1.2 2.1-1.1v-1.9h-1.3l-1.8 1.6-1.8 1.6-1-.7-1.1-.6v-5.4l3.3-4.1 3.3-4.2 1.4-4.1 1.3-4.2zm-1.7.5h.8v2.9l-1 2.7-1 2.6-2.1 2.7-2.1 2.6.7-3.5.8-3.5 1.5-3.2 1.6-3.3zm-187 3h-.8l-2.2 4.5-2.2 4.6v.9h1.6l2.2-4.4 2.2-4.3V986zm251.7 1H585l-3.6 3.3-3.5 3.2-.5 4-.5 4 1.3 2.4 1.3 2.5 3 .8 3 .8 3.2-1.1 3.1-1 1.6-2.4 1.6-2.5-2.5-.6-2.4-.6-1.6 1.6-1.6 1.6h-4l-.5-1.5-.6-1.5.6-2.5.7-2.6 1.9-1.9 2-2h1.9l1.5 1.5 1.5 1.5h4.1v-2.9l-2.6-2-2.7-2.1zm85.8 7.2-10.7-.3v2l10.3.3 10.2.3 22.3 33.3 22.2 33.4v26.8h-3.7l-.6.6-.6.6 1.4 3.7 1.4 3.6 1.7 6 1.7 6 1.7-6 1.7-6 1.5-3.7 1.6-3.6-.6-.6-.5-.6H730v-55h4.7l.5-.5.5-.6-2.3-5.8-2.4-5.8-.4-2.4-.5-2.4v-1.4l-.1-1.4-.5.5-.5.5-2.4 7.9-2.3 7.9-.8 1.7-.7 1.8h5.2v24.1l-1-.6-1-.6v-1.9l-4.7-6.8-4.8-6.8-1-1.7-1-1.6-11-16.3-11-16.3-.8-1.5-.7-1.5-3.3-4.5-3.4-4.5zM558 996h-5v3h10v-3zm451.2 0h-1.2l-3.8 3.4-3.7 3.4.8.8.8.8 4.2-4.2 4.2-4.2zm-404.7 1.7-2-.6-2 1.1-2 1.1-.7 1.1-.8 1.1v1.5h4v-2.1l2.2.3 2.1.3.4 1.2.4 1.1-5.1 5.7-5.1 5.6.6.9.6 1H609v-4h-7.1l3.6-3.7 3.5-3.6v-5.5l-1.2-1-1.3-1zm445.2-.7h-.4l-.6.7-.7.6v134.6l1 .6 1 .6V997zm-721.4 5h-.8l-2.6 5-2.7 5 .8.5.8.5 1-1.3 1-1.2 1.6-3.9 1.6-3.8v-.8zm202.5 1.2-1.8-.3v4.2l1.1 4.5 1.1 4.4 1 .6.9.6 1.5-1.3 1.5-1.3 2-3.5 1.9-3.6 1.6-2.3 1.6-2.2h-4.1l-2.5 4.2-2.5 4.2-.5-1.4-.5-1.5-.3-2.5-.3-2.5zm464.9 5.2-.6-.6-4.3 4.1-4.3 4 1.6.1h1.5l3.4-3.5 3.4-3.5z"/><path d="M739.9 1012h-20l.6 1 .6 1H760v-2zm-419.6 7.7-1-.6-.9.8-.9.9-3.8 1.2-3.7 1.2.5.8.5.8 3.8-1 3.7-1 1.3-1.3 1.4-1.3zm14.3-.6h-3.1l-2.2.9-2.3.9-2 3.3-2 3.3v5.6l1.4 3.3 1.4 3.3 2.3 1.7 2.3 1.6h7.8l2.9-2.9 2.9-2.9v-2.2h-2.8l-1.6 2.5-1.6 2.5h-7.7l-1.6-1.8-1.7-1.9v-11l1.8-1.6 1.9-1.7h6.3l1.7 2 1.7 2h2.6v-2.9l-2.6-2-2.7-2.1zm13.9-.1h-1.6l.3 4.2.3 4.3h2l.3-4.3.3-4.2zm632.7 2h-.8l-3.9 4-3.9 4h2.2l3.6-3.2 3.6-3.2v-1.6zm-698.3 9.2-2.4.1-3.2.4-3.3.4v2.7l5.1-1.3 5.1-1.4.6-.5.5-.6zm684.4 3.8-.8.1-3.8 3.5-3.9 3.6.6.6.6.5 3.7-2.9 3.7-3 .4-1.2.4-1.2zm-721.5 5.1-2.3.1-2.9.7-2.9.6-.5 1.4-.5 1.4 1.6-.6 1.6-.6 4-1.1 4.1-1.1v-.9zm708.6 7.6-1-.6-4.2 3.9-4.3 3.8.8.5.8.5 4.4-3.7 4.4-3.8zm-786.5 2.3H163v2h11.1l-.6-1-.6-1zm149.9.1-1.3.1-8.5 2.8-8.5 2.8 1.5.6 1.5.5 6.5 2 6.5 1.9 1.8.7 1.7.7v-5.2h18.5v19.5l31.8.3 31.7.2v-2h-61v-18h19.9l.3 2.3.3 2.3 9.5-3 9.5-3-2-.4-2-.4-7.4-2.4-7.4-2.4h-.6l-.3 2.2-.3 2.3-20.2.3-20.3.2v-5zM518 1056h-.9l-1.2 4.2-1.1 4.3-2.5 8.5-2.5 8.5-.1.9-.2.8 1.2.5 1.2.4 1.2-4.3 1.2-4.3 2.3-8.1 2.4-8v-3.4zm12.3.1h-1.8l-2.2.9-2.2.9-1 2-1.1 2v2.1h2.7l1.1-2.5 1.2-2.5h5.6l1.2 1.2 1.2 1.2v4.8l-7 7-7 7v2.8h18.2l-.4-1.3-.5-1.2-6.3-.5-6.4-.5 4-3.4 3.9-3.5 2.5-3.2 2.6-3.1-.2-2.9-.2-2.9-.1-.7-.1-.7-3-1.6-2.9-1.5zm-111.1 1.9h-1.9l-1.6 1.8-1.6 1.7-2 4.5-2.1 4.5v5.9l-2.2 2.3-2.1 2.3h2.2l.7-1.1.7-1.2 1.4 2.7 1.4 2.6h4.5l1.2-1.2 1.2-1.2v-1.6l-2.3 1.5-2.4 1.5-.6-.7-.7-.6v-6.4l2.1-1.9 2.1-1.9 1.9-3.7 1.9-3.7v-6.1zm-.1 1.5.8.5-1.5 4.5-1.5 4.4-1.5 1.2-1.4 1.2-.4-.4-.4-.4 2.5-5.7 2.5-5.8zm520-.4-.6.2-3.9 3.8-4 3.9h2.9l3.7-3.4 3.7-3.4-.6-.6-.6-.6zm-453.1 4.7-2.5-.6-3.2.9-3.1.9-2.1 3.4-2.1 3.3v7.1l1.9 2.3 1.9 2.4h8.2l2.6-2.7 2.6-2.6-.6-1.1-.7-1.1h-3.7l-.6 1.5-.5 1.5h-5.2l-.6-1.6-.6-1.5.9-3.1.9-3.1 2.1-1.4 2.2-1.4 1.5 1.6 1.6 1.5h4.1v-3.8l-1.2-.9-1.3-1zm-31.8 8.2h-4.9l-.6.6-.6.7.5.8.5.9h9.9v-3zm47.1.3-.8-.2-3.2 2.9-3.3 3v3.1l1.9-1.1 2-1h1.1v14.1l1.6-.3 1.6-.3v-19.9zm-308.7 6.7h-1.3l-1.7 6.2-1.8 6.3-1.9 6.7-1.9 6.6v2.4l1.2-.4 1.2-.4 1.2-4.5 1.2-4.4 2.5-9.3 2.6-9.2zm11.9 0h-4.4l-2 2.6-2.1 2.7v2.7h3v-1.9l1.6-1.5 1.5-1.6h4.8l1.5 1.6 1.6 1.5v2.8l-6.1 5.8-6 5.8-1.5 2.7-1.4 2.7v1.1h18v-2.9l-6.6-.3-6.7-.3 6.2-6 6.1-6 .6-3 .6-3-2.2-2.8-2.1-2.7zm221.5 0h-2v1.5l.9 3.5.9 3.5.6 2.7.6 2.8h2.9l3.7-5.7 3.6-5.6.5-1.4.5-1.3h-3.7l-2.4 4.2-2.4 4.2-.8-1.9-.8-2v-2.3l-.1-2.2zm-332.1 1h-1.8l-2.7 4.6-2.7 4.7-.8 5-.8 5-1.8 2-1.8 2 2-.7 2-.6 1 2.3 1 2.2 2.1.3 2 .3 1.9-2.1 1.8-2h-3.2l-.6 1-.6 1H88v-6.9l1.3-.8 1.2-.8 2.4-3.4 2.4-3.4.8-3.5.7-3.4-.5-1.4-.5-1.4zm.3 2h.8v3.1l-2 3.9-2 3.9-1 .6-1 .6v-.8l1.1-3.4 1.1-3.4 1.1-2.3 1-2.2zm817.7 3h-1.5l-3.4 3.5-3.4 3.5.8.7.7.7 4.2-4.2 4.2-4.2zm-752.3 1h-3.1l-3.2 2-3.2 1.9-1.1 4-1.1 4 .7 2.5.6 2.5 1.9 1.7 1.9 1.7h6.1l2.7-2 2.7-2 .3-1.5.3-1.5-2-.6-2-.5-1.7 1.9-1.7 1.9h-3.6l-.6-2-.6-2 .7-2.3.6-2.2 1.6-1.8 1.5-1.7h3.8l.5 1.5.6 1.5h4.8v-2.9l-2.2-2.1-2.2-2zm-29.9 8h-4.4l-.6.7-.7.6v2.7h10v-4zm45.8 2.6-2-.6-2.5 1.3-2.5 1.3-.3 1.7-.3 1.7h3.2l1.6-1.5 1.5-1.6 1.4 1.2 1.4 1.1v1.9l-4.5 4.7-4.5 4.7v3.6l5.7-.3 5.8-.3.3-1.8.3-1.7h-7.5l3.7-3.8 3.7-3.8v-5.2l-1.2-1-1.3-1zM898 1098l-1.5.1-3.2 2.9-3.3 3v2h1.6l3.9-4 3.9-4zm-796.6 4h-1.5l.7 5.2.7 5.3.9 1.7.9 1.8h1.7l3.8-5.8 3.7-5.7 1-1.3.9-1.2H110l-2.2 3.5-2.3 3.5H104v-3.8l-.6-1.6-.6-1.6zm638.5 10h-20l.6 1 .6 1H760v-2zm45.6 0H780v2h11v-2zm57.1 0h-5.5l-.6 1-.6 1H848v-2zm67.7.3-1.3-.5-.5 1.4-.5 1.3.4 2.8.3 2.7.8.3.9.2.6-2.5.6-2.5-.1-1.4v-1.4zm27 3.7-.8.1-7.4 2.4-7.4 2.5h-3l.6.6.6.6 6.8 2.3 6.8 2.3 2.3.6 2.2.7v-5.1h89v5h1l7.7-2.6 7.8-2.6 1.5-.5 1.5-.4-9-3-9-2.9h-1.5v5h-89v-5zm-541.8 1.1h-1l-2.2.9-2.2.9-1 2-1.1 2v2.1h3v-2.7l2.3-.9 2.2-1 1.7.4 1.7.3.6 1.8.5 1.8-.6 1.7-.6 1.6-2.4.6-2.4.6v1.3l3.3 1.5 3.2 1.5.3 2.2.3 2.2-1.1 2-1.1 2.1h-5.7l-2-2.7-1.9-2.6-1.1.7-1.2.7v1.6l2.5 2.7 2.4 2.6h7.8l2.1-2.3 2.2-2.3v-6.2l-.6-1.6-.6-1.6H400v-1.1l1.5-1.5 1.5-1.5v-5.9l-3.2-2-3.3-2zm20.3-.1h-1.5l-1.8 6.2-1.8 6.3-1.8 6.5-1.8 6.5-.1 1.2v1.3h1.8l1.6-4.8 1.5-4.7 2-7.5 2-7.5.6-1.8.7-1.7zm35.3 0h-.9l-1 1.2-1 1.3-2.1 4.2-2 4.1-.7 4.1-.7 4.1 2.3 6.9 2.2 7 1.9 1.7 1.9 1.7.5-.5.5-.5-2.5-5.4-2.5-5.4v-13.7l2.5-5 2.5-5v-.8zm113.9 0h-1.1l-.4 1.2-.4 1.3-2.5 9-2.5 9-1 3.7-.9 3.8h2.5l1.7-6.3 1.8-6.2 1.9-6.7 1.9-6.6v-2.2zm11.8.1h-1.3l-2.2.9-2.2.9-1.6 2.5-1.7 2.5.7 1.1.6 1h2.9v-4l2.6-1.1 2.7-1 2.3 1.6 2.4 1.5v4.4l-6.4 6.1-6.4 6-1.1 2.2-1.1 2.2v1.1h18v-4h-12.5l6.3-6.2 6.2-6.1v-5.5l-.6-1.7-.6-1.6-2.9-1.4-2.8-1.5zm14.1-.1h-.9v.8l2.6 5.7 2.6 5.7-.4 7.2-.5 7.1-2.2 4.3-2.2 4.4.5.5.5.5 1.1-.7 1.2-.8 2.4-5.4 2.4-5.4v-11.4l-1.3-3.5-1.2-3.5-1.9-2.8-1.8-2.7zm-159.9 1h-1.6l-5.8 8.2-5.9 8.3-.5 1.7-.4 1.8H429v7.1l1.8-.3 1.7-.3-.3-2.8-.4-2.8 2.1-.6 2.1-.5v-2.8h-4.1l.3-8.5.3-8.5zm-2.2 11.4.3 4.8-.4.5-.5.4-3.5-.3-3.6-.3 3.7-5 3.7-5zm38.1-10.2-1.5-.3-2 2.3-2.1 2.3-1.5 3.5-1.6 3.5-.7 4-.7 4-1.6 1.9-1.7 1.9 2.3-.7 2.2-.7v2l1.6 1.5 1.5 1.6h2.8l1.5-1.6 1.6-1.5v-1.9l-2.5 1.6-2.4 1.6-1.1-.7-1-.6v-4.8l2.8-3.3 2.8-3.3 1.8-4.1 1.8-4.2-.4-1.8-.3-1.9zm-.1 3.2.4 1.7-1.9 3.6-1.9 3.7-1.2.4-1.3.4 1.7-4.4 1.7-4.3 1.1-1.4 1.1-1.4zm64.7 2.6-3 .1-2.3 1.2-2.2 1.3-1.4 1.9-1.3 2-.7 3.2-.7 3.2 1.5 2.9 1.5 3 1.6.6 1.7.6h6.2l2.8-2.7 2.8-2.7v-1.4l-2.2-.5-2.2-.6-1.9 2-1.9 2-1.6-.3-1.7-.3-.3-3.3-.3-3.3 1.6-2.5 1.5-2.4h3.8l1.1 1.4 1.2 1.4 1.9-.5 2-.5v-2.7l-2.2-1.5-2.2-1.6zm-30.5 8h-5v3h10v-3zm47.3 2-.8.1-3.3 2.7-3.2 2.7v2.5h1.9l.6-1 .6-1h1.9v13h3v-19zm478.7 5h-1l-1 2.6-1 2.5v2.4l-2.5 8-2.5 8v4.5h1.7l1.6-5.8 1.7-5.7 2-7.1 2-7.1v-2.3zm12.2.1-1.7.1-1.5.5-1.5.6-1.7 1.5-1.8 1.5v3.7h2.5l1-2.3 1-2.2 2.8-.3 2.8-.3 1.5 1.2 1.4 1.1v4.9l-7 6.8-7 6.7v3.4h18v-3h-13v-1.1l6-5.5 5.9-5.5.6-2 .7-2-1.3-3.1-1.2-3-2.4-.9-2.4-.9zm-565.3.9h-2.1l.6 3.2.7 3.3.6 3.2.6 3.3h3.5l4.1-6.5 4-6.5h-4.5l-1.7 3.5-1.7 3.5h-2v-7zm455.4.3-1.2-.4-2.3 2.6-2.3 2.7-1.7 4.1-1.7 4.2v2.6l-.1 2.6-2.1 2.7-2 2.6h2l.7-1.1.7-1.2 1.4 2.7 1.4 2.6h4.5l1.2-1.2 1.2-1.2v-1.6l-2.6 1.2-2.5 1.2-.9-1.5-1-1.4.6-2 .6-2 2.3-2.5 2.3-2.5 1.6-3.3 1.7-3.3-.3-3.1-.3-3.1zm-.5 3 .3 1.7-1.1 3.4-1.1 3.4-2.1 1.8-2.1 1.9.8-2.5.8-2.5 2.1-4.5 2.1-4.5zm65.5 2.7-2.8.1-2.7 1.5-2.8 1.5-1.5 2.9-1.5 2.9v6.9l1.8 2.1 1.7 2.1 3 .6 3 .5 3.5-2.3 3.5-2.4.3-1.7.3-1.7h-4.9l-1.2 1.5-1.3 1.6-2.1-.3-2.1-.3-.3-3.1-.3-3 2.1-2.7 2.1-2.7h3l.5 1.5.6 1.5h4.8v-3l-2-2-2-2zm-30.8 9H958v3h11v-3zm47.3 2-1.3.1-3.3 2.7-3.2 2.7v1.7l2.5-.6 2.5-.6v13.1l1.8-.3 1.7-.3.3-9.3.3-9.2zm-75.3 5h-1.6l.5 1.7.5 1.8.6 3.5.6 3.5.5 1.7.5 1.8h2.8l3.7-5.7 3.6-5.6.5-1.4.5-1.3h-4l-1.6 3.5-1.7 3.4-.9.6-.9.6-.7-2.8-.6-2.8-.4-1.3-.3-1.2zm-837.8 7.1h-1.2l-2.1 2.7-2.1 2.7-1.6 3.1-1.6 3.2-1.1 4.7-1.1 4.7 1.2 5.9 1.2 5.9 1.2 1 1.3 1.1-.5-9.8-.5-9.8 4-7.8 4-7.7zm20.2-.1h-1.8l-.7 4.5-.6 4.5h-2.7l-.6-1-.6-1h-3.8l-2.6 1.2-2.6 1.2-1.5 3.4-1.4 3.4v6.6l1.8 2.2 1.8 2.2 3-.1 2.9-.2h5.5l.4-2.2.5-2.2 2.4-11.3 2.4-11.2zm-9.3 9h.7l1.9 1.7 1.8 1.6v5.8l-1.5 2.8-1.4 2.8-1.8.5-1.8.4-1.7-.4-1.8-.3-.6-2.5-.6-2.4.6-2.6.7-2.6 2.4-2.4 2.4-2.4zm16.4-9h-.8l.5 8.2.5 8.3-1.1 4-1.1 4-3.4 5.2-3.5 5.3h2.6l3-3.8 3-3.7 1.8-5 1.9-4.9v-10.1l-1.3-3.8-1.3-3.7zm32.1 0h-6l-1.5 1.5-1.5 1.5-.6 2.1-.7 2.1 1.2 2.4 1.3 2.3 5.4 2.6 5.4 2.5.6 1.6.6 1.7-1 1.6-1 1.6h-9.8l-1.3-2.8-1.3-2.7h-3l.3 2.7.3 2.6 2.7 2 2.6 2h8.1l2.6-1.7 2.6-1.7.8-2.2.8-2.2-.9-2.6-.9-2.6-5.9-2.8-6-2.9v-4.4l2.9-1.2 2.9-1.2 3.1 1.6 3.1 1.7v2.9h2.9l.5-.8.5-.8-1.9-3.2-2-3.2zm70 0h-1.7l-2.2 10.2-2.2 10.3-.6 3.2-.6 3.3h3l1.7-7.8 1.7-7.7 1.3-5.8 1.3-5.7zm8.6 0h-1.6l-.4.7-.5.8-2.1 11-2.2 11-.5 1.8-.6 1.9 1.8-.4 1.7-.3 1.3-5.5 1.3-5.5 1.1-6.2 1-6.2.6-1.5.6-1.6zm52 0h-1.5l-.6 1.6-.6 1.6v3.3l-1 1.5-.9 1.5-1.3-1.3-1.2-1.2h-5.1l-2.1 1.8-2.2 1.7-1.1 2.2-1.1 2.2v8.8l1.8 1.5 1.7 1.5 1.5.5 1.5.5 2.8-1.4 2.7-1.4v2.1h2.6l2.2-10.3 2.2-10.2.6-3.3.6-3.2zm-7.2 10.4 2 1.3.3 3.7.3 3.6-3 3-2.9 3h-2.1l-1.5-1.6-1.6-1.5v-5l1.5-2.9 1.5-2.9 1.7-1 1.8-1zm87.3-10.4h-1.4l-3.1 13.1-3 13.1 1.4.5 1.4.5.5-.4.5-.5 1-6.2 1.1-6.1 3-2.5 3.1-2.6 1.1.4 1.1.4-.1 4.4v4.4l-.8 4.2-.9 4.3h3l1.8-7.9 1.8-7.9-.6-1.6-.6-1.5-2.7-.7-2.7-.7-1.8 1.2-1.9 1.1h-1.1l.7-4.5.6-4.5zm75.8 0h-1.5l-.5.8-.4.8-2.6 12.4-2.6 12.4.5.4.4.4 1.4-.5 1.3-.5 1.3-6.5 1.3-6.6 1.6-1.4 1.7-1.4 1.6-.6 1.6-.5 1.3.8 1.4.8-1.3 5.9-1.3 5.8-.5 2.2-.5 2.3h3.7l1.6-8 1.6-8-1.5-2.1-1.4-2.1-2.7.5-2.6.4-1.9.8-1.9.8.7-2.9.7-2.9.5-1.8.5-1.7zm74.9 0h-1.4l-.4.7-.4.8-.7 3.7-.7 3.8h-1.8l-.6-1-.6-1h-5.7l-3.1 3.1-3.1 3.1v10.3l.8 1.1.7 1.1 2.1 1.1 2.1 1.1 2.8-1.5 2.8-1.5.8 1.3.8 1.3.9-1 .9-1 2.1-9.5 2-9.5.6-3.3.6-3.2zm-7.3 10.2 1.8.9.6 2.4.6 2.5-1.2 3.1-1.3 3.1-2.3 1.4-2.3 1.5-2-1.1-2.1-1.1v-7l1.5-2.9 1.5-2.8 1.7-.4 1.8-.5zm-338.4-3.2h-.9l-.4 1.2-.4 1.3-1.6 6.8-1.5 6.8v3.9h2.8l1.1-4.4 1.1-4.5v-3.9l3-2.6 3.1-2.5 1.4.5 1.5.6v2.3l-1.5 6-1.4 6-.1 1.3v1.3l1.7-.3 1.6-.3.4-2.6.3-2.5 1.3-4.4 1.2-4.3 2.8-2.1 2.7-2 1.1 1.1 1.1 1.1-1.1 7-1.1 7.1v2.1h2.7l1.8-8.1 1.9-8.1-1.1-1.6-1-1.7-2.6-.3-2.6-.3-2.4 1.6-2.4 1.5-1.3-1.5-1.2-1.5h-4.4l-1.2 1.2-1.2 1.2-1.2-1.2-1.2-1.2zm37.8 0-3.1.1-2.7 1.5-2.8 1.5v2.9h2.6l1.7-2 1.7-2h3.8l1.2 1.5 1.2 1.5-.6 1.5-.5 1.5h-7l-2.5 1-2.6 1-1.1 2.4-1.1 2.3 1.2 2.2 1.1 2.2 2.2.8 2.2.9 3.3-1.4 3.2-1.3v1.9h3.8l.7-8.7.7-8.7-1.8-1.3-1.8-1.3zm2.2 11.2.3.7-1.1 2.1-1.1 2.1-2.2.8-2.1.8-1.7-.4-1.8-.5-.4-1.2-.5-1.3.8-1.3.8-1.3 4.4-.6 4.3-.6zm45.5-11.2-2.8.1-2.4 1.3-2.4 1.3-1.3 3.3-1.4 3.2v3.2l.1 3.1 1.3 1.7 1.3 1.7 2.4 1 2.5.9 2.9-1.3 3-1.2 1.9-2.1 1.9-2.2-1.7-.6-1.7-.7-1.4 2-1.4 2.1-2 .5-2 .5-2-1.5-2.1-1.4v-3.9h15v-6.1l-2.5-2.4-2.4-2.5zm-.2 2h.9l2 2 2 2v2h-11v-1.9l2.6-2 2.7-2.1zm41.2-1.9h-1.8l-2.1 1-2.1 1.1-1.7 3-1.8 2.9v7.1l2.3 2.4 2.2 2.4h4.6l.6-1 .6-1h2l-.6 2.2-.7 2.3-1.6 1.2-1.6 1.3h-4.4l-.6-1.5-.5-1.5h-3.2l.3 1.7.3 1.8 2.8 1.3 2.8 1.3 3-.6 3-.7 1.7-2.5 1.6-2.6 2.2-10.4 2.1-10.4-1-.6-.9-.6-.9 1.4-.8 1.4-2.1-1.3-2-1.2zm.4 1.9h1.3l1.6 2.5 1.6 2.5-.6 3.2-.6 3.2-1.7 1.8-1.6 1.8h-4.3l-1.2-1.2-1.2-1.2v-5.7l1.2-2.2 1.1-2.2 1.6-1.2 1.6-1.2zm21.6-2-2.8.1-2.6 1.4-2.7 1.5-1.1 3.1-1.1 3.2v5.5l.6 1.7.7 1.7 3.1 1.3 3 1.3 2.6-1 2.5-.9 1.7-1.6 1.8-1.6v-2.7h-2.5l-1.2 1.9-1.1 1.8-2.1.6-2 .5-2-1.5-2.1-1.4v-3.9h15v-6.1l-2.5-2.4-2.4-2.5zm-.2 2h.9l2 2 2 2v2h-11v-1.9l2.6-2 2.7-2.1zm30.3-2h-3.1l-1.7 1.9-1.8 1.9.4 2.3.3 2.3 4.4 2.6 4.4 2.5.5 1.3.4 1.2-2.5.9-2.5 1-2-.6-2-.5-.5-1.9-.5-1.9h-3.3l.3 2.2.3 2.3 3.5 1.7 3.5 1.7 3-.7 3-.8 1.5-2.7 1.5-2.7-1.1-1.7-1.1-1.8-4.1-2-4.2-2v-2.3l1.5-1.2 1.6-1.3 2.4 1.1 2.5 1.2v2.9l1.5-.5 1.5-.6v-2.7l-2.2-1.5-2.2-1.6zm41.1 0h-3.1l-2.2 1.6-2.2 1.5-1.5 2.9-1.5 2.9v6.7l2 2.2 2.1 2.2 1.7.1 1.7.1 2-.2 2-.2 2.8-2.6 2.7-2.6-1-1-1-1-2.2 2.1-2.3 2-1.6.6-1.7.5-2.1-1.4-2.1-1.5v-3.9h15.3l-.6-4.1-.5-4.1-1.9-1.3-1.8-1.4zm-.1 2h.9l1.9 1.7 1.8 1.6v2.7h-11.1l1.1-2 1-1.9 1.8-1 1.7-1zm21.1-2h-3.2l-2.7 2.1-2.6 2v1.9h2.1l2.9-2.2 3-2.1 2.5 1.1 2.6 1.2-.3 1.8-.3 1.7-5.3.6-5.3.7-2 1.8-1.9 1.7v3.5l.6 1.7.7 1.7 2.4.9 2.5.9 3.1-1.5 3.2-1.6.3 1.1.4 1h2.8v-4.4l1.2-5.9 1.2-5.9-2.3-1.9-2.3-1.9zm2.8 10.1.7-.1v1.1l-1.5 2.8-1.4 2.8-2.2.6-2.2.6-1.9-1-1.8-1v-2.8l1.2-.7 1.2-.8 3.6-.7 3.5-.7zm12.8-10.1h-1l-.4.7-.5.8-1.6 7.5-1.7 7.5-.5 1.7-.5 1.8h3.9l1.1-6.2 1.1-6.1 2.1-2.3 2.1-2.3 2.2-.3 2.1-.3-.2-1-.2-1-1.6-.3-1.6-.4-2 1.8-1.9 1.7v-3.3zm39.2 0-2.8.1-2.6 1.4-2.7 1.4-1.6 4.2-1.7 4.2.6 2.7.6 2.8 2 1.8 1.9 1.7h6.1l2.7-2 2.7-2 .3-1.7.3-1.6h-2.9l-.6 1.5-.5 1.5-2.6 1-2.6 1-2-1-1.9-1.1v-4.9h15v-6.1l-2.5-2.4-2.4-2.5zm-.6 2h1.2l1.5 1.6 1.6 1.5v2.9h-11.2l1.3-1.8 1.4-1.7 1.5-1.2 1.5-1.2zm21.9-2-3.1.1-2.7 1.5-2.8 1.5v2.9h2.6l1.7-2 1.7-2h3.8l1.2 1.5 1.2 1.5-.6 1.5-.5 1.5h-7l-2.5 1-2.6 1-1.1 2.4-1.1 2.3 1.2 2.2 1.1 2.2 2.2.8 2.2.9 3.3-1.4 3.2-1.3v1.9h3.8l.7-8.7.7-8.7-1.8-1.3-1.8-1.3zm2.2 11.2.3.7-1.1 2.1-1.1 2.1-2.2.8-2.1.8-1.7-.4-1.8-.5-.4-1.2-.5-1.3.8-1.3.8-1.3 4.4-.6 4.3-.6zm271.9 5.8h-1.5l-3.5 5.3-3.5 5.3-1.3 6.2-1.3 6.2 1.4 5.7 1.5 5.7 1.3.4 1.3.4-.8-3.8-.8-3.9.1-6 .2-6 2.5-5.5 2.6-5.5 1.7-2.3 1.6-2.2zm26.6 0h-1.5l.5 2.2.6 2.3.7 4.1.6 4.1-1.1 5.5-1.2 5.6-3.4 5.6-3.4 5.6h2.9l3.6-5.4 3.6-5.4.9-3.9.9-3.8v-6.4l-1.1-5.1-1.1-5zm25.4 0h-1.4l-.6.7-.7.6v4.5l-2.1 8.9-2 8.8-.5 1.7-.5 1.8h17.9l.6-1.5.5-1.5H813v-3.9l2-8.3 2-8.3v-3.5zm139.9 0h-1.5l-.5.8-.5.9-.7 4-.6 4.1-2.8-1.6-2.7-1.6-3.2 1.4-3.2 1.3-1.4 2.8-1.5 2.8v9.1l2.1 2.1 2.1 2.1 2.6-.7 2.7-.6 2.8.1h2.7v-4.2l1.9-7.6 2-7.7.5-3.8.6-3.7zm-9.4 10h1.7l1.5 1.6 1.6 1.5v4.6l-2.3 3.4-2.3 3.4-1.7.3-1.8.4-1.4-1.2-1.5-1.2v-6.8l1.3-2.3 1.2-2.2 1-.7 1-.8zm-171.5-2.9h-1.2l-2 .8-2 .9-1.9 2.1-1.9 2.1-.7 4.7-.7 4.7 2.8 2.8 2.7 2.8h5.2l3.2-2.9 3.3-2.9-.8-.8-.8-.8-1.7 1.2-1.7 1.2-2.3 1.2-2.4 1.2-1.6-1.1-1.7-1-.3-2.1-.3-2.1 7.3-.3 7.3-.3.3-1.8.4-1.9-1.2-2.7-1.1-2.8-2.5-1.2-2.5-1.1zm-.2 2.9h2.3l1.2 1.5 1.2 1.5-.6 1.5-.5 1.5H769v-2.3l1.7-1.9 1.6-1.8zm66.4-2.5-3.4-.5-2.6 1.5-2.7 1.4-.5 1.5-.6 1.5 1 .7 1 .6 2.4-2.2 2.3-2.2 2.8.4 2.9.3.3 2.1.3 2.2-5.3.7-5.3.7-2.2 2.1-2.3 2v3.3l2.1 2.3 2.2 2.3 3.1-.7 3.1-.6h3.1l3.1.1.7-8.2.7-8.2-1.4-1.3-1.3-1.4zm-.6 10.6 2.7-.1v1.1l-1.1 2.2-1.2 2.2-1.1.7-1.1.8h-4.3l-1.1-1.4-1.1-1.3.6-1.6.6-1.6 2.1-.4 2.2-.4zm21.3-11.1h-.2l-2 1.5-1.9 1.4-.8.1h-.8l.6-1 .6-1h-3l-1 3.7-1 3.8-.6 4-.7 4-.5 1.7-.4 1.8h3l1-3.8 1.1-3.7v-3.3l2.6-3.2 2.7-3.1 1.3.5 1.3.5 1.1-1.3 1.1-1.4-1.7-.6-1.6-.6zm11.2 0-1.3.1-2.7 1.5-2.8 1.5-1.5 2.9-1.5 2.9v6.7l2.1 2.3 2.2 2.3 3.8-.5 3.9-.5v1.9l-1 2-1.1 1.9h-6.7l-.6-1.5-.5-1.5H862v2.9l2.2 1.5 2.2 1.6h5.7l2-1.1 2-1 1-2.7 1-2.6 1.4-7.1 1.3-7 .7-2.8.7-2.7H879v2.2l-2.5-1.6-2.4-1.6zm-.5 3h2.3l1.2 1.2 1.2 1.2v5.7l-1.5 2.9-1.6 3h-5.5l-1.2-1.2-1.2-1.2v-5.1l2-3.3 2-3.2zm22.5-3-2.3.1-2.7 1.5-2.8 1.5-1.5 2.9-1.5 2.9v7.2l2.5 2.4 2.4 2.5h4.2l2.9-1.5 2.9-1.5 1.1-2 1.1-2H898l-2 2-2 2h-3.9l-1.5-2.2-1.6-2.2v-1.5l7.3-.3 7.2-.3.3-3.2.3-3.3-2.5-2.5-2.5-2.5zm-.4 3h2.4l1.2 1.5 1.2 1.5-.6 1.5-.5 1.5h-9l-.6-1-.6-.9 2.1-2.1 2-2zm31.4-3-1.3.1-3.1 1.3-3.1 1.4-1.3 3.3-1.4 3.3v6.9l2.8 2.3 2.7 2.4h4.9l3.2-2.9 3.3-2.9-.8-.8-.8-.8-1.7 1.2-1.7 1.2-2.3 1.2-2.4 1.2-1.5-1-1.6-1-.8-2.2-.8-2.2h13.8l.9-1.6.8-1.5-.4-3-.4-3-2.9-1.4-2.8-1.5zm-.3 3h2.1l1.2 1.2 1.2 1.2v3.6h-10v-2.3l1.7-1.9 1.6-1.8zm41.4-3h-1.6l-2.7 2.1-2.6 2.1-1.6 3-1.6 3 .6 3.3.6 3.2 2 1.8 2 1.8 3.5-.6 3.5-.6v2l-1 2-1.1 1.9h-6l-.5-1.5-.6-1.5h-2.7l-.6 1-.6.9 2.1 2.1 2 2h5.9l2.5-1.1 2.4-1.2 2.1-7.6 2.1-7.6.6-4.8.7-4.7H973v2.1l-2.2-1.5-2.2-1.6zm.7 3h2.4l1 2.5 1 2.5-.6 2.9-.6 3-1.8 1.6-1.8 1.6-2.9-.3-2.8-.3-.3-4.1-.3-4 2.1-2.7 2.1-2.7zm21.1-3-1.2.1-3.1 1.3-3.1 1.4-1.3 3.3-1.4 3.3v6.9l2.8 2.3 2.7 2.4h4.9l3.2-2.9 3.3-2.9-.8-.8-.8-.8-1.7 1.2-1.7 1.2-2.3 1.2-2.4 1.2-1.5-1-1.6-1-.8-2.2-.8-2.2h13.8l.9-1.8.9-1.7-.8-3.1-.9-3.1-2.5-1.1-2.6-1.2zm-.2 3h2.1l1.2 1.2 1.2 1.2v3.6h-10v-2.3l1.7-1.9 1.6-1.8zm-728.4 12h-1l-2.7 4.5-2.6 4.6-.5 6.3-.6 6.3 1.3 3.9 1.3 3.9 1.9 2.7 1.9 2.8h1.8l-2-4.8-2.1-4.7-.5-6-.5-6 2-5 1.9-5 .8-1.8.7-1.7zm78.7 0-.3.1-3.1 1.3-3.1 1.4-.7 1.8-.7 1.7 1.1 1.1 1.1 1.1 2.1-2.8 2-2.7h3.4l1.2 1.2 1.2 1.2v4.7l-3 1-3 1.1v2.8h4.9l1.5 1.6 1.6 1.5v2.5l-1.6 2.2-1.5 2.2H336l-1.2-2.5-1.1-2.5h-1.8l-.6 1.7-.6 1.6 2.7 2.4 2.7 2.3h5l2.2-1.2 2.2-1.1 1.2-1.6 1.2-1.6.1-3.1v-3.1l-1.9-1.7-1.9-1.7 1.3-2.5 1.2-2.4-.5-2.6-.5-2.6-3.3-1.4-3.3-1.4zm14.7 0h-1.4l1.8 3.2 1.9 3.3 1.2 5.2 1.2 5.2-.7 4.3-.7 4.3-1.9 4.4-1.9 4.4v.7h1.9l2.7-4.6 2.7-4.5.5-6.5.4-6.5-3.1-6.4-3.2-6.5zm-72.9 7h-1.3l-.6.7-.7.6-4.7.1-4.7.1-2.2 9.3-2.1 9.4 1.3.5 1.4.5 1.4-.5 1.4-.6 1.2-5.5 1.1-5.5 2-2.5 2-2.6h2.8l.5.9.6.9-1.4 7.2-1.3 7.2 1.3.5 1.3.5 1.3-.4 1.2-.4 1.2-6 1.3-5.9v-2.7l.1-2.7-1.6-1.5-1.5-1.6zm27.1 1h-8.4l-.6.7-.7.6v1.7h18v-3zm504.5 8h-1.1l-.6 1-.7 1.1-2.4 12.1-2.4 12.2.9.9.9.9 1-1.8.9-1.9.8-4 .7-3.9 1.4-2.8 1.4-2.8 2.6-.6 2.5-.7 1 1 1 1-1.6 7.1-1.6 7.2.6 1 .7 1.1 1.3-1.1 1.3-1.1 1.2-6.9 1.2-6.9-.7-2-.6-2-2-.6-1.9-.6-3 1.5-3 1.4.6-4.9.6-4.9zm75.6 0h-1.5l-.6.7-.7.6v4.5l-2.4 10.4-2.5 10.3 1 1 .9.9 1-1 .9-.9.7-3.9.6-3.9 1-2.6.9-2.6 1.6-1.7 1.6-1.8h3.6l.6 1 .7 1.1-1.2 6.9-1.2 7 .1.7.1.8h2.4l1.8-7 1.8-7v-3.5l-2.6-1.7-2.6-1.7-3 1.7-3 1.7.7-5 .7-5zm75.3 0h-1l-.4.7-.5.8-1.1 4.2-1.2 4.3-2.4-1.6-2.5-1.6-3.1 1.3-3.1 1.2-1.9 3.1-1.9 3.1v8.5l2 2 2 2h3.1l2-1.1 2-1 1.4 1.1 1.3 1.1.7-1 .6-1 2.4-11.8 2.5-11.8v-2.5zm-8.8 10.1 1.7-.1 1.2 2.6 1.2 2.5-1.5 4.2-1.4 4.2-2.7.9-2.7.9-1.5-1.3-1.6-1.2v-5.9l1.5-2.9 1.5-2.8 1.2-.5 1.3-.5zM307 1233h-9v3h18v-3zm490.4 6.5-2.9-.5-2.7 1.5-2.8 1.6v4.6l1.8 1.5 1.7 1.5 3 1.4 3 1.4v2.8l-1.6 1-1.6 1-2.6-.7-2.6-.6-.6-2-.6-1.9-1.5.6-1.4.5v1.9l2.5 2.4 2.4 2.5h6.6l2.3-1.8 2.4-1.8-.4-2.8-.3-2.8-4-2.2-4-2.1-.7-.9-.6-.9.5-1.4.5-1.3h4.8l1.2 2 1.3 2h2.5v-3.8l-1.3-1.1-1.4-1.1zm40.6.1-2.5-.6-2.4 1.2-2.4 1.3-1.9 2.6-2 2.6v9.7l2.2 1.8 2.2 1.8h5.8l3.2-2.9 3.3-2.9-.8-.8-.8-.8-1.7 1.2-1.7 1.2-2.3 1.2-2.4 1.2-1.6-1.1-1.7-1-.3-2.1-.3-2.1 7.3-.3 7.3-.3-.2-3.4-.1-3.4-1.9-1.8-1.8-1.8zm-1.5 2.4h2.1l1.2 1.2 1.2 1.2v3.6h-10v-2.3l1.7-1.9 1.6-1.8zm23-2.5-3-.4-2 .8-2 .9-1.8 2-1.8 2 1.1.7 1.1.7 2.3-2.1 2.2-2.1h5.3l.6 2.1.7 2.1-.6.5-.6.6-4.9.5-5 .4-2.2 2.4-2.1 2.3.6 2.6.7 2.6 2.5 1.1 2.5 1.2 3.1-1.2 3.1-1.2 1.4 1.2 1.3 1.1.7-.6.6-.7.3-2.7.2-2.8 1-4.8 1-4.8-1.7-1.9-1.6-2zm-1.2 10.6 2.8-.1-.6 2.2-.7 2.3-1.7 1.3-1.6 1.3-2.5-.3-2.5-.3-.3-2.7-.3-2.6 2.3-.5 2.3-.4zm22.2-10.8-1-.3-2.3 1.6-2.2 1.5v-2.1h-3.6l-1.7 9.2-1.6 9.3.9.9.9.9 1.1-2.7 1-2.7v-3.4l1.9-4.2 1.9-4.2 2.9-.3 2.8-.3v-2.8zm33.5.3-2.5-.6-3.3 1.5-3.3 1.4-1.4 3.5-1.5 3.5v6.2l2.5 2.4 2.4 2.5h5.3l2.9-2.1 2.9-2v-2.9h-2.6l-1.7 2-1.7 2h-3.9l-1.5-1.6-1.6-1.5v-2.8l7.3-.3 7.2-.3.3-3.1.3-3.1-1.8-2.1-1.8-2.1zm-1.5 2.4h2.4l1.1 1.9 1 2v2.1h-11v-1.6l2-2.2 2.1-2.2zm22.5-2.5-2.5-.5-3.5 1.7-3.5 1.8-.3 1.7-.3 1.8h2.6l1.3-2 1.2-2h5.8l1.2 1.5 1.3 1.6-1 1-1 1-5.1.8-5.1.8-1.6 1.3-1.5 1.2v5.5l1.8 1.6 1.9 1.7h4.9l1.2-1.2 1.2-1.2 2 1.2 2 1.2.4-1.2.4-1.3 1.2-6.8 1.3-6.9-1.9-1.8-1.9-1.9zm-.8 10.6 2.6-.1-.5 2.1-.6 2-2.3 1.6-2.4 1.5-2.6-.6-2.5-.7.3-2.1.3-2.2 2.5-.7 2.5-.7zM826.7 1281l-1.2.1-1.6 2.2-1.7 2.3-1.6 4.7-1.6 4.8v6.5l1.7 5 1.6 4.9 1.6 2.2 1.6 2.2 1.2.1h1.2l-2.7-5.8-2.7-5.7.1-6.5v-6.5l2.7-5.3 2.6-5.2zm78.4.1-2.6.1-1.3.5-1.2.5-1.5 2.9-1.6 2.9h3.6l1.3-2 1.2-2h4.9l1.1 2 1.1 2-1.1 2-1.1 2H904v3h3.7l1.6 1.8 1.7 1.9v4l-2 1.8-1.9 1.7-2.7-.6-2.6-.7-.5-1.9-.5-2H897v2.2l2.9 2.9 2.9 2.9h4.3l2.8-1.5 2.9-1.4.6-1.6.6-1.7v-6.7l-2.1-1.1-2.1-1.2 1.6-1.7 1.6-1.8v-5.2l-2.6-2-2.7-2.1zm15.3-.1H919l2.2 4.2 2.3 4.3v18l-2.2 3.8-2.3 3.8v.9h2.7l2.9-5.8 2.9-5.7v-6.5l-.1-6.5-2.8-5.3-2.8-5.2zm-73.9 7.1h-1l-2 .8-2 .8-3.2-.4-3.2-.5-1 3.8-1 3.9-.6 4-.7 4-.5 1.7-.4 1.8h5.7l.2-2.8.2-2.7 1.1-3.5 1.2-3.5 1.5-1.8 1.5-1.7h4l-.6 4.7-.6 4.8-.7 3.2-.6 3.3h5.1l1-3.8.9-3.7.7-4.7.6-4.6-2.3-1.6-2.2-1.6zm27.9 1.1-8-.3-.7.7-.7.7v1.7h18.2l-.4-1.3-.5-1.2zm0 8-8-.3-.7.7-.7.7v1.7h18.2l-.4-1.3-.5-1.2z"/></svg>