<svg xmlns="http://www.w3.org/2000/svg" version="1.0" viewBox="0 0 587 791"><path d="m293.6 67.2-30.1-.3-2.2 2.4-2.3 2.4v61l-.1 60.9-.6 2.2-.5 2.2H231v2.8l-1.2.4-1.2.4-.4 7.2-.4 7.2h7.2v-6.5l.6-2.3.6-2.2h21.6l.6 1.6.6 1.6v11.5l-.6 3.2-.6 3.1H232v2h-4.8l-.5-1.3-.5-1.2-1.1 1.5-1.1 1.5V226h-4v2h-57.2l-57.3.1-1.7 1.3-1.8 1.3v52.2l3.9 1.1 3.9 1 .4.9.3.9 73.2.4 73.1.3.8.7.7.8-.2 82.9-.2 82.9 3.5 1.3 3.6 1.3v1.6h58.8l.6-1.6.6-1.6V353.2l1.3-.5 1.2-.5-1.2-.1-1.3-.1v-7h2v-2.8l-1.2-.6-1.3-.6 1.3-.6 1.2-.6v-10.6l-1.2-.5-1.3-.5 1.3-.1 1.2-.1v-6.8l-1.2-.5-1.3-.5 1.4-1 1.3-1-1.3-.5-1.4-.5 1.2-.9 1.2-.9.3-12.4.3-12.5 3.3-.3 3.2-.3V288h4.8l.6 1.2.6 1.3.6-1.3.6-1.2H456v2h21.3l1.3-1.8 1.3-1.7.1-27.1v-27l-1.3-1.8-1.3-1.8-74.5-.5-74.4-.4-.5-.5-.5-.6-.1-77.8-.2-77.9-1.8-1.8-1.8-1.8zm-17 6.8h9.5l.5 1.5.6 1.5h5.6l.4-1.2.4-1.2 12.2-.4 12.2-.4V78h2v3l-1.2.1-1.3.1 1.3.5 1.2.5V92h-2v40.8l1.3.5 1.2.5-1.5 1.1-1.5 1.1h2.5v6l-1.2.1-1.3.1 1.3.5 1.2.5v3.8h-2v6h2v8h-2v2.8l1.3.5 1.2.5-1.5 1.1-1.5 1.1h2.5v3l-1.2.1-1.3.1 1.3.5 1.2.5V183h-2v12h2v4h-2v3h2v3h-2v13h2v4h-2v3.8l1.3.5 1.2.5-1.5 1.1-1.5 1.1h2.5v6h42v-2.5l.8 1.2.8 1.3 54.5.2 54.4.3.3 21.5.3 21.5-.6 2.2-.5 2.3H356v-2h-5v2h-3v-2h-21v1.7l-3.2.9-3.3 1-.3 9.4-.3 9.4-1.2.8-1.2.8h2.5v6.8l-1.2.5-1.3.5 1.5 1.1 1.5 1.1H318v11h2v13l-1.2.1-1.3.1 1.3.5 1.2.5V353h-2v9h2.5l-1.2.8-1.2.8-.3 42.5-.3 42.5-1.7 1.7-1.7 1.7h-46.9l-1.1-2.8-1.1-2.7.3-80.8.4-80.8-1.8-2-1.7-2-70.9.1h-70.8l-4.6-.6-4.7-.6-.4-20.7-.5-20.6.5-1.8.4-1.7h3.6l.5-1.3.5-1.2 1.1 1.5 1.1 1.5V233h84.8l.6 1.2.6 1.3.6-1.3.6-1.2h5.8v2h3v-2h11v2h34.1l3.4-3.4 3.5-3.3V78.5l.6-2.3.6-2.2z"/><path d="M290.6 198h-20.3l-.6.7-.7.6v4.7l1.8.1 1.7.1 18 .2 18 .2 2.2-.4 2.2-.4.5-1.4.5-1.3-1.5-1.6-1.5-1.5zm-59.2 42H229l-.4 2.2-.5 2.3-.4 12-.4 12 1 2.2 1 2.3h1.7l2-1.7 2-1.7v-26.4l-.6-1.6-.6-1.6zm122.3 3h-1.5l-.6 1.6-.6 1.6v13.6l-1.2.5-1.3.5 1.3.1 1.2.1v4.8l.6 1.6.6 1.6h2.9l1.5-1.4 1.4-1.5v-20.2l-1.4-1.5-1.5-1.4zm-61.2 75H274v6l6.8.1 6.7.2 11.4-.2 11.4-.3 1.4-1.4 1.4-1.4H311v-3zm50.4-119.9-8.4.1-1.2.5-1.3.5v4.6l1.6.6 1.6.6h12.9l1.5 1.4 1.4 1.5v9.9l.6 1.6.6 1.6h2.9l1.5-1.4 1.4-1.5v-13.2l-3.4-3.4-3.3-3.5zM230.1 295h-.9l-.9 2.7-.9 2.8.1 8.3v8.4l1.6 1.1 1.6 1.2.7 2.3.7 2.2h22.8l.6-2 .6-2-.6-1-.6-1h-3.7l-.5-1.3-.5-1.2-1 1.4-1 1.3-.6-1.3-.6-1.4-.6 1.2-.6 1.3h-2.6l-.5-1.3-.5-1.2-.1 1.2-.1 1.3h-4v-2h-3l-.2-3.8-.2-3.7.1-2.5.2-2.5-.5-3.3-.5-3.2H231v-2zm123.7 5h-1.5l-.6.7-.7.6v9.5l-1.2.5-1.3.5 1.3.1 1.2.1v3h-2v3h-10.6l-1.5 1.8-1.5 1.8 1.6 1.7 1.7 1.7h12.8l2.3-.6 2.2-.6V314h2v-10h-1.8l-.5-2-.5-2zM66.7 479h-2.4l-.6.7-.7.6V555h-2.9l-.8 1.4-.8 1.3L56 559l-2.5 1.3-2.5 2.9-2.4 2.8h-2.7l-.5 1.4-.5 1.4-2.3.6-2.2.5-1.4 2.6-1.4 2.6-2.3.5-2.4.6-.9 1.8-1 1.9v4.1h3.9l2.6-1.2 2.5-1.1v-1.5l3-.7 3-.7v-1.4l3.5-1.4 3.5-1.4V573h3.1l.5-1.5.6-1.5h6l-.5 29.6-.5 29.7 1 2.3 1.1 2.4h1.8l1.4-1.4 1.4-1.4.3-11 .3-11 .5-.5.5-.5L87 608l16.5-.2 59.3.1 59.3.1-.2 47.2-.2 47.3-.6 8.9-.6 9-12-.3-12-.2-.3-1-.4-.9H193v1.8l-2.5.6-2.5.6v3.1l1.7 1.7 1.6 1.7 21.1-.4 21.1-.3.7-1.2.8-1.1v2.5h2.8l.5-1.3.5-1.2.1 1.2.1 1.3h3.8l.6-1.3.6-1.2.6 1.2.6 1.3H269l2.5-2.2 2.5-2.2V720h2v-3.1l1.5-.5 1.5-.6v-2.7l1.3-1.3 1.2-1.4 1.1-1.9 1-1.9 1.2-.4 1.2-.4v7.2h-1.6l-1.4 10.8-1.3 10.7-.8.5-.8.6-.7 6.5-.6 6.5 1.7 1.8 1.8 1.8 2.3-2.9 2.4-2.8.8-1.1.9-1 1.2-3.7 1.3-3.7h1.8v-2.9l1.3-1.3 1.4-1.3 1.2-2.3 1.2-2.2H403v-6l-1.2-.1-1.3-.1-24-.2-24-.1.4-54.9.3-55 1.3-1.3 1.4-1.3H503v1.9l8.8.3 8.7.3.3 8.2.3 8.3 2.5.6 2.5.6.7-.7.7-.7v-60.3l-4.7.2-4.8.1v-.9l1.4-1.5 1.5-1.4h1.3l4.9-5 4.9-5h1.8l4-4 4-4h1.8l2.4-3 2.5-2.9 1-.1h1.1l1.7-2 1.7-2v-3h-7v1.8l-3.1.7-3 .7-.6 1.3-.5 1.4-2.9.6-2.9.7v1.8h-6l-.1-13.8v-13.7l.1-13.6.1-13.6-1.6-1.7-1.7-1.6-.9.5-.9.6v2.9h-2v16l-10.7.1-10.8.1-80.5-.2-80.4-.1-.8-1.2-.8-1.2v2.5H231.2l-.4-.9-.3-.8-79.3-.6-79.4-.5-.5-.6-.5-.5-.4-8.8-.5-8.8-.4-1.3-.4-1.2zm21.2 31.1h16.6l-2.3 1-2.4.9.4 1.2.5 1.3h6.8l-.3-2.4-.2-2.3 101.7.6 101.8.5 29.8.1H370v4h6v-4h28v2.8l1.5.6 1.5.5 1.5-.5 1.5-.6V511h27v2.8l1.6.6 1.6.6h3.6l.5-2.2.6-2.1 37.3.6 37.3.7h1.5v36.1l1.5 1.5 1.5 1.5v-1.9l3-.7 3-.7V546h3v.7l-.1.8-3.1 2.5-3.1 2.5-1.6 1.9-1.6 1.9-1.8 1.6-1.9 1.6-1.8 1.5-1.9 1.5-2.6 2-2.6 2-3.6 3.2-3.6 3.3H502v1.2l-.1 1.3-2.9 2.5-3 2.4v2.5l1 .6 1 .6 3.8-1.2 3.7-1.2.8-1.3.8-1.4h2.9v-1.7l4-1.2 4-1.2V573h3v26.6l-2 1.7-2 1.7v-2h-3v2.5l-1-1.5-1-1.5-1 1.5-1 1.5V601h-40l-.1 1.2-.1 1.3-.5-1.3-.5-1.2h-13.9l.3-2.2.3-2.2 10.7-.1h10.7l.7-.8.8-.8.1-37.8v-37.9l-.7-.7-.6-.7-74.6.2-74.6.1v-4.2l-1.7.3-1.8.4.1 1.7.2 1.7-10.7-.1-10.6-.1 1.3-.5 1.2-.5V514h-6v4h-4v2h-2.8l-.5-1.3-.5-1.2-1.1 1.5-1.1 1.5v-3l-1.1 1.5-1.1 1.5-.5-1.3-.5-1.2H274v2h-3.8l-.4-1-.3-.9-6.8-.3-6.8-.2-1 1.4-1.1 1.5-.5-1.3-.5-1.2H249v2h-6v-2h-4v2.5l-1.1-1.5-1.1-1.5-.5 1.2-.5 1.3h-8.6l-.5-1.3-.4-1.2-10.4.3-10.4.3-.8 1.2-.9 1.2-.5-1.3-.5-1.2H198v-2.9l-1-.6-.9-.6-1.8 2.1-1.7 2H180l-.1 1.2-.1 1.3-.5-1.3-.5-1.2h-2.6l-.6 1.2-.6 1.3-.6-1.3-.6-1.2H131v-4h-5v4h-26v3h-2v69.1l1.7 1.7 1.7 1.7 36.2.3 36.3.4-.6 2.9-.5 2.9h3.3l1.5-1.4 1.4-1.5V594h25.8l.6 1.2.6 1.3.6-1.3.6-1.2H230l1.9 1.9 2 2 2.5-1.2 2.6-1.2V594h21v2h3v4h5.8l.5-2 .5-2h7l.6-1.3.6-1.2.6 1.2.6 1.3H294v2h3v-2h10v-2h3v2h7.8l.5 1.2.4 1.3 2.2-1.3 2.1-1.2h21v5h-16.8l-.6 1.2-.6 1.3-.6-1.3-.6-1.2h-9.6l-.6 1.2-.6 1.3-.6-1.3-.6-1.2H307v2h-21v-2h-4v2h-5.8l-.6-1.3-.6-1.2-.6 1.2-.6 1.3H270v-2h-15v2h-4v-2h-6v2h-3v-2h-85v-4h-.8l-1.6.6-1.6.6v2.9l-41.2-.5-41.3-.4-.2-.1-.3-.1v-32.5l-.6-2.3-.6-2.2H63v1.7l-3.7 1.1-3.7 1.1-.4-.4-.4-.4 3.7-3.6 3.8-3.5h1.4l3.9-3.5 3.9-3.4 1.7-1.5 1.6-1.4 2-.6 2-.7.6-1.4.5-1.5h2.6l2.3-2.5 2.4-2.4-.7-2.1-.6-2H83v1.8l-2.7.7-2.8.7-.5.9-.6.9-3.2.6-3.1.6v-12.8l-.1-12.9.6-3.3.6-3.2zm98.4 14 68.2.1 1.8.5 1.7.4v1.9H129l-.1-1.3-.1-1.2-.5 1.2-.5 1.3H118v-3zm215.1.6 52.9.3.5.5.5.5-.4.4-.4.4-34 .6-34 .7-28.7-.7-28.8-.7v-1.6l9.8-.3 9.7-.3zm55.6.3h1v2h-2v-2zm12 0h1v2h-2v-2zm-354.5 7h2.5v2h8v-2h4v2h12v-2.5l1 1.5 1 1.5V532h3v2h58l.1-1.3.1-1.2.5 1.2.5 1.3H227l.1-1.3.1-1.2.5 1.2.5 1.3h57.6l1.6.6 1.6.6V580h-5v2h-12v-2h-12v2.5l-1-1.5-1-1.5v2.5h-7v-2h-3v2h-31v-2h-5v2h-9v-2h-5l-.1 1.2-.1 1.3-.5-1.3-.5-1.2h-3.6l-.5 1.2-.5 1.3-.9-1.2-.9-1.2-30.9-.2-31-.3-10.7-.4-10.8-.4V576h-2v-40.8l1.6-.6 1.6-.6h3.8v-2zm196.4 0h3.9l.5 1.2.5 1.3 1.1-1.5 1.1-1.5v2.5h6v-2h11v2h13v-2h2.8l.6 1.2.6 1.3.6-1.3.6-1.2h2.8v2h6v-2h10v2h14.8l.6-1.3.6-1.2.6 1.2.6 1.3H470v31l1.3.1 1.2.1-1.2.5-1.3.5V582H305l-2-2-2-2v-41.1l1.4-1.5 1.5-1.4h3.1v-2zm71.8 54.8 50.8.4.7 1.1.8 1.2V587h3.8l.6 1.2.6 1.3.6-1.3.6-1.2h3.6l.5 1.2.5 1.3 1.1-1.5 1.1-1.5.8 1.2.7 1.2 5 .4 5 .3-14 .3-14 .2-19-.1h-19l-30.7-.3-30.6-.2-.7-.7-.7-.7.5-.8.5-.8zM249 587h6v2h-12v-2zm216 2.3h4.5l-2.2.4-2.3.4-2.2-.4-2.3-.4zm-71.3 5.4.5 1.3h4.6l.6-1.3.6-1.2.6 1.2.6 1.3H448v5h-24v2h-3v-2h-4v-2.9l-1.9-.6-1.9-.6-2.6.7-2.6.6v2.8h-60v-3.8l-1.2-.6-1.3-.5 12.5.4 12.5.3 4.1.7 4.2.7.6-1.1.7-1.1H393l.1-1.3.1-1.2zM288 608h57l-.2 56.2-.3 56.3-22.2-.3-22.1-.3-1.9 1.9-1.8 1.9-1.7.6-1.8.6v3.1h-1.8l-.7 2.8-.7 2.7-2 1.9-2.1 1.9.8-9.4.7-9.4.7-.5.7-.5 1.4-8.8 1.3-8.7h1.4l.7-6.2.6-6.2 1.1-.7 1.1-.6-1.7-.7-1.7-.6h-1.6l-1.3 3.2-1.3 3.3-1.3.8-1.3.8v2.9h-1.6l-1.4 3.5-1.4 3.5H280v3.1l-1.4.5-1.5.6-.6 2.9-.7 2.9h-1.4l-1.4 3.4-1.3 3.4-15.5.4-15.6.4-5.8-.4-5.8-.4V624h2v-16z"/><path d="M158.8 512h-3l.4 1.2.5 1.3 3.1.3 3.2.3-.6-1.5-.6-1.6zm336.7 3H494v3h3v-3zm-413 2H81v3h3v-3zm404.7 0h-2.1l.6 1.6.6 1.6.6-.9.6-.8.9-.8.9-.7zm-391.7 3H94v2h3v-2zm-15.7 4.1-.3.1-1.2.5-1.3.5v1.8h3v-3zM515 531h-1.3l.6.7.7.6.7-.6.6-.7zm-425.4 7H88v4.2l1.3-.4 1.2-.5.3-1.6.3-1.7zm405.8 3.3-1-.3-.7.6-.7.7v2.8l1.8-.3 1.7-.3v-2.8zM83.8 558h-.3l-1.1.8-1.2.7 1.4 1.3 1.4 1.3V558zm409.2 2h-1v5.5l1-1.5 1-1.5V560zM80.1 578.2l-.6-1-1.4 1.5-1.3 1.5-.2 3.1-.1 3.2h3l.6-3.7.6-3.7zm409.4 4h-3l1.8.5 1.7.5 1.3-.5 1.2-.5zm21.9 6.9-1.9.1 1.3.5 1.3.5.6-.6.6-.6zm-6.7 3.9h-1.4l-.6.7-.7.6v1.7h4v-3zM89 594h-.8l-.6 1.5-.5 1.5h3.8l-.5-1.5-.6-1.5zm390.5 2h-.5v1h1v-1zm-274 1h-2.4l.5 1.5.6 1.5h3.8v-3z"/></svg>