<svg xmlns="http://www.w3.org/2000/svg" version="1.0" viewBox="0 0 577 798"><path d="m246.4 62.4-15.1-.7-.8 1.3-.8 1.3.2 8.3.2 8.2-1.1.7-1 .6-.1 42.2v42.2l-.7 4.5-.7 4.5-7 .1h-7l-1.2.2-1.3.2v16h7v-6.7l1.8-1.6 1.9-1.7h3l1.7 1.9 1.7 1.9-.3 5.3-.3 5.4-6.5.3-6.5.3-.9.9-.9.9-1.7-1.2-1.8-1.1-1.4 1.2-1.5 1.2-43.6-.1h-43.6l-.6-.9-.6-1h-15.5l-2.7 1.2-2.7 1.3v33.3l.6 1.6.6 1.6h4l2-2.5 1.9-2.5h94.8l.6 1 .6 1h8.8l.3 13.2.3 13.3h6l.3-13.3.3-13.2h5.8l.5.9.6.9.1 15.7v15.6l-1.2 1.5-1.2 1.5-62.9-.3-62.8-.3-.2 16.5-.1 16.5.2 1.9.1 1.9 1.2 1.4 1.1 1.3 1.4-1.2 1.4-1.2 54.1.2 54.1.2.6.6.5.5-.3 7.4-.3 7.3 2.2.7 2.1.7 2.4-1.6 2.4-1.6h4l1.2 2.2 1.2 2.3-.6 56.2-.6 56.3h2.6l2.7 2.5 2.7 2.5H253l1.6-2.5 1.6-2.5h4.8v-7.8l.1-7.7.6-54.9.5-55 2.1-2.8 2.1-2.8h29.3l1.6 1.8 1.7 1.9v3.2l-1 .6-1.1.7 1.1 1.3 1 1.2v39.6l-.1 39.6-1 .6-.9.6v37.7l1.5 1.2 1.4 1.2.9-.6.8-.5 2.8 3 2.8 2.9h19.7l.6-1 .6-1h3.8l.7-1.1.7-1.2.4-57.1.4-57.1 1.6-1.7 1.6-1.8h6.2l1.4-.9 1.4-.9.1-5.1.1-5 1.1-1.1 1-1h57.9l58-.1 1.2-2.6 1.3-2.7v-28.4l-2.7-1.8-2.8-1.8-54.5.2-54.5.3-3-.9-3-.8.2-13.4.1-13.4-1.6-1.3-1.7-1.2-1.5-.1h-1.5l-1.3 2.1-1.3 2.1.2 12.1.2 12.1-1.1.4-1.2.4v-29.8l1.3-1.8 1.3-1.7h62.7l62.7.1v-2.8l1.5-1.2 1.5-1.2v-25.7l-2.6-2-2.7-2.1H354.4l-1-1-.9-.9-8-.3-8-.3v-12h3l.3 3.7.3 3.8h4.5l1.2-1.2 1.2-1.2v-10.1l-2.2-1.4-2.3-1.4-3-.7-3-.6-.3-2.9-.3-3-1-2.1-1.1-2.2.5-5.3.6-5.4.6-1.6.6-1.7-1-.7-1.1-.6V99.1l1-.6 1-.6V75.4l-1.1-1.1-1.1-1.1 1.1-.6 1.1-.7v-6.7l-1.6-1.3-1.6-1.3-15.9-.4-15.8-.4-2.6.6-2.5.6v4.8l1.5.6 1.5.5v123.6l-1.8 2.3-1.7 2.2-8 .1-8 .2-1.2.9-1.1.9-.7-1.1-.6-1h-9.7l-1.1-1.3-1.1-1.4v-43.1l-.1-43.1-1-.6-.9-.6.7-1.2.7-1.2.2-2 .2-2 .2-17.4.2-17.3-1.3-1.3-1.4-1.4zm4.6 6.4 4.5.4 1.3.3 1.2.4v37l-1.1.7-1.1.6 1.1 1.1 1.1 1.1v6.5l-1 .6-1 .6v5.8l1 .6 1 .6v49.8l-1 .6-1 .6v21.8l1 .6 1 .6v3.4l2.7 1.2 2.6 1.3 1.3-1.1 1.2-1 2.1 1.3 2.1 1.2 1.2-1.2 1.2-1.2h6.5l.6 1 .7 1.1 1.3-1.1 1.4-1.2 8.3.2 8.3.2 2.8-.1 2.7-.1V72l2-2 1.9-1.9 8.7.5 8.6.4.9.6.9.5v3.8l1 .6 1 .6v23.8l-1 .6-1 .6v4.8l1 .6 1 .6-1.3 1.9-1.2 2 1.2 1.8 1.1 1.9.1 26.1.2 26.1-1.3 2-1.2 2.1 1.2 1.2 1.2 1.2v5.5l-1 .6-1 .6v15.7l2.1 3.9 2.1 3.9 2 1.3 2 1.2 1.3-1.1 1.3-1.1 44.8.1 44.8.1 1.2 1 1.2 1 2.1-1.3 2.1-1.3 2.1 1.4 2.2 1.3 2.4-1.3 2.4-1.3 2 1.3 2.1 1.2 1.3-1.1 1.3-1.1.7 1.1.6 1h5l2 1 1.9 1.1v18.8l-2 1.1-2.1 1.1-60.6-.1h-60.6l-2.7 1.1-2.6 1.2-1.2 2.6-1.2 2.5v22.5l1 .6 1.1.7-1.2 1.5-1.3 1.5 1.3 2 1.2 2-1.1 1.3-1.1 1.4 1.6 2.5 1.7 2.6 1.2.1 1.1.1 61.6-.2 61.7-.2 2.2 3.2 2.2 3.1-1.3 1.5-1.2 1.5 1.1 1.1 1.2 1.2v6.5l-1.1.7-1.1.6 1 1 1.1 1.1-1.6 2.3-1.5 2.4H431l-2 1.2-2 1.2-1.2-1.2-1.2-1.2H415l-2 1.2-2 1.3-2.1-1.3-2.1-1.3-1.3 1.1-1.3 1.1-.7-1.1-.6-1h-5.8l-.6 1-.6 1-9.7-.1-9.7-.2-1.7-1.1-1.8-1-1.2 1.2-1.2 1.2h-12.5l-.5-.8-.5-.8-6.5-.2-6.4-.3-.7 1.1-.6 1H337v4.6l1 1 .9.9-.5 2.3-.6 2.2H336v-3.7l-2.6-2.7-2.7-2.6-1.3 1.1-1.4 1.1-.1 54.7-.1 54.6-.7 10-.6 10h-23l-.3-14.4-.3-14.3 1.1-1.3 1.1-1.3-1.1-.7-1-.6v-31.8l1.1-.7 1.1-.6-1.1-1.1-1.1-1.1v-8.5l1.1-.7 1.1-.6-1.1-1.1-1.1-1.1v-15.5l1-.6 1-.6-1.2-1.9-1.2-1.9 1.4-2.5 1.3-2.6-1.3-2.5-1.3-2.5 1.1-2.3 1.1-2.2.4-9.3.4-9.2h-39.3l-1-1-1.1-1.1-3 1.7-3 1.7-1.3 3-1.3 2.9-.3 61.5-.4 61.4-1 2-1.1 2-10.7-.3-10.7-.3-.3-60.5-.2-60.5.7-1.5.6-1.5.2-4 .1-4-1.4-1.8-1.5-1.7h-40.3l-1.2 1.2-1.1 1.1-1.6-1.3-1.7-1.4-1.8 1.2-1.8 1.1h-19.1l-19.1-.1-.6-.9-.5-.9h-6.5l-1.2 1.2-1.1 1.1-1.6-1.3-1.7-1.4-2 1.3-2 1.3-1.1-1.1-1.1-1.1h-18.2l-1.2-1.2-1.2-1.2v-18.7l1-1.9 1-1.9h8.8l8.7.1 58.3-.2 58.3-.1-.3-2.1-.3-2.1-1.5-.8-1.5-.8-1.7-.5-1.8-.5v-37.9l-1.7-1.3-1.6-1.4-59.1-.3-59.1-.2-3.1-1.5-3.1-1.5-.5-4.2-.5-4.3.6-5 .6-5 4.5-.3 4.5-.3 1-1 .9-.9h5.2l1.2 1.2 1.1 1.1 1.3-1.1 1.4-1.1 42.1-.1 42.1-.1.7 1.1.6 1h5.5l1.2-1.2 1.2-1.2 1.2 1.2 1.2 1.2h5l5.1-.1 1.5-1.2 1.5-1.2.3-56 .4-56 .9-1.1.8-1 .3-9.5.3-9.4 5-.5 5-.5zM220.1 306h2.9l1.2 2.5 1.1 2.5-1.1 2.5-1.2 2.5h-2.7l-1.5-1.8-1.6-1.7-.6-2.2-.7-2.3.6-1 .6-1z"/><path d="M270.1 228h-8.8l-1.6 1.8-1.7 1.9v26.2l-1 .6-1 .6v8.8l1 .6 1 .6v5.9h40.8l3.1-2.7 3.1-2.7v-38.9l-1.7-1.3-1.8-1.3-3.5-.1h-3.6l-1.1 1.1-1.1 1.1-.6-1.1-.7-1.1h-8.5l-1.1 1.1-1.1 1.1-.6-1.1-.7-1.1zm11.6 6H295l2 4.2 2 4.2v12.5l-1 .6-1 .6v10.8l-.8.5-.8.5-13.1.6-13.1.5-2.6-1-2.6-1v-28.4l2.2-2.3 2.1-2.3zm35.5 102.2-1.4-.4.4 2.3.3 2.2 1.3.5 1.4.4-.4-2.3-.3-2.2zm-38.1-160.1-7.6.1-1.2.5-1.3.5v3.6l1.6.6 1.6.6h15.6l.6-1.6.6-1.7-1.1-1.3-1.1-1.4zM529 199h-1v2.9l1 .6 1 .6V199zM278.5 314h-10.3l-1.1 1.4-1.1 1.3 1.2 1 1.3 1 8.8.7 8.9.7 2.5-1.6 2.4-1.6-1.2-1.5-1.1-1.4zm-3.4 11h-.6l-1.3.8-1.2.8 2.5 1.4 2.5 1.3.6-.6.7-.7-1.3-1.5-1.2-1.5zm222.1 139h-1.9l-1.1 2.2-1.2 2.3-.2 15-.3 15-153.5-.3-153.5-.3-2.3-1.2-2.3-1.1-1.9 1.2-2 1.2h-4.6l-1.2-1.2-1.2-1.2-2.1 1.2-2 1.3-9-.2-9-.2-.5-.9-.5-.8h-11.8l-.6.9-.5 1-2.5-.3-2.5-.3-.7-.6-.6-.7-1.3 1.1-1.2 1-.7-1.1-.6-1h-9.5l-1.2 1.2-1.2 1.2-1.2-1.2-1.2-1.2H74.4l-1.2-1.2-1.2-1.2V474h-3.5l-1.1.8-1.2.7v75.6l-1.2 1.4-1.2 1.5h-2.4l-3.1 3.5-3.1 3.5H52v1.6l-6.5 4.9-6.6 4.9-1.4 3-1.5 2.9v1.7h2.5l9.5-4.8 9.5-4.7 2.7-1.9 2.8-1.8 1.4.5 1.5.6.3 26 .3 25.9.7.8.8.7 1.5-1.3 1.5-1.2v-5.7l1-2.6 1-2.7 64.5.4 64.4.3 1.1 1.1 1.1 1.1v51.9l-.1 51.9-2.2 1.7-2.3 1.7-1.1-1-1.2-1-14.3.3-14.4.3-.3 2.3-.4 2.3 1.2 1.5 1.2 1.4h8.7l.6-1 .6-1h57.5l1.1 1.1 1.1 1.1.6-1.1.7-1.1h5.8l.5.8.4.8 5.2.2 5.1.2 1.7-3.2 1.7-3.1 1.8-1.9 1.7-1.8v-.8l.1-.7 2-2.4 2-2.4.6.6.6.6-1.3 9.8-1.3 9.8-.7 1-.8 1-.7 5.5-.7 5.5-1 1.2-1 1.2.4 2.3.3 2.3 2.1.3 2.2.3.6-2.7.7-2.7 2.9-4.1 2.9-4.1.7-2.8.7-2.9 1.3-.5 1.4-.5v-2.3l2.6-2.4 2.5-2.4 1.1 1.1 1.2 1.2h53.2l1.2-1.2 1.2-1.2 2.2 1.2 2.3 1.1 19.5.6 19.5.6 1.5-1 1.4-1-1.8-2-1.9-2-18.3.4-18.4.5-2.5-1-2.5-1 .1-47.2.1-47.3.7-6 .6-6 6.5-.3 6.4-.3 1.1-.9 1.1-1 1 1 1 1 64.9.2 65 .3.3 5.7.3 5.6 1.4.5 1.3.6 2.1-.6 2.1-.5v-61.1l-1.7-1.2-1.8-1.3 2.5-2.5 2.5-2.4 2.5-.8 2.4-.8 2.5-2.8 2.5-2.9h1.8l5.8-5 5.8-5h2.1l1.1-2 1.1-2h2.6l1.8-2 1.8-2h2.7v-6h-1.7l-1.8.1-4 2.4-4 2.5-1.5.6-1.5.6-4.5 2.1-4.5 2-1.5 1.2-1.5 1.3-2.5.7-2.5.8-1.2 1.6-1.1 1.6-2.1-1.9-2.2-2 .1-34.5.1-34.6-.1-1.8V464zm-364.7 41.2h56l4 .7 4 .7-.2 1.2-.3 1.2h3.8l.5-1.9.4-1.9 110.4.5 110.4.4 2.3 1.1 2.2 1.2 1.1-1.1 1.2-1.2 1.8 1.2 1.9 1.1 1.2-1.2 1.2-1.2h5.5l.6 1 .6 1h35.5l1.1 1.1 1.1 1.1-.5 1.4-.5 1.4h3.2l-.3-2.3-.2-2.2 4.8-.3 4.9-.3 1.4 1.2 1.4 1.1v16.2l.1 16.1 1.4 1.9 1.4 1.8 2.8-.7 2.8-.7 3.1-2.3 3.1-2.4 2.7-.7 2.6-.6.6-.9.5-.9 1 .6 1 .6-2.8 2.7-2.8 2.8-8.5 5.8-8.5 5.9-4.5 3.9-4.5 3.9-2.1 1.9-2.2 1.9H478v4.9l.9.6 1 .5 5.6-3 5.5-3 1.1 2.7 1.1 2.8-.5 13.9-.6 13.9-.9.9-1 1-10.7-.1-10.7-.1-1.1-.7-1-.6 1.8-1.4 1.9-1.3h-5.2l.2 1.7.1 1.8-80.4.3-80.4.2-1.3-1.1-1.4-1.1-1.4 1.1-1.4 1.2-13.6-.2-13.7-.2-.5-.8-.5-.9H163v-2h2v-2h-4.8l-.5 2-.5 2.1-25.9-.5-25.8-.5h-3l-3-.1-13.5-.1-13.5-.1-1.2-1-1.3-1V561h-6.5l-2.7 1.4-2.8 1.5-.5-1-.6-.9.6-1 .6-1h2.8l2-2.6 2-2.5 4.2-3.2 4.2-3.2 3.6-2.1 3.6-2.2.3-2.7.4-2.7-2.4.7-2.3.7-2.2 1.4-2.2 1.4-1.1-1.9-1-2v-32.2l2.3-.8 2.2-.9zm385.2 31.1.6.7-.6.7-.7.6v-2.6zM253 608.7l.5.1 37.5.3 37.5.3 1.5.7 1.5.8 1.8.5 1.7.5-.1 47.3-.1 47.3-.7 6.5-.6 6.5-5.5-.1h-5.5l-20.7-.4-20.7-.5-1.6 2-1.6 2-3.4 5.3-3.5 5.3-1-.6-1-.6v-4.8l.9-.5.8-.6.7-5.9.7-6 1.3-2.8 1.4-2.8.7-6 .6-6 1.4-3.1 1.5-3.2.2-2.2.3-2.3-1.2-.4-1.3-.5-1.2 2.9-1.2 2.8-2.6 4-2.6 4-1.2 2-1.2 2-2 4.1-2.1 4.2-3.2 3.6-3.3 3.6h-41.3l-1.3-2.3-1.2-2.2.3-46 .3-46 .6-6 .7-6 19-.5 19-.5z"/><path d="M86 509h-.9l-.6 1-.6 1 1.6.6 1.6.6.5-.5.6-.6-.7-1-.6-1.1zm125.5 0H210v3h3v-3zm35.9 0H246v2h4.1l-.6-1-.6-1zM109 510h-.7l-.6.7-.7.6v1.7h5.2l-1.2-1.5-1.2-1.5zm179 2h-1.3l.6.7.7.6.7-.6.6-.7zm133 .5-1-.6v3.1h2v-1.9zm-262.5.5h-.5v1h1v-1zm142.5 0h-1v2h2v-2z"/><path d="M387.5 513H386v2.8l-2.7 1.7-2.6 1.8-1.9-1.2-1.8-1.1-10.7-.1h-14.6l-3.8-.1-1.3 1.2-1.4 1.1-.7-1.1-.6-1H141.8l-3-1.8-2.9-1.7-1 1.6-.9 1.7-20.5-.6-20.5-.5v19.2l-1 .6-1 .6 1.3 1.9 1.2 2-1.2 1.9-1.2 1.9 1.2 3.7 1.1 3.7-1.3 2-1.3 2 1.1 1.1 1.1 1.1v10.5l-.9.6-1 .6.1 7.8v7.9l2.7 2.8 2.6 2.9 52.5-.1 52.5-.1 10.8.5 10.7.4v3.8h2.8l.5-2 .5-2 4.4-.1h4.3l18 .1 18 .1 1.6 2.1 1.6 2.1 2.2-2.2 2.1-2.1h18.8l1.2 1.5 1.2 1.5h2.6l.6-1.5.6-1.5h159.8l.6-2.3.5-2.3.1-33.3.2-33.3-.4-.4-.4-.3-32.1-.1-32.1-.2-.7-.6-.7-.7-1.6-.1-1.7-.1-3.2-.2-3.3-.1v-4zm-102.6 8.7 12.4.2 1.1 1.1 1.1 1.1-1.9 1.4-1.9 1.4-17.1-.1-17.1-.1-1.9-.9-1.8-1 1.1-1.1 1.2-1.2 6.2-.5 6.2-.5zM111 522h10v2h-20v-2zm64 0h51v1.6l-1.2 1.2-1.2 1.2h-79.5l-.6-1-.6-1H124v-2zm199 .4 38.5.8.9.8.9.9-1.4.5-1.4.5-37 .4-36.9.5-2.4-.9-2.4-.9 1.3-1.7 1.4-1.6zm45.8.8 3.7.3v2l-2.8.3-2.9.3-1.4-.5-1.5-.6.6-1 .7-1.1zm14.8 0 8.4.3.3 1 .2 1-7.9.3-7.9.3-1.4-.5-1.4-.6.6-1 .7-1.1zm18.3 0 4.4.3.4 1.2.4 1.1-2.9 1.4-2.9 1.5-2.7-2.2-2.7-2.1.8-.8.7-.7zM167.4 530h66.3l1.8 2 1.8 2-.1 19.5v19.6l-1.8 2-1.7 1.9H108.4l-.9-.9-1-1-3.5-.3-3.5-.3-.3-20.3-.2-20.3 1-1.9 1.1-2zm98.5.1 14.6.1 1.1.9 1 .8 12 .3 11.9.3.3 20.3.2 20.3-1 1.9-1.1 2h-53.2l-1.9-1.7-1.8-1.6v-40l1.7-1.9 1.7-1.9zm121.9 2.1 69.7.3.3 20.5.2 20.6-1.2 1.7-1.3 1.7h-137l-1.3-1.7-1.3-1.8.3-19.5.3-19.5.8-1.3.8-1.2zm-231 48.8h55.8l.9.9 1 1 4 .3 4 .3-.5 1-.5 1-60.4-.2-60.3-.2-.5-.5-.5-.5.5-1.6.6-1.5zm119.1 0h10l.6 1 .7 1.1 1.2-1.1 1.3-1 3.2 1.1 3.2 1.1-.4 1.2-.4 1.1-14.3.3-14.3.3-1-1-1-1 .6-1.5.6-1.6zm112.2 2h53.1l-.4 1.2-.5 1.3-50.4.3-50.4.3-2.2-.6-2.3-.5v-2zm62.4.8 2.5.4v1.8h-6v-1.7l.5-.5.5-.5zM77.2 514.2l-1.4-.4.4 1.6.3 1.7h1l1-.1v-2.3zm400.7 15.3-.6-.5-.6.7-.7.6v2.1l1.2-1.2 1.2-1.2zM80 531h-1v2h2v-2zm4 20h-1v2h2v-2zm393 6h-1v2h2v-2zM83.6 567H82v2h1.9l.6-1 .6-1zm396.6 19.8-1.1-1.1-.7 1.7-.6 1.7.6.6.6.7 1.2-1.2 1.2-1.2zM84 589h-1v2h2v-2zm398.5 2h-.5v1h1v-1z"/><path d="m250.8 594.9-.4-1.3-.8 1.3-.8 1.2.6.6.6.6.6-.6.6-.6zm-115.3.1H134v2h3v-2zm64.6.2-1.1-.4v3.4l1.1-.4 1.1-.4v-1.9zm129.8-.2h-1l.6 1 .6 1h.9v-2zm43.6 0H372v3h3v-3zm26 0H396v1.8l2.5.6 2.6.7.9-.6 1-.6V595zm30.5 0h-3v3h6v-3z"/></svg>