<svg xmlns="http://www.w3.org/2000/svg" version="1.0" viewBox="0 0 954 806"><path d="m249.4 61.3-1.1-.4-1.7 2.5-1.6 2.5V69h-4.8l-1.2 1.5-1.2 1.5 1.2 1.4 1.1 1.5 2.2.3 2.2.3.3 27.7.2 27.8-3.6 1.5-3.6 1.5.4 1.2.4 1.2 3.2.8 3.2.9v60l-1 2-1.1 1.9h-5l.3 1.7.3 1.8 2.3.3 2.2.3 1 1.9 1 1.8-.4 32.7-.4 32.7-1.9 1.3-1.8 1.4-2.7.1H235v1.6l1.2 1.2 1.2 1.2h6.4l.5 5.2.5 5.3-.3 16-.2 16-.2 13.2-.1 13.3h-7.8l-1.1 1.3-1.1 1.3 1.2 1.2 1.2 1.2h3.4l2.2 1.8 2.2 1.8-.7 28.1-.7 28-2.9 1.7-2.9 1.7 3 2.5 3 2.6v4.6l1.3 1.1 1.3 1.1 1.2-1.2 1.2-1.2v-4.5l2-1.1 1.9-1 40.3.2 40.3.3.3 2.2.3 2.2 1.3 1 1.3 1.1 1.1-1.2 1-1.3.4-2 .3-2h82l2.8 1.5 2.7 1.4v3.6h4v-3.8l1.6-1.3 1.6-1.3 40 .2 40 .2.9.6.9.5v4.7l.6 1.6.6 1.6h3.6l1-1.3 1-1.2.4-3 .3-3 32.4-.3 32.4-.2 1.3 1.1 1.4 1.1 1.3-1.1 1.4-1.1.7.8.8.7 6.1.5 6.2.5-.3 1.4-.3 1.4 1.7 1.8 1.7 1.9 1.9-1.6 1.8-1.7V425h75.5l2.6 3.1 2.5 3.1 2.2-1.3 2.2-1.4v-3.3l1.5-1.2 1.4-1.2-1.4-1.5-1.5-1.4v-5.5l-1.2-1.2-1.1-1.1 1.3-1.6 1.3-1.6-1.1-1.1-1.2-1.2v-11.5l1-.6 1-.6v-4.8l-1-.6-1-.6V383h2l-1.2-1.9-1.2-1.9 1.4-1.7 1.3-1.6-1.1-1.1-1.2-1.2v-10.3l1.8-1.6 1.9-1.7h3.3v-3.6l-3.2-.9-3.3-1-.3-3.8-.3-3.7h2.1v-2.8l-1.2-.5-1.3-.4 1.4-1.7 1.4-1.7-1.1-1.1-1.2-1.2v-11.5l1-.6 1-.6v-4.8l-1-.6-1-.6V308h2.4l-1.2-1.2-1.2-1.2v-8.5l1-.6 1-.6v-7.7l2.7-2 2.6-1.9-.6-1.7-.6-1.6H698v-67.8l2.5-1.6 2.5-1.6v-3.7l-2.6-1.3-2.6-1.4.3-26.1.3-26 .6-3 .6-2.9 2.3-.6 2.4-.5 1-1.6 1-1.6-.6-1.7-.6-1.6h-3.4l-1.7-1.5-1.6-1.5.3-26.6.3-26.7 1.5-1.7 1.5-1.7V75h-2.1l-1.1-3.1-1-3-1.7.3-1.6.3-1.3 2.8-1.3 2.7h-19.5l-1.2 1.2-1.2 1.2v1.5l11.3.3 11.2.3v58l-36.5.1h-36.5l-2.5-.6-2.5-.6-.3-9.3-.3-9.3 1.2-1.4 1.2-1.5-1.1-1.1-1.2-1.2V105h2V87.4l-1.2-1.2-1.2-1.2 1.2-1.2 1.2-1.2V79h4.6l1.2-1.2 1.1-1.1 2.3.9 2.3 1 6.9-.5 6.9-.6.4-1.2.4-1.2h-11L620 75l-1.8-1.1-1.8-1.2-1-2.1-.9-2.1h-4l-.3 2.2-.3 2.3h-84.7l-1-1.3-1-1.2-.4-2.5-.3-2.5h-4l-.3 3.2-.3 3.3-2.4.6-2.3.6-16.9-.6-16.8-.5h-22.8l-22.8-.1-.5-1.8-.5-1.7-.8-1.5-.8-1.5h-3.8l-.3 2-.4 2-1 1.2-1 1.3h-43.9l-2-1-1.9-1.1-1.2.7-1.2.8-2.9.3-3 .3-1.3-1.1-1.3-1-2 1-2 1.1-.6-1-.7-1.1-1.2 1-1.2 1.1-1-1-.9-.9-8.5-.3-8.5-.3-.3-3.3-.3-3.2h-3.8l-.3 3.2-.3 3.3h-67l-8.2-.3-8.2-.3-.3-3.6-.3-3.6zM290.9 75h37.6l2.3.6 2.2.6V79h2v52.8l-1.5 1.2-1.5 1.2-4.7-.7-4.8-.7-36-.7-36-.6.1-26.7V78.2l1.3-1.6 1.3-1.6zm91.7.8 39.9.3 2.3 1.1 2.2 1.2-.2 28-.3 28.1-8.7.3-8.8.3-1.9-1.1-2-1-.3-2.7-.3-2.8-1.7-.3-1.7-.3-.9 3.3-.8 3.3-4 .5-3.9.5-12.5-.5-12.5-.5-.5-3-.5-3h-4l-.5 3-.5 3-9.4.3-9.3.3-1.4-1.2-1.4-1.1V84.4l1.2-1.2 1.2-1.2-1.2-2-1.2-1.9 1.9-1.3 1.8-1.3zm65.1.3 12.3.1.6.9.5.9h5.5l1-.9.9-.9 4.7.7 4.8.8 18.7.2 18.8.3 1.2 1 1.3 1v54.4l-1.2 1.2-1.2 1.2h-23.5l-.6-1-.6-1H433V78.4l1.2-1.2 1.2-1.2zM564.3 78h41.2l2.3.6 2.2.6v55.4l-1.2 1.2-1.2 1.2H590v-6.6l-1.2-1.2-1.2-1.2h-3.5l-.3 4.2-.3 4.3-16.2.3-16.3.2v-11.1l-1.5-.5-1.5-.6-1.5 1.2-1.5 1.2v7.4l-1.2 1.2-1.2 1.2h-17.3l-1.5-1.8-1.5-1.7.3-23 .4-23V78zM279 138h26.9l.6 1 .6 1 1.9-1.3 2-1.2 2 1.3 2 1.2h14.8l-.5 2-.5 2 1.2 1.5 1.2 1.5h3.8v13.3l-1.7 1.9-1.6 1.8H328v3.6l3.3.9 3.2 1 .3 15.4.3 15.4-1.1 1.1-1 1-40.3-.3-40.2-.3-1.3-1-1.3-1.1.3-29.6.3-29.6.8-1.3.8-1.2zm130 3.2h2.5l-1.2.5-1.3.5-1.2-.5-1.3-.5zm5-.2h1.3l-.6.7-.7.6-.7-.6-.6-.7zm3.5 0h.5v1h-1v-1zm56.7.2 38.5.5 1.2.7 1.2.8-1.8 1.3-1.8 1.3 1.9 2.1 1.9 2.1h2.7v13.6l-3 1.7-3 1.8v2.9l3.3 3.1 3.2 3-1.2.6-1.3.5v2.7l-6.7.3-6.8.3-.3 2.6-.3 2.7 7 .7 7.1.7V203l-8.7.2-8.8.1-32.5-.2-32.5-.3-1.2-1-1.3-1v-11.5l1.8-1.6 1.7-1.6 5.4-.3 5.4-.3 1.1-1.8 1.1-1.7-1.1-1.8-1.1-1.7-5.9-.3-6-.3-1.2-2-1.3-2.1 1.1-1.3 1.1-1.3 2.4-.6 2.5-.6v-6h-5v-3.9l-1-.6-1-.6V154h1.8l-.1-1.3v-1.2l.1-1.6.2-1.7 2.1-.5 2.1-.6-.7-3.1-.7-3.2zm65.3.8h1.4l.6 1 .6 1h-5.2l.6-1 .6-1zm-14 1h.5v1h-1v-1zm3 0h.5v1h-1v-1zm4 0h.5v1h-1v-1zm121.3 1h33.7l2.5 1.3 2.5 1.3.3 27.9.2 27.9-.8.8-.9.9-8.4.1-8.4.1-1.2.9-1.2.9-2-1-2-1.1h-53.8l-.4-.4-.4-.4.3-14.2.3-14.1 2.9-1.1 2.9-1 .6-1.9.6-1.9-.6-1-.6-1H614v-15.6l3-1.1 3-1.1V144zm-305 3h10l1.1 1.4 1.2 1.4-.3 6.4-.3 6.3-4 .5-4 .5-6.5-.5-6.5-.5-.3-7.8-.3-7.7zm33.1 0h15.7l1.2 1.2 1.2 1.2v12.4l-1.5 1.2-1.4 1.2-14.5-.4-14.5-.3-1.1-1.1-1-1-.4-4.5-.4-4.4.5-2.8.6-2.7zm33.9.7 8.7.3 1.3.5 1.2.4v12.7l-1.2 1.2-1.2 1.2h-17.2l-1.2-1.2-1.2-1.2v-12.2l1-1 1-1zm115.2.3h.6l1 .9.9 1 5.5.3 5.5.3.3 6.4.3 6.3-1.8 2-1.8 2-7.9-.6-7.9-.7-1.9-1-1.9-1 .3-6.7.3-6.7 3-.3 3-.4 1-.9.9-.9zm36.3 2.2 16.2.3.3 6.8.3 6.9-1.2 1.4-1.1 1.4H551v-17zm31.1-.2h8.4l1.6.6 1.6.6v13.4l-1.2 1.2-1.2 1.2H590v-17zm-249.7 18h8.4l2 1 1.9 1.1v30.8l-1.9 1.1-2 1h-15.7l-1.2-1.2-1.2-1.2v-31.3l.7-.6.6-.7zm26.2.4 7.6.6 8.8.6 8.7.5v30.5l-1.2 1.2-1.2 1.2h-30.4l-.9-1.3-1-1.2v-15l-.1-15 1.1-1.3 1.1-1.3zm40.6 1.6h8.3l1.6.6 1.6.6v5.9l-1.7.5-1.8.6-3.2 1.5-3.3 1.4V196h-2v7.1l-4.7-.3-4.8-.3-.3-14.9-.3-14.8 1.2-1.4 1.1-1.4zm116.3 1h6.2l1.8.9 1.7 1 1.8.5 1.7.5-.1 11.3-.1 11.3-.7 3-.6 3-4.3.3-4.2.3V180l-1.7-.1-1.8-.2-3.3.2-3.3.3-1.4-1.2-1.5-1.2v-4.1l1.8-1.3 1.7-1.3zm28.1 0h2.7l1 1 .9.9 9.5.3 9.5.3v30l-13 .3-13 .3-3.2-.6-3.3-.6v-19.5l-1.2-1.2-1.2-1.2 1.2-2 1.2-2v-4h4.9l.6-1 .6-1zm38.5 2h8.4l1.4 2.2 1.5 2.3.1 4.7v4.8l-.9.6-.9.5v5.8l1.1.7 1.1.6-1.3.9-1.4.9h2.5l-.9 1.7-1 1.8-.5 1.7-.5 1.8h-15.8l-1.9-2.1-1.8-2 1.2-1.9 1.2-2v-3h-2v-3.9l1-.6 1-.6v-8.5l-1.2-1.2-1.2-1.2h2.4v-4zM425 187h2v13.6l-1.2 1.2-1.2 1.2H423v-16zm100 0h3v16h-6v-16zm-234.7 20h40.3l1.2 1.2 1.2 1.2v3.6h2v32.6l-1.2 1.2-1.2 1.2 1.2 2 1.2 2h-2v3.9l1 .6 1 .6v4.9h-2v4.9l1 .6 1 .6v4.8l-1 .6-1 .6v3.9h-70.1l-2-1.1-2-1-1.5 1.2-1.5 1.2-2.7-1.4-2.7-1.4-1.2-1.5-1.2-1.5-.1-2.2v-2.2l1-.6 1-.6V207zm58.3.2 1.1-.2.7.7.7.7 4.6.3 4.6.3 1.3 1.8 1.2 1.7 1.9-1.8 2-1.7h8.9l1.2-1.2 1.1-1.1 1.4 1.1 1.3 1.1 9 .3 8.9.3 1 2.2 1 2.3h3.4l.3-2.3.3-2.2 5-.3 5.1-.3 1.4 3.6 1.4 3.5h3.6v-3h2v-4.1l1.8.3 1.7.3.3 33.9.2 34-.9.9-.9.9-2.1-.7-2.1-.6v-18.8l-1.1-.6-1-.7-2 1.8-1.9 1.7V279h-10l-1-2.5-1-2.5h-4l-1 2.5-.9 2.4-14.8-.5-14.8-.5-.6-.7-.7-.7-.4-2-.3-2-1.8-.3-1.8-.4-1.4 1.2-1.5 1.2v3.8h-20l-.1-1.8-.2-1.7.3-32.5.2-32.5.6-.7.7-.7 3.5-.4 3.5-.4zm123.9 1.8h39l2.3.6 2.2.6-.2 34.2-.3 34.1-40.9.3-40.9.2-1.3-1.1-1.4-1.1v-65.4l1.2-1.2 1.2-1.2zm62.6.5 6.5.2 1.2.7 1.2.7v4.7l.6 1.6.6 1.6h3.4l1.2-1.2 1.2-1.2v-6.5l3.6-.7 3.6-.7 11.5.7 11.5.6.9.6.9.5v4l1.6.6 1.5.6 2-2.1 1.9-2.1V210h18v6.9l1 .6 1 .6V232l-1.2 2-1.3 2 1.3 2 1.2 2v3.9l-1 .6-1 .6v33.6l-2.4 1.2-2.4 1.3-4.3-.5-4.4-.6-3.2-.6-3.1-.7-.5-1.9-.5-1.9h-3.4l-.5 2-.5 2-2.2.1-2.1.1-13.5-.2-13.5-.2-1.2-1-1.3-1V272h-3.9l-.7 3.5-.6 3.5H534v-15.8l-1.5-1.2-1.5-1.2-1.5.6-1.5.5v15.9l-1.6.6-1.6.6H522v-68.9l3.3-.3 3.2-.4zm108.9.5h28.9l.6 1 .6 1h17.6l.6 3.7.5 3.8-.4 29.8-.4 29.9-.6.9-.5.9h-37.2l-37.2-.1-1.9-1.4-1.8-1.4.4-32.8.4-32.9.8-1.2.7-1.2zm-364.4 72h27.3l.6 1 .6 1 2-1 1.9-1.1 1.2.7 1.2.8 8 .2 7.9.2 2.3.6 2.4.6v7.9l-1.1.6-1 .7.3 5.5.3 5.5.7.5.8.4v4.9h-2v6.9l-2.2.3-2.3.3-.3 1.7-.3 1.8 2.5 1.1 2.6 1.2v19.6l-2.2.3-2.3.3-.3 2.7-.3 2.8h2.6l-2.9 1.5-3 1.6-6.2-.4-6.3-.3-.7-.7-.7-.7h-12.6l-.6 1-.6 1h-13.8l-.6-1-.6-1h-31.5l-1.2-1.2-1.2-1.2V288h2v-3.6l1.2-1.2 1.2-1.2zm69.4 2h10v34h-19.8l-.6-2.8-.6-2.7.4-12.5.4-12.5.1-1.8.1-1.7zm33.1 0H398v33.8l-1.7.7-1.8.7-8.3.5-8.2.5-1.5-1.2-1.5-1.2-1.5 1.2-1.6 1.3-3.4-1.9-3.5-1.9v-28l.6-2.3.6-2.2zm32.2 0h9l1.9 1.7 1.8 1.6V298h-3.6l-1.2-1.2-1.2-1.2v-7.2l-1.2-1.2-1.2-1.2-1.8 1.7-1.8 1.6v13.6l1.9 1.1 2 1h6l1.1 1.9 1 2v8.7l-1.2 1.2-1.2 1.2h-18.2l-1.2-1.2-1.2-1.2v-32.3l.7-.6.6-.7zm60.7.7 38.5.4 1.3.4 1.2.4v12.6l-2.7 1.2-2.7 1.3H502v3.8l1.3 1 1.3 1.1 5.4.3 5.5.3.3 6.7.3 6.8h-4.7l-1.2 1.2-1.2 1.2v3.5l3.5.7 3.5.6v15.6l-1.2 1-1.3 1-2 .4-2 .4.2 3.8.3 3.8-29.8-.4-29.7-.3-7.2-.3-7.3-.4v-1.6l2-.5 2-.5v-3.5l-1.7-1.3-1.8-1.3-2.7-.1H431v-16.6l3.5-1.4 3.5-1.4V321l-3.5-1.4-3.5-1.5v-10.7l1.2-1.2 1.2-1.2h12.7l.5-1.5.6-1.5-1.2-1.5-1.2-1.5h-10.6l-1.6-.6-1.6-.6v-12.7l2.8-.4 2.7-.3zm57.8.5 10.7.3.3 17.7.2 17.8h-21.9l-.3-3.3-.3-3.2.4-3.8.3-3.7h6.5l2.7-2.6 2.6-2.7v-8.3l-1.2-1.2-1.2-1.2H528v7.8l-1.5 1.2-1.5 1.2-1.5-1.2-1.5-1.2v-13.9zm34 0 15.7.3.3 17 .3 17-1.8 1.2-1.7 1.3h-21.3l-4.7-.6-4.6-.7v-30.6l1-.6 1-.6v-4zm32.1 0 8.6.3.3 16 .3 16-.6 2.3-.6 2.4-8.9-.4-8.8-.3-.9-.8-.8-.8.3-16.2.3-16.1 1.1-1.3 1.1-1.4zm53.5.4 38.1.6 1.2 1.5 1.2 1.5-.6 32.1-.5 32.2-1 1.2-1 1.3h-19.7l-.6-.9-.5-1-3.5.2-3.4.3-.7.7-.7.7h-38.6l-.6-1-.6-1h-5.3l2.2-1.6 2.2-1.5v-3.6l-3.2-.9-3.3-1-.3-8.6-.3-8.7 3.3-.3 3.3-.3v-5l-3.2-1-3.3-.9v-16.2l-1.2-1.2-1.2-1.2 1.2-2 1.2-2h-2.4l1.2-1.2 1.2-1.2v-9.3l.7-.6.6-.7zM348.8 325h8.8l2 1.4 1.9 1.5-1.2 1.2-1.3 1.3v13.7l-10.2-.3-10.3-.3v-15l.7-1.8.7-1.7zm32.8 0h14.2l1.1 1.4 1.2 1.5-.6 7.8-.7 7.8-.3.3-.3.3h-8.8l-8.9.1-1.2.9-1.1 1-.7-1.1-.6-1h-7.5l-1.2-1.2-1.2-1.2v-14.2l1.2-1.2 1.2-1.2zm32.6 0h7.9l2.4 1.6 2.5 1.6-.6 6.7-.5 6.6-.4 1.2-.4 1.3h-4.7l-1.1 1.1-1.1 1.1-3.9-.5-3.8-.6-3.2-.7-3.3-.6v-16.4l1.2-1.2 1.2-1.2zm121.3 2.7 7 .5.8.5.7.4v14.6l-2.3 1.2-2.2 1.2-8.5-.3-8.5-.3v-17l3-.7 3-.6zm30.5.3h14.6l1.2 1.2 1.2 1.2v12.3l-1.8 1.6-1.9 1.7-13 .1h-13.1l-2.1-1.3-2.1-1.3v-13.1l1.2-1.2 1.2-1.2zm31.5 0h8.4l.7 1.2.8 1.2-.1 6.9v6.8l-1 1-.9.9-7.6.2-7.6.2-1.7-1.4-1.7-1.4.6-6.9.5-6.8.6-.9.6-1zm-219 22.6 3 .2 6.8.1 6.7.1v2h-25v-1.9l2.8-.3 2.7-.4zm-28.5.4h6v2h-12v-2zm64.4 0h8.5l.6 1 .6 1H406v-2zm122.1 2.3h6l-2.7.4-2.8.4-3.2-.4-3.3-.4zm29.5.1h14.5l-7.2.3-7.3.4-7.2-.4-7.3-.3zm27.5-.1 4-.1-1.7.5-1.8.4-2.2-.4-2.3-.4zm8.5 0h4.5l-2.2.4-2.3.4-2.2-.4-2.3-.4zm-316.2 3.4 35.7.3H333v58.6l-1.2 1.2-1.2 1.2h-62.5l-.6-1-.6-1H261l-1.9 1.2-1.8 1.1-4.7-1.4-4.6-1.3v-57.2l1.1-1.1 1-1zm63.4.3h9.8v6.8l1.5 1.2 1.5 1.2 1.5-.6 1.5-.5V357h31.9l.3 3.2.3 3.3h6l.3-3.3.3-3.2h20.8l.7 1.1.7 1.1-.2 28.6-.1 28.6-1.2 1.3-1.1 1.4-42.1-.6-42-.6-.8-.5-.8-.5v-29.3l.1-29.4.6-.6.6-.6zm114.7.4 30.6.6 10.8.5 10.7.6v50.6l-.6 4.7-.7 4.6h-81.5l-1.3-1.6-1.3-1.6.2-28 .2-28.1 1.2-1.4 1.1-1.4zm68 1.6h9.6l1.1.8 1 .7.7 1.8.7 1.8 1.7-.3 1.8-.3.3-2.3.3-2.2H580l1 2.5 1 2.5h5.2l.5-1.9.5-1.9 2.1-.6 2.2-.6h10l2.3.6 2.2.6v56.5l-1.8 1.6-1.8 1.6-40.4-.4-40.4-.5-.2-.3-.2-.2-.6-28.1-.7-28 .7-1.7.6-1.7zm89.4.6 2.7.4h32.9l32.9.1 1.3 1.5 1.2 1.5-.3 24.7-.3 24.7-.2 3.5-.2 3.5h-77.8l-.3-11.8-.3-11.7h-2.3l1.2-1.2 1.2-1.2v-33.5l2.8-.4 2.7-.5z"/><path d="M471.6 178h-7.2l-1.2 1.2-1.2 1.2v3.2l1.2 1.2 1.2 1.2h25.2l1.2-1.2 1.2-1.2V180h-11.9l-.6-1-.6-1zM419 225h-2v4.9l-1 .6-1 .6v15.5l1.2 1.2 1.2 1.2h3.6v-13.6l1.2-1.2 1.2-1.2-1.2-2-1.2-2v-4zm112.6-3h-2.3l-.6.7-.7.6v23.6l1 .6.9.6 2-1.3 2-1.2.3-8 .3-8.1-.3-3.8-.3-3.7zm-60 77h-13.3l-.6.7-.7.6v4.7h18l2 1.2 2 1.3 2-1.3 2-1.2h7v-3.7l-2.5-1.1-2.6-1.2zM648.3 75h-2.5l.4 1.2.5 1.3 3.6.3 3.7.3v-1.9l-1.6-.6-1.6-.6zm14.7.8-4-.4V79h10.2l-1.1-1.4-1.2-1.4zM94.7 484h-1.3l-1.2 1.2-1.2 1.2V543l-2 2-2 2h-3.6l-.9.9-1 .9-5.5 1.1-5.5 1.2-4.1 1.9-4.1 2-2.4 2.6-2.4 2.6 10-.7 10-.7 1-.8 1-.8 7.5-.7 7.5-.7-1.7 1.8-1.7 1.9-.4 31-.4 31 .9 1.7.9 1.8H94v-9.9l2-1.1 1.9-1 144.3.1 144.3.1 9 .3 9 .3 4.7.7 4.7.7-.4 51.4-.4 51.4-.6 1-.6 1h-18.6l-.6.7-.7.6 1.1 1.3 1 1.2 35.8.1 35.8.2.6-2.1.5-2h2.2l.1 3.2.2 3.3-.3 7-.2 7-1 1.2-.9 1.1.3 5.9.3 5.8h3.8l.8-1.5.8-1.5 1.5-3.5 1.4-3.5.7-4 .7-4 .8-1 .7-1 .6-3.8.6-3.9 1.2-1.4 1.2-1.5 31.8.1 31.9.1.5 1 .6.9h4.7l1.2-1.5 1.2-1.4-.7-1.1-.6-1h-15.7l-1.6-.6-1.6-.6V615.9l105.3.5 105.2.6 38 .5 38 .4 14.3.7 14.2.6v13.6l1.3 1.1 1.4 1.1.6-.7.7-.6v-5.3l1.2-1.2 1.2-1.2-1.2-2-1.2-2v-3.6l1.2-1.2 1.1-1.1-1.1-1.3-1-1.3v-12l1-1.3 1-1.2H853v-7.6l1.2-1.2 1.2-1.2h-2.8l1.2-1.2 1.2-1.2v-19.4l3.3-.7 3.2-.7 1-.8 1-.8 4.5-.7 4.5-.7 2.5-1.4 2.5-1.4 2.3-2 2.4-1.9-.7-1.1-.6-1h-6.5l-1 .9-.9.9-8.7.6-8.8.7v-47l-1-.6-1-.6V501h2v-11h-3v4.6l-1.2 1.2-1.2 1.2 1.2 2.1 1.3 2.1-1.2 1.4-1.1 1.4h-3.4l-2.2-1.6-2.3-1.6-11.2.3-11.2.2-1.7 1.1-1.8 1.1-2-1.3-2-1.2h-8.9l-.6 1-.6 1h-19.5l-1.1-1.1-1.1-1.1-.6 1.1-.7 1.1h-9.5l-1.1-1.1-1.1-1.1-.6 1.1-.7 1.1h-6.8l-.6-1-.6-1-1.9 1.2-1.9 1.2-2.5-1.3-2.5-1.4-1.5 1.2-1.5 1.3-7.8-.5-7.8-.6-8.4-.6-8.4-.7-2.2 1.2-2.3 1.2-4.3-.6-4.4-.7-22.9-.5-22.9-.6-2.2 1.2-2.2 1.2-1.9-1-1.9-1-168-.7-168-.7-.9-.9-1-.9h-5.2l-1 1-1 1-3.2-1.2-3.2-1.3-2 1.3-2 1.2h-9.9l-.6-1-.6-1h-4.8l-.6.9-.5 1-20.6-.1-20.5-.2-.5-.8-.5-.8h-11.5l-1.2 1.2-1.2 1.2-2.3-1.3-2.3-1.2-28.4.5-28.5.6h-24l-18.2-.5-18.3-.6V484zm77.5 21h.8l2 1.2 2 1.2 1.2-1.2 1.2-1.2h16.2l1.2 1.2 1.2 1.2 1.1-1.1 1.1-1.1 2.9 1.1 2.9 1.2 2-1.3 1.9-1.2.5.9.5.8 13 .2 13 .2 2-1.3 2.1-1.2 1.2 1.2 1.2 1.2h20.5l.6-1 .6-1h6.8l.6 1 .6 1h4.8l.6-1 .6-1h4.6l.7.7.8.8 1.6.1 1.7.1 1.6.2 1.7.1.5 2 .5 2h3.2v-4l5.3-.1 5.2-.1 6.1.2 6.2.2.7-1.2.7-1.1 1.2 1 1.3 1.1 3.3-1 3.4-1 1 1 1 1h31.5l.6-1 .6-1h4.8l.6 1 .6 1h72.8l.6-1 .7-1.1 1.4 1.2 1.4 1.2 175.8.4 175.7.5 1.6.9 1.7.8 22.8.2 22.9.2 1.3.4 1.2.5v41.9l-1.7.5-1.8.6-2 .8-2 .9-3.5.6-3.5.7-4.5 1.5-4.5 1.6-1.7 1.5-1.8 1.5 1.1 1.4 1.1 1.3h7.4l1-1 .9-.9 7.1-.7 7.1-.7.7 5.5.7 5.5-.2 5.4-.1 5.4-.5 2.2-.5 2.3h-10.9l-.5-1.5-.6-1.5H833v3h-38l-2-2-2-2v-2.1l-2.2.3-2.2.3-.6 2.5-.6 2.5-14.4.3-14.5.3-1.2-1.8-1.3-1.7v3.4h-49.8l-2.7-3.6-2.7-3.5-2.1.3-2.2.3-1.5 3.2-1.5 3.3h-3.3l-1.2-1.5-1.3-1.6 3.6-3.7 3.7-3.8v-5.2l-4-3.6-4-3.6h-9.7l-1.7 1.9-1.7 1.8 1.3 1 1.3 1 4 .8 4 .7 1.3 1 1.2 1v1.4l-2.9 1.7-2.9 1.7H620v-45.5l.6-2.3.6-2.2 34.1.2 34 .3.7 1.5.7 1.5 1.4 3 1.5 3 2.3.3 2.3.4 1.9-1.8 1.9-1.7v-4.3l1.2-1.2 1.2-1.2h78.7l.5 1.7.6 1.8 1.5 3.2 1.4 3.3h3.8l1.5-2.2 1.6-2.2v-3.5l1.6-.9 1.6-.9 25.4.5 25.4.5v-2.4l-.1-2.4-1.3-1.8-1.3-1.7h-3.1l-.6 1.5-.5 1.5h-102l-.7-1.1-.6-1.1-1.1 1.1-1.1 1.1h-16.5l-.6-1-.6-1h-23l-2.1 1.1-2 1.1-1.1-1.1-1.1-1.1h-71.5l-3.5-3.5-3.5-3.4-43.6-.1h-43.6l-1.8-1.2-1.8-1.1-3.2 1.4-3.1 1.4v2.4l-2.7 2-2.6 2.1-38.8-.3-38.8-.3-3.3-3.1-3.3-3.2-40.5-.1-40.4-.1-1.3-1-1.2-1-2.1 1.1-2.1 1.1-1.3-1-1.3-1.1-3.9 1.7-3.9 1.8-3.2 2.3-3.2 2.3-30.6-.2-30.5-.1-.5-.8-.5-.8-33.8-.1h-33.7l-46.8-.1H95.9l.3-6.8.3-6.7 36.5-.3 36.4-.2 1-1 1-1zm-51.7 22H145l.5 2.7.6 2.8.8 1.5.8 1.5 2.9.3 2.8.4 1.3-1.8 1.3-1.8V527l41.3.2 41.2.3-.3 2.9-.3 2.8 1.7 1.9 1.7 1.9h5.6l1.5-3.2 1.6-3.1v-3.8l34.9.2 35 .3 1 2 1.1 2.1.3 22.7.4 22.8h-66.8l.3-2.3.3-2.2 2.5-.3 2.5-.4 1.8-1.5 1.7-1.6V567l-3.5-1.7-3.4-1.6-3.9 2.5-3.9 2.6-1.7 3.6-1.7 3.6h-2.7l-1.2 1.5-1.2 1.5h-4.7l.2 3.7.2 3.8-30-.2-30-.2-10.7-.1H156v-6l-2.2-2.2-2.1-2.1-2.9 3.3-2.8 3.4v3.6H96.3l-1.1-2.3-1.1-2.2.2-2.7.2-2.8H96v-4l-1.1-1.9-1.2-1.8 1.4-3.1 1.4-3.1 3.5-1.7 3.5-1.7 1.5-.7 1.6-.7 3.4-.8 3.4-.8 1.6-.7 1.5-.8 4.3-1.8 4.3-1.7-.3-1.6-.3-1.6-4.3-.3-4.3-.3-1.2.9-1.2 1-11.8 1.2-11.8 1.2-.6-.6-.6-.6h4.2l1.5-3.2 1.6-3.1V527zm257.7.8 33.3.2 1.3.5 1.2.4v5.5l2.2 2.3 2.1 2.3h4.5l.6 2.2.6 2.3v35.1l2.8 3.3 2.7 3.3h44l10 .8 10 .7-36.3.1-36.3.2-.5-1.8-.5-1.7-.8-1.4-.7-1.5-1.7-1-1.6-1-2 1.8-2.1 1.9v4.7h-71.7l-.7-4-.6-4h-5.6l-1.2 1.2-1.2 1.2v5.6l-12.2-.1h-12.3l-3.5-.9-3.5-.8 12.5-.1 12.5-.2 2.6-2.2 2.5-2.2 1.7-2.7 1.7-2.7v-7l-1-.6-1-.6V539h2.8l2.4-1.3 2.5-1.3 1.6-1.6 1.7-1.7v-4.2l1.9-.7 2-.7zm90.9.2h34.5l1.2 1.2 1.2 1.2v10.2l1.1 1.1 1 1v26.6l-.5.4-.4.4-3.8-2-3.9-2.1h-7.3l-1.2 1.5-1.3 1.6 1 1 1.1 1.1 3.4.7 3.3.7.3 2 .3 2.1-7.3.8-7.3.8-20.8.2-20.8.2-.5-.8-.5-.9h-7.7l-1.6-.6-1.6-.6v-4.9l1.3-.4 1.2-.5 3.8-.3 3.9-.4 1.5-1.6 1.6-1.5-.6-1.6-.6-1.6H431v-32.9l1.8-1 1.7-1zm78.5.1 18.2-.2.7 1.1.6 1h13.8l.7-1.1.6-1.1 1.1 1.1 1.1 1.1H604v4.4l2.2 2.3 2.1 2.3h2.7v2.2l.1 2.3 1.4 1.9 1.5 2v22.1l-.6 5.2-.7 5.3H606v3h-2v3.5l-2.9 1.3-2.9 1.3-23.6-.2-23.6-.1-.6-.9-.5-.9h-9.8l-.5.8-.5.8-5-.1-5.1-.2-.7-.6-.6-.7h-5.6l-.9-3.2-.8-3.1-1.6-1.1-1.7-1-2 1.8-2.1 1.9v4.7h-14.1l.6-1 .6-1h7.5l3.7-4.4 3.7-4.5V539h2.9l2.4-1.1 2.5-1.1 1.3-2.7 1.3-2.6 2-1.6 1.9-1.6zM86.5 552h.5v1h-1v-1zm165.6 31h1.8l.6 1 .6 1h6.8l.5-.8.5-.9h9.1l9-.1.6.9.5.9h15.4l-1.2.8-1.1.7-20.9-.2-20.8-.1-2.9-.1-2.8-.1 1.2-1.5 1.2-1.5zm361.4 3h.5v1h-1v-1zm-461.6 6 55.9.1.6 1.5.5 1.4h2.9l1.1-1.4 1.2-1.4 194.7.5 194.7.5 1 .9.9.9h5.5l.6-1 .6-1h11.8l.6 1 .6 1h8.5l1.2-1.2 1.2-1.2 1.2 1.2 1.2 1.2H702v4h3.2l.5-2 .5-2h22.2l22.1-.1 48.3.1 48.2.1 1.6.6 1.5.5-.3 6-.3 6-3.9 1.3-3.9 1.4-2.3-1.6-2.4-1.5v-2.6l-1.9.5-2 .5-.5 1.4-.5 1.4h-22l-.6 1-.6 1H674.3l-.7-.7-.7-.8-3.2-.1-3.2-.2-1.2 1-1.3 1-1.5-1.2-1.6-1.3-1.1 1.1-1.2 1.2h-30.5l-.7-1.1-.6-1.1-1.1 1.1-1.1 1.1h-9.5l-.6-1-.6-1H603v-5.2l-1.2.4-1.2.4-.6 2.5-.6 2.4-3-.2-2.9-.1-161-.7-161-.8-.9-.8-1-.9h-6.3l-.6.7-.7.6-2.8.2-2.7.2-1.3-1-1.2-1-5.3.8-5.2.7-1.5-.1-1.5-.2-5.5-.3-5.5-.4-53.5-.3-53.5-.3-14-.6-14-.5-.3-2.8-.3-2.7H96v-7zm319.6 23h48.3l3.2.6 3.2.7-.5 52.1-.6 52.1-23 .1-23.1.2-1.4 1.2-1.5 1.1-.3 2.1-.3 2.1-1 .4-1 .3.3-10.7.4-10.8.9-1 .9-.9V690h-3.2l-.5 2-.5 2h-1.5l-.6 5.1-.6 5.1-1 1.2-.9 1.1-.6 4.5-.7 4.5-1.1 2.2-1.1 2.3h-40.5l-1.1-1.4-1.2-1.4.1-49.8.1-49.8 1.1-1.3 1-1.3z"/><path d="M127.5 510h-1.7l.4 1.1.4 1h1.9l.3-1 .4-1.1zm193.8.2-1.3-.4-.6 1.6-.6 1.5.7 1.1.6 1h3l-.3-2.2-.3-2.1zm-113 2.8H207v4h1.8l1.1-1.3 1.1-1.4-.7-.6-.6-.7zm46.2 0H253v2h3v-2zm195.3 1h-.8v4h4v-1.6l-1.2-1.2-1.2-1.2zm31.7 0H480v3h3v-3zm297.2 1.2-1.5-1.3-.7 1.1-.7 1.1.5.6.5.5 1.8-.4 1.7-.3zm58.8-1.2H836v4h3v-4zm-663.3 1.8-1.1-1.1-.7 1.7-.6 1.7.6.6.6.7 1.2-1.2 1.2-1.2zm562.9-.2-.8-.5-.7.6-.6.6v1.7h3v-1.9zM631.7 517h-1.8l.3 1.7.3 1.8 2.8.3 2.7.3v-1.7l-1.2-1.2-1.2-1.2zm39.3 0h-2v3h4v-3zm36.1 1.6-.8-.5-.7.6-.6.6v1.7h3v-1.9zm-207.4.7-.7-.6v2.6l.7-.6.6-.7zM828.4 537H826v10.9l-1 .6-1 .6v1.9h5.1l2.2-1.1 2.2-1.1 2.7-2.6 2.8-2.6-1.7-1.8-1.6-1.8h-2.5l-1.2-1.5-1.2-1.5zM671 539h-.9l-.3.7-.4.8-.3 6.2-.3 6.3h1.4l1.3-.1 1.9-1.4 2-1.5h4.3l1.6-1.8 1.7-1.9v-2.2l-5.5-2.6-5.6-2.5zm141.1 4H810v1.9l.9.5.9.6 1.2-1.5 1.2-1.5zm-169.7 3h-.4v4h4v-2.8l-1.6-.6-1.6-.6zm102.1 0h-.5v1h1v-1zm22.5 1h-1v1.9l1 .6 1 .6V547zm25.5 5h-.5v1h1v-1zm-70.8 1h-.3l-1.2 1.2-1.2 1.2v1.6h3v-4zm-90.5 4.2-1.2-.4v3.2h3.2l-.4-1.2-.4-1.2zm54.4-.2h-1.5l-.6 1.1-.7 1 .6.6.5.5 1.6-.5 1.5-.6V557zm85.8 3H769l-1 2.4-.9 2.4.7 4.7.7 4.8 1.8 1.1 1.7 1.1 3.1-1.8 3.1-1.7h4.9l.6-1.7.7-1.7-5.3-4.8-5.2-4.8zm2.5 6h.9l1.1 1.4 1.2 1.4-1.7.6-1.6.6h-.8v-4zm-62.4-4H709v2h5v-2zm-49 7h-2.7l.5 1.2.4 1.3h3.6l.5-1.3.4-1.2zm-23.6 1h-1l-.6 1.6-.6 1.5 1 1 1 1 1.2-1.5 1.3-1.5-.7-1.1-.6-1zm93.7 4.1-1.4-1.2-.7 1.1-.6 1 .6 1 .6 1h2.9v-1.8zm89.6.9h-.9l-.6.7-.7.6v2.7h3v-4zm21.8 2h-.9l-.6.9-.5 1 1 .6 1 .6 1-.6 1-.6-.5-1-.6-.9zm-729-47h-2v3h4v-3zm12.3 0h-1l-.6.7-.7.6v7.6l-1 .6-1 .6v3.5l2.8 2.7 2.9 2.7 3.4-2.3 3.4-2.3 1.8-.7 1.7-.6v-2.8l-1.7-1.5-1.8-1.5-1.7-.6-1.8-.6v-2.8l-1.8-1.6-1.9-1.7zm3.4 10.2 1.6.3.4 1.1.4 1.1-2.1.6-2 .5v-3.9zm162.4-7.2h-.6l-1.3.9-1.4.8-.5 5.9-.5 5.9 2.6 2.4 2.5 2.4 4.3-.6 4.3-.6 1.5-1.8 1.5-1.9 1.8-.7 1.7-.6V543h-5l-5.1-5-5.1-5zm1.2 7h1.4l1.8 2 1.9 2.1-1.5 1.5-1.5 1.5-1.7-.7-1.7-.6V540zm-184.5 3-2.3.1-1.7 1-1.8 1v1.9h5.6l1.2-1.2 1.2-1.2V543zm62.2 0h-1v3h2v-3zm27.9 6h-.8l-.4.7-.5.8-.7 7-.7 7-.9 1.1-.9 1.1 1.5 1.3 1.5 1.2 1.3-1 1.2-1 4-.7 4-.8 1.3-1 1.2-.9v-3l-5.1-5.9-5.2-5.9zm2.1 8h.9l1.1 1.9 1 2-1 .6-1 .6-1-.6-1-.6V557zm66.5-8H267v2h3v-2zm-32.4 3h-1l-.6 1-.6 1h3.1v-2zm63 2h-.9l-1.1 1.4-1.2 1.4 1.1.7 1 .6 1-.6 1-.6V554zm-108 3h-.9l-1.2 1.5-1.2 1.5h4.2v-3zm-25 10h-.9l-1.2 1.5-1.3 1.6 1.1 1.1 1.2 1.2 1.6-1.6 1.6-1.6-.6-1.1-.7-1.1zm-41.9 6.6-1.1-.6-.6 1.1-.7 1 .6.6.6.7 1.1-1.1 1.1-1.1zm101.3-.6H224v3h3v-3zm-106.9 2h-1.5l-.6 1-.6 1h3l.6-1 .6-1zm96.8 1.1-1.9.1 1.3.5 1.3.5.6-.6.6-.6zM356.5 539H355v2h3v-2zm20 1H375v3h3v-3zm4.3 1h-.9l-.6 1.6-.6 1.5 1 1 1.1 1.1 2.8-.4 2.7-.3.4-1 .3-1-2.7-1.3-2.7-1.2zm-31.4 1.6-1.6-.6.4 1.2.4 1.2 1.2.4 1.2.4v-2zm46.7 3.4h-1l-.6.9-.5 1 .8.5.9.5.7-.6.6-.6V546zm-23.2 8.2-.6-.3-1.7 2.5-1.6 2.5v2.7l-1.5 2-1.4 1.9-.1 2.2v2.1l6.8.4 6.7.4 1.3-.9 1.2-.9v-5l-1.5-3.3-1.6-3.2-2.7-1.4-2.7-1.3zm1.6 7.8h2.5v2.9l-1 .6-1.1.7-1.4-1.2-1.5-1.2V562zm31.9-6h-1.6l.4 1.2.4 1.2 1.2.4 1.2.4V556zm-55.2 6h-.9l-.6.7-.7.6v3.9l1.3-.4 1.2-.5.3-2.1.3-2.2zm55.3 10H405v2h3v-2zm-49.3 3h-.9l-.6.7-.7.6v2.7h3v-4zM473 540h-.8l-1.6 3.4-1.6 3.4v9.2h1.9l.5-.9.6-.9 5-.7 5-.7v-3.5l-1.6-3.1-1.5-3.2h-2.7l-1.2-1.5-1.2-1.5zm1.4 7h1.6v.9l-.9.6-1 .5-.6-1-.6-1zm-15.3-5.5-1-.5-.5.9-.6.9 1.5.6 1.5.5v-1.8zm-3.7 20.6-1.9.1 1.3.5 1.3.5.6-.6.6-.6zM478 572h-1.3l.6.7.7.6.7-.6.6-.7zm96.5-33H572v2h5v-2zm-39.5 5h-1l-1.6 2.6-1.7 2.5 1.1 1.1 1.1 1.1 1.6-1.3 1.5-1.2V544zm65.1 0h-.8l-.6.7-.7.6v4.7h5.2l-.6-1.3-.6-1.2-.6-1.8-.6-1.7zm-32.2 8h-1.8l-.4.7-.5.8-.7 3.5-.8 3.4-1 1.7-1.1 1.7 1.4 1.7 1.4 1.7 4.7-.5 4.7-.6 2.1-1.3 2.1-1.3-.6-2-.6-2-3.6-3.8-3.6-3.7zm1.5 7h1.5l.6.9.6 1-2.1 1.1-2 1.1V559zm-32.6 1-1.3.1-1.7 1.3-1.8 1.3v1.4l2.7-.3 2.8-.3.3-1.8.3-1.7zm69 3-1.3.1-1.7 1-1.8 1v2l2.7-.3 2.8-.3.3-1.8.3-1.7zm-32.7 14.6-.8-.5-.7.6-.6.6v1.7h3v-1.9zm-24.4.7-.7-.6v2.6l.7-.6.6-.7zM543 582h-1v2h2v-2zm-382.9 12h-1l-.6 1-.6 1 .6 1 .6 1 1-.5.9-.6V594zm27.3 1H186v1.8l-.6 1.6-.6 1.6h3l.4-2.5.5-2.5zm119.3 2.3-.4-1.8-.8 1.8-.7 1.8.6.6.6.6.6-.6.6-.5zm160.8-1.3H466v3h3v-3zm26.7 0h-1.8l-1.2 1.2-1.2 1.2v1.6h6v-4zM126 598h-1v2h2v-2zm121.2 0h-2.9l-.6.7-.7.6v2.7h4.6l1.2-1.2 1.2-1.2V598zm28.3 0H274v2h3v-2zm103.5 0h-.7l-1.8 2-1.8 2h4.1l1.1-1.3 1.1-1.4-.7-.6-.6-.7zm-37 1h-1v4h2v-4zm99.5 0H440v3h3v-3zm86.3.2-1.8-.3v4.2l1.8-.3 1.7-.3v-3zm143.6-.2h-1.6l.4 1.2.4 1.2 1.2.4 1.2.4V599zm28.3 1.1-1.3-1.1-1.2 1.2-1.2 1.2v1.6h5v-1.8zm-49.8-.1h-1.8l-.6 1-.7 1.1 1.2 1.4 1.2 1.5h3.7l.6-1 .7-1.1-1.2-1.4-1.2-1.5zM414 601h-1v4h2v-4zm126.2.2-1.4-.4.4 1.8.3 1.7 1.3.5 1.4.4-.4-1.8-.3-1.7zM740 601h-.9l-.6.9-.5 1 1 .6 1 .6 1-.6 1-.6-.5-1-.6-.9zm-147.6 1h-1.6l.4 1.2.4 1.2 1.2.4 1.2.4V602zm176.2 0H767v3.2l1.2-.4 1.2-.4.4-1.2.4-1.2z"/></svg>