<svg xmlns="http://www.w3.org/2000/svg" version="1.0" viewBox="0 0 912 1058"><path d="m537.8 53-2.3.1-3.8 3.2-3.7 3.2v2.2l-2.4 4.7-2.4 4.7-1.4 1.7-1.4 1.7-1.1 2.5-1.1 2.5-1.6 3.7-1.7 3.7-1.7 1.3-1.7 1.3-1.2 2.2L509 94v2.8l-1.5 1.2-1.6 1.3-1.9 4.3-2 4.3-.9.6-1 .5-1.5 3-1.6 3-1.6 3-1.5 3H492v2.7l-2 1.8-2 1.8v2.4l-2 1.8-2 1.8v2.4l-1.5 3-1.5 3.1-1.5 1.2-1.5 1.2v2.7l-1.2.8-1.3.8-1.4 2.5-1.5 2.5-2.8 5.4-2.8 5.3v2.8l-1.2 2-1.3 2 1.3 2 1.2 2v2.8l-1.4 2.7-1.4 2.7-2.4 1.2-2.3 1.2v6.9l2.8 1.3 2.7 1.3v27.5l1.2 1.2 1.1 1.1-1.1 1.3-1.1 1.4-.3 6.4-.3 6.5-25.9.3-25.9.2-1.2-1-1.1-1-1.1 1.1-1.1 1.1-.6-1.1-.7-1.1h-9.6l-1.6-1.8-1.7-1.9v-37l1.6-3.1 1.5-3.2h7.8l.6-1 .6-1h12.7l.6-1.5.5-1.5h14.2l.5 1.5.6 1.5h3.6l.6-1.5.5-1.5h3.1v-4.5l-2.7-1.3-2.7-1.2h-29.2l-1.1 1.1-1 1-4.9-.3-4.9-.3-.3-7-.3-6.9-1-1.2-1-1.2 1.1-.7 1-.6v-6.8l-1-.6-1-.6v-4.5l-2.5-5.1-2.6-5.1-1.4-1.2-1.5-1.2v-2.6l-2.5-2.3-2.5-2.4v-2.3l-1.5-1.2-1.6-1.3-1.9-4.2-1.9-4.2-1.6-1.3-1.5-1.2v-2.6l-2.2-4.4-2.3-4.3-1.7-1.3-1.7-1.2-1.5-3.2-1.6-3.1v-2.5l-1.5-1.2-1.5-1.2-2.6-5.7-2.6-5.6-2.1-4.5-2.2-4.5-1.7-1.3-1.7-1.3-1.5-3.2-1.4-3.2-1.3-3.3-1.4-3.2H332v7.8l1.5 1.2 1.4 1.2 3.4 7.1 3.5 7.2 1.7 3.8 1.7 3.8 1.4.6 1.4.5 1.6 3.7 1.6 3.6 4.8 9.5 4.7 9.5 2.4 4.5 2.4 4.5 1.7 1.3 1.7 1.2 1.5 3.2 1.6 3.1v2.5l1.5 1.2 1.4 1.2 3.6 7.1 3.5 7.2v2l1.9 1.2 2 1.2 1.7 3.6 1.7 3.6-1.2 1.2-1.1 1.1v70.3l-1.8 1.6-1.9 1.7h-33.4l-2.4-1.6-2.5-1.6v-2.9l1.5-.5 1.5-.6v-2.5l2-1.8 2-1.8v-3.6l1-.6 1-.6v-4.7l-1.6-1.3-1.6-1.3-2.6 1.6-2.7 1.6-1.1 2.1-1.1 2.1-1.6 1.8-1.7 1.9v5l-2 1.8-2 1.8v2.4l-1.8 1.6-1.9 1.7h-8.9l-1.2-1.2-1.2-1.2-2 1.2-1.9 1.2-.6-1-.6-1-1.8 1.2-1.9 1.1-9.3-4.7-9.4-4.7-3.4-1.9-3.4-1.9-.6-.9-.6-.8-3.6-1.7-3.6-1.7-1.3-1.5-1.2-1.5h-3.5l-1.8-2-1.8-2h-2.4l-1.8-2-1.8-2h-2.6l-.8-1.3-.8-1.2-2.2-1.3-2.3-1.2h-2.7l-2.3-2.5-2.3-2.5-5.1-2.6-5.1-2.6-4.7-2.5-4.8-2.5V188h-2.7l-1.8-2-1.8-2h-2.4l-3-1.5-3.1-1.5-1.2-1.5-1.2-1.5h-2.5l-1.8-2-1.8-2h-2.4l-2.7-2.5-2.7-2.5h-5.6l-1.3 2.5-1.3 2.5 1.8 2 1.8 2 3 1.5 3 1.5h2.4l1.8 2 1.8 2h2.6l1.8 2.2 1.8 2.3 4.3 2.2 4.4 2.3h2.6l1.2 1.5 1.3 1.6 4.2 1.9 4.2 1.9 1.3 1.6 1.2 1.5h2.5l3.1 1.6 3.2 1.5v1.9h2.8l1.2 1.5 1.2 1.5 2.9 1.5 2.9 1.5 2.9 1.5 2.9 1.5 1.2 1.5 1.2 1.5h2.7l1.8 2.2 1.9 2.3 2.9 1.8 3 1.7 6.1 3 6.1 3 1.3 1.5 1.2 1.5h3.5l1.8 2 1.8 2h2.8l.5 1.5.6 1.5h2.5l1.8 2 1.8 2h9.3l1.1-1.1 1-1 5.9.3 5.9.3.3 6.8.3 6.7-1.6.6-1.5.6.1 2.7v2.6l3.1 2.4 3 2.4 1.7-1 1.6-1 .3-4.9.3-4.9 1-1 .9-.9v-6.2l2.8-2.7 2.8-2.7h7l1.1 1.1 1.1 1.1.6-1.1.7-1.1H380l1.8.9 1.7 1 1.8.5 1.7.5v69l-3.3 2.5-3.4 2.6h-29.2l-.6-1-.6-1h-4l-.5-1.8-.6-1.7-2.9-5.9-2.9-5.9v-3.6l-1-.6-1-.6v-5.4l-2.4-1.1-2.5-1.1-1 1-1.1 1.1v7.5l1 .6 1 .6v4.5l1.1 1.1 1 1-.3 4.9-.3 4.9-16 .3-16 .2-3.1 1.5-3.1 1.5-1.3 1.5-1.2 1.5h-2.5l-3.1 1.6-3.2 1.5-.5.9-.5.9-3.2 1.5-3.1 1.6h-3.9l-2 2.5-1.9 2.5h-2.7l-1.2 1.5-1.2 1.4-5.1 2.6-5.1 2.5h-2.3l-1.8 2-1.8 2H245v1.9l-3.2 1.5-3.1 1.6h-2.5l-1.2 1.5-1.3 1.6-4.3 1.9-4.3 2-.6 1-.6.9-3.7 1.7-3.7 1.6-2.5 1.2-2.5 1.1-1.2 1.7-1.3 1.6-5.2 2.6-5.2 2.6h-2.3l-1.8 2-1.8 2h-2.5l-1.2 1.5-1.3 1.5-3.3 1.6-3.4 1.6v5.1l1.8 1.3 1.7 1.3 2.1.1h2l2.9-3 2.9-3h2.4l.6-1.5.5-1.5h5.8l1.8-2 1.8-2h2.5l1.2-1.5 1.2-1.5 2.7-1.3 2.6-1.4 6.5-3.4 6.5-3.4 1.8-2.3 1.8-2.2h2.9l2.3-1.3 2.2-1.2 1.7-1.4 1.7-1.3 4.7-2.4 4.7-2.4h2.6l2.8-3.5 2.8-3.5h4.2l1.8-2 1.8-2h2.4l4.7-2.4 4.7-2.4 1.7-1.3 1.7-1.4 2.2-1.3 2.3-1.2h3v-1.8l5.2-2.6 5.2-2.6h5.5l.6-1 .6-1h13.8l.6 1 .6 1h15.5l2.7 2.8 2.7 2.8v2.3l4.8 4.5 4.7 4.6h4l1.1-2.3 1-2.3-1-2-1.1-1.9-1.8-2.8-1.9-2.8.6-1.4.5-1.5h23.4l3.4 2.6 3.3 2.5v13.8l-1 .6-1 .6v11.8l-1.1.7-1.1.6-1.1-1.1-1.1-1.1h-4.2l-1.2 1.2-1.2 1.2v3l.1 3.1 1.2 1.5 1.2 1.5 2.5 1.2 2.5 1.1 1.8.6 1.7.5v37l-1.3.8-1.2.8-3.4 6.5-3.4 6.5-3.5 6.8-3.5 6.9-1.8 1.1-1.9 1.2v3.3l-1.5 1.2-1.6 1.3-1.9 4.1-1.8 4.1-2.6 2.4-2.6 2.4v4.4l-1.6 3.2-1.6 3.2-2.4 1.6-2.4 1.5-1.6 3.7-1.6 3.6-1.1 2.5-1.1 2.5-1.4 1.7-1.4 1.7-2.4 4.7-2.4 4.7v2.6l-2.5 1.9-2.5 2v2l-1.5 1.2-1.5 1.3-1.6 3.6-1.6 3.6-1.4 3.2-1.5 3.2-.9.6-.9.6-1.7 3.4-1.6 3.4 2.1 3 2.1 2.9 2.5-1.1 2.5-1.2v-5.2l2-1.8 2-1.8v-2.6l1.3-.8 1.2-.8 1.3-2.2 1.2-2.3v-2.8l1.5-1.2 1.5-1.3 3-6.1 3.1-6.1 1.9-3.5 2-3.5 1.8-1.5 1.8-1.5 1.7-3.6 1.7-3.6 1.5-1.3 1.5-1.2v-2.5l1.6-3.1 1.5-3.2 1-.5.9-.6 2-4.5 2.1-4.5 1.7-1.7 1.7-1.8 1.5-2.9 1.4-3 1.4-1.7 1.4-1.6 1.9-3.4 1.9-3.3 2-4.3 2.1-4.2 1.9-1.3 2-1.2v-2.2l1.9-1.7 1.8-1.7 3.2-6.2 3.1-6.2.2-17 .3-17 4.9-.3 4.9-.3 1 1 1.1 1.1h15.5l.6 1 .6 1h10.8l.6-1 .6-1h7.9v-7h-26.9l-.6-1-.6-1h-11l-.5-1.5-.6-1.5h-2.5l-3.1-1.6-3.2-1.5v-34.6l1.8-1.6 1.9-1.7h19.2l.6 1 .7 1.1 1.4-1.2 1.4-1.1 1.4 1.1 1.4 1.2.7-1.1.6-1h4.8l.6 1 .6 1h7.8l.6-1 .7-1.1 1.2 1 1.2 1 11 .3 10.9.3.3 16.7.2 16.7-3.7 1.6-3.8 1.7-1.5.7-1.5.8-.3 2.7-.3 2.7 1.2 1.5 1.1 1.4h5.5l1.6 1.8 1.7 1.9v45.1l1.5 1.2 1.5 1.3 3.1 6.3 3 6.4 1.9 1 2 1.1v2.5l2.5 5.1 2.6 5.1 1.4 1.2 1.5 1.2v2.5l3.3 6.4 3.2 6.4 2.3 1.8 2.2 1.8v2.6l2.4 4.7 2.4 4.7 1.4 1.7 1.4 1.7 1.1 2.5 1 2.5 2.4 5 2.4 5 1.2.8 1.3.8v1.2l.1 1.2 2.9 3.5 3 3.4v2.2l3.5 3.4 3.5 3.4 2.5-1.4 2.5-1.3V525h-1.9l-1.6-3.5-1.5-3.5-1.5-3.3-1.4-3.3-2.1-1.9-2.1-1.9-1.4-3.3-1.5-3.3-1.6-3.6-1.6-3.5-1.3-.6-1.4-.5-2.6-5.1-2.5-5.1v-2.4l-1.4-1.1-1.5-1.2-3.7-7.2-3.6-7.2-1.2-2.2-1.1-2.3h-1.4l-2.5-5.5-2.6-5.5-2.5-5.4-2.5-5.4-1.5-1.2-1.5-1.2V432l-2.5-1.6-2.5-1.6v-28.4l-1.1-1.1-1.1-1.1 1.1-.6 1.1-.7v-11.8l-1-.6-1-.6v-3.6l1.6-3.1 1.5-3.2h3.4l1.2-1.9 1.2-2 3.8-1.7 3.8-1.8 4.6-3.8 4.7-3.8h2l4.1-4.9 4.1-4.9v-3.8l-1.2-1.2-1.2-1.2h-6.2l-6.8 6.5-6.8 6.5h-1.5l-1.8 2-1.9 2.1-3-.3-3.1-.3v-26l20.9-.3 20.9-.2 1.3-1.1 1.2-1 .7 1.1.6 1h34.8l1.8 2.2 1.8 2.3 5 2.4 5 2.4 2.5 1 2.5 1.1 1.7 1.4 1.7 1.4 4.7 2.4 4.7 2.4h2.6l1.1 2 1.1 2 4.3 1.9 4.3 2 1.3 1.6 1.2 1.5h2.3l7.3 3.6 7.3 3.6 1.2 1.9 1.2 1.9h2.2l7.8 4 7.8 4h2.5l1.2 1.5 1.3 1.5 6.1 3 6.1 2.9 1.3 2 1.2 2.1h3.8l1.2 1.5 1.2 1.5 5.2 2.4 5.1 2.4 3.8 1.6 3.8 1.7 1.2 2 1.2 1.9h6.5v-5.7l-2.2-2-2.3-2-3.6-1.6-3.6-1.7-1.3-1.5-1.2-1.5h-3.9l-.5-1.5-.6-1.5h-2.6l-1.2-1.5-1.3-1.5-3.6-1.6-3.6-1.6-2.5-1.1-2.5-1.1-1.7-1.4-1.7-1.4-4.7-2.4-4.7-2.4h-2.8l-.5-1.5-.6-1.5h-2.6l-1.2-1.5-1.3-1.6-4.2-1.9-4.2-1.9-1.3-1.6-1.2-1.5h-2.4l-5.3-2.6-5.2-2.6-1.2-1.9-1.2-1.9h-5.3l-1.2-1.5-1.2-1.4-7.1-3.4-7.2-3.5-3.7-1.6-3.7-1.7-1.3-1.7-1.3-1.7-4.3-2.3-4.4-2.2h-2.6l-1.2-1.5-1.2-1.5-3.1-1.5-3-1.5h-8.3l-1-1-.9-.9-10-.3-10-.3-.3-3.9-.3-3.9 1-1 1.1-1.1v-4.5l1-.6 1-.6v-14l-2.6.3-2.7.3-.7 1.5-.7 1.5-1.1 2.2-1.2 2.3v5.9l-1 .6-1 .6v4.8l-1 .6-1 .6v5.6l-1.9 1.7-1.8 1.6-18.9-.2-18.9-.3-.3-15.4-.3-15.5-1-1.2-1-1.2 1.1-.7 1-.6v-36.7l2.5-1.6 2.4-1.6h32.9l2.7 1.4 2.7 1.4 1.4 2.7 1.4 2.7v8.7l1 .6 1 .6v8.1l2.4 2.9 2.4 2.8 1.7-3.4 1.6-3.5h1.9v-4.8l-1.5-.6-1.5-.5v-11.7l-1.1-1.1-1.2-1.2.6-1.5.6-1.6h31l.6-1 .6-1h7.6l1.8-2 1.8-2h2.5l.6-1.5.5-1.5h2.8l1.8-2 1.8-2h5.4l1.8-2 1.8-2h4.5l1.2-1.5 1.3-1.5 3.6-1.6 3.6-1.6 2.5-1.2 2.5-1.1 1.8-2.3 1.8-2.2h4.8l.6-1 .6-1h3.7l1.2-1.5 1.2-1.4 7.1-3.6 7.2-3.5h2l1.2-1.9 1.2-1.9 7.3-3.6 7.3-3.6h2.3l1.2-1.5 1.2-1.5 5.7-2.7 5.6-2.7.8-1.3.8-1.3h3.6l2.1-2.3 2.2-2.3v-4l-1.1-1.1-1.2-1.2-1.6.9-1.6.8-9 4.2-9 4.2-2.5 1.2-2.5 1.1-1.3 1.7-1.2 1.7-5.5 2.5-5.5 2.6-5.5 2.6-5.5 2.5-.5.9-.5.9-3.2 1.5-3.1 1.6h-2.5l-.6 1.5-.5 1.5h-2.9l-1.2 1.5-1.2 1.5-5.7 2.6-5.6 2.6-6.5 3.2-6.5 3.1-1.8 2.2-1.8 2.3h-2.6l-3.1 1.6-3.2 1.5-.5.9-.5.9-5.8 2.6-5.7 2.7-1.7.9-1.8.9h-37.4l-2.3-2.2-2.3-2.1-4.2 2.2-4.3 2.2-18.5-.3-18.5-.3-.3-18.8-.2-18.7 1.5-.6 1.5-.6 3.5 1.6 3.4 1.6 2.1 3 2.1 3h3l.6 1.6.6 1.7 3.6 3.3 3.6 3.3 2 .1h2.1l1.2-1.2 1.2-1.2v-4.4l-8.5-8.6-8.5-8.6h-2.8l-1.2-1.5-1.3-1.5-3.1-1.4-3.1-1.4-1.7-.6-1.8-.5v-25l1.9-1 1.9-1.1 2.6-5 2.6-5 2.5-4.9 2.6-4.9 1.4-1.2 1.5-1.2v-2.6l2.5-1.6 2.5-1.6v-2.7l2.4-4.7 2.4-4.7 1.3-1.7 1.4-1.7 1.4-2.5 1.5-2.5 1.4-2.7 1.3-2.8 1.8-1.2 1.7-1.3 1.7-3.6 1.7-3.6 1.5-1.3 1.5-1.2v-2.5l1.5-3 1.5-3.1 1.5-1.2 1.5-1.2v-2.5l2-1.8 2-1.8v-3.6l1.9-1 1.9-1.1 3.6-7.2 3.6-7.3V53zM430.5 249h33.2l1.7 1.9 1.7 1.9-1 .7-1.1.6v17.8l1 .6 1.1.7-1 1.2-1.1 1.3-.2 23.9-.3 23.9-33.4.3-33.4.2-1.9-1.6-1.8-1.7v-68l1.7-1.9 1.6-1.8zm345 378-1.5-1.2v7.8l-1 1-.9.9-.3 11-.3 11-34 .2-34 .3-2.3 1.2-2.2 1.2-1.2-1.2-1.2-1.2H357.1l-.6-1-.6-1h-13.5l-1.2 1.2-1.2 1.2-2-1.2-2-1.2h-5.6l-1.2 1.2-1.2 1.2-1.2-1.2-1.2-1.2h-8.2l-1.2 1.2-1.2 1.2-2-1.2-2-1.2H179.4l-1.1-1.1-1.1-1.1-.6 1.1-.7 1.1h-17.8l-.6-1-.6-1h-44.6l-1.6-1.8-1.7-1.9v-11.1l-1.5-.6-1.5-.5V628h-3v22.6l-1.1 1.1-1.1 1.1 1.1.6 1.1.7v6.8l-1 .6-1 .6v13.5l1.1 1.1 1.1 1.1-1.1.6-1.1.7v43.6l-1.8 1.6-1.9 1.7h-4.2l-.6 1-.6 1h-5.6l-1.6 1.8-1.7 1.8-3.5 1.4-3.5 1.4v2l.1 2.1 1.3 1.7 1.3 1.8h4.1l.6-1.5.5-1.5h6l.6-1 .6-1h4.8l.6-1 .6-1h5.9l1.9-1.2 1.8-1.1 1.9.7 1.9.7-2.5 1.9-2.5 2H103v5.9l-1 .6-1 .6v53.8l-1 .6-1 .6v10.8l1 .6 1 .6V843h2.8l1-1.3 1.1-1.3.3-13.5.3-13.4 49.5-.3 49.5-.2 1.1 1.5 1.2 1.6.6-1.6.5-1.5h18.2l.5 1.5.6 1.5h4.6l.6-1.5.5-1.5h4.2l.5 1.5.6 1.5h2.6l.7-1.7.6-1.8 1.4 1.8 1.3 1.8.7-1.8.6-1.8 1.3 1.7 1.3 1.8h7.1l.7-1.8.6-1.7 1.3 1.7 1.3 1.8h4.1l.6-1.5.5-1.5h5l1 1.8 1 1.7 1.5-2 1.5-2 .6 1.7.7 1.8h40.6l.7-1.7.6-1.8 1.3 1.7 1.2 1.7 7 .3 6.9.3.3 35.4.2 35.4-1 1.2-1.1 1.3 1.1.7 1 .6v6.5l-1.2 1.2-1.2 1.2 1.2 2 1.2 2v4.6l-1 1-1 1-.2 23.4-.3 23.5-14.7.3-14.8.3v3.7l1.3 1.1 1.3 1.1 1.1-1.1 1.1-1.1.6 1.1.7 1.1h92.8l.6 1 .6 1h2.7l.6-1.8.5-1.7 1.9-3.2 1.9-3.3 1.3-1.5 1.2-1.5.9.6.9.5v4.8l-1 .6-1 .6v4.8l-2 3.6-2 3.6v2.9l-.8 1.8-.9 1.7-1.1 2.2-1.2 2.3v3.9l-1 .6-1 .6v4.8l-1.2.8-1.3.8-1.2 2.2-1.3 2.3v4.6l1.2 1.2 1.2 1.2h3.3l2.1-2.3 2.2-2.3v-3.1l2-1.8 2-1.8v-2.5l1.5-1.2 1.6-1.3 2-4.4 1.9-4.3h2v-3.7l2-1.8 2-1.8v-2.3l2.8-2.7 2.8-2.7h97l1.2 1.2 1.1 1.1 1.5-1.2 1.4-1.2.7 1.1.6 1h4.5l1.1-1.1 1.1-1.1.6 1.1.7 1.1h7.5l1.2-1.2 1.2-1.2 2 1.2 2 1.2h5.9l.6-1 .6-1h6.1l-1.2-1.5-1.2-1.5h-30.7l-.8-1.4-.8-1.4-3-.4-3-.3-.3-69-.2-69 2.2-1.7 2.3-1.8h220.1l.9.9 1 1 6.5.3 6.5.3.3 10 .3 10 1.4.8 1.5.8v7l-1.5.5-1.5.6v3.1l1.8 1.3 1.7 1.3 1.3.1h1.2v-11.9l1-.6 1-.6v-30.5l-1.2-1.2-1.2-1.2 1.2-2 1.2-2v-12.9l-1-.6-1-.6v-8.8l1-.6 1-.6v-7.8l-1-.6-1-.6v-4.8l1-.6 1-.6v-15.6l1.8-1.4 1.7-1.5 5-2.3 5-2.4 2.5-1.1 2.5-1.1 1.3-1.7 1.2-1.7 3.2-1.5 3.1-1.6h2.4l1.8-2 1.8-2h2.7v-3h-9.9l-.6 1-.6 1h-6.8l-.6 1-.6 1h-5.8l-.6 1-.6 1h-8.5l-1.2 1.2-1.1 1.1-.7-1.7-.7-1.7 1.2-1.2 1.1-1.1v-11.5l-1-.6-1-.6v-4.8l1-.6 1-.6v-83.7zm-645 36h18.1l1.2 1.2 1.2 1.2 2.5-1.4 2.5-1.4 1.2 1.2 1.2 1.2h5.5l.6-1 .7-1.1 1.4 1.2 1.5 1.2 2.4-1.3 2.4-1.3 1.6 1.3 1.7 1.4 1.8-1.2 1.9-1.2.6 1 .6 1h347.8l1.1 1.7 1 1.8 1-1.8 1.1-1.7h26l.5 1.5.6 1.5h15.6l.6-1.5.5-1.5h10.2l.5 1.5.6 1.5h2.1l1.3-1.8 1.3-1.7.6 1.7.7 1.8h11.6l.6-1.5.5-1.5h3.2l.5 1.5.6 1.5h4.1l1.3-1.8 1.3-1.7.6 1.7.7 1.8h9.1l1.3-1.8 1.3-1.7.6 1.7.7 1.8h15.6l.6-1.5.5-1.5h3.2l.5 1.5.6 1.6 1.3-1.8 1.4-1.8.6 1.8.7 1.8 1.4-1.8 1.4-1.8 1.4 1.7 1.3 1.8H765l1.8.9 1.7 1 1.8.5 1.7.5-.2 30.2-.3 30.2-8.4 4.4-8.3 4.3h-4.6l-.4 1-.3 1-6.5 3.3-6.5 3.2-.3 1.8-.3 1.7h5l.6-1 .6-1h6.8l.6-1 .6-1h5.8l.6-1 .6-1h4.8l.6-1 .6-1h7.8l.6-1 .6-1h6.8l.6 1 .6 1-1.8.7-1.8.6-2.2 2-2.3 2v47.8l-1.5.5-1.5.6v2.6l1.5.6 1.5.5v4.9l-2.5 1.6-2.4 1.6h-118l-.6-1-.6-1H465.1l-.6-1-.6-1h-15.8l-.7 1.1-.6 1.1-1.1-1.1-1.1-1.1h-9.5l-.6 1-.6 1h-4.8l-.6-1-.6-1-1.9 1.2-2 1.2-1.2-1.2-1.2-1.2h-17.2l-1.2 1.2-1.2 1.2-1.2-1.2-1.2-1.2H243.4l-1.2-1.2-1.2-1.2-2 1.2-2 1.2h-12.9l-.6-1-.6-1h-98.5l-1-1-.9-.9-8-.3-8-.3-.3-27.8-.2-27.7 3.5-3.5 3.4-3.5h1.8l1.8-2 1.8-2h2.3l2.9-3 2.9-3h2.6l2.3-1.3 2.2-1.2 2.3-1.9 2.2-1.9v-3.5l-1.4-1.1-1.4-1.2-.7 1.1-.6 1h-4.8l-.6 1-.6 1h-3.7l-.6 1.5-.5 1.5h-5l-.6 1-.6 1h-4.8l-.6 1-.6 1-2.5-1.6-2.4-1.6v-28.9l1.5-.5 1.5-.6v-9.6l-1.7-.7-1.8-.6 1.8-1.3 1.7-1.3v-14.6l1.7-1.9 1.6-1.8zm283.6 153h62.8l.6 1 .6 1h5.9l2-1.2 2-1.2 1.2 1.2 1.2 1.2h7.5l.6-1 .6-1h4.5l1 1 .9.9 8 .3 8 .3.3 3.9.3 4-1 2-1.1 2.1-.3 64.5-.2 64.5-4 .3-4 .3-.8 1.5-.8 1.4h-5l-.5-1.5-.6-1.5H434l-1.9-1.2-1.9-1.2-1.5 1.3-1.5 1.2-1.6 3.4-1.6 3.4-3 2.1-2.9 2-.5-.9-.6-1 1-.6 1-.6v-7.8l1.3-.8 1.2-.8 1.3-2.2 1.2-2.3v-3.9l1-.6 1-.6v-4.8l1-.6 1-.6v-4.8l2-3.6 2-3.6v-3.8l1-.6 1-.6V920h-2.7l-1.8 2-1.8 2h-2.5l-1.5 3.2-1.6 3.3-2 1.3-2.1 1.2v2.7l-2 1.8-2 1.8v2.3l-2.5 5.1-2.6 5.1-1.4 1.2-1.5 1.2v2.1l-1.7 1.9-1.6 1.8h-5.3l-1-1-1-1-23.4-.2-23.5-.3-.3-68.9-.2-68.9 1.6-1.9 1.7-1.8z"/><path d="m202.7 674.1-1.5-1.2-.7 1.1-.6 1h-5.8l-.6 1-.6 1h-4.6l-1.8 2-1.8 2h-2.1l-4.8 2.2-4.8 2.3v3.1l-4 3.9-4 3.9v1.6l-5.5 5.7-5.5 5.8v2.1l-3 2.9-3 2.9v7.6h7v-3.7l4.5-4.2 4.5-4.1v-1.2l5-5.5 5-5.5v-2.4l3.8-3.7 3.8-3.7h3.2l2.7-3.2 2.7-3.2 2.5-1.3 2.5-1.3h8.5l1.6 1.8 1.7 1.9v2l-1.5 3.1-1.6 3.1-4.9 4.1-5 4.2v3.4l-4 3.9-4 3.9v2.5l-3.4 2.6-3.4 2.6-1.6 3.3-1.6 3.3-1.5 1.3-1.5 1.2v2.4l-4 3.9-4 3.9v2.8l-5 4.4-4.9 4.5-1.6 3.1-1.5 3.1v2.3l-3 2.9-3 2.9v8.5l1 .6 1 .6v3.4l2.7 1.2 2.7 1.3h21.4l4.1-2.2 4.1-2.2v-1.5l3.9-1.8 3.8-1.8 4.4-4.1 4.4-4 1.4-2.7 1.4-2.6 8.4-8.2 8.3-8.1v-2.3l8-8 8-8 .1-1.5.1-1.5 9.8-9 9.8-9 1.5-3 1.6-3 2.5-2.4 2.6-2.4v-2.6l3.2-1.5 3.1-1.6h16.4l1.7 1.9 1.7 1.9-1 .7-1.1.6v4.8l1 .6 1 .6-3 3.7-3 3.7v2.2l-5.5 5.2-5.5 5.2v1.5l-3 3.4-2.9 3.5-.1 1v1.1l-4 3.9-4 3.9v2.5l-6.5 6.3-6.5 6.2v2.2l-3 2.9-3 2.9v7.7l-1.5.5-1.5.6v8.9l2.8 2.4 2.7 2.4 2.2.1h2.2l.6 1 .6 1h7.8l.6-1 .6-1 1.9 1.2 2 1.2 1.2-1.2 1.2-1.2h4.5l.6-1 .6-1h5.4l5.1-5.8 5-5.7.7-1.8.6-1.7h3.1v-2.8l9.5-9.3 9.5-9.3v-2.8l9.5-9 9.5-9v-2.6l14.8-14.8 14.9-14.9.6-1.8.6-1.7h38.7l1.1 1.1 1.1 1.1.6-1.1.7-1.1h34.5l1.1 1.1 1.1 1.1.6-1.1.7-1.1h15.5l1.1 1.1 1.1 1.1.6-1.1.7-1.1h5.5l1.1 1.1 1.1 1.1.6-1.1.7-1.1h15.5l1.2 1.2 1.2 1.2 2-1.2 1.9-1.2.6 1 .6 1h5.5l1.1-1.1 1.1-1.1.6 1.1.7 1.1h21.5l3.7 3.8 3.7 3.8v2.1l6.5 6.4 6.5 6.4v1.7l5 5.5 5 5.5v1.6l6.5 6.3 6.5 6.2v3.4l2 1.8 2 1.8v1.6l5.5 5.2 5.5 5.2v3.4l5.3 4.9 5.2 4.9 1.3 2.4 1.2 2.3v4.5l2.3 1.9 2.2 1.9 2.2 1.2 2.3 1.3h3.9l.6 1 .6 1h9.5l1.1 1.1 1.1 1.1.6-1.1.7-1.1h8.9l2.3-1.3 2.2-1.2 2.3-1.9 2.2-1.9v-7.6l-1-.6-1-.6v-3.8l-2-3.6-2-3.6v-2.7l-4.5-4-4.5-4v-1.8l-3-2.9-3-2.9v-3.2l-3-2.9-3-2.9v-2.4l-3.5-2.6-3.5-2.7v-2.5l-3-3.4-2.9-3.5-.1-1.1v-1l-3-2.9-3-2.9V707l-2.5-1.6-2.5-1.6v-3.6l-1.5-1.2-1.5-1.2-1.5-3.1-1.5-3v-3.8l1.8-.6 1.7-.6.8-1.4.8-1.3h14l.5 1.5.6 1.5h2.1l5.8 5 5.7 5h2l3.6 4.2 3.6 4.2v1.5l5 4.7 5.1 4.7 1.6 3.4 1.6 3.4 5.3 4.7 5.4 4.6v2.2l3 2.9 3 2.9v3.2l3 2.9 3 2.9v2.2l4.5 3.7 4.5 3.8v3.5l4 3.9 4 3.9v1.7l4.8 5 4.7 4.9h2.2l1.8 2 1.8 2h7.6l.6 1 .6 1H710l1.8-.9 1.7-.9 3.8-1.7 3.8-1.6.9-2.5 1-2.4h7v-3.6l-1.2-1.2-1.2-1.2-2.2 2.1-2.2 2.1-3.2-6.6-3.1-6.6-1.9-1-2-1.1v-3.5l-5-4.9-5-4.9v-2.2l-4.5-4.7-4.5-4.7v-1.6l-5-4.9-5-4.9v-3.4l-4.5-4-4.5-4v-1.8l-3-2.9-3-2.9v-2.3l-3.2-6.2-3.1-6.1 1.8-2 1.8-2h19.3l4.9 5 4.9 5h3.3l1.6 1.8 1.7 1.9v2.9l4 3.9 4 3.9v2.3l2 1.8 2 1.8v2.2l-2 2.5-1.9 2.5 1.1 1.2 1 1.3 2.8-2 2.7-1.9 3.8 3.9 3.9 4h4.6v-6.8l-5-5.5-5-5.5v-2.1l-3.5-2.8-3.5-2.8v-3.1l-3-2.9-3-2.9v-1.8l-5.1-5.7-5.1-5.6-3.9-2.3-4-2.2h-3.8l-.6-1-.6-1h-16.7l-4.4 2.1-4.3 2.1-1.5.8-1.5.7-.3 7.8-.3 7.8 1.1 1.1 1 1v3.2l4.5 3.7 4.5 3.8v2.1l5 5.5 5 5.5v1.7l5.5 5.2 5.5 5.2v2.3l3 3.4 2.9 3.5.1 1.1v1.2l3.5 2.6 3.5 2.7v2.6l2 1.8 2 1.8v3.6l1 .6 1 .6v4.9h2.9l1.4 2.8 1.4 2.8-1.5 2.2-1.4 2.2h-4.4l-1.1 1.1-1.1 1.1-.6-1.1-.7-1.1h-7.7l-1.6-2.5-1.6-2.5h-2.8l-1.3-1.6-1.3-1.6-2.3-.9-2.3-.9v-4.2l-5.5-5.6-5.5-5.6v-2.2l-4-3.9-4-3.9v-3.4l-1.5-.6-1.5-.5v-2.5l2.8-2.3 2.7-2.2-6.3-.1H651l-.9-2.3-.9-2.2-6.1-6.2-6.1-6.1v-1.8l-4-3.9-4-3.9v-3.4l-4.5-4-4.5-4v-1.4l-6.1-6.9-6.1-6.9h-3.7l-.6-1-.6-1h-19.8l-.6 1-.6 1H578l-2.3 1.2-2.2 1.3-2.2 1.9-2.3 1.9v10.9l6 6.8 6 6.8v2.1l4.5 3.7 4.5 3.6v2.5l1.5 2.9 1.4 2.9 3.6 3.5 3.5 3.4v2.2l3.5 3.4 3.4 3.5.1 1v1.1l4 3.9 4 3.9v2.3l2 1.8 2 1.8v3.6l-1 .6-1 .6v8.3l2.2 2.3 2.1 2.3-1.8 2-1.8 2h-8.6l-.6-1-.6-1h-4l-.5-1.5-.6-1.5H600l-.9-2.3-.9-2.2-2.6-2.4-2.6-2.4v-2.5l-6.5-6.4-6.5-6.4v-1.6l-6-6.6-6-6.7V735l-4-3.6-4-3.7-1.7-3.4-1.6-3.4-5.3-4.7-5.4-4.6v-1.8l-4-4.5-4-4.6v-2.6l-5.4-4.7-5.5-4.7-.3-2.1-.3-2-5-2.7-5-2.7-80.6-.1-80.6-.1-1.8 2-1.8 2h-2.5l-3.6 3.7-3.6 3.7v2.2l-10.5 10.6-10.5 10.6v2l-8.5 8.4-8.5 8.5v2.2l-2.7 1.3-2.8 1.3-.3 2.2-.3 2.2-6.5 5.6-6.4 5.7v2.3l-5.6 6.2-5.6 6.3h-2.5l-3 1.5-3.1 1.5-1.2 1.5-1.2 1.5h-15.5l-1.7-1.8-1.6-1.9 2-1.8 2-1.8v-4.2l2-2.5 2-2.5v-1.6l6.5-6 6.5-6.1v-3.5l4.5-4.2 4.5-4.1v-1.2l5-5.5 5-5.5v-2.6l5.2-4.7 5.1-4.6 1.2-2.2 1.2-2.2 2.2-3.9 2.3-3.9-1.2-2.2-1.2-2.2 1.3-2 1.2-2-1.3-3-1.3-2.9-2.6-1.2-2.5-1.2h-6.5l-.6-1-.6-1h-13.8l-.6 1-.6 1h-4.6l-1.8 2-1.8 2H261l-9.9 9.6-9.8 9.5-1.4 2.7-1.4 2.6-7 6.7-7.1 6.8-1.4 2.8-1.4 2.8-7.3 6.8-7.3 6.9v3.5l-4.5 4.2-4.5 4.1v1.4l-2.7 2.8-2.7 2.8h-2.4l-1.6 3.5-1.7 3.5h-5.7l-1.2 1.5-1.2 1.5-3.1 1.5-3 1.5h-5.6l-.6 1-.6 1h-7.6l-1.6-1.8-1.7-1.9v-1.9l3-2.9 3-2.9v-3.7l1.5-.5 1.5-.6v-2.5l2-1.8 2-1.8v-1.9l5-5.5 5-5.5v-2.7l3.5-2.7 3.5-2.6v-2l4-4.5 4-4.6v-2.6l4.5-3.8 4.5-3.7v-2.1l5.8-6.5 5.8-6.5 1.7-3.8 1.8-3.7h1.9v-9.3l-1.7-1.3-1.8-1.3-3.2-.1h-3.2l-.6-1-.6-1-1.9 1.2-1.8 1.2zm-65.1 2.9h-.4l-1.1 1.4-1.1 1.3 1.5 1.3 1.5 1.2V677z"/><path d="M238 681h-2v3h4v-3zm503.6 2h-1.5l-2 2.9-2.1 2.9v8.3l-1.5.5-1.5.6v7.3l2 1.2 1.9 1.3.6-1 .6-1h6.8l.6-1 .6-1h7.9v-3.7l-3.9-3.1-3.9-3.2-1.6-3.1-1.6-3.2V683zm-188.3 2h-1.4l.3 2.1.3 2.2 1.7 1.1 1.7 1 .7-.7.7-.7-1.3-2.5-1.3-2.5zm-234.6 8.1-1.3-1.1-1.2 1.2-1.2 1.2 1.1 1.3 1.1 1.3h2.8v-2.8zm327.8-1.1H645v3h3v-3zm-182.2 13h-.8l-2.2 4.8-2.3 4.8v3.5l-1.5.5-1.5.6v4.8l-1.2 2-1.3 2 1.6 1.5 1.6 1.6 3.7-2 3.7-2.1h3.8l.6-1 .6-1h9.5l1.2-1.2 1.2-1.2v-3.1l-7.9-7.3-8-7.2zm2.6 9.2 1.6.3v6l-1.8.3-1.8.4-1.4-.6-1.4-.5 1.6-3.1 1.5-3.1zm-58.3.8h-.4l-1.1 1.4-1.1 1.3 1.5 1.3 1.5 1.2V715zm106.8 4h-1.6l1.3 1.7 1.3 1.8.3.4.3.4V719zm62.7 2H577v6h2.8l1-1.3 1-1.2-1.2-1.8-1.3-1.7zm-280.7 9.1-1.9.1 1.3.5 1.3.5.6-.6.6-.6zm-91 1.9H205v3h5.2l-1.2-1.5-1.2-1.5zm152 4h-1.1l-2.1 2.3-2.2 2.3v13.3l-1 .6-1 .6v5.7l1.4 1.1 1.4 1.2.7-1.1.6-1h4.9v-1.9l3.2-1.5 3.1-1.6h6.5l1.2-1.5 1.2-1.5-.5-1.4-.6-1.4-3.2-1.6-3.2-1.6h-2.6l-1.7-3.3-1.7-3.2-1.1-2.2-1.1-2.3zm2.1 14h1.4l.6.9.5 1-1 .6-1.1.7-1.5-.6-1.5-.6.6-1 .6-1zm-223.8-10.9-1.3-1.1-1.2 1.2-1.2 1.2v3.5l-1 .6-1 .6v4.8l-1 .6-1 .6v5l-1.5.5-1.5.6v5.6l3.5 1.6 3.5 1.7v2.9h3v-7l4.3-4.5 4.4-4.5h-1.5l-2.6-5.2-2.6-5.2v-2.4zm246.5-1.1h-.8l-1.2 1.2-1.2 1.2v9.6h4v-12zm157.3 14-1.5-1.2v5.2h3v-2.8zm-40.8 5.7-.5-1.2v5l.5-1.3.5-1.2zm-65 1.3h-1.2l-1.3 2-1.2 2h2.6l1.2-1.2 1.2-1.2V759zm87 7.2-1.7-.3v4.8l2 1.8 2 1.8v3.3l1.1 1.1 1.2 1.2-.7 1.6-.6 1.6-2.7-.3-2.8-.3-.3-5.3-.3-5.4-1.5 1.2-1.4 1.2v2.5l-1.6 3.1-1.5 3.2H511v5h11.9l.6-1 .6-1h7.7l1.3-1.6 1.3-1.6-1.2-1.9-1.2-1.9v-2.1l-3-2.5-3-2.5-1.2-2.7-1.3-2.7zM324.5 776H323v3.8l1.5 1.2 1.5 1.2V776zm328 5H651v5h3v-5zm-431 6H220v3h3v-3zm363.3 3.1-1.8-1.3v3.2h4.3l-.4-.3-.4-.3zm171.7-1.1H755v3h3v-3zm-300.6 2h-2.1l1.2 1.5 1.2 1.5h1.8v-3z"/></svg>