<svg xmlns="http://www.w3.org/2000/svg" version="1.0" viewBox="0 0 584 789"><path d="m280 49.3-98.5-.3-2.2 2.6-2.3 2.6V57h2v192.8l-1.2.6-1.3.6 1.3.6 1.2.6v3.1l.1 3.2 1.3 1.7 1.3 1.8H375l2.3-2.2 2.2-2.3.3-66 .2-65.9 1.3-.8 1.2-.8-1.5-1-1.5-1h2.2l.5-34.3.6-34.2-2.2-2-2.1-2zm12 7.3 4.5.2 9.3.1 9.2.1-.2 17.2-.3 17.3-35.5.3-35.5.3-2.2-.6-2.3-.5V63h2v-6l23.3-.2 23.2-.3zm-84.4.4h17.2l.6 1.6.6 1.6V91h-7.2l-1.1 2.9-1.1 2.9-3.6.4-3.5.3h-22V60.4l1.5-1.6 1.5-1.7zm115.1 0h1.4l1.5 1.4 1.4 1.5v7.9l-1.2.5-1.3.5 1.4 1 1.3 1-1.3.6-1.4.6 1.3.6 1.2.6V80h-2v4h2v3h-2v5.1l-2.2-.3-2.3-.3-.2-13.1-.1-13.1.5-4.2.6-4.1zm29.3 0h19.8l.6 1.6.6 1.6v33.6l-.6 1.6-.6 1.6h-32.9l-1.5-1.3-1.5-1.2-1.4-1.3-1.4-1.2H331v-7l-1.2-.1-1.3-.1 1.3-.5 1.2-.5V60.2l.6-1.6.6-1.6zm-118.3 2h1.4l-.2 14.2-.3 14.3-.4 1.7-.4 1.8H231V62.2l.6-1.6.6-1.6zm45.8 41H331v73.8l-1.2.6-1.3.6 1.3.6 1.2.6V188h-2v2.8l1.3.6 1.2.6-1.2.6-1.3.6v17.9l-1.4 1.5-1.5 1.4H322v-2h-10v2h-81v-1.8l-2.5-.6-2.5-.6V107h2v-7zm-72.3 1.5H219v2.3l-.6 1.6-.6 1.6h-29.6l-.5-1.3-.5-1.4.7-1.1.6-1 3.5-.4 3.5-.3zm146.6-.5h14.7l2.3.6 2.2.6v2.8h-7v2h-26.9l-.6-2-.6-2 .6-1 .6-1zm-149.2 10H221v60h-1.9l-.3 13.2-.3 13.3-15.7.3-15.8.3v-16.3l-.1-16.3.1-26.4.1-26.4.5-.9.5-.8zm150.9.3 17 .2v85.1l-1.7 1.7-1.7 1.7H339v-2h-3v-76h2v-4h-2v-5.8l1.3-.5 1.2-.6zm-153 90.7H218v5h-29.8l-.6-1.6-.6-1.6V202zm142.3 0h6.2l.1 1.2.1 1.3.5-1.3.5-1.2H365v2h4.5l1.5 1 1.4.9-.7.7-.7.7-15.2.4-15.1.4-2.4-.6-2.3-.5v-2.1l1.3-1.4 1.2-1.4zm-142 9.2 15.7.3.3 2.7.3 2.8h1.5l2.2 2 2.2 2.1v29.4l-.6 2.2-.6 2.3H187v-44.1zm147.5.8H362l.1 1.2.1 1.3.5-1.3.5-1.2h5.9l1.5 1.4 1.4 1.5V251l-2 2-2 2h-2v-2h-3l-.1 1.2-.1 1.3-.5-1.3-.5-1.2H356v2h-4v-2h-10v2h-10.1l-1.7-1.7-1.7-1.7v-30.1l2.4-.3 2.4-.4 1.4-1.3 1.3-1.4v-3.2l1.3-1.4 1.2-1.4zm-73.5 7H312v5h2v26h-2v5h-72.7l-.6-5.1-.6-5 .6-11.7.6-11.6 1.1-1.3 1.1-1.2zm45.7 1.4 1.5 1.5.6 4.2.6 4.2-.7 12.4-.7 12.3h-2.9l-1.4-1.3-1.3-1.4-.2-11.9-.2-11.9.1-3.8.1-3.7h3v-2.1zm-89.7 1.4 1.2.4v29.9l-1.5 1.5-1.5 1.5V252h-2v-29.8l1.3-.5 1.2-.4z"/><path d="M242.1 109h-2.9l-.6 1.6-.6 1.6v3.6l-1.2.6-1.3.6 1.3.6 1.2.6v3.6l-1.2.5-1.3.5 1.3.1 1.2.1v8h-2.5l1.5 1 1.5 1H236v11.8l1.3.5 1.2.5-1.2.1-1.3.1v31h2v2.8l-.9.4-.9.3-.3 10-.4 10 38 .2 38 .3 3.3-.6 3.2-.5V193h2v-3h-2v-5.8l1.3-.5 1.2-.5-1.2-.1-1.3-.1v-28.8l1.3-.5 1.2-.5-1.2-.1-1.3-.1v-6.8l1.3-.5 1.2-.5-1.2-.1-1.3-.1v-9h2v-20.1l-2.6-2.4-2.7-2.5h-17.5l-.5-1.3-.5-1.2-.1 1.2-.1 1.3h-51v-2zm36.7 9.1 33.2-.1-.2 37.7-.3 37.8-28 .5-28 .5-5.2-.3-5.3-.3V191h-2v-7l1.3-.1 1.2-.1-1.2-.5-1.3-.5V170l1.3-.1 1.2-.1-1.2-.5-1.3-.5v-49.6l1.3-.5 1.2-.5zM67.6 373h-1.1l-1.3.9-1.4.8-.5 31.4-.4 31.4.6 3.2.6 3.3H67v-1.8l3.2-.6 3.1-.6.4.4.4.3-5 4.9-5 4.9-2.4 2.2-2.5 2.3H58l-6.7 6.5-6.8 6.5-3.3 3-3.3 3H36v1.1l1.4 1.5 1.5 1.4H42v-1.6l3.5-1.4 3.5-1.4V473h2.9l1.5-1.5 1.4-1.5 2.7-1 2.6-1H63v39h-2v4h2v10h-2v3h2v3.8l-1.2.4-1.3.5 1.8 1.7 1.7 1.7v1.9h2.1l1.5-1.4 1.4-1.5v-19.9l.6-1.6.6-1.6H193v2h4v-2.5l1 1.5 1 1.5 1-1.5 1-1.5v2.5h27l.1 7.7.1 7.8-.2 45.5-.2 45.5-1.1.8-1.2.8-16.1-.6-16.1-.6-1.7 1.6-1.6 1.6v1.7l.5 1.4.6 1.4 38.9-.2 39-.2v3.8h-1.7l-.8 7.7-.8 7.8-.1 5.5-.1 5.5 1.8.3 1.8.4.6-2.1.5-2.1h1.4l1.4-3.5 1.4-3.5h1.4l.7-3 .7-3h1.6l.7-2.9.6-2.9 2.2-2.6 2.3-2.6H303v-2h68.8l.5 1.2.5 1.3.1-1.3.1-1.2h3v-3.6l-2-1.7-2-1.7h-10v2h-38v-2h-4v-17.8l-1.2-.5-1.3-.5 1.3-.1 1.2-.1v-6.8l-1.2-.6-1.3-.6 1.3-.6 1.2-.6V548h-2v-3.8l1.2-.5 1.3-.5-1.4-1-1.3-1 1.3-.6 1.4-.6-1.2-.6-1.3-.6V534h2v-3.8l-1.2-.6-1.3-.6 1.3-.6 1.2-.6V525h-2v-4h1.9l.3-5.3.3-5.2 81.3.2 81.3.3 1.5 1.4 1.4 1.5v19.9l.6 1.6.6 1.6h1.9l1.6-1.6 1.6-1.5.4-29.6.5-29.6-.7-4.3-.6-4.3-1.6-.3-1.6-.3 4.4-4.6 4.4-4.5 1.8-.7 1.7-.6v-1.9l2.5-.6 2.4-.6 1.1-2 1.1-2h1.9l2.1-1.8 2.1-1.7 2-1.8 2.1-1.7h1.7v-3.1l-1.6-1.6-1.6-1.6-.6 1-.7 1-3.7 1.2-3.8 1.3v1.8l-2.5.6-2.5.6v1.7l-3.7 1-3.8 1.1H493v-66h-4v3h-2v13.8l-.6 1.6-.6 1.6H445v-2h-3v2.5l-1.1-1.5-1.1-1.5-.5 1.2-.5 1.3h-4.6l-.6-1.3-.6-1.2-.6 1.2-.6 1.3h-3.6l-.4-.9-.3-.9-98.5-.6-98.5-.7-79.4-.4-79.4-.4-.8-1.3-.9-1.3v-16l-.6-2.3-.6-2.2zM186 404.7l111.5.5.3.9.4.9h2.8v-2h6v2h17v-2h2.8l.4.9.3.9 79.9.3 79.8.4-.3 22.1-.4 22 1.7 1.7 1.7 1.7h3l-.5 1.5-.6 1.4-2.1.7-2.2.6-2.5 2.7-2.5 2.7-1.8.7-1.7.6v2.1h-2.8l-2.3 2.5-2.4 2.5H469v1.7l-2 2.3-2.1 2.4.3 1.5.4 1.6 2.9-.3 3-.4.8-1.4.8-1.4h2.9v-1.7l3.9-1.1 3.8-1.2h2.3v25l-2.5.6-2.5.6-66.7-.6-66.8-.5-15-.1h-15l-1.5-1-1.5-1 1.5-1 1.5-1h58.6l1.5-1.4 1.4-1.5V490h-1.7l-.7-6.8-.7-6.7-3-2.7-2.9-2.7v-1.7l-1.7-1.5-1.8-1.6-3.5-4.3-3.5-4.2-3.6-3.7-3.6-3.7-.7-2-.6-2.1-2.5-1.3-2.5-1.3-.6-1.9-.6-2-2.9-2.7-2.9-2.8v-1.8l-2.5-2.4-2.5-2.3v-1.7l-5.6-5.5-5.5-5.6-48.2-.3-48.2-.4-1.2.5-1.3.4v1.9l-14.2 14.3-14.3 14.2-1.4 2.7-1.4 2.7h-2.2l-2 2.7-2 2.7-1.9 1.5-1.9 1.6-1.6 1.9-1.6 1.8-2.7 2.7-2.7 2.6-2.5 2.4-2.6 2.3v2.6l-2.5.6-2.5.6v1.8l-2.5 2.3-2.5 2.4v2.5h-2v4l1.7 2 1.7 2H179v2h15l.1-1.3.1-1.2.5 1.2.5 1.3H231v3h-61v-2h-3.8l-.4 1.1-.4 1.1-45.4-.1-45.4-.2-.6-.8-.5-.9-2-.4-2-.3v-35.6L68 460l-1.5-1h-2.6l-.5 1.5-.6 1.5H60v-1.7l2.3-2.6 2.3-2.7h1.6l5-5 5-5h1.7l5.4-5.5 5.4-5.5h1.4l2.1-1.9 2.1-2-.7-1.6-.6-1.7-1.6.6-1.6.6h-4.7l-1.3 1.4-1.4 1.3-2.4.8-2.5.8-.5.8-.6.9-3.2.6-3.2.6v-30.1l2.3-.4 2.2-.5zm93.6 15.9 26.1.1 1.2.7 1.1.7v73.4l-.6 2.2-.6 2.3h-64.6l-1.6-.6-1.6-.6v-61.6l1.3-.6 1.2-.6-1.2-.6-1.3-.6V428l1.3-.1 1.2-.1-1.2-.5-1.3-.5V422l2.3-.5 2.2-.5 5-.2 5-.3zm-48.6.4h3v6h-2v59.1l-1.4.5-1.4.5-4.3-.3-4.4-.3 2.2-2 2.2-2.1.5-28.9.5-29 1-.3 1.1-.4V421zm86.7 7.7.4 2.3h1.9v3.8l-1.2.5-1.3.5 1.2.9 1.2.8.3 20.9.3 20.9-1.3.5-1.2.4v3.8h2.8l.5 1.2.4 1.3 9.9.1 9.9.2 12.8.1 12.7.1v2h-49.1l-1.5-1.4-1.4-1.5V431h2l.1-2.3.2-2.2zm-100.3 6.4.4.4.5 20.5.6 20.5-.9 1.5-.9 1.5-20.1.3-20 .3V477l7-7.1 7-7V461l5.5-5.3 5.5-5.3v-1.5l6.1-6 6-5.9h2.9v-2.3zm110.5-.1h1.1v1.7l2.4 1.2 2.4 1.3 1.3 2.6 1.4 2.6 4.8 4.7 4.7 4.7v1.7l3 2.5 3 2.5v2.2l3.3 3.7 3.2 3.6 2.3 2.7 2.2 2.6v3.4l-4.9.6-4.9.6-12.5-.6-12.5-.6-.5-4.6-.6-4.6-.1-17.3-.1-17.2zM75 439h1v2h-2v-2zm418.7 14.3.6.7-.6.7-.7.6v-2.6zm-314.2 33.1 9-.1-4.2.4-4.2.4-4.8-.4-4.8-.3zm17.5-.1h7.5l-3.7.4-3.8.4-3.7-.4-3.8-.4zm9-.3h1v3h-2v-3zm3 0h1v3h-2v-3zm2.5 0h.5v1h-1v-1zm48.3 22.7.8 1.3 23.4.2 23.5.3-.2 36.5-.3 36.5V618h-21v1.8l-2.4.6-2.4.6-.7 3.1-.7 3-1.3.5-1.3.5-.6 2.5-.7 2.5-2 2-2 2 .5-3.3.5-3.3.7-6 .6-6 .9-.6 1-.6.6-5.1.6-5.2h1.4l.8-5.3.7-5.2.1-2 .2-1.9-1.7-.4-1.7-.3-.7 2.5-.6 2.6h-1.6l-1.3 3.2-1.3 3.3-1.3 1.3-1.3 1.3v2.9h-1.8l-1.1 3.3-1.2 3.4-2.2 1.2-2.2 1.2-11-.3-11-.3-.3-53.8-.2-53.7h21v-2.5zm9.9 109 .5 1.3-.5 1.2-.5 1.3v-5z"/><path d="M130 414h-2v3h4v-3zm-42.4 1.3-.6-.6.1 1.9.1 1.9.5-1.3.5-1.3zm66.3-.3h-2.1l.4 1.2.5 1.3 1.6.3 1.7.3V415zm27.5 0h-1.6l.4 1.2.4 1.2 1.2.4 1.2.4V415zm231.1 2H411v3h3v-3zm63.5 1h-1v1.9l1 .6 1 .6V418zm-283.5 2H191v.8l1.5.6 1.5.5V420zm162 0H353v2h3v-2zm26.9 1.1-1.9.1 1.3.5 1.3.5.6-.6.6-.6zm79.3.1-1.8-.4-.6 2.1-.5 2.1h-1.6l-.7 2.9-.6 2.9-1.5.6-1.5.6.3 2.7.3 2.8 1.8-.1 1.7-.1 4.5-.1 4.5-.2v-8h-1.9l-.3-3.7-.3-3.8zM94 422h-1v3h2v-3zm37.1 3h-1.9l-.7 6.5-.7 6.5h-1.6l-.6 1.7-.6 1.8-.6 1.2-.6 1.3h4l.4-1.1.3-1 4.5-.6 4.5-.6.7-1.1.8-1.1v2.6l1.6-1.5 1.5-1.6-2-2.2-2.1-2.2v-1.9l-2.5-2.3-2.5-2.3V425zm2.4 9h1.5v3h-3v-3zm289.4-9h-.9v6h1.8l.4-1.8.5-1.7-.4-1.3-.5-1.2zm13.6 4H435v3h3v-3zm-45.1 2.6-1.9-.6-1.1.8-1.1.7-.6 3.9-.6 4-1.6.8-1.5.9v3.9h4l2-2 2-2h5v1.2l.1 1.3 1-1.8 1.1-1.8-.7-2.7-.7-2.7-1.7-1.6-1.8-1.7zM170 438h-1v3h.8l.6-1.5.5-1.5zm-69.2 1.1h-.3l-1.7 1.8-1.8 1.8v3.3h4v-7zm360.6 2.9h-.4v3h1.9l-.5-1.5-.6-1.5zm7.5 3.6-.4-.3-1.2.4-1.3.5v2.8h2.1l.6-1.5.5-1.6zM164.5 451h-1.6l-.6 1.5-.5 1.6.5.6.6.5 1.6-1.5 1.5-1.6V451zm-61.1 1.3-1-.3-.7.6-.7.7v2.7h4.1l-.3-1.7-.3-1.6zm12.8-.3h-2.1l.6 1.6.6 1.6.6-.9.6-.8.9-.8.9-.7zm317.3 0H432v3h3v-3zm-8.9 4.3-.6-.6.1 1.9.1 1.9.5-1.3.5-1.3zm-290.7 8.4-2-1.8.3 2.8.3 2.8 1.8.3 1.7.3v-2.7zM146 468h-1v2h2v-2zm261 0h-1v2.1l1-.6 1-.6v-.9zm-292 4h-.5l-1.2.8-1.1.7-.7 2.8-.7 2.7H109v7h3v-2h12v-1.3l-2.4-2.2-2.4-2.2-.7-2.4-.8-2.4-1.1-.7-1.1-.8zm327.7 0H441v3.8l-1.4.5-1.3.5-.7 4.4-.7 4.5.7 1.6.6 1.7h5.8v-2h11v-2l-3-2.8-3-2.9v-2l-2.3-2.6-2.3-2.7zm2.6 7.7.7.4v3.9h-4v-3.8l1.3-.5 1.2-.4zm-47.5 1.6-.4-1.8-.7 1.9-.7 1.9.5.5.5.5.6-.6.6-.5zm79.7 2.7H476v2h3v-2zM86 489h-1v2h2v-2zm53.6 0h-.5l-.6 1-.6 1h2.1v-2zm334.2.1-1.3.1-1.2.5-1.3.5v2.8h2.1l1.5-1.4 1.4-1.5V489zm-67.8.9h-2v3h2.8l.6-1.5.5-1.5zm-310 1h-1v2h2v-2zm353.8 2.8-1.3-.5-1.2.4-1.3.5v2.8h5v-2.8zM103.6 655H102l-1 2.6-1 2.5v1.7l-1.1.4-1.1.4-.6 7.4-.5 7.5-1.1.7-1.1.8 1.1.7 1.1.8.7 5.7.7 5.8h1.7l.6 2.5.6 2.5h4v-1.9l-1.3-1.3-1.3-1.3-1.2-4.1-1.2-4.1V678h-2v-5h1.7l1.2-5.4 1.2-5.5.9-.3 1-.3.6-3.3.7-3.2zm42 1h-.6v3.9l1.1 2.8 1 2.8 1 .6 1.1.6.1 9.2.1 9.2-1 .7-1 .7-1.3 4.5-1.3 4.5-1.2.7-1.1.8h1.5l1.5-.1 1.6-1.2 1.6-1.2.8-2.5.8-2.5.9-.6 1-.7.2-10.6.1-10.7-1.1-.7-1.1-.7-.8-3.4-.7-3.5-1.4-1.3-1.3-1.3zm-22.4 5.4-4.7-.3-1.6.5-1.6.5-.1 13.9-.2 14h6.8l.6 1.2.6 1.3.6-1.3.6-1.2h3.4l1.9-2.3 1.9-2.2.7-6 .7-6-.7-4.2-.8-4.2-1.7-1.7-1.8-1.7zm-2.6.6h2.5l1.5 1.4 1.4 1.4 1.2.4 1.3.5.4 9.3.3 9.4-1.8 1.3-1.8 1.3H118v-25zm73.6-1h-3.7l-1.1.8-1.1.7-1.2 2.2-1.1 2.2v4.1h-2v11h2v4.9l2.4 2.5 2.3 2.6h6.3v-2h2.9l1.1-1.9 1-2V685h-3.9l-.6 2-.6 2H192l-2.2-2.3-2.3-2.2.2-8.9.3-8.8 1.7-1.4 1.8-1.3 2.7-.1h2.7l.6 1 .6 1h2.9v-1.9l-1.6-1.5-1.5-1.6zm24 0h-3.7l-1.1.8-1.1.7-1.2 2.2-1.1 2.2V678h-2.5l1.1.8 1.1.7.6 4.3.5 4.4 2.1 1.9 2 1.9h7.1v-2h3l.6-4 .7-4h1.7v-13h-2v-3.6l-2-2.2-2.1-2.2zm-.5 3 2.8.1 2 1.5 1.9 1.4v9.2l-.1 9.2-1.1.4-1.2.4v2.8h-1.8l-1.4.5-1.4.6-2.7-2.5-2.7-2.5V668h1.8l.5-2 .5-2zm42.1 9.8-.3-12.5-1.2.4-1.3.5V692h16v-3h-10.1l-1.4-1.4-1.4-1.4zm28.5-12.8H286v4h-1.8l-.7 5.5-.6 5.5h-1.5l-1.2 7-1.2 7v2h2v-5h1.9l.3-2.3.3-2.2 4.8-.3 4.9-.3.5 2 .5 2.1h1.8v4h2v-2l-1.2-7.2-1.2-7.3-.8-.6-.8-.5-.6-5-.7-4.9-1.1-.7-1.1-.8zm.6 4h.9l.7 4 .7 4h1.8v6h-9v-3h2v-5.9l1-2.5 1-2.6zm22.3-3.7-5.9-.6-.7 1.2-.7 1.1.2 13.3.2 13.2.5 1.2.4 1.3h1.6l.4-6 .4-6 .7-.6.6-.6 2.5.6 2.4.6.7 3 .7 3h1.8v2.6l2 1.7 2 1.7h1.2l-.6-2.8-.7-2.7-1.5-1.1-1.5-1.2-.6-3.7-.6-3.8 1.7-1.3 1.8-1.2.5-3.9.5-3.8-2.1-2.3-2-2.4zm.2 2.7h3.1l1.2.8 1.1.7.7 2.5.6 2.6-2.3 2.7-2.4 2.7h-5.2l-.4-4.8-.4-4.7.4-1.3.4-1.2zm-75.3-2h-2v15l-.1 15h15v-3h-11v-27z"/></svg>