<svg xmlns="http://www.w3.org/2000/svg" version="1.0" viewBox="0 0 878 1055"><path d="m365.8 66-1.3.1-1.2 1.4-1.3 1.4V74h-2v123h-2v17.8l1.3.6 1.2.6-1.2.6-1.3.6V240h-6v2h-31v-2h-16v-47h2v-6h-2v-4h2v-5.8l-1.2-.6-1.3-.6 1.3-.6 1.2-.6V74h-2v-4h-5.1l-1.5 1.4-1.4 1.5V87h-2v20h2v5.8l-1.2.6-1.3.6 1.3.6 1.2.6V211h-2v29h-92v-2h-6v2h-7.8l-.5-1.3-.5-1.2-1.2 1.5-1.2 1.5-.5-1.3-.5-1.2h-53.9l-1.5 1.4-1.4 1.5v4.2l1.4 1.5 1.5 1.4H179v-2h4v2h109.1l1.5 1.4 1.4 1.5v46.2l-1.4 1.5-1.5 1.4H287v2h-6v-2h-10v2h-12v-2h-6v2h-10v-2h-3.8l-.6 1.2-.6 1.3-.6-1.3-.6-1.2H227v2h-13.8l-.5-1.3-.5-1.2-1.2 1.5-1.2 1.5-.5-1.3-.5-1.2H197v2h-4v-2h-63v5.1l1.4 1.5 1.5 1.4h43.9l.6 1.2.6 1.3.6-1.3.6-1.2h31.6l.6 1.2.6 1.3.6-1.3.6-1.2h5.8v2h9.8l.6-1.3.6-1.2.6 1.2.6 1.3h5.6l.6-1.3.6-1.2.6 1.2.6 1.3h9.8v-2h4v2h8v-2h4v2h12v-2h3.8l.6 1.2.6 1.3.6-1.3.6-1.2h3.8v2h6v4h2v12h-2v27.1l-1.4 1.5-1.5 1.4H233v-2h-91v-2h-8v2h-4v6h4v2h134.8l.5 1.2.5 1.3 1.2-1.5 1.2-1.5.5 1.2.5 1.3H293v54.1l-1.4 1.5-1.5 1.4H193v-2h-3.8l-.5 1.2-.5 1.3-1.2-1.5-1.2-1.5-.5 1.2-.5 1.3H177v-2h-42.8l-.4-1.2-.5-1.3-1.6 1.7-1.7 1.7v4.2l1.4 1.5 1.5 1.4H255v2h36v6h2v6h-2v11.8l1.3.6 1.2.6-1.2.6-1.3.6v5.8h2v6h-2v16h-92v-2h-68.1l-1.5 1.4-1.4 1.5v4.2l1.4 1.5 1.5 1.4H148v-2h6v2h10v-2h4v2h11v-2h3.8l.6 1.2.6 1.3.6-1.3.6-1.2H197v2h3.8l.5-1.3.5-1.2 1.2 1.5 1.2 1.5.5-1.3.5-1.2h5.8v2h5.8l.6-1.3.6-1.2.6 1.2.6 1.3h68.9l1.5 1.4 1.4 1.5v45.2l1.4 1.5 1.5 1.4h5.1v-25h2v-26h48.1l1.5 1.4 1.4 1.5v47.2l1.4 1.5 1.5 1.4h2.2l1.5-1.4 1.4-1.5v-31.9l1.3-.6 1.2-.6-1.2-.6-1.3-.6V501h2v-7.1l1.4-1.5 1.5-1.4H400v2h6v-2h4v2h16v32h-2v16.1l2.5 2.4 2.4 2.5h2.2l1.5-1.4 1.4-1.5v-27.9l1.3-.6 1.2-.6-1.2-.6-1.3-.6v-16.9l1.4-1.5 1.5-1.4h51.2l1.5 1.4 1.4 1.5V519h-2v20.1l1.4 1.5 1.5 1.4h4.2l1.5-1.4 1.4-1.5v-43.2l1.4-1.5 1.5-1.4H529v2h6v-2h4v2h6v-2h5.8l.5 1.2.5 1.3 1.2-1.5 1.2-1.5.5 1.2.5 1.3h6.9l1.5 1.4 1.4 1.5v24.9l-1.2.5-1.3.5 1.5 1.2 1.5 1.2-1.2.5-1.3.5v15.9l2.5 2.4 2.4 2.5h3.1v-4h2v-6h-2v-9h2v-34h123v2h5.8l.6-1.3.6-1.2.6 1.2.6 1.3h14.9l1.5-1.4 1.4-1.5v-2.2l-2.5-2.4-2.4-2.5H597.2l-.6-1.3-.6-1.2-.6 1.2-.6 1.3H579v-2h-6v-48h2v-4h6v-2h10v2h13.8l.6-1.3.6-1.2.6 1.2.6 1.3H704v2h17.1l1.5-1.4 1.4-1.5v-4.2l-1.4-1.5-1.5-1.4H599v-2h-24v-55h88.8l.6 1.2.6 1.3.6-1.3.6-1.2H690v2h5.8l.6-1.3.6-1.2.6 1.2.6 1.3h18.9l2.5-2.5 2.5-2.5-2.5-2.5-2.5-2.5H577.9l-1.5-1.4-1.4-1.5V316h2v-4h9.8l.6 1.2.6 1.3.6-1.3.6-1.2H617v2h8v-2h3v2h91.1l1.5-1.4 1.4-1.5v-2.2l-2.5-2.4-2.4-2.5H714v2h-60v-2h-3.8l-.5 1.2-.5 1.3-1.2-1.5-1.2-1.5-.5 1.2-.5 1.3H640v-2h-6v2h-37v-2h-19.1l-1.5-1.4-1.4-1.5V286h2v-34h104.8l.5 1.2.5 1.3 1.1-1.5 1.1-1.5 1.1 1.5 1.1 1.5.5-1.3.5-1.2h3.6l.6 1.2.6 1.3.6-1.3.6-1.2h7.8v2h21.1l1.5-1.4 1.4-1.5v-4.2l-1.4-1.5-1.5-1.4h-56.9l-.6-1.3-.6-1.2-.6 1.2-.6 1.3H650v-2h-6v2h-43v-2h-24v-83h2v-19.8l-1.2-.6-1.3-.6 1.3-.6 1.2-.6V89h2v-6.8l-1.2-.6-1.3-.6 1.3-.6 1.2-.6V76h-2v-6h-3.1l-2.4 2.5-2.5 2.4V82h-2v143h-2v3.8l1.3.6 1.2.6-1.2.6-1.3.6V242h-12v2h-40v-2h-3.8l-.6 1.2-.6 1.3-.6-1.3-.6-1.2H503v-71h2v-4h-2v-10h2V80h2v-7.1l-1.4-1.5-1.5-1.4H497v9.8l-1.2.5-1.3.5L496 82l1.5 1.2-1.2.5-1.3.5V87h2v8h-2v5.8l1.3.6 1.2.6-1.2.6-1.3.6V242h-55v-22.8l-1.2-.6-1.3-.6 1.3-.6 1.2-.6V117h2V68h-8v4h-2v118.8l-1.2.5-1.3.5 1.5 1.2 1.5 1.2-1.2.5-1.3.5v43.9l-1.4 1.5-1.5 1.4h-56.2l-2.4-2.5-2.5-2.4V217h2v-94h2v-4h-2v-3.8l1.3-.5 1.2-.5-1.5-1.2-1.5-1.2 1.3-.5 1.2-.5V78h2v-7.1l-2.5-2.4-2.4-2.5zm-42.3 182H338v2h3.8l.6-1.3.6-1.2.6 1.2.6 1.3H358v28h-4v2h-3.6l-1.4 2-1.4 2H344v15.1l-1.4 1.5-1.5 1.4H311v-2h-6v-50h4v-2zm74.5 2h32v29.1l-1.4 1.5-1.5 1.4h-20.2l-1.5 1.4-1.4 1.5v5.1h4v2h20v4h2v3.1l-1.4 1.5-1.5 1.4H422v2h-4v-2h-49.1l-1.5-1.4-1.4-1.5v-6.2l1.4-1.5 1.5-1.4h16.2l1.5-1.4 1.4-1.5v-4.2l-1.4-1.5-1.5-1.4h-16.2l-1.5-1.4-1.4-1.5V250zm67.1 0h25l1.5 1.4 1.4 1.5v3.1h2v23.1l-1.4 1.5-1.5 1.4H477v2h-5v3.1l1.4 1.5 1.5 1.4h2.1v2h13.1l2.4 2.5 2.5 2.4v3.1h-2v4h-52.1l-1.5-1.4-1.4-1.5v-6.2l1.4-1.5 1.5-1.4h8.2l1.5-1.4 1.4-1.5V282h-11.1l-1.5-1.4-1.4-1.5v-12.9l1.3-.6 1.2-.6-1.2-.6-1.3-.6V260h2v-10zm46.2 0h5.7v2h3.8l.6-1.3.6-1.2.6 1.2.6 1.3H543v-2h6v2h18v11.8l1.3.6 1.2.6-1.2.6-1.3.6v11.6l1.3.6 1.2.6-1.2.6-1.3.6v3.6l1.3.6 1.2.6-1.2.6-1.3.6V304h-7.8l-.6 1.2-.6 1.3-.6-1.3-.6-1.2H545v2h-6v-2h-24v-15.1l-1.4-1.5-1.5-1.4h-4.2l-2.4-2.5-2.5-2.4v-28.2l1.3-1.4 1.2-1.4zm-203.1 58h.6l.6 1.2.6 1.3.6-1.3.6-1.2h7.8v2h22.1l1.5 1.4 1.4 1.5v10.2l1.4 1.5 1.5 1.4h7.1v-4h2v24h-2v-6h-4v-2h-3.1l-2.4 2.5-2.5 2.4v3.1h2v7.1l-1.4 1.5-1.5 1.4h-35.2l-1.5-1.4-1.4-1.5v-30.9l1.3-.6 1.2-.6-1.2-.6-1.3-.6V314h2v-3.1l1.3-1.4 1.2-1.4zm88.4 2h30.5l1.5 1.4 1.4 1.5v3.1h-2v6h2v4h-2v8h2v6h-2v18h-60v-2h-4v-24h2v-3.8l-1.2-.6-1.3-.6 1.3-.6 1.2-.6V310zm53.7 0h9.7v2h33v5.8l1.3.6 1.2.6-1.2.6-1.3.6V358h-29v2h-8v-2h-18v-45.1l1.3-1.4 1.2-1.4zm89.3 2h24.5l1.5 1.4 1.4 1.5v42.2l-1.4 1.5-1.5 1.4H519v-2h-4v-6h-4v-2h-5.6l-1.4 2-1.4 2H501v-19.1l1.4-1.5 1.5-1.4h9.1v-10h2v-10zm-217.1 52H342v3.8l1.3.5 1.2.5-1.5 1.1-1.5 1.1 1.5 1.1 1.5 1.1-1.2.5-1.3.5V387h2v4h8v-2h2v16h-2v-2h-7.1l-1.5 1.4-1.4 1.5V421h-39v-4h-2v-9.8l1.3-.6 1.2-.6-1.2-.6-1.3-.6v-3.6l1.3-.6 1.2-.6-1.2-.6-1.3-.6V393h2v-29zm72.5 0h29v2h4v53h-2v4h-46v-2h-16v-53h2v-4zm70.5 2H493v54.1l-1.4 1.5-1.5 1.4h-51.2l-1.5-1.4-1.4-1.5V397h2v-4h-2v-9h2v-9.8l-1.2-.6-1.3-.6 1.3-.6 1.2-.6V366zm66.8 0H547v2h3.8l.6-1.3.6-1.2.6 1.2.6 1.3h10.9l1.5 1.4 1.4 1.5v43.9l-1.2.5-1.3.5 1.5 1.2 1.5 1.2-1.2.5-1.3.5v3.8h-50v-4h-2v-12h-7.6l-1.4 2-1.4 2H501v-22h2v3.1l1.4 1.5 1.5 1.4h7.1v-4h2v-22.1l1.3-1.4 1.2-1.4zm-30.3 4h1v4h-2v-4zm0 43h1v6h-2v-6zm-180.2 16H340v3.8l1.3.6 1.2.6-1.2.6-1.3.6v3.8h2v3.1l2.5 2.4 2.4 2.5h5.1v3.8l1.3.6 1.2.6-1.2.6-1.3.6v5.8h2v12h-2v12h-12v2h-6v-2h-33v-51.1l1.3-1.4 1.2-1.4zm72.5.1 27.7-.1v2h4v8h-22v8h4v2h4v-2h11.1l1.5 1.4 1.4 1.5v32.2l-1.4 1.5-1.5 1.4H366v-2h-4v-29.8l1.3-.6 1.2-.6-1.2-.6-1.3-.6V449h4v-2h11.1l1.5-1.4 1.4-1.5v-2.2l-1.4-1.5-1.5-1.4H372v-2h-7.1l-1.5-1.5-1.5-1.5 2.3-2.4 2.3-2.5zm70.2 1.9H491v8h-14v2h-5v5.1l1.4 1.5 1.5 1.4H491v33.1l-1.4 1.5-1.5 1.4H436v-36h4v-2h4v-5.1l-1.4-1.5-1.5-1.4h-2.2l-1.7-1.7-1.7-1.6 1.3-.5 1.2-.4V431zm75.5 0h25v54h-10v2h-22v-2h-31.1l-1.5-1.4-1.4-1.5v-30.2l1.4-1.5 1.5-1.4h3.1v-2h3.1l2.4-2.5 2.5-2.4V435h2v-4z"/><path d="M320 437h-1v2h2v-2zM107.3 566l-2.8.1-1.2 1.4-1.3 1.4V586h-2v4h2v25.8l-1.2.6-1.3.6 1.3.6 1.2.6v5.6l-1.2.6-1.3.6 1.3.6 1.2.6v3.8h-2v4h2v6h-2v4h2v4h-2v11.8l1.3.5 1.2.5-1.5 1.1-1.5 1.1 1.5 1.1 1.5 1.1-1.2.5-1.3.5v25.9l-1.4 1.5-1.5 1.4H88v2h-6v2h-6v2H66v2h-4v4h-2v2h3.8l.6 1.2.6 1.3.6-1.3.6-1.2H84v-2h26v2h-6v2h-4v74h-2v3.8l-1.2.5-1.3.4 2.3 2 2.2 2v5.1l-1.2.6-1.3.6 1.3.6 1.2.6v11.6l-1.2.6-1.3.6 1.3.6 1.2.6v2.9l1.4 1.5 1.5 1.4h3.1v-2h4v-19.1l1.4-1.5 1.5-1.4H257v2h78.1l1.5 1.4 1.4 1.5v7.1h2v3.8l-1.3.6-1.2.6 1.3.6 1.2.6v17.6l-1.2.6-1.3.6 1.3.6 1.2.6V852h-2v79.1l-1.4 1.5-1.5 1.4h-29.2l-1.5 1.4-1.4 1.5v2.2l1.4 1.5 1.5 1.4H317v2h6v-2h39v2h37.1l3.4-3.5 3.5-3.4V932h2v-6h2v18h-2v12h-2v10h-2v6h-2v6h2v6h-2v7h6v-4.6l2-1.4 2-1.4V974h2v-4h2v-4h2v-6h2v-4h2v-6h2v-4h2v-3.1l1.5-1.6 1.6-1.5 1.8 2.1 1.8 2.1h35.1l.6 1.2.6 1.3.6-1.3.6-1.2h3.8v2h50.1l1.5-1.4 1.4-1.5V938h-4v-2h-20V821h2v-20h137v2h7.8l.6-1.3.6-1.2.6 1.2.6 1.3h88.9l1.5 1.4 1.4 1.5v16.2l1.4 1.5 1.5 1.4h4.2l1.5-1.4 1.4-1.5V731h2v-4h6v-2h8v-2h9v-2h8v-2h8v-2h3.1l1.5-1.4 1.4-1.5v-2.2l-1.4-1.5-1.5-1.4H793v2h-18.8l-.6 1.2-.6 1.3-.6-1.3-.6-1.2H768v2h-14v-2h2v-91h2v-19.8l-1.2-.5-1.3-.5 1.5-1.2 1.5-1.2-1.2-.5-1.3-.5v-16.9l-1.4-1.5-1.5-1.4h-2.2l-1.5 1.4-1.4 1.5v2.9l-1.2.5-1.3.5 1.5 1.2 1.5 1.2-1.2.5-1.3.5v5.8H644v-2h-14v2h-5v-2h-39.8l-.6-1.3-.6-1.2-.6 1.2-.6 1.3H406v-2h-4v2h-4v-2h-5.8l-.6 1.2-.6 1.3-.6-1.3-.6-1.2H112v-18h-2v-4zm41.5 34H183v2h8v-2h3.8l.5 1.2.5 1.3 1.2-1.5 1.2-1.5.5 1.2.5 1.3h5.8v-2h6v2h7.8l.6-1.3.6-1.2.6 1.2.6 1.3H450v4h-2v6h6v2h10v-1.1l-2.5-2.4-2.4-2.5h-2.2l-1.5-1.4-1.4-1.5V604h4v-2h6v2h5.8l.5-1.3.5-1.2 1.2 1.5 1.2 1.5.5-1.3.5-1.2h2.8v2h189v2h6v-2h3.8l.5 1.2.5 1.3 1.2-1.5 1.2-1.5.5 1.2.5 1.3H746v19.8l1.3.5 1.2.5-1.5 1.1-1.5 1.1 1.5 1.1 1.5 1.1-1.2.5-1.3.5v71.9l-2.5 2.4-2.4 2.5H736v2h-8v2h-12v2h-4v5.1l1.4 1.5 1.5 1.4h3.1v-2h22v-2h20v2h-6v2h-6v2h-4v8h2v52h-2v8H617v-2h-3.8l-.6 1.2-.6 1.3-.6-1.3-.6-1.2H503v-2h-3.6l-1.4-2-1.4-2H493v4H354.2l-.6-1.3-.6-1.2-.6 1.2-.6 1.3H348v-2h-12v2h-6v-2H215v-3.8l1.2-.4 1.3-.5-1.8-1.7-1.7-1.7-1.5 1.5-1.5 1.5v2.2l-1.4 1.5-1.5 1.4H193v-2h-79v-2h-4v-68h4v-2h8v-2h6v-2h6v-2h4v-2h5.6l1.4-2 1.4-2h3.6v-4h-16v2h-14v2h-16v-1.2l3-2.8 3-2.8v-10l1.3-.6 1.2-.6-1.2-.6-1.3-.6V606h2v-3.1l1.3-1.4 1.2-1.4zm240.5 199H424v2h3.8l.5-1.3.5-1.2 1.2 1.5 1.2 1.5.5-1.3.5-1.2h9.6l.5 1.2.5 1.3 1.2-1.5 1.2-1.5.5 1.2.5 1.3h3.6l.6-1.3.6-1.2.6 1.2.6 1.3H489v14h2v5.8l-1.2.6-1.3.6 1.3.6 1.2.6v3.8h-2v3.8l1.3.6 1.2.6-1.2.6-1.3.6v4.6l1.3.6 1.2.6-1.2.6-1.3.6V934h2v2h-22.8l-.6 1.2-.6 1.3-.6-1.3-.6-1.2H434v2h-3.6l-1.4-2-1.4-2h-2.7l-1.5 1.4-1.4 1.5v3.1h-2v4h-2v4h-2v6h-2v-14h2v-16h2v-10h2v-12h2v-14h2v-5.1l-1.4-1.5-1.5-1.4h-2.2l-1.5 1.4-1.4 1.5v3.1h-2v6h-2v8h-2v6h-2v6h-2v6h-2v6h-2v6h-2v4h-48V801.9l1.3-1.4 1.2-1.4z"/><path d="M305 608h-2v6h4v-6zm62.6 0H366v6h6v-3.1l-1.4-1.5-1.5-1.4zm181 0H547v3.1l2.5 2.4 2.4 2.5h1.1v-5.1l-1.4-1.5-1.5-1.4zm-335.3 4-1.8.1-1.2 1.4-1.3 1.4v1.1h6v-4z"/><path d="M282 612.1h-2.5l-3.2 3.4-3.3 3.4v5.1h-2v3.6l-2 1.4-2 1.4v3.6h-2v4h-2v4h-2v3.6l-2 1.4-2 1.4v3.6h-2v3.6l-2 1.4-2 1.4v3.2l-2 1.4-2 1.4v5.6h-2v3.2l-3 2.8-3 2.8v3.2h-2v4.6l-2 1.4-2 1.4v3.6h-2v3.6l-2 1.4-2 1.4v3.6h-2v3.2l-3 2.8-3 2.8v3.2h-2v3.6l-2 1.4-2 1.4v3.6h-2v3.6l-2 1.4-2 1.4v3.2l-2 1.4-2 1.4v3.2l-2 1.4-2 1.4v3.2l-2 1.4-2 1.4v2.7l-3.5 3.4-3.4 3.5H158v-2h-6v-2h-4v2h-13.1l-2.4-2.5-2.5-2.4V747h-2v-10h2v-3.1l3.5-3.4 3.4-3.5H156v-8h-4v-2h-4v-2h-10v2h-6v2h-3.1l-3.4 3.5-3.5 3.4v3.1h-2v6h-2v16h2v4h2v3.1l4.5 4.4 4.4 4.5h5.1v2h12v-2h61v2h40v-2h11.1l4.4-4.5 4.5-4.4v-4.7l2-1.4 2-1.4v-5.2l2-1.4 2-1.4V739h2v-3.6l2-1.4 2-1.4V729h2v-3.6l2-1.4 2-1.4V719h2v-3.6l2-1.4 2-1.4v-3.2l2-1.4 2-1.4V703h2v-6h-2v-3.1l1.7-1.7 1.6-1.7.5 1.3.4 1.2h2.9l1.5-1.4 1.4-1.5V687h2v-4.6l2-1.4 2-1.4V676h2v-3.6l2-1.4 2-1.4v-2.7l1.4-1.5 1.5-1.4h2.1v-3.6l2-1.4 2-1.4V654h2v-4h2v-3.6l2-1.4 2-1.4V640h2v-3.6l2-1.4 2-1.4v-2.7l2.5-2.4 2.4-2.5H416v2h6v-2h6v2h72.1l1.5 1.4 1.4 1.5v3.1h2v3.2l3 2.8 3 2.8v3.2h2v3.6l2 1.4 2 1.4v3.6h2v3.6l2 1.4 2 1.4v3.6h2v4h2v3.6l2 1.4 2 1.4v3.2l2 1.4 2 1.4v4.6h2v3.6l2 1.4 2 1.4v3.6h2v3.6l2 1.4 2 1.4v3.6h2v4h2v4h2v4h2v3.6l2 1.4 2 1.4v5.6h2v3.6l2 1.4 2 1.4v3.6h2v3.6l2 1.4 2 1.4v5.6h2v4h2v3.6l2 1.4 2 1.4v3.6h2v3.1l2.5 2.4 2.4 2.5h67.3l2.8 3 2.8 3h1.2v-4h45.1l4.4-4.5 4.5-4.4V765h2v-4h2v-16h-2v-4h-2v-3.1l-3.5-3.4-3.4-3.5H704v-2h-4v-2h-16v2h-4v4h-2v4h3.8l.6 1.2.6 1.3.6-1.3.6-1.2h5.4l1.4 2 1.4 2h8.7l2.4 2.5 2.5 2.4v5.1h2v4h-2v5.1l-3.5 3.4-3.4 3.5h-32.2l-3.4-3.5-3.5-3.4V757h-2v-3.6l-2-1.4-2-1.4V747h-2v-4h-2v-3.6l-2-1.4-2-1.4v-3.2l-2-1.4-2-1.4V727h-2v-4h-2v-3.6l-2-1.4-2-1.4V713h-2v-4h-2v-3.1l-1.4-1.5-1.5-1.4H625v-4h-2v-3.6l-2-1.4-2-1.4V689h-2v-4.6l-2-1.4-2-1.4V678h-2v-4h-2v-4h-2v-4h-2v-3.6l-2-1.4-2-1.4V656h-2v-4h-2v-3.6l-2-1.4-2-1.4V642h-2v-3.6l-2-1.4-2-1.4v-3.2l-2-1.4-2-1.4V624h-4v-2h-4v-2h-68v-2h-4v2h-9.1l-1.5-1.4-1.4-1.5v-2.2l-1.4-1.5-1.5-1.4H485v6h-4v2h-45v-2h-96v-2h-3.8l-.5 1.2-.5 1.3-1.1-1.5-1.1-1.5-1.1 1.5-1.1 1.5-.5-1.3-.5-1.2h-42.4l-1.4-2-1.4-2zm27.8 13.9H334v6h-2v4h-2v4h-2v3.1l-1.4 1.5-1.5 1.4H323v4h-2v4h-2v3.6l-2 1.4-2 1.4v3.2l-2 1.4-2 1.4v3.6h-2v3.6l-2 1.4-2 1.4v3.6h-2v4h-2v3h-2v3.6l-2 1.4-2 1.4v3.2l-2 1.4-2 1.4v3.6h-2v3.6l-2 1.4-2 1.4v3.6h-2v3.2l-3 2.8-3 2.8v3.2h-2v4h-2v3.6l-2 1.4-2 1.4v3.6h-2v3.6l-2 1.4-2 1.4v3.2l-2 1.4-2 1.4v2.7l-2.5 2.4-2.4 2.5h-46.2l-1.5-1.4-1.4-1.5V753h2v-3.6l2-1.4 2-1.4V743h2v-4h2v-4h2v-3.6l2-1.4 2-1.4V725h2v-3.6l2-1.4 2-1.4v-3.2l2-1.4 2-1.4v-3.2l2-1.4 2-1.4V703h2v-3.6l2-1.4 2-1.4V693h2v-3.6l2-1.4 2-1.4V684h2v-4h2v-3.6l2-1.4 2-1.4V670h2v-3.6l2-1.4 2-1.4V660h2v-3.6l2-1.4 2-1.4V650h2v-3.6l2-1.4 2-1.4v-2.7l1.4-1.5 1.5-1.4h4.2l1.5-1.4 1.4-1.5v-6.2l1.3-1.4 1.2-1.4zm234.8 4h27.5l1.5 1.4 1.4 1.5v4.2l5 4.9 5 4.9v2.7l2 1.4 2 1.4v3.6h2v4h2v3.6l2 1.4 2 1.4v3.6h2v3.6l2 1.4 2 1.4v3.6h2v4h2v4.6l2 1.4 2 1.4v3.6h2v4h2v3.6l2 1.4 2 1.4v3.6h2v3.6l2 1.4 2 1.4v3.6h3v4h2v4h2v4h2v4h2v4h2v3.2l3 2.8 3 2.8v3.2h2v4h2v4h2v6h-19.8l-.6 1.2-.6 1.3-.6-1.3-.6-1.2h-35.9l-3.4-3.5-3.5-3.4V755h-2v-4h-2v-3.6l-2-1.4-2-1.4V741h-2v-4h-2v-4h-2v-3.6l-2-1.4-2-1.4V723h-2v-3.6l-2-1.4-2-1.4V713h-2v-4h-2v-4h-2v-3.6l-2-1.4-2-1.4V695h-2v-3.6l-2-1.4-2-1.4V684h-2v-4h-2v-4h-2v-3.6l-2-1.4-2-1.4V666h-2v-4h-2v-4h-2v-4h-2v-3.6l-2-1.4-2-1.4V644h-2v-4h-2v-4h-2v-6z"/><path d="M287.6 652H285v6h5.1l1.5-1.5 1.5-1.5-1.5-1.5-1.5-1.5zm-25 37H261v4h6v-1.1l-1.4-1.5-1.5-1.4zm-8.3 28-2.8.1-1.3 1.5-1.3 1.4 1.5 1.5 1.5 1.5h2.2l1.5-1.4 1.4-1.5V717zm-5.3 20h-2v4h4v-4zm303.3-85-.8.1-1.2 1.4-1.3 1.4v1.1h4v-4zm26.7 20h-2v4h4v-4zm-14 12h-2v4.1l1.4 1.5 1.5 1.4h1.1v-7zm-2 17h-2v6h4v-6zm39 16h-3v1.1l2.5 2.4 2.4 2.5h1.1v-6zm1 26h-2v4h4v-4zm15.3 2-.8.1-1.3 1.4-1.3 1.5 2.6 2.6 2.5 2.5 1.5-1.5 1.5-1.5V747h-4v-2zm81-125-.8.1-1.3 1.5-1.3 1.4 1.5 1.5 1.5 1.5H710v-4h-10v-2zM144 622h-2v6h4v-6zm84.5 4H227v2h2v4h3.6l1.4 2 1.4 2h1.6v-3.1l-3.5-3.4-3.4-3.5zm436.5 0h-1v2h-4v4h3.1l1.5-1.4 1.4-1.5V626zm-56 2h-2v6h4v-6zm36.6 0H644v3.1l1.5 1.5 1.5 1.5 1.6-1.5 1.5-1.6-1.5-1.5-1.5-1.5zm69.4 2h-3v4h4v2h6v-4h-4v-2zm-539.5 4h-.5v2h-3v8h-2v8h-2v7.1l2.5 2.4 2.4 2.5h6.1v-2h6v-2h4v-8h-2v-3.6l-2-1.4-2-1.4V642h-2v-3.1l-2.5-2.4-2.4-2.5zm2.1 14h.5l1.5 1.4 1.4 1.5v5.1h-6v-4h2v-4zm61-8H237v3.1l1.4 1.5 1.5 1.4h3.1v-3.1l-1.4-1.5-1.5-1.4zm475 0H712v6h6v-3.1l-1.4-1.5-1.5-1.4zm-245 8H466v4h3.8l.4 1.2.5 1.3 1.7-1.8 1.7-1.7-1.5-1.5-1.5-1.5zm207 0H674v4h-2v8h-2v4h-2v6h-2v3.1l1.4 1.5 1.5 1.4h9.1v-2h11.1l1.5-1.5 1.6-1.5-4.1-3.9-4.1-3.9V660h-2v-4h-2v-5.1l-1.4-1.5-1.5-1.4zm1 16h.5l1.5 1.4 1.4 1.5v1.1h-4v-4zm-183.8-12h-1.4l-1.4 2-1.4 2H483v3.6l2 1.4 2 1.4v7.6h-2v10h13.8l.6-1.3.6-1.2.6 1.2.6 1.3h6.9l1.5-1.4 1.4-1.5v-4.2l-2.5-2.4-2.4-2.5H503v-4h-2v-5.1l-3.5-3.4-3.4-3.5zm2.2 14h2v4h2v4h-8v-4h2v-4zm-138.2-12-.3.1-1.2 1.4-1.3 1.4v2.2l1.4 1.5 1.5 1.4h3.1v-5.1l-1.4-1.5-1.5-1.4zm40.2 2h-1v2h-6v4h5.1l1.5-1.4 1.4-1.5V656zm254.3 4.1h-2.8l-2.5 2.6-2.4 2.7 1.2.4 1.2.4v3.8h1.1l2.4-2.5 2.5-2.4V662h2v-2zM434 664h-2v1.1l1.4 1.5 1.5 1.4h1.1v-4zm-293.2 4-.3.1-1.2 1.4-1.3 1.4v1.1h6v-1.1l-1.4-1.5-1.5-1.4zm567.2 8h-2v6h4v-6zm-366 2h-2v3.1l1.4 1.5 1.5 1.4h1.1v-6zm-162.4 13h-.6v6h1.1l1.5-1.5 1.5-1.5-1.5-1.5-1.5-1.5zm26 0h-.6v6h4v-3.1l-1.4-1.5-1.5-1.4zm452.4 0h-2v4h4v-4zm-215.2 2-.3.1-1.3 1.5-1.3 1.4 1.5 1.6 1.6 1.5 1.6-1.5 1.5-1.6-1.5-1.5-1.5-1.5zm-65.3 6H376v4h-2v6h-2v4h-2v4h-2v7.1l1.4 1.5 1.5 1.4h3.1v-2h6v2h5.1l1.5-1.4 1.4-1.5V717h-2v-8h-2v-5.1l-2.5-2.4-2.4-2.5zm1.5 14h1v6h-2v-6zm309-12h-2v8h1.1l1.5-1.4 1.4-1.5V701zm-509 10h-2v2h-5v4h6.1l1.5-1.4 1.4-1.5V711zm343.6 2H521v4h6v-1.1l-1.4-1.5-1.5-1.4zm144.7 2-.8.1-1.3 1.5-1.3 1.4 1.5 1.5 1.5 1.5h1.1v-6zm-351 4-.8.1-1.2 1.4-1.3 1.4v2.2l2.5 2.5 2.5 2.5 1.5-1.5 1.5-1.5V723h-4v-4zm118.7 0h-1v5.1l1.4 1.5 1.5 1.4h1.1v-4h-2v-4zm68.8 0-.3.1-1.2 1.4-1.3 1.4v3.1h6v-3.1l-1.4-1.5-1.5-1.4zM417 729h-3v4h3.1l1.5-1.4 1.4-1.5V729zm127 0h-3v3.1l1.5 1.5 1.5 1.5 1.5-1.5 1.5-1.5V729zm-216 2h-2v5.1l1.4 1.5 1.5 1.4h4.2l1.5-1.5 1.5-1.5-1.5-1.5-1.5-1.5H330v-2zm20.6 6h-.6v12h4v-9.1l-1.4-1.5-1.5-1.4zm131.6 0h-.8l-1.4 2-1.4 2H474v2h2.8l.4 1.2.5 1.3 1.6-1.7 1.7-1.7V737zM162 743h-2v4h4v-4zm142.8 8-1.3.1-1.2 1.4-1.3 1.4v6.7l-2 1.4-2 1.4v5.6h-2v7.1l1.4 1.5 1.5 1.4h9.1v-2h12v-5.6l-2-1.4-2-1.4V765h-2v-4h-2v-5.1l-2.5-2.4-2.4-2.5zm1.2 14h1v6h-4v-2h2v-4zm231.3-11.9h-3.8l-2.2 2.4-2.3 2.4v5.1h-2v3.6l-2 1.4-2 1.4v4.7l1.4 1.5 1.5 1.4H537v2h3.1l1.5-1.4 1.4-1.5V759h-2v-6zm-1 11.9h.7v3.1l-1.4 1.5-1.5 1.4H533v-3.1l1.3-1.4 1.2-1.4zm-99.5-8-.3.1-1.2 1.4-1.3 1.4v3.1h8v-1.1l-2.5-2.4-2.4-2.5zm293.2 4h-2v1.1l1.4 1.5 1.5 1.4h1.1v-4zm-340 4h-2v3.2l-3.1 2.9-3.1 2.9 1.6 1.5 1.6 1.6 3.5-3.5 3.5-3.5V765zm169.5 0h-.5v7.1l1.4 1.5 1.5 1.4h3.1v-5.1l-2.5-2.4-2.4-2.5zm-70.2 2-1.8.1-1.2 1.4-1.3 1.4v3.1h6v-6zM347 771h-1v4h2v-4zm-197 2h-4v3.1l1.7 1.7 1.6 1.7.5-1.3.4-1.2h3.8v-4zm406.3 0-.8.1-1.2 1.4-1.3 1.4v3.1h1.1l1.5-1.4 1.4-1.5V773zm-266 2-.8.1-1.3 1.5-1.3 1.4 1.5 1.5 1.5 1.5h1.1v-6zm430.7 0h-3v4h6v-4zm-462.7 2-.8.1-1.2 1.4-1.3 1.4v3.1h4v-6zm422.7 4h-3v4h6v-4z"/></svg>