<svg xmlns="http://www.w3.org/2000/svg" version="1.0" viewBox="0 0 862 1003"><path d="m294.3 65-1.8.1-1.5 1.6-1.4 1.7 1.2.4 1.2.4V75h-9v3h-7v-3h-35v3h-8v2h-4.6l-1.4 2-1.4 2h-2.7l-4.4 4.5-4.5 4.4V95h-3v4h-2v6h-2v6h-2v15h-4v2h-4v6.1l1.4 1.5 1.5 1.4h2.7l1.4 2 1.4 2h2.7l1.5 1.4 1.4 1.5V213h3v2h-3v28h-3.6l-1.4 2-1.4 2h-2.7l-1.5 1.4-1.4 1.5v4.2l1.4 1.5 1.5 1.4h4.1v-2h5v11h-5v-2h-4v-2h-4.1l-1.5 1.4-1.4 1.5v4.2l2.5 2.4 2.4 2.5h3.1v2h4v2.6l2 1.4 2 1.4V293h3v2h-3v17h3v22h-3v21h3v4h-3v14.1l-2.5 2.4-2.4 2.5h-2.2l-1.5 1.4-1.4 1.5v3.1h2v5h5v-3h3v3h3v10h-3v21h3v11h2v4h2v4h3.1l1.5 1.4 1.4 1.5v1.2l1.4 1.5 1.5 1.4h3.7l1.4 2 1.4 2h3.6v2h4v2h13v2h6v2h5v-2h4v2h21v2h-2v4.8l-1.2.6-1.3.6 1.3.6 1.2.6v3.8h4.1l2.4-2.5 2.5-2.4V463h2v-2.1l1.4-1.5 1.5-1.4h88.2l1.5 1.4 1.4 1.5v2.1h2v4h2.1l1.5 1.4 1.4 1.5v3.1h7v-8h-2v-7h10v11h6.1l1.5-1.4 1.4-1.5V463h2v-2.1l1.4-1.5 1.5-1.4H442v2h3v-2h5v2h4v-2h3v2h61v2.1l2.5 2.4 2.4 2.5h4.2l1.5-1.4 1.4-1.5V460h36v-2h6v-2h6v-2h5v-2h4v-2h4v-2h4v-2h2.1l1.5-1.4 1.4-1.5v-1.7l2-1.4 2-1.4V435h2v-4h2v-15h2v-17h6.1l1.5-1.4 1.4-1.5V391h-4.1l-1.5-1.4-1.4-1.5V386h-2v-90.1l1.4-1.5 1.5-1.4h3.2l1.5-1.4 1.4-1.5v-6.2l-1.7-1.7-1.6-1.7-.5 1.3-.4 1.2h-1.9l-1.5-1.4-1.4-1.5V270h6.1l2.4-2.5 2.5-2.4V262h-2v-3h-4.1l-2.4-2.5-2.5-2.4v-91.2l2.5-2.4 2.4-2.5h3.7l1.4-2 1.4-2h3.6v-4h2v-2.1l-1.4-1.5-1.5-1.4H620v2h-10v-5.8l-1.2-.6-1.3-.6 1.3-.6 1.2-.6V133h-2v-15h-2v-11h-2v-6h-2v-3.6l-2-1.4-2-1.4V92h-2.2l-2.8-3-2.8-3h-2.8l-1.4-2-1.4-2H572v-2h-40v-7h2v-3.1l-1.4-1.5-1.5-1.4H527v2h-2.1l-1.5 1.4-1.4 1.5V75h-2v2.1l-1.4 1.5-1.5 1.4h-9.9l-.6-1.3-.6-1.2-.6 1.2-.6 1.3H492v-2h-10v2h-3v-2h-49v-4.1l-2.5-2.4-2.4-2.5H421v6h-2v3h-14v-5h2v-5.1l-1.4-1.5-1.5-1.4h-1.2l-2.4 2.5-2.5 2.4V73h-2.1l-1.5 1.4-1.4 1.5V78h-87v-3h-5v-4h-2v-3.1l-1.4-1.5-1.5-1.4zM247 88h11v2h4v2h6v-2h6v-2h3v2h3v-2h2.8l.6 1.2.6 1.3.6-1.3.6-1.2h4.8v2h12v2h3v4.6l2 1.4 2 1.4v3.2l2 1.4 2 1.4v3.6h2v5h2v4h2v3.1l1.4 1.5 1.5 1.4h2.1v4h2v5h2v3.1l-1.4 1.5-1.5 1.4H305v2h-5v2h-4v2h-4v2h-4v5h-4.1l-1.5 1.4-1.4 1.5v3.1h-2v4h-2v4h-2v3h-5v-3h-5v-2h-3.6l-1.4-2-1.4-2h-3.2l-1.4-2-1.4-2H249v-2h-3v-2h-4v-2h-4v-2.1l-2.5-2.4-2.4-2.5H230v-2h-2.1l-2.4-2.5-2.5-2.4v-17.7l-2-1.4-2-1.4v-4.4l-1.2-.6-1.3-.6 1.3-.6 1.2-.6V103h2v-3.2l3-2.8 3-2.8V92h5v-2h4v-2zm100.5 2H383v9h-2v4h-2v4h-3v4h-2v5h-2v3.6l-2 1.4-2 1.4v3.6h-2v4h-2v2.6l-2 1.4-2 1.4v3.6h-20.1l-1.5-1.4-1.4-1.5V133h-2v-4.6l-2-1.4-2-1.4v-3.2l-2-1.4-2-1.4V116h-2v-4.1l-1.4-1.5-1.5-1.4H320v-4h-2v-3.6l-2-1.4-2-1.4V92h-2v-2zm65.1 0h15.5l1.5 1.4 1.4 1.5V95h2.1l1.5 1.4 1.4 1.5v3.1h2v4h2v3.6l2 1.4 2 1.4v4.6h2v3.6l2 1.4 2 1.4v3.6h3v4h2v5h2v4h-88v-4h2v-4.6l2-1.4 2-1.4V124h2.1l1.5-1.4 1.4-1.5V118h2v-4h2v-5h2v-3.6l2-1.4 2-1.4V99h2v-4h2v-3h3v-2zm44.9 0h3.5v2h3v-2h3v2h43v7h-2v4h-3v3.6l-2 1.4-2 1.4v4.6h-2v4h-2v4h-2v3.6l-2 1.4-2 1.4v4.6h-2v4h-3v2h-17v-2h-2.1l-1.5-1.4-1.4-1.5v-3.7l-2-1.4-2-1.4v-3.2l-2-1.4-2-1.4V118h-2v-4h-2v-3h-3v-4h-2v-4h-2v-3.6l-2-1.4-2-1.4V92h13v-2zM564 90h7v2h4v3h4v2h4.1l4.4 4.5 4.5 4.4v3.1h2v5h2v23h3v10h2v8.1l-1.4 1.5-1.5 1.4h-1.7l-1.4 2-1.4 2H590v2h-3.1l-1.5 1.4-1.4 1.5v2.1h-5v2h-4v2h-3.6l-1.4 2-1.4 2h-3.2l-1.4 2-1.4 2H558v2h-4v2h-4v3h-4v2h-3v-7h-3v-19h-2v-4h-2v-5.2l-3-2.8-3-2.8V145h-4v-2h-5v-2h-10v-2h-13v-6h2v-4.6l2-1.4 2-1.4V122h3v-4h2v-4h2v-5h2v-3.6l2-1.4 2-1.4V99h2v-4h4v-3h34v-2zm-243.4 60h16.5l1.5 1.4 1.4 1.5v3.1h3v3.1l3.3 3.2 3.2 3.3 2.3-2.3 2.2-2.2v-2.2l1.4-1.5 1.5-1.4h2.1v-3.1l1.4-1.5 1.5-1.4H457v2h10v2h3v4h2v4h2v4h4.1l2.4-2.5 2.5-2.4V158h2v-4h2.6l1.4-2 1.4-2h6.6v2h22.2l2.8 3 2.8 3h1.3l1.5 1.4 1.4 1.5v8.1h2v28.1l-1.4 1.5-1.5 1.4h-3.2l-1.5 1.4-1.4 1.5v2.1h-4v9.1l1.4 1.5 1.5 1.4h3.1v2h3v2h4v7h2v88.8l-1.2.5-1.3.5 1.5 1.2 1.5 1.2-1.2.5-1.3.5v7.4l-2 1.4-2 1.4v2.6h-4.1l-1.5 1.4-1.4 1.5v6.2l1.4 1.5 1.5 1.4h3.2l2.4 2.5 2.5 2.4v6.1h-2v4h-2v17h-2.2l-3.8 4-3.8 4H514v3h-14v-3h-12v-2h-2.1l-1.5-1.4-1.4-1.5v-2.2l-2.5-2.4-2.4-2.5H470v2h-2.1l-2.4 2.5-2.5 2.4v2.2l-1.4 1.5-1.5 1.4H397v-2h-14v2h-3l-.1-1.3-.1-1.2-.5 1.2-.5 1.3H375v-2h-18.1l-1.5-1.4-1.4-1.5v-2.2l-1.4-1.5-1.5-1.4h-5.7l-1.4 2-1.4 2H340v2h-4v2h-20v-2h-4v-2h-17v-2h-3.1l-1.5-1.4-1.4-1.5V372h-2v-31.1l2.5-2.4 2.4-2.5h3.1v-2h6v-3h2.1l1.5-1.4 1.4-1.5v-2.2l-1.4-1.5-1.5-1.4H301v-2h-4v-2h-4v-2h-4v-3h-2v-22.8l-1.2-.5-1.3-.5 1.5-1.1 1.5-1.1-1.5-1-1.5-1 1.5-1.1 1.5-1.1-1.2-.5-1.3-.5V270h2v-4h-2v-31.8l1.3-.6 1.2-.6-1.2-.6-1.3-.6v-17.9l3.5-3.4 3.4-3.5h2.2l1.5-1.4 1.4-1.5V202h4v-2h4.1l2.4-2.5 2.5-2.4v-4.2l-1.4-1.5-1.5-1.4H301v-3h-4v-2h-3.6l-1.4-2-1.4-2H287v-6h-2v-4h2v-4.2l4-3.8 4-3.8V154h4v-2h5v-2zm-93.6 4h4v2h3.6l1.4 2 1.4 2h3.2l1.4 2 1.4 2h3.6v2h5v2.1l1.4 1.5 1.5 1.4h2.7l1.4 2 1.4 2h3.2l1.4 2 1.4 2h3.7l3.4 3.5 3.5 3.4V202h-2v2.1l-2.5 2.4-2.4 2.5H266v2h-4v2h-3.2l-2.8 3-2.8 3H250v2h-5v3h-4v2h-3.2l-2.8 3-2.8 3H226v2h-3v-13h-2v-14h2v-5h-2v-24.8l1.3-.6 1.2-.6-1.2-.6-1.3-.6V162h2v-8zm370.2 17h3.8v78h-8v-2h-6v-2h-4v-2h-5v-2.1l-1.4-1.5-1.5-1.4H572v-2h-3.6l-1.4-2-1.4-2H562v-2h-5v-2h-4v-2h-3.1l-1.5-1.4-1.4-1.5V221h-4v-18.1l3.5-3.4 3.4-3.5h3.1v-2h6v-2h3v-2h3.1l1.5-1.4 1.4-1.5V185h4v-2h4v-2h4.6l1.4-2 1.4-2h3.6v-2h3.6l1.4-2 1.4-2zm-308.7 21h1.5v4h-3v-4zm-15.4 25h1l1.5 1.4 1.4 1.5V306h-5v-2h-4v-2h-4.6l-1.4-2-1.4-2H257v-3h-4v-2h-4v-2h-3v-2h-4v-2h-3.6l-1.4-2-1.4-2h-3.2l-1.4-2-1.4-2H225v-3h-2v-4h-2v-19h2v-5.1l2.5-2.4 2.4-2.5h4.1v-2.1l1.4-1.5 1.5-1.4h3.1v-2h4v-2h4v-2h3v-2h4v-2h4v-2h3.1l1.5-1.4 1.4-1.5V221h5v-2h4v-2zm273.2 15h3.3l1.4 2 1.4 2h3.6v2h4v2h5v2.1l1.4 1.5 1.5 1.4h3.1v2h4v2h4v2h5v2h3.6l1.4 2 1.4 2h3.6v2h5v7h2v25h-4.6l-1.4 2-1.4 2H590v3h-3.6l-1.4 2-1.4 2H579v2h-3.6l-1.4 2-1.4 2H569v2h-4v2h-5v2h-4v3h-4v2h-4v2h-5v-2h-3v-13h3v-4h-3v-26h3v-17h-3v-10h3v-17zm-320.5 57h2.2v2h4.6l1.4 2 1.4 2h3.6v3h4v2h4v2h2.6l1.4 2 1.4 2h3.6v2h3.6l1.4 2 1.4 2h3.6v2h3v3h3.1l1.5 1.4 1.4 1.5v3.1h2v10.1l-3.5 3.4-3.4 3.5H266v2h-4v2h-3.6l-1.4 2-1.4 2h-2.7l-1.5 1.4-1.4 1.5v2.1h-5v2h-4v2h-3.6l-1.4 2-1.4 2H231v2h-5v2h-3v-8h-2v-65.1l1.3-1.4 1.2-1.4zM598 302h3v12h2v3h-2v33h2v13h-2v17h-6v-2h-4v-2h-4v-2h-3.1l-1.5-1.4-1.4-1.5V369h-4.6l-1.4-2-1.4-2H570v-2h-3.6l-1.4-2-1.4-2H559v-2h-3.6l-1.4-2-1.4-2H549v-2.1l-1.4-1.5-1.5-1.4H543v-4h-3v-4h3v-9h4v-2h3.6l1.4-2 1.4-2h3.6v-2h5v-2h3.6l1.4-2 1.4-2h3.6v-3h4v-2h5v-2h4v-2h3.6l1.4-2 1.4-2h3.6v-2zm-323.5 46h2.5v15h2v4h-2v7h2v5.1l2.5 2.4 2.4 2.5h2.1v2h4v3h8v2h7v2h16v2h9v4h-2v4h-2v4.1l-1.4 1.5-1.5 1.4H321v4h-2v3.6l-2 1.4-2 1.4v3.6h-2v3h-2v4h-2v3.1l-2.5 2.4-2.4 2.5H302v4.1l-2.5 2.4-2.4 2.5H268v-2h-22v-2h-4v-3h-3.6l-1.4-2-1.4-2h-3.2l-1.4-2-1.4-2H227v-2h-4v-4h-2v-13h2v-35.1l2.5-2.4 2.4-2.5h4.1v-2h4v-2.1l1.4-1.5 1.5-1.4h2.7l1.4-2 1.4-2h4.6v-2h3.6l1.4-2 1.4-2h3.6v-2h4v-2h5v-3h4v-2zM543 359h5v2h3.6l1.4 2 1.4 2h3.6v2h4.1l1.5 1.4 1.4 1.5v2.1h3.6l1.4 2 1.4 2h3.6v2h4v2h4.6l1.4 2 1.4 2h2.7l1.5 1.4 1.4 1.5v2.1h4v2h2.1l2.4 2.5 2.5 2.4v5.1h-2v4h-2v4.8l1.3.6 1.2.6-1.2.6-1.3.6V429h-3v3.6l-2 1.4-2 1.4v3.6h-4v2h-4v3h-5v2h-4v2h-4v2h-47.1l-1.5-1.4-1.4-1.5V444h-2v-4.6l-2-1.4-2-1.4V433h-2v-3.6l-2-1.4-2-1.4V422h-2v-4h-3v-3.6l-2-1.4-2-1.4V408h-2v-5h-2v-6h14l.1 1.2.1 1.3.5-1.3.5-1.2h7.8v-2h4v-2h3v-2h3.1l1.5-1.4 1.4-1.5V386h2v-4h2v-6h2v-17zm-68.5 23h1.5v4h-3v-4zm-127.4 13h5l1.5 1.4 1.4 1.5v2.2l1.4 1.5 1.5 1.4h2.1v4.6l2 1.4 2 1.4v3.6h2v4h2v3.6l2 1.4 2 1.4v4.2l2 1.4 2 1.4v3.6h3v3.6l2 1.4 2 1.4v4.6h2v2h-9v2h-3v-2h-18v2h-12.8l-.6-1.3-.6-1.2-.6 1.2-.6 1.3H333v-2h-23v-4h2v-5h2v-4h2v-3.1l2.5-2.4 2.4-2.5h2.1v-5h2v-3.6l2-1.4 2-1.4v-3.2l2-1.4 2-1.4v-4.2l2-1.4 2-1.4v-2.7l1.4-1.5 1.5-1.4h2.1v-2zm52.4 0H434v2h5v-2h3v2h11v4h-3v4h-2v4.6l-2 1.4-2 1.4v3.6h-2v3.6l-2 1.4-2 1.4v4.6h-2v4h-2v4h-2.1l-1.5 1.4-1.4 1.5v3.1h-2v3h-2v3.1l-1.4 1.5-1.5 1.4H399v-2h-5v-4h-2v-4.6l-2-1.4-2-1.4V433h-2v-3.6l-2-1.4-2-1.4v-4.2l-2-1.4-2-1.4V416h-3v-3.6l-2-1.4-2-1.4V405h-2v-4h-2v-4h-2v-2zm73.3 2.1 8.3-.1 2.4 2.5 2.5 2.4v3.1h3v5h2v3.6l2 1.4 2 1.4v3.6h2v4h2v4.6l2 1.4 2 1.4v4.7l1.4 1.5 1.5 1.4h2.1v5h2v4h-7v2h-64v-2h-4v-2h2v-6.2l3-2.8 3-2.8V431h2v-4h2v-3h2v-4h3v-4h2v-3.6l2-1.4 2-1.4V405h2v-3.1l2.3-2.4 2.2-2.4z"/><path d="m350.8 171-24.3.1-1.2 1.4-1.3 1.4v49.2l1.4 1.5 1.5 1.4h4.1v-5h2v-38h4v-2h55v-3.8l1.2-.4 1.3-.5-1.7-1.6-1.7-1.7H384v-2h-5v2h-4v-2zm102.2 0h-32v3.8l-1.2.4-1.2.4 2.6 2.7 2.7 2.7h59.9l.5 1.2.5 1.3.1-1.3.1-1.2h11v-8h-11v-2zm53.8 8-1.3.1-1.2 1.4-1.3 1.4V221h-2v2.8l1.3.6 1.2.6-1.2.6-1.3.6v5.8h2v8h2v3h4v-3h2v-7.8l1.3-.5 1.2-.5-1.5-1.1-1.5-1.1 1.5-1 1.5-1-1.5-1.1-1.5-1.1 1.3-.5 1.2-.5V185h-2v-3.1l-1.4-1.5-1.5-1.4zm-178.5 66-1.8.1-1.2 1.4-1.3 1.4v5.1h2v4h-2v31.1l1.4 1.5 1.5 1.4h3.2l1.5-1.4 1.4-1.5v-40.2l-1.4-1.5-1.5-1.4zm178.5 12-1.3.1-1.2 1.4-1.3 1.4V274h-2v10.8l1.3.5 1.2.5-1.5 1.2-1.5 1.2 1.3.5 1.2.5v3.8h-2v6.1l2.5 2.4 2.4 2.5h2.2l1.5-1.4 1.4-1.5V279h2v-3h-2v-16.1l-1.4-1.5-1.5-1.4zm-179.3 51H324v40h-3v5h2.6l1.4 2 1.4 2h52.4l.5 1.2.5 1.3.1-1.3.1-1.2h4v-4h2v-2.1l-2.5-2.4-2.4-2.5H333v-17h-2v-21zm178.3 9-2.3.1-1.2 1.4-1.3 1.4V346h-2v4h2v5h8v-5h2v-30.1l-1.4-1.5-1.5-1.4zm-50.3 29H440v2h-10.1l-1.5 1.4-1.4 1.5v3.2l1.4 1.5 1.5 1.4H484v2h8v-2h4v-4h2v-2.1l-1.4-1.5-1.5-1.4H492v-2h-16v2h-5v-2zM106.1 551H104v2h-3v98h-2v6h-4v2h-6v2h-9v2h-6v3h-4v2h-4v4h-3v4h14v-2h11v-2h13v30h-2v4h2v22.8l-1.2.5-1.3.5 1.5 1.1 1.5 1.1-1.5 1.1-1.5 1.1 1.3.5 1.2.5V748h-2v8.8l1.3.5 1.2.5-1.5 1.2-1.5 1.2 1.3.5 1.2.5v3.8h7.1l1.5-1.4 1.4-1.5V737h196v3h4v131h-2v10h-33.1l-1.5 1.4-1.4 1.5v5.2l1.4 1.5 1.5 1.4H287v-2h3v2h3v-2h3v2h104v6h-2v11h-3v6h-2v6h-2v5h-2v8h-2v4h2v7h5v-2h3v-5h2v-4h2v-4h2v-4h2v-5h2v-4h2v-4h2v-4h3v-4h2v-5h2v-3.1l2.5-2.4 2.4-2.5H440v2h76v2h3v-2h5v2h6v-2h4v-8h-17v-3h-2v-19h-2v-6h2v-8h-2v-4.8l1.3-.5 1.2-.5-1.5-1.1-1.5-1.1 1.5-1.1 1.5-1.1-1.2-.5-1.3-.5V835h2v-7h-2v-21h2v-4h-2v-22.8l1.2-.6 1.3-.6-1.2-.6-1.3-.6V773h2v-4h-2v-17h2v-10h174v2h6v-2h7v2h10v-2h2.8l.5 1.2.5 1.3.1-1.3.1-1.2h7v2h17v20.1l1.4 1.5 1.5 1.4h4.2l1.5-1.4 1.4-1.5v-81.2l2.5-2.4 2.4-2.5h3.1v-2h7v-2h6v-2h6v-2h5v-2h6v-2h6v-3h4v-2h3v-4h-10v2h-8v2h-13v2h-9v3h-11v-17h2v-5h-2v-54.8l1.3-.6 1.2-.6-1.2-.6-1.3-.6v-25.9l-1.4-1.5-1.5-1.4h-2.2l-1.5 1.4-1.4 1.5v3.1h-2v15H610v-2h-7v2h-8v-2h-9v2h-11.8l-.5-1.3-.5-1.2-.1 1.2-.1 1.3h-3v-2H388v-2h-5v2h-5v-2h-12v2h-3v-2h-6v2h-9v-2H155.2l-.5-1.3-.5-1.2-.1 1.2-.1 1.3h-7v-2h-10v2h-5v-2h-21v-19.1l-1.4-1.5-1.5-1.4zm38.4 38H176l.1 1.7.1 1.8.5-1.8.4-1.7h4.9v3h224l.1 1.2.1 1.3.5-1.3.5-1.2h2.8l.1 1.2.1 1.3.5-1.3.5-1.2h3.8v2h3v-2h20v2h7v-2h10v2h5v-2h5v2h275v4h2v8h-2v11h2v6h-2v38h-4v2h-6v3h-9v2h-8v2h-7v2h-6v2h-5.1l-1.5 1.4-1.4 1.5v5.1h4l.1 1.7.1 1.8.5-1.8.4-1.7h7.9v-2h11v-2h11v-2h10v-2h5v6h-2v38h2v3h-2v6h-19v2h-3v-2h-3v2h-3l-.1-1.3-.1-1.2-.5 1.2-.5 1.3H703l-.1-1.3-.1-1.2-.5 1.2-.5 1.3H693v-2h-67v2h-5v-2H463v2h-5v-2h-66v-6h-3v3.1l-1.4 1.5-1.5 1.4H316v-2h-5v2h-18v-2h-3v2h-5v-2H164v-2h-10v2h-5l-.1-1.3-.1-1.2-.5 1.2-.5 1.3H145v-2h-30v-2h-4v-44.1l1.4-1.5 1.5-1.4h3.1v-2h7v-2h6v-2h6v-2h5v-2.6l2-1.4 2-1.4v-2.7l-1.4-1.5-1.5-1.4H140v2h-11v2h-11v2h-11v-3.6l2-1.4 2-1.4V592h2v-3zM396 740h69v2h34v12h2v6.8l-1.2.6-1.3.6 1.3.6 1.2.6V788h-2v4h2v3h-2v12h2v9h-2v15h2v4h-2v48h-4v3h-33v-3h-39v3h-4v3.6l-2 1.4-2 1.4v5.6h-2.1l-1.5 1.4-1.4 1.5v4.1h-2v4h-2v4h-2v3.1l-1.4 1.5-1.5 1.4H399v-4h2v-8h2v-9h2v-8h2v-7h2v-8h2v-6h3v-5h2v-8h2v-6h2v-7h-5v2h-3v5h-2v8h-2v4h-2v5h-2v6h-2v4h-2v4h-9v2h-7l-.1-1.3-.1-1.2-.5 1.2-.5 1.3H369v-2h-12v2h-3v-2h-7v2h-8v-2h-11.1l-1.5-1.4-1.4-1.5V752h2v-12z"/><path d="M416.5 596H415v2h-3v6h-2v8.8l-1.2.6-1.3.6 1.3.6 1.2.6v3.4l-2 1.4-2 1.4v3.6h20v-2h4v-5.1l-1.4-1.5-1.5-1.4h-2.2l-2.4-2.5-2.5-2.4V604h-2v-8zm3 21h1.5v2h-3v-2zm-166-17H252v4h3v-4zm92 0H343v4h5v-4zm98 4H442v7h3v-7zm-297.7 2-1.3.1-1.2 1.4-1.3 1.4v1.2l1.4 1.5 1.5 1.4h8.1v-5h-6v-2zm170.5 0-.8.1-1.2 1.4-1.3 1.4v4.1h4.1l1.5-1.4 1.4-1.5v-1.2l-1.4-1.5-1.5-1.4zm194.2 0H508v5h5v-5zM175 608h-2v5h-2v3.2l-3 2.8-3 2.8v3.2h-2v7h-2v3.1l1.4 1.5 1.5 1.4h2.1v-2h4v-2h14.1l1.7-1.7 1.7-1.6-1.3-.5-1.2-.4V625h-2v-3.6l-2-1.4-2-1.4V613h-2v-5zm.3 15h2.7v5h-8v-2.1l1.3-1.4 1.2-1.4zm-47.6-12h-.3l-1.4 2-1.4 2H121v6.3l1.9-2.1 1.8-2.2h3.3v-6zm252 .7-.5-1.2v5l.5-1.3.5-1.2zm262.9.7-1.6-1.5v2.1h-4v2h-3v2h7.1l1.5-1.5 1.5-1.5zM247 613h-2v2h-6v4h5v-2h5v-4z"/><path d="M304.6 613H302v2h-3.2l-2.8 3-2.8 3H290v2h-4v2h-3v2.1l-1.4 1.5-1.5 1.4h-2.3l-3.8 4-3.8 4h-3.3l-3.4 3.5-3.5 3.4v2.1h-3.2l-3.8 4-3.8 4H247v2h-3.1l-3.4 3.5-3.5 3.4v2.1h-3.6l-1.4 2-1.4 2H228v2h-3.1l-4.9 5-4.9 5H211v2.1l-1.4 1.5-1.5 1.4h-2.2l-4.9 5-4.9 5h-3.2l-1.5 1.4-1.4 1.5v1.3l-3 2.8-3 2.8v3.2h-2v6h5v-2h4v-2h2.2l2.8-3 2.8-3h2.8l1.4-2 1.4-2h9.6v2h3v-2h58v6h-2v3.1l2.5 2.4 2.4 2.5h1.7l1.4-2 1.4-2h2.6v-3.1l3.5-3.4 3.4-3.5H389v2h6v4h3v3.2l3.8 3.6 3.9 3.7.6 1.5.5 1.5.1-1.8.1-1.7h4v-2h3v-3.6l2-1.4 2-1.4v-2.7l1.4-1.5 1.5-1.4h3.1v-2h16v2h3v-2h3v2h8v-2h2.8l.5 1.2.5 1.3.1-1.3.1-1.2h3v2h67.1l1.5 1.4 1.4 1.5v2.7l2 1.4 2 1.4v2.7l1.4 1.5 1.5 1.4h4.2l2.4-2.5 2.5-2.4V710h-2v-6h49v2h8v-2h11v4h5v2h4v2h3.6l1.4 2 1.4 2h2.7l1.5 1.4 1.4 1.5v2.1h6v-3h2v-5.1l-3.5-3.4-3.4-3.5h-3.7l-1.4-2-1.4-2H625v-2.1l-3.5-3.4-3.4-3.5h-3.3l-2.8-3-2.8-3h-2.3l-1.5-1.4-1.4-1.5V682h-3.6l-1.4-2-1.4-2H595v-2h-3.2l-2.8-3-2.8-3h-2.8l-1.4-2-1.4-2H576v-2.1l-2.5-2.4-2.4-2.5h-2.3l-2.8-3-2.8-3h-3.8l-1.4-2-1.4-2h-2.7l-1.5-1.4-1.4-1.5V644h-3.6l-1.4-2-1.4-2h-3.8l-2.8-3-2.8-3h-2.3l-3.4-3.5-3.5-3.4V625h-4.2l-2.8-3-2.8-3h-2.4l-2.8-3-2.8-3H501v7.1l2.5 2.4 2.4 2.5h2.1v2.1l1.4 1.5 1.5 1.4h2.2l2.4 2.5 2.5 2.4v1.1h-25.2l-2.8-3-2.8-3H485v-4.6l-2-1.4-2-1.4v-2.7l-1.4-1.5-1.5-1.4H475v-2h-2.6l-1.4 2-1.4 2H467v6h-2v4.1l-3.5 3.4-3.4 3.5H455v2h-3v-2h-4v2h-19.8l-.5-1.3-.5-1.2-.1 1.2-.1 1.3h-35v-2h-24v2h-3v-2h-6v-2h-3v-3.6l-2-1.4-2-1.4v-4.2l-2-1.4-2-1.4V617h-2v-4h-8v4h-2v4h-2v4h-2v3h-2v3.1l-2.5 2.4-2.4 2.5H295v-3.2l3-2.8 3-2.8V625h4.1l2.4-2.5 2.5-2.4v-4.2l-1.4-1.5-1.5-1.4zm-27.9 34h2.3l.1 1.2.1 1.3.5-1.3.5-1.2h2.6l.6 1.2.6 1.3.6-1.3.6-1.2H311v2h4v2h-2v3.6l-2 1.4-2 1.4v3.2l-2 1.4-2 1.4v2.6h-3v4h-2v3.1l-5 4.9-5 4.9v3.2l-2.5 2.4-2.4 2.5H240v-2h-3v2h-7v-2h-5v-4h5v-2l6.5-6.5 6.5-6.5h3v-2h2.1l1.5-1.4 1.4-1.5V663h3.2l2.8-3 2.8-3h2.8l1.4-2 1.4-2h2.6v-2h3.6l1.4-2 1.4-2zm64.6.1 9.7-.1.1 1.2.1 1.3.5-1.3.5-1.2h2.4l1.4 2 1.4 2h1.7l1.5 1.4 1.4 1.5v2.3l3 2.8 3 2.8v4.2h2v3.6l2 1.4 2 1.4v2.7l1.4 1.5 1.5 1.4h2.1v4h2v3h2v6h-21v2h-3v-2h-14v2h-3v-2h-41v-4h3v-4.6l2-1.4 2-1.4V676h2v-3.2l4-3.8 4-3.8V661h2v-4l1.3-.1h1.2l4.5-4.9 4.5-4.9zm46-.1h13.9l2.8 3 2.8 3h2.2v-4h7v-2h7v2h5v-2h3v2h4v-2h3v2h8v3.1l-5 4.9-5 4.9v3.2l-1.4 1.5-1.5 1.4H432l-5.5 5.5-5.5 5.5v3h-4v3h-2v4h-3v2h-15v-2h-3v-4h-2v-2.6l-2-1.4-2-1.4V676h-2v-3.2l-3-2.8-3-2.8v-3.3l-1.4-1.5-1.5-1.4H375v-3.6l-2-1.4-2-1.4v-4.7l1.3-1.4 1.2-1.4zm88 2.1 12.8-.1 2.4 2.5 2.5 2.4v2.3l3 2.8 3 2.8v4.2h-4v6h3v-2h7v4h2.1l1.5 1.4 1.4 1.5v2.7l2 1.4 2 1.4v4.2l2 1.4 2 1.4v3.6h-14v-2h-9v2h-5l-.1-1.3-.1-1.2-.5 1.2-.5 1.3h-52.9l-1.5-1.4-1.4-1.5V687h2v-4.2l3-2.8 3-2.8v-2.4l4-3.8 4-3.8V663h2.1l1.5-1.4 1.4-1.5V658l4.3-4.5 4.2-4.4zm47.2-.1H541v2h3v2h3.2l3.8 4 3.8 4h2.3l1.5 1.4 1.4 1.5v2.1h4.2l2.8 3 2.8 3h2.4l2.8 3 2.8 3h3.3l2.4 2.5 2.5 2.4v2.1h3.1l2.5 2.5 2.5 2.5-1.5 1.5-1.5 1.5h-56.2l-4.4-4.5-4.5-4.4V680h-2.1l-2.4-2.5-2.5-2.4v-2.3l-3-2.8-3-2.8v-3.8l-2-1.4-2-1.4v-2.7l-1.4-1.5-1.5-1.4H504v-6z"/><path d="m289.8 655-1.3.1-1.3 1.5-1.3 1.4 1.5 1.5 1.5 1.5h2.1v-6zm-21.5 15.1h-1.8l-2.2 2.4-2.3 2.4v3.1h3v-2h2.1l1.5-1.4 1.4-1.5V670zm77.4-6.4-.4-3.2-.1 1.2-.2 1.3h-5v3h-2v4h-2v4h3v-2h2.1l2.5-2.5 2.5-2.5zm6.8 2.3H351v4h3v-4zm-26 6H324v2h-3v4h3.1l2.4-2.5 2.5-2.4V672zm73-4.6-1.5-1.5v2.1h-3v2h3v2h3v-3.1zm8 4.6H406v4h3v-4zm60.8-4-.8.1-1.3 1.5-1.3 1.4 1.5 1.5 1.5 1.5h1.1v-6zm15.4 3.6-1.3-1.3-1.2 1.4-1.3 1.3 1.5 1.5 1.5 1.5h2.1v-3.1zm48.8-13.2-1.5-1.5v4.1h3v-1.1zm23 17-1.5-1.5v3.2l1.5 1.5 1.5 1.5v-3.2zm-6.8 7.8-.5-1.7-.1 1.7-.1 1.6-1.2.4-1.3.5 1.7 1.6 1.7 1.7h2.1v-4h-1.9zM439.5 613H438v4h3v-4zm103.5 0h-2v4h4v-4zm143.5 0H685v4h3v-4zm-373 10H311v5h5v-5zm384 5H696v6h3v-6zm-107.7 2.1h-3.3l-2.2 2.4-2.3 2.4v1.1h6.1l2.4-2.5 2.5-2.4V630zM658 636h-2v4h-2v4h-3v15h3v2h21v2h4.1l1.5-1.5 1.5-1.5-5.5-5.5-5.6-5.5h-2v-4.1l-4.5-4.4-4.4-4.5zm5.5 13h2.5v4h2v2h-7v-6zm-442-11H218v1.1l1.4 1.5 1.5 1.4h1.2l1.5-1.4 1.4-1.5V638zm-51 4H169v5h3v-5zm26 16.4-1.5-1.5v4.1h3v-1.1zm429 2.6H624v2h3v-2zm-419.8 3.2-.5-1.7-.1 3.7-.1 3.8h3v-4h-1.9zm427.1 10.9-.3-.9-1.2 1.4-1.3 1.3v3.1h8v-4h-4.8zM161 678h-2v2h-3v5h-2v4h-2v4h-2v6h2v3h10v-2.2l3-2.8 3-2.8v-11.3l-2.5-2.4-2.4-2.5zm-.5 13h2.5v1.1l-1.4 1.5-1.5 1.4H158v-4zm-21.9-4H137v4h6v-1.1l-1.4-1.5-1.5-1.4zm536.9 2H673v1.1l1.3 1.3 1.3 1.3 1.2-1.3 1.2-1.3V689zm-540.7 6-1.3.1-1.2 1.4-1.3 1.4V708h2.1l1.6-1.6 1.6-1.6-1.4-1-1.4-1 1.3-.5 1.2-.5V695zm530.7 12.4-1.5-1.5v6.1h3v-3.1zm54.6.6H719v1.1l1.4 1.5 1.5 1.4h2.1v-1.1l-1.4-1.5-1.5-1.4zm-410 2H309v4h5v-1.1l-1.4-1.5-1.5-1.4zm135.7 0-1.3.1-1.2 1.4-1.3 1.4v3.1h2.1l1.5-1.4 1.4-1.5V710zm40.7 0H484v3.1l1.4 1.5 1.5 1.4h4.1v2.1l1.6-1.5 1.5-1.6-2.5-2.5-2.5-2.5zm-243.7 3.7-1.4-1.4-1.2 1.3-1.2 1.3v3.1h2.1l1.5-1.5 1.5-1.5zm18-1.7-.3.1-1.2 1.4-1.3 1.4v3.1h3v-6zm95.5 2.1h-2.8l-2.2 2.4-2.3 2.4v1.2l1.5 1.5 1.5 1.5V721h4v-3h3v-4zm25.2 1.9H379v4.1l1.3 1.3 1.3 1.3 1.2-1.3 1.2-1.3V716zm127.2.3-.7-.6v2.6l.7-.6.6-.7z"/></svg>