<svg xmlns="http://www.w3.org/2000/svg" version="1.0" viewBox="0 0 568 738"><path d="m259 48-1.6-.8-1.6.9-1.6.9v8.2l-.1 8.3-1 .3-1.1.4v2.6l1.3.5 1.2.5-1.5 1.1-1.5 1.1h2.5v3h-2v3h2v5h-2v5.8l1.3.5 1.2.5-1.2.1-1.3.1v23h2.5l-1.5 1.1-1.5 1.1 1.3.5 1.2.5v2.6l-1 .4-.9.3-.2 34.5-.1 34.5-.9 2.2-.8 2.3h-23.2l.7-37.8.7-37.7.9-.6 1-.7-1.3-.6-1.4-.6 1.3-.6 1.2-.6v-4.6l-1.2-.6-1.3-.6 1.3-.6 1.2-.6V51.9l-1.4-1.5-1.5-1.4h-2.9l-.6 1.6-.6 1.6V128h-2v5h2v3h-2v37.7l-.7 18.1-.6 18.2H213v2h-7v-2h-9.8l-.5 1.2-.5 1.3-.1-1.3-.1-1.2h-8.8l-.5 1.2-.5 1.3-.1-1.3-.1-1.2h-17v2h-4v-2H95.9l-1.5 1.4-1.4 1.5 2 .6 2 .6v1.9h113.7l4.7.6 4.6.7v17.2l-.7 9.9-.6 9.8-62.6-.3-62.6-.4-1.9 1.1-1.9 1.1 2.2 2.2L94 260h120.5l2.3.6 2.2.6V295l-2.7.6-2.7.7-60.7-.6-60.8-.7-1.4 1.5-1.5 1.5.5 2 .5 2h28.6l.5-1.3.5-1.2.1 1.2.1 1.3h6v-2.5l.8 1.2.8 1.2 41.9.1 41.9.1 2.8.6 2.8.5v4.8h2v18h-2v3h2.5l-1.1.8-1.2.7-.6 49.1-.6 49.2.6 1.6.6 1.6h2.9l1.5-1.4 1.4-1.5V418h-2v-16.8l1.3-.5 1.2-.5-1.4-1-1.3-1 .9-.3 1-.4.7-40.9.7-40.8 1.6-1.7 1.6-1.6.5 1.3.4 1.2h2.8v-2h16.1l1.5 1.5 1.5 1.4-.1 54.8v54.7l-1.3.8-1.2.8h2.5v9h3.8l.6-1.6.6-1.6V371h2v-17.8l-1.2-.6-1.3-.6 1.3-.6 1.2-.6v-40.7l1.5-1.5 1.5-1.5V305h-2v-2h14l-.6 4.4-.6 4.3 2.3.6 2.4.7H291v49.8l-1.2.5-1.3.5 1.3.1 1.2.1v14.8l-1 .4-.9.3-.2 25.9-.2 25.8 1.4.9 1.4.9h3.3l.5-2.3.6-2.2.1-53 .1-53 .9-.3 1-.4V315h-2v-2.1l1.5-1.5 1.5-1.5V303h10v4.1l-1.5 1.6-1.6 1.5.4 1.2.4 1.1 11.1.3 11.2.3V367h-2v5h2v6h-2v54l2.5.6 2.6.6.5-.5.6-.6.5-48.8.4-48.8 1-.3.9-.4V305h5v-2h2.8l.4.9.3.8 63 .4 63 .4.3-2.8.3-2.7-1.3-.4-1.3-.5-65.3-.4-65.4-.3-.9-1.5-1-1.4.3-16.7.3-16.7.6-.6.7-.6 66.8-.2 66.9-.2.2-1.5.3-1.5-.9-1.5-1-1.4-63.8.1-63.8.2-2.7-.5-2.8-.6v-33.6l.6-1.6.6-1.6H369v2h5v-2.5l.8 1.2.7 1.1 47.5.3 47.5.3.3-3 .3-3.1-23.8-.6-23.8-.7h-84.9l-.8-1.3-.8-1.2.6-45 .7-45 1.1-.8 1.1-.9-1.2-.5-1.3-.5v-3.6l1.3-.5 1.2-.5-1.2-.1-1.3-.1v-3h2V49.2l-1.6-.6-1.6-.6h-.7l-1.5 1.6-1.6 1.5V138h-2v2.8l1.3.5 1.2.5-1.4 1-1.3 1 1.3.5 1.4.5-1.2.1-1.3.1v46.8l-.6 1.6-.6 1.6h-17.7l-1.5 1.6-1.6 1.5v1.4l.9 1.3.8 1.4 3.4.2 3.4.3 4.3.2 4.2.1v9h-25.8l-.6-1.6-.6-1.6v-6.7l2.2-2.1 2.2-2h1.6v-5h-2.9l-1.4-1.4-1.4-1.4.5-34.8.4-34.9.9-.3.9-.4V113h-2.5l1.1-.8 1.1-.7.4-31.5.4-31.5h-4l-.3 3-.4 3-1.1.7-1.2.7-.3 45.8-.3 45.7-1.2.8-1.2.8 1.4.9 1.3.9-1.3.5-1.4.5 1.3.1 1.2.1v3h-2v3h2v3h-2v7.8l1.3.6 1.2.6-1.2.6-1.3.6v20.6l-1.6.6-1.6.6h-13.7l-.9 3.2-.9 3.3.5 1.2.4 1.3 3.2.1 3.1.1 1.9-.2 1.9-.2 3.3.7 3.4.6.6 2.4.6 2.4-.7 2-.6 2.1h-31l-1.5-1.4-1.4-1.5v-6l2-.6 2-.6V199h2v-3h-1.7l-2.1-1.9-2.2-1.8v-33.1l1.3-.6 1.2-.6-1.2-.6-1.3-.6V151h2.5l-1.5-1-1.5-1 1.1-.8 1.2-.7.4-49.3.4-49.3zm-16.6 154h8.4l.5 2.1.5 2-1 3-1 2.9H238v-2h-4v-8zm2.1 14.9 6 .3.2.2.1.1.3 3 .2 3-.1 15.3-.2 15.3-8.7-.3-8.8-.3-.3-7.8-.3-7.8-2.9-.5-2.9-.6-.3-1.7-.3-1.6.3-3.2.4-3.2 2.9-.6 2.9-.7v-4.3l.6-2.2.6-2.2 2.2-.3 2.1-.3zm30.5.1h17l.1 3.7.1 3.8-.2 14.5-.2 14.5-.5.5-.5.5-16-.2-16-.2-.4-.4-.4-.3-.2-8-.2-7.9.2-10.3.2-10.2zm36.6 0h11.5l1.5 1.4 1.4 1.5V231l2 1.7 2 1.7v8.5l-2 1.1-2 1.1v5.9h-2v2.8l-4.1.7-4.1.7-8.4-.7-8.4-.7-.1-8.6-.2-8.7.2-8 .2-8 .5-1.8.5-1.7zm-68.5 43.2 1.7-.2 3.1.6 3.1.6v30.3l-.6 2.2-.6 2.3H245v2h-4v-2h-8v-16.9l-3.5-.7-3.5-.6V269h1.8l1.7-.1 1.8-1.3 1.7-1.3v-5.2l4.3-.4 4.2-.4zm34.7.1 9.2-.2 2.6.9 2.5 1-.3 16.3-.3 16.3-1.7 1.7-1.7 1.7H262v-2h-5l.2-17.3.3-17.2 5.5-.5 5.5-.5zm36.7.4 7 .3 2.3.5 2.2.5v6.9l1.8 1.7 1.7 1.8v10.7l-1.7 1-1.8 1v10l-1.4 1.5-1.5 1.4H299l-.5-2.3-.6-2.2.3-16 .3-16 4.5-.5 4.5-.5z"/><path d="m487.8 434-.3.1-1.2 1.4-1.3 1.4v13.3l-2 .5-2 .5v1.8h-92v-2h-4v2h-2.8l-.5-1.3-.5-1.2-.1 1.2-.1 1.3h-5.8l-.4-.9-.3-.9-137.5-.6-137.5-.6-11.7-.6-11.8-.7V437h-5v8.8l-1.2.5-1.3.5 1.3.1 1.2.1v3h-2.5l1.5 1.1 1.5 1.1-1.2.5-1.3.5V465h2v3h-2v27.5l-.9 1.3-.8 1.3-5.6.6-5.7.6v1.5l-8 .7-8 .7v1.6l-2.5.6-2.5.6v2.8l1.5.6 1.5.5 9.8-.6 9.7-.6.5-.7.5-.7 10-.5 10-.6-1.7.5-1.8.4v1.8l-3.3.3-3.2.3-.3 20.7L68 550h-2v6h2v17.8l.6 1.6.6 1.6H73v-3h1.9l.3-7.3.3-7.2 72-.3 72-.2 2 1.5 2 1.6-1.4.8-1.3.9 1.3.5 1.4.5-1.5 1.1-1.5 1.1 1.5 1.1 1.5 1.1-1.2.5-1.3.5v75.3l-.6 2.2-.6 2.3H200v5.8l31.7.3 31.6.4.5 1.2.4 1.3h4.8l-.5 5.7-.6 5.8-.5 5.2-.5 5.3H265v13h2l2-2 2.1-2.1.6-2.9.6-3h1.5l1.2-7 1.2-7h1.6l.6-3.5.7-3.5h1.9v-3l.8-.1.7-.1 2.9-.4 2.9-.3.8-1.3.8-1.3 33.7-.2 33.7-.3.5-.4.4-.5-.6-2.6-.6-2.5h-23v-88.8l1.6-.6 1.7-.6 41.6.1 41.6.2 30.8.5 30.7.4v2.8h1.9l.3 6.7.3 6.8 2 .3 2 .2 1.3-.8 1.3-.9v-33.9l-.1-33.9.9-1.4.8-1.3 8.2-1.1 8.1-1.1v-1.4l8.5-.7 8.5-.7v-1.6l3-.7 3-.7v-2.7l-1.7-.5-1.8-.5-9 .8-9 .8-11.8.2-11.8.2 1.3-2.1 1.3-2h1.5v-55.1l-1.4-1.5-1.5-1.4zm-226.5 26.4 185.2.7.4 1.1.3 1 1-1.3 1-1.4.5 1.4.5 1.3 1-1.3 1-1.4.5 1.2.5 1.3h27.6l1.6.6 1.6.6v26.6l-1.6.6-1.6.6H477v1.7l-9.2 1.1-9.2 1-.4 1.1-.4 1.1H455v3.1l1.4 1.5 1.4 1.4.4-.9.3-.8 13-.6 13-.5-.3 24.1-.3 24.2-1.2.7-1.2.8h-30.1l-1.1-1.1-1.1-1.1-2 1.1-2.1 1.1H424v2h-7v-2h-4.8l-.6 1.2-.6 1.3-.6-1.3-.6-1.2H381v2h-7v-2h-6.8l-.6 1.2-.6 1.3-.6-1.3-.6-1.2H236v2h-2.8l-.4-1-.3-.9-45.5-.7-45.5-.7-9.5-.2-9.5-.1-23.7-.2L75 549v-34.8l.6-1.6.6-1.6H80v-1.8l6.5-.7 6.5-.7v-1.7l4.5-.6 4.4-.7 2.1-1.8 2-1.7v-2.1l-1.7-.6-1.7-.7-7.8.7-7.8.7v1.7H76v-41.3zm17.7 99.3 42.5.4 2.3.5 2.2.4v27h-2v3h2v15h-2v3h2v7h-2v3h2v3h-2v3h2v4h-2v21h-5v2h-16v-2.5l-1 1.5-1 1.5-.8-1.2-.7-1.1-9-.2-9-.2-1.2.1-1.1.1-.7 3.2-.8 3.3-.6.5-.7.5-1.2 3.5-1.2 3.5.5-8.5.5-8.5.7-9.3.6-9.2h1.7v-9.8l-1.4-.5-1.4-.6-.6.6-.6.6v3.7h-1.8l-.7 6-.7 6h-1.6l-.5 3.2-.6 3.3-.6 4.2-.7 4.3h-32.6l-1.6-.6-1.6-.6V582h2v-21.9l1.8-.4 1.7-.5z"/><path d="m251.2 464.6-.8-.5-1.4 1-1.5.9 1.5 1 1.5 1h1.5v-2.9zm47.8-.6h-1v4h2v-4zm-195.7 4-.8.1-1.1 1.3-1.2 1.3-.7 3.4-.8 3.4-1.1.8-1.1.9 1.3.5 1.2.5v4.8h4.1l.5-1.5.6-1.5h5.8v2h4v-3.9l-1.2-1.3-1.3-1.3-1.4-2.6-1.3-2.7-2.4-1.3-2.4-1.2V468zm63.3 0H165v4h6v-1.1l-1.4-1.5-1.5-1.4zm200.2 0-2.3.1-1.4 1.5-1.3 1.5.6.6.5.6 3.1-1.3 3-1.2V468zm-85.9 2.7-1.7-.8-.7 1.1-.7 1.2-24.2-.4-24.1-.3-1.8 1.5-1.8 1.5-5.3 5.2-5.3 5.3h-1.4L192 506.9l-22 22-2 .6-2 .6v1.9h-43v-2H90l-.6 2.4-.6 2.5.7 1 .6 1.1h80l1.9-1 1.8-1 23.5-23.5 23.5-23.5h1.8l2.7-3.1 2.7-3.1V480h3v-2h83v2h14.1l1.9 1 1.9 1 20.1 20.1 20 20.1v2.6l2.5.6 2.5.6v3h2v3l2.5.6 2.5.6v1.8h3.9l.6 1 .6 1h3.9v2h77l.6-2.5.6-2.6-.7-.7-.7-.7-39-.3-39-.3-3.6-3.5-3.5-3.4h-2.5l-.6-2.4-.6-2.5-2-.6-2-.6v-1.2l-.1-1.2-3.1-2.5-3.1-2.5-1.6-1.9-1.6-1.9-1.9-1.6-1.9-1.6-1.6-1.8-1.6-1.9-4.3-4.4-4.3-4.4H350v-1.9l-5.2-5.1-5.1-5h-1.4l-1.3-2.5-1.3-2.5-2.1-.6-2-.7-1.3-1.3-1.4-1.3-3.5-.7-3.6-.7-2.2 1.2-2.1 1.2-17.5-.3-17.5-.3zm64.2.3h-1l-.6 1-.6 1 .6 1 .6 1h1.9v-4zm68.4 1H412v3h3v-3zm-281.6 2h-2l.3 1.7.3 1.8 1.8.3 1.7.3V474zm65.1 1h-2v1.8l.6 1.6.6 1.5 1.4-1.4 1.4-1.4V475zm260 2h-3v3h6v-3zm-37.2 2.1-.3-.9-1 1.1-1.1 1.2-1.1 6.5-1.1 6.5.7.7.6.7 6.3-.6 6.2-.6V492h2.9l.6-1 .7-1.1-5.3-4.9-5.3-5h-2.4zm-49.6.9h-.9l-.6.7-.7.6v2.7h3v-4zm29.3 1H398v3h3v-3z"/><path d="M160.2 482h-.9l-1.3 4.5-1.3 4.5h-1.5l-.6 4.5-.7 4.5.6 2 .6 2h9.9v-1.8l3-.7 3-.7v-4.5l-2.4-1.2-2.4-1.3-1.3-4.7-1.3-4.6-1.2-1.3-1.3-1.2zm2.3 14h1.5v1.8l-1.5.6-1.5.5V496zm96.4-12H257v2.8l2 .5 2 .5.6-.9.5-.9-.6-1-.6-1zm196.7 1h-1.4l-.5 1.4-.6 1.4.6.6.6.6h2.7v-4zm-213.9 8.6-1.3-1.3-1.2 1.3-1.2 1.3v2.9l1.6.6 1.6.6h1.8v-4.1zm-12.6 7.4h-1.8l-.7 5.6-.6 5.6-1.5 1.5-1.5 1.4v4.9h5l4.5-1.2 4.5-1.2V516h3.1l.6-1.6.6-1.5-1.9-1.8-1.9-1.8-2-2.7-2-2.8-1.3-1.4-1.3-1.4zm2.9 10h1v2h-2v-2zm-44.5-9H186v4h3v-4zm111.3 0-.3.1-1.2 1.4-1.3 1.4v4.1h3v-7zm33.1 0h-2l.3 1.7.3 1.8 1.8.3 1.7.3V502zm75.1 2h-1.3l.6.7.7.6.7-.6.6-.7zm-161.4 1.2-1.8-.4.4 1.8.3 1.9 1.9.3 1.8.4-.4-1.8-.3-1.9zm-123.1.8H121v1.8l1.5.6 1.5.5V506zm281.7 6h-.9l-.6.7-.7.6v2.7h3v-4zm-96.4 2.6-1.3-1.2-1.7 1.8-1.8 1.8v4.9l-1.5.8-1.5.9-.6 4.5-.6 4.5 1.5 1.5 1.5 1.5 3.6-.4 3.6-.4V533h2.7l2.1-1.9 2.2-1.8V525h-1.7l-1.3-2.5-1.3-2.5H309v-4.1zm.4 11.4h1.9l-.3 1.7-.3 1.8-2.3.3-2.2.3v-2.8l.7-.6.6-.7zm115.6-11.7-.4-1.8-.6 1.7-.7 1.8H419v3h4.1l.5-1.4.6-1.5zm48.8 1.7H471v3h6.1l-1.5-1.5-1.5-1.5zm-362 2h-.8l.6 1.6.6 1.6v.8h2.1l1.4-1.4 1.4-1.4-2.2-.6-2.2-.6zm43.8 1h-2.5l1.5 1.5 1.5 1.5h2.1v-3zm-11 3.1-1.9.1 1.3.5 1.3.5.6-.6.6-.6zM345 526h-1v3.1l1.5 1.6 1.6 1.5.6-.6.6-.6-1.1-2.5-1.2-2.5zm-75.7 1h-1.5l.7 4.7.7 4.8.9.3.9.4v4.8h3v-5h-2v-5.5l-.6-2.3-.6-2.2zm-51.5 10-1.3.1-1.1 1.2-1.1 1.3 1.1 1 1.2 1.1 1.2-1.3 1.2-1.3V537zm-128 4.1-.3-.9-1.2 1.4-1.3 1.3v1.1h6v-2h-2.8zm388.2.9h-1v2h2v-2zm-331.5 1H145v3h3v-3zm35.5 0h-3v4h2.6l1.7-2 1.7-2zm181.3 0H362v4h2.5l1.5-1 1.5-1-1.5-1-1.5-1zm30.2 1H392v3h3v-3zm41.4 3h-2.1l.4 1.2.5 1.3 1.6.3 1.7.3V547z"/></svg>