<svg xmlns="http://www.w3.org/2000/svg" version="1.0" viewBox="0 0 631 802"><path d="M162.2 55h-.8l-1.2 1.2-1.2 1.2v3.5l-3.2.3-3.3.3-.3 2.5-.2 2.5 3.2 1.5 3.3 1.5.3 27.2.2 27.3h-3v2.2l-1.4-1.1-1.5-1.2-2.5 1.6-2.6 1.7v1.4l1.2 1.2 1.2 1.2h6.4l1.1 1.4 1.1 1.3-.2 28.4-.3 28.3-3 1.5-3 1.4-1.5.7-1.5.7v3.8l3.5.3 3.5.4 1.2 1 1.3 1-.6 33.7-.6 33.6-.7.8-.8.8-5.1.6-5.2.6v3l1.8 1.3 1.7 1.3 3 .1h3.1l1.2 1.2 1.2 1.2v58.5l-1.2 2.6-1.1 2.5h-4.6l-.6 1-.6 1H145v4h9.9l1.6 3.4 1.7 3.5-.6 8.3-.6 8.3-.6 16.5-.6 16.5-1 1.2-1 1.2-4.1.3-4.2.3v6l5.1.3 5.2.3.5 1.9.5 2h3.6l2.1-2 2.1-2 27.3-.1 27.2-.2 1.5-1.5 1.5-1.5 1.2 1.2 1.1 1.1 3.3-3.2 3.3-3.2v-55.2l1.2-1.2 1.2-1.2h54.4l1.1 1.4 1.2 1.4-.7 3.6-.6 3.6H286v4.8l1.5 1.2 1.5 1.2v8.6l-2 .5-2 .5-.6 1.6-.6 1.6 3.1 2.9 3.1 2.9-.6 3.3-.7 3.4-1.8 2-1.8 2.1.6 2.2.5 2.2h2.8v8h-9v2h-7.9l-.6-1-.6-1H236v1.7l2.3 2.1 2.3 2.2h46.1l1.8 2 1.8 2h3.2l1.3-2 1.2-2h65.6l1.1 1.1 1.2 1.2 32.3.2 32.3.2h1.5l1.5.1 19-.5 19.1-.4 1.2-2 1.2-1.9-1.2-.5-1.3-.4-16.2-.3-16.2-.3-1.6-1.5-1.5-1.6-.6-27.3-.6-27.3 1.8-1.9 1.7-1.9h24.6l.7 1.1.7 1.1.8-1.3.8-1.4 1.3 1.3 1.2 1.2h4.2l1.2-1.2 1.2-1.2 2 1.2 2 1.2h9v-2.3l2.1 1.9 2 1.8-.5 29.1-.4 29-.1.2-.1.3h-2.8l-.5 1.2-.4 1.3-1.7-1.4-1.6-1.4-.6.6-.6.6.7 1 .6 1.1h3.6l2.1 2.3 2.2 2.3v2.2l1.4 1.1 1.5 1.2 1.6-3 1.6-3.1h3.7l1.2-1.5 1.2-1.4-.7-1.1-.7-1.1-2.4-.9-2.4-1v-58l4.1-.6 4.1-.7.5-1.4.5-1.3-1.2-1.5-1.2-1.5h-6.7l-.3-14.3-.3-14.2.3-18.8.3-18.7h4.7l1.2-1.5 1.2-1.4-.4-1.8-.3-1.8-3-.5-3-.5-.3-35.3-.2-35.2h3.7l1.8-2 1.7-1.9-.5-1.6-.6-1.5h-3.7l-1.2-1.2-1.2-1.2v-53.3l1.8-1.6 1.9-1.7h3.4l-.3-2.7-.3-2.8-2-.3-2-.4-1.1-1.4-1.2-1.5.4-25.2.5-25.2.5-2.3.4-2.2h4.7l1.8-2 1.8-2-1.2-1.4-1.2-1.5-3.2-.3-3.1-.3-1-3.3-.9-3.3-1.6.3-1.6.3-.3 3.3-.3 3.2h-54.8l-1.8-3-1.7-3H430v2.7l-1.9 1.7-2 1.8-25.6-.6-25.7-.5-1.4-1.8-1.3-1.8-.1-.8V59h-3.7l-1.3 2.4-1.3 2.5-13.6.3-13.6.3L318 64l-20.4-.5-.6-2.5-.6-2.5-1.6-.3-1.6-.3-1.8 3-1.8 3.1h-37.2l-1.2-1.2-1.1-1.1-1.6 1.3-1.5 1.2-1.5-1.2-1.5-1.2V64l-2-1.2-2-1.2-1.1 1.1-1.1 1.1-2.8-1.4-2.8-1.4-.6-1.7-.7-1.6-2.2 1.9-2.2 2-2.7 1.3-2.7 1.4-1.3-1.1-1.3-1-26.1-.4-26.1-.3-1.6-1.4-1.7-1.3V55zm29.2 13h26.5l.6 1 .6 1h7.9l.2 10.2.1 10.3v16.1l.1 16-.7 1.7-.6 1.7h-60.7l-1.2-1.2-1.2-1.2v-23.5l1-.6 1-.6v-4.8l-1-.6-1.1-.7 1.2-1.4 1.1-1.4-1.2-1.5-1.2-1.4.9-1.3.8-1.3.1-5.5.1-5.5.2-2.8.1-2.7zm70.8 2H290v7h-2.9l-.6 1-.6.9.7 2.6.6 2.5h2.8v6h-2.9l-.6 1.1-.7 1 2.1 2.3 2.1 2.2v7.4h-3.8l-1.1 1.4-1.2 1.4 1.3 2.1 1.3 2.1h3.5v9h-6.3l-1.9 1.7-1.8 1.6v3.8l-22.7-.3-22.8-.3-1.2-.8-1.3-.8V72.4l1.2-1.2 1.2-1.2zm69.2 0h32.1l1.3.9 1.4.8-.4 2.9-.3 2.9-6.5.2-6.5.1-27.5-.6-27.5-.7-.3-1.8-.4-1.8 1.2-1.4 1.2-1.5zm58.1.5 11 .3 13.8.1 13.7.1v7.9l.9.6 1 .5v23.2l.1 23.1-1.1 1.4-1.1 1.3h-46.6l-1.3-3-1.4-2.9-3.2-1.8-3.3-1.8v-5l3.5-2 3.6-1.9-.3-2-.3-2.1-2-.3-2-.4-1.2-1-1.3-1v-3.6l3.5-3.4 3.6-3.4-.7-1.7-.6-1.7H374v-4.8l1.5-1.2 1.5-1.2v-3.6l-1.5-1.2-1.5-1.2v-5.7l2.3-.4 2.2-.4zm73.6.7 25.6.3 1.6 1.4 1.7 1.3v53.4l-1.2 1.2-1.2 1.2h-38.3l-7.6-.6-7.7-.7V72.3l.7-.7.8-.7zM317 82h9.9l.6 1 .6.9h10.4l10.5-.1.6-.9.6-1 1.2 1 1.2 1 6.4.3 6.5.3.3 2.7.3 2.8h-58l-.6-1-.6-1-1.9 1.2-2 1.2-1.2-1.2-1.2-1.2H297v-4l2.3-.2 2.2-.1 2.2.2 2.1.2.7-1.1.6-1zm13.8 13h32.8l1.2 1.2 1.2 1.2v6.2l-1.2 1.2-1.2 1.2h-33.5l-.6-1-.6-1h-10.8l-.6 1-.6 1h-4.5l-.9-.9-1-1-6.5-.3-6.5-.3-.3-2.8-.3-2.9.5-1.4.5-1.4zm6.2 15.8 27.5.4.7 1.1.8 1.2v7l-2.7 1.2-2.7 1.3h-3.5l-.6-1-.6-1h-56.6l-1.6-1.8-1.6-1.8.7-2.9.8-3 6-.5 5.9-.5zM193.5 131h28.1l2.7 1.2 2.7 1.3.2 8.5.2 8.5-.3 20-.3 20-1 1.1-.9 1.2-1.9-.5-2-.5v-3.4l-1.2-1.2-1.2-1.2h-3.2l-1.5 3.2-1.4 3.3-6.7.3-6.7.3-1.6-3.6-1.7-3.5h-1.7l-2.7 3.5-2.6 3.5H175l-1.6-2.5-1.6-2.5h-3l-1.7 2.2-1.8 2.1-1.1-.7-1.2-.7V135l1.2-2 1.3-2zm67.7 2.2 28.3.3v3l-4.6.3-4.7.3-.6 2.1-.5 2.2 1.1 1.3 1 1.3h8.8v9l-1.2.1h-1.3l-4.5.5-4.5.5-1.4 1.4-1.4 1.3.6 1.6.6 1.6h10.9l1.2 1.5 1.2 1.4-.4 1.8-.3 1.8-5.7.3-5.7.3-2.6 3-2.5 3.1v8.1l-.1 8.2-1.3 1.8-1.4 1.8-3.9-.3-3.8-.3-1-2.3-1-2.3-3 .3-3 .3-.3 2.2-.3 2.3h-12.8l-.3-2.3-.3-2.2-4-.1h-4l-.3-26.4-.2-26.5.5-1.2.4-1.3zm71.8.5 32.5.6.5.4.4.4-1 1.7-1.1 1.7-13.3.3-13.2.3-1.3-1.1-1.2-1-2.9.4-2.9.3-1.8.8-1.8.8-1.2-1.2-1.1-1.1H297v-1.9l1.8-1 1.7-1zm66.9.3h26l2 2.8 2 2.8v23.7l.1 23.6-1 .6-1 .6v5.3l-1.6-2.2-1.5-2.2H421v3.3l-1.7 1.3-1.8 1.3-5.4.1h-5.5l-2.3-2.2-2.3-2.1V188h-4l-.6 2.5-.6 2.5H392v-19.6l-1.6-2.2-1.5-2.2h-10.8l-.6-1-.6-1H372v-3.6l3.2-1.5 3.3-1.4.3-1.7.3-1.7-3.5-1.6-3.6-1.7V146h3.6l1.2-1.2 1.2-1.2v-3.3l-2-1.8-2-1.8V134zm41 0h3.7l1.2 1.2 1.2 1.2V134h2.8l.4 1.1.4 1.2 2.2-1.4 2.2-1.4 1.8 1.1 1.7 1.1 15.5.2 15.4.2 1.3 1.1 1.3 1V193h-4.6l-1.1-1.1-1.1-1.1-1.1.6-1.1.7v2.9h-16.4l-2.3-2.2-2.3-2.1-2.3 2.1-2.3 2.2h-4l-3.9-.1-1.9-1.4-2-1.5h-4.2l-2.2 1.6-2.2 1.5V193h-3.1l.2-22 .1-22 .9-.6.9-.5v-10.7l.6-1.6.6-1.6zm-110.7 10 32.3.1 1.8 1.3 1.7 1.3v7.3h-69l-.6-2.6-.7-2.5 1.2-2.5 1.1-2.4zm-9.8 16h22.2l1 1 .9.9 10.5.3 10.4.3.3 15 .3 15-2.7 1.3-2.7 1.2-1-1-1-1h-14.2l-1.2 1.2-1.2 1.2-1.2-1.2-1.2-1.2H296v-18h6l2.1-2.1 2.1-2.1-2.3-1.6-2.4-1.7-2.5-.5-2.5-.5-.3-1.8-.4-1.8 1.2-1.4 1.2-1.5zm-35.9 15h5.5v7.9l1 .6 1 .6v6.5l-1.2 1.2-1.2 1.2H279v-18zm93.6.3 6.1.5.7.9.7.8-.4 7.7-.4 7.8h-3.4l-1.2 1.2-1.2 1.2-1.2-1.2-1.2-1.2H372v-18.3zM165.6 199h.4v71.2l-1.2-.4-1.3-.5-.3-33.8-.2-33.8 1.1-1.3 1.1-1.4zm16.9.2 8 .3.3 34.4.2 34.4-1.1 1.3-1.1 1.4h-13.4l-1.2-1.2-1.2-1.2v-68.3l.7-.7.7-.7zm23.5-.2h5.6l1.2 1.2 1.2 1.2v67.2l-1.2 1.2-1.2 1.2H198v-4.1l-1.1-2.1-1.1-2 1.1-1.1 1.1-1.1v-6.5l-1.1-.7-1.1-.6 1.1-1.1 1.1-1.1v-49.2l1.2-1.2 1.2-1.2zm18 0h.6l1.2 1.2 1.2 1.2v67.2l-1.2 1.2-1.2 1.2H221v-69.6l1.2-1.2 1.2-1.2zm22.4 0h5.4l1.2 1.5 1.2 1.5-.1 33.7-.2 33.8-.8.8-.8.8-5.9-.3-5.8-.3v-34l.2-18.8.2-18.7zm29 0h12.4l1 1.2 1 1.3.2 4.5.3 4.5-.2 30.2-.1 30.3h-13v-16.5l-2-1.2-1.9-1.3-.8 1.3-.8 1.2-.5 8-.5 8-3.3.3-3.3.3-1.5-1.2-1.4-1.1v-55.4l1.2-1.2 1.2-1.2-1.2-1.2-1.2-1.2v-4.5l1-.6 1-.6V199zm54.9 0h32l1.9 1.7 1.8 1.6v67l-1.7 1.9-1.6 1.8h-61.6l-.6-1-.6-1H296l-.1-2.3v-2.2l.1-32.5.1-32.4 1.1-1.3 1-1.3zm56.6 0h2l.6 1 .6 1h6.9l.1 5.7.2 5.8-.1 10-.1 10-.1 18.8v18.8l-1.6.6-1.5.6-2.8-3.4-2.8-3.4-1.7 1.4-1.6 1.3v3.4l-1.2 1.2-1.2 1.2h-9.4l-1.1-1.4-1.2-1.5.3-34.3.3-34.3 6.8-.3 6.7-.3V199zm25 2h7.9l.4 2.3.4 2.3-.4 32.5-.4 32.4-1.1 1.3-1 1.3-6-.3-6-.3-.7-1.5-.8-1.5-1.1-3.6-1.1-3.5v-45.3l1-.6 1-.6v-4.5l-1.1-1.1-1-1 1.1-4.2 1.1-4.1zm25.6 0h2.2l.5 5.7.6 5.8-.3 28.9-.3 28.8-1.5 1.6-1.6 1.5-1.5-1.3-1.6-1.2v-68.5l.7-.6.6-.7zm15.8.2 6.2.3v62l-.5 4.5-.5 4.5-4.8.3-4.9.3-1.5-1.3-1.5-1.2.5-34.6.6-34.5v-.3l.1-.3zm20.6-.2h7.9l.6 2.4.6 2.5-.5 32.8-.6 32.8-.7.6-.7.7-4 .2-4 .3-3.1-.2-3.1-.1-1.1-5.1-1.2-5.1v-18.7l1-.6 1-.6-.1-19.2v-21l.1-1.7zm-46.4 1h.5v55.4l-1.6-2.3-1.6-2.3.9-2.1 1-2.2.1-12 .1-12v-11.3l.1-11.2zm62.2 15.2.4 14.8-.4 14.7-.3 14.8v-59zm-62 43.5.4 3.3-.4 3.7-.4 3.8v-14zm61.8 2.3h.5v1h-1v-1zm.2 2.3.6.7-.6.7-.7.6v-2.6zM181.3 277h7.1l2.2 2.1 2.3 2.1 2.5-.6 2.6-.6v-3h14l1.2 2 1.3 2h4.4l2.1-2.2 2.1-2.2 1.7 1 1.7 1.1.3 19.9.3 19.9-1.3 2.3-1.2 2.2 1.2 1.2 1.2 1.2v4.5l-1.1.7-1.1.6.2 5.2.2 5.1-.1 1.7-.1 1.8h-55.7l-3.1-1.5-3.1-1.6-.6-1.9-.6-1.8.3-29.1.3-29 1.3-1.3 1.2-1.2 1.2 1.2 1.2 1.2h3.7l1.5-1.5 1.5-1.5zm66.2 0h6.5v3l2.6.6 2.5.6 2.3-2.1 2.2-2.1h6.1l1.8 2 1.8 2h2.4l1.8-2 1.9-2.1 5 .3 5.1.3v14l-4-.4-4-.3-2.8-2.4-2.9-2.4h-2.4l-1.2 1.2-1.2 1.2v7.2l1.2 1.2 1.2 1.2h7.5l.6 1 .6 1 1.8-1.2 1.8-1.1 2.1 1.9 2.2 1.8v2.6l-2 1.2-2 1.3v4l2 1.3 2 1.2v6.7l-2 2.6-2 2.5v3.9l2 1.8 2 1.8v6.9l-1.8.5-1.8.4-.9 2.2-1 2.2-25.6.3-25.6.2-1.2-1.4-1.1-1.3.2-29.4.3-29.4 2.9.3 2.8.3 1.9-1.7 1.9-1.7V277zm83.3.2 34.7.3.3 13.2.3 13.1-1.7 1.7-1.7 1.6-32.1-.6-32.1-.7-1.2-1-1.3-1v-3.4l1.2-1.2 1.2-1.2h11.4l1.1-1.3 1.1-1.3-1.2-1.2-1.2-1.2h-11.2l-1.2-1.2-1.2-1.2V277zm48.7.1 5 .2.3 6.3.3 6.4-1.2 1.4-1.1 1.4H371v-14.9l1.8-.4 1.7-.5zm31-.3h5.6l2 1 1.9 1.1v4.5l1.2 1.2 1.3 1.3 2.7-3.3 2.7-3.3.1 32.7v32.7l-3.6.7-3.6.7-23.1-.6-23-.6-1.5-1.4-1.4-1.5-.5-4.5-.5-4.4 1.7-3.7 1.8-3.7-1.7-1.8-1.6-1.8v-7.7l2.2-2.3 2.1-2.3-2.1-2.3-2.2-2.3V300h16.7l1.7-1.9 1.7-1.9v-16.1l1.4-1.1 1.5-1.2 1.5.6 1.5.5v7.2l2.7-.3 2.8-.3.4-2 .3-2 .9-2.3.9-2.2zm43.5 1 4.5.5 1.1 3.5 1.2 3.5h1.5l1-2 1-2 .7-1.5.7-1.5 6.8-.3 6.8-.3 3.3 3.2 3.4 3.2 2-1.8 2-1.8-.2 32.4-.3 32.4-26 .3-26.1.2-1.8-1.3-1.8-1.3.1-31.8.2-31.9.5-.8.5-.9h3.3l2.8 2.6 2.7 2.7 1.2-2.6 1.2-2.6 1.6-.3 1.6-.3zm-125.1 35h31.6l2.3.6 2.2.6v8.7l-4.5.7-4.5.6-25.2-.6-25.3-.6h-9.3l-.5-3.8-.4-3.7 1-1.3.9-1.2zm0 17 32.6.1 1.8 1.3 1.8 1.4-.3 3.4-.3 3.3-30 .3-30 .3-4-.6-4-.6-1.4-3-1.3-3 1.2-1.4 1.2-1.5zM183 349.5l14.5.3 13.8.1 13.7.1-.2 29.2-.3 29.3-28.8.3-28.8.2-1.8-.9-1.8-1-.7-27.1-.8-27.1 1.2-1.4 1.1-1.4 2.2-.4 2.2-.4zm146.4.5h33.4l1.1 1.4 1.2 1.5-.3 3.3-.3 3.3-33.3.3-33.3.2-1.9-1-2-1.1v-4l1-2 1.1-1.9zm70.7 0h25.5l1.2 1.2 1.2 1.2v4.2l1.2 1.2 1.2 1.2-1.2 1.2-1.2 1.2v46.4l-.6 1.6-.6 1.6h-26.2l-26.1-.1-1.7-1.3-1.8-1.3v-6.8l2-1.3 2-1.2v-2.5l-2-1.3-2-1.2v-8.7l2-1.8 2-1.8v-3.2l-2-1.3-2-1.2v-6.8l.6-1.6.6-1.6h2.8v-3.7l-2-1.8-2-1.8v-6l1.8-1.3 1.7-1.3zM329 366l32.5.1 1.8 1.3 1.7 1.3v7.3h-3v2h-20v-2.4l-1.2 1.2-1.2 1.2h-15.2l-1.2-1.2-1.1-1.1-1.6 1.3-1.5 1.2v-2.4l-1.5 1.2-1.5 1.2V376h-19.6l-1.2-1.2-1.2-1.2v-5.2l1.2-1.2 1.2-1.2zm10.5 16.8 22.9.3 1.3 1.1 1.3 1v6.6l-1.7 1.3-1.6 1.4-32.1-.3-32.1-.3-1.7-1.6-1.8-1.6v-2.1l.1-2.1 1.3-1.7 1.3-1.7 9.9-.3 9.9-.3zm-32.2 17.1 1.4 1.1 27.9.2 27.9.3.3 3.3.3 3.3-1.2 1.5-1.1 1.4h-63.3l-3-2.4-3-2.4 1.4-2.6 1.4-2.6h9.7v-2.2z"/><path d="M332.6 167h-8.3l-2.3 2.5-2.3 2.4 1.3 1.6 1.2 1.5H352l.6-2.6.6-2.5-1.8-1.4-1.9-1.4-2.5-.1h-2.6l-1.1 1.1-1.1 1.1-.6-1.1-.7-1.1zm-58.5 42h-.6l-1.2 2.7-1.3 2.7v21.2l1.2 1.2 1.2 1.2h3.6v-13.6l1.1-1.1 1.1-1.1-1.2-5.4-1.3-5.3-1-1.3-.9-1.2zm114.5 7h-1.2l-1.2 1.2-1.2 1.2v23.2l1.2 1.2 1.2 1.2h3.5l.6-4.3.6-4.2-.4-8.6-.4-8.6-.7-1.2-.7-1.1zm-47.2 77.1-14.4-.2-.7 1.7-.6 1.7 1 1.6 1 1.6 13.8.3 13.8.3 1.8-1.7 1.9-1.7-1.6-1.8-1.6-1.7zM553.3 470H552v22.9l-5.2.6-5.3.6-89.5-.5-89.5-.5-100.2-.1-100.2-.1-.6-.9-.6-1-1.9 1.3-2 1.2-2.2-1.4-2.2-1.4-.4 1.2-.4 1.1h-15.7l-.6-1-.6-1h-13.5l-1.2 1.2-1.1 1.1-1.6-1.3-1.5-1.2v1.7l-6.1.3-6 .3-1.5-1.2-1.4-1.2-.6-3.9-.7-3.9-1.6.3-1.6.3-.3 14.9-.3 15-1.1 1.3-1.1 1.4 1.1 1.1 1.2 1.2v21.4l-1.3 1.1-1.4 1.1-3.1.6-3.2.6v1.6l-5.5.7-5.5.6-.5.9-.5.8-5.3.7-5.2.7-2.3 1.4L60 552v3h7.9l.5-.9.6-.9 7.8-.7 7.7-.7 1-.8 1-.7 5.5-.6 5.5-.6-2.3 1.9-2.2 1.8v2.5l1.5 1.7 1.6 1.8-.1 29.4v29.5l1.9 1.7 1.8 1.7.7-2.3.6-2.3v-7.6l1-2 1.1-1.9h47.8l.6 1 .6 1 1.2-.7 1.2-.8h4l.5.7.5.6 53.2.4 53.1.3.7.7.8.7-.2 51.7-.1 51.7-1.1 1.4-1.1 1.3H251l-2-1.2-2-1.3-1.7 1.8-1.7 1.7.9.9 1 1 38.9.2 38.9.1-.7 6.6-.7 6.6-.9 1.1-.9 1.1-.2 4.5-.3 4.5.8 1.2.7 1.2h2.8l2.7-5.8 2.6-5.7 1.9-4.1 1.9-4.1v-3l1.9-1.7 2-1.8h23.8l23.8-.1 3.5.1 3.5.1 16.3.1H424v-4l-15.1.1h-15l-1.5-1.1-1.4-1.2.4-51 .5-51 .4-.4.4-.5 78.8.1h78.7l.9.6.9.5v23l1.6.6 1.5.6 1.1-1.1 1-1-.1-36.1-.1-36.1.6-2.4.6-2.5 3.1-.7 3.1-.7 1.6-.7 1.5-.7 3.2-1.5 3.2-1.6 5.5-1.3 5.6-1.2 1.7-1.9 1.7-1.9-1-1.7-1.1-1.7-4.2-.3-4.2-.3-1.3 1-1.3 1.1-10.4.6-10.4.7 1.3-1.4 1.2-1.3v-26.2l-1.1-1.1-1.1-1.1 1.1-.6 1.1-.7-1.2-1.9-1.2-1.9 1.2-2.6 1.2-2.6v-29.5l-1.2-1.2-1.2-1.2zm-392.4 30h21.7l1.2 1.2 1.2 1.2 2-1.2 2-1.2h150.6l1.1 1.1 1.2 1.2 1.8-.8 1.8-.8 1.8-.2 1.8-.2.5.9.5.8H477l-.3 2.2-.2 2.3 2.8.3 2.7.3v-1.7l-1.2-1.2-1.2-1.2.5-.5.5-.5 32.7.7 32.7.6-.5 1.7-.5 1.7 1.4 1.2 1.4 1.2 1.1-3.1 1-3.2 1.1.7 1 .6v8.9l-2.7.6-2.7.7-126.5-.6-126.5-.6-1.8-2.3-1.7-2.3-2.6 2.7-2.6 2.8h-16.6l-2.7-2.5-2.7-2.5h-2.1l-.5 2-.5 2-1.7.1-1.6.1-77-.2-77-.2-.6-.6-.6-.7-.6-3.2-.6-3.1 1.4-1.2 1.3-1.1 17.7-.6 17.6-.6.5-.9.5-.8zm-16.6 19.5h11.9l2 2.8 2 2.7h5.5l1.3-2.5 1.3-2.4 2.6-.5 2.6-.5 24.5.3 24.5.3 1.3.1 1.2.2v3.8l1.5 1.2 1.5 1.2 3.5-.6 3.5-.7v-2.7l1.6-1.3 1.6-1.3 20.6.2 20.6.3.6.5.5.6.8 11.1.7 11.2v7l-.6 14.2-.6 14.3H270v2.2l-1.5-1.2-1.6-1.3-1.1 1.1-1.2 1.2h-4.5l-.6-1-.6-1h-20.8l-.6-3.3-.6-3.2-3-1.8-3-1.7-1.9 1.2-1.9 1.2-.9 2.1-1 2-.6 1.7-.5 1.8h-55l-.3-3.8-.3-3.7-3.5-.3-3.4-.4-1.3 1.8-1.3 1.8v4.8l-27.8-.3-27.9-.4-1.6-1.4-1.7-1.3v-19.4l1.9-1.6 1.9-1.6 3.3-.7 3.4-.7 1-.8 1-.7 5-1.2 5-1.2 3.7-1.7 3.7-1.7.1-.9v-.9l1.4-1.6 1.4-1.6-1.9-2.4-1.9-2.3v4.1l-3.7.7-3.8.7-1.1.8-1 .8-9.5.7-9.4.7-.3-8.4-.2-8.4.8-3 .8-3 15.5-.5 15.4-.5zm191.6.2 19.4.2 1.3.5 1.3.5-.1 4.9-.1 4.9.8 1.2.8 1.3 4.7-.5 4.7-.6 1.2 1.2 1.1 1.1v34.2l-1.2 1.2-1.2 1.2h-6.4l-1.6 2.5-1.6 2.4v2.6l-2 1.2-1.9 1.3-.6-1-.6-1h-16.8l-.7 1.1-.6 1.1-1.1-1.1-1.1-1.1h-10.9l-1.3-1.8-1.3-1.7-.1-2.3V571h-3.9l-.7 1.1-.6 1.1 1.1 1.1 1.1 1.1v3.6h-17.8l-1-1.3-1.1-1.3.8-1.3.8-1.3-1.4-2.9-1.4-2.9H289v-29.1l2.3.7 2.2.6 1.3 1.1 1.2 1 2-1.8 1.9-1.7-.6-1.6-.6-1.7-1.5-1.7-1.4-1.7.5-1.6.6-1.5h5l1.1 2 1.1 2h7.9v-2.9l-3-3.4-3-3.5v-3.1l5.3-.3 5.2-.3zm65.5.3h23.3l1 2.2 1.1 2.3.6 1.8.6 1.7 1.4.6 1.4.6 2.7-1.8 2.6-1.7.6-2.9.6-2.8H486v5.3l1.7 1.9 1.6 1.8h3.2l2-1.8 2.1-1.7 1.4-2.8 1.3-2.7h24.6l24.6.1 1.8 1.3 1.7 1.3v16.1l-4.2.7-4.3.7-1.1.9-1.1.9-7.9.6-7.9.6-4 1.8-4 1.8-1.8 2-1.9 2.1.6 1 .7 1 6.7-.5 6.7-.6 2-.8 2-.9L546 549l13.5-1.2 1.2-1 1.1-.9 4.9.3 4.8.3-3 1.3-3 1.4-2.8 1.4-2.9 1.4h-4.4l-2.2 1.6-2.3 1.6.7 3.1.6 3.2.9 1.1.9 1.1-.3 6.1-.2 6.1-.8.7-.7.7V602l-18.7-.2-18.8-.3.2-2.3.3-2.2h-5l-1 2.6-1 2.7-84.3-.7-84.2-.6-21.8-.2-21.8-.1-.5-.9-.6-.9-1.1.9-1.2.9-4.9.1-4.9.2-1.4-1.2-1.4-1.1-2.6 1.4-2.6 1.4-.4-1.3-.5-1.2h-62.5l.5-2.5.4-2.5H209l-1 2.5-.9 2.5-28.8-.6-28.8-.6-1.7-2.2-1.7-2.1-1.7 2.4-1.7 2.4-20.1-.6-20.1-.7-1.2-1.7-1.3-1.6.4-3.4.5-3.4 1.2-1.5 1.1-1.4H123l1 2.5 1 2.5h5v-3.8l3.2-.3 3.3-.4 72.7.3 72.7.2-.2 2.7-.2 2.6 1.3.4 1.2.5v-3.8l1.2-1.2 1.2-1.2 86 .6 86.1.7.9.8 1 .9 1.3-1.2 1.4-1.1 2.2 1.1 2.2 1h16l1.3-1.1 1.3-1 1.1 1.1 1.2 1.2h60.4l1.2-1.5 1.2-1.5-1.2-1.5-1.2-1.5h-46.6l-2.6-3.5-2.7-3.5h-3.6l-1.5 1.7-1.5 1.8-.7 1.9-.7 1.9-25.5-.6-25.6-.6-.2-.3-.2-.3-1.2-2.8-1.2-2.7h-6.9l-1.3 2.7-1.3 2.8-23.4.3-23.5.2-.8-1.2-.8-1.3v-55.3l.6-1.6.6-1.6zm150.3 23.3.6.7-.6.7-.7.6v-2.6zM329.5 608h52.3l1.1 1.4 1.2 1.4-.1 45.1-.1 45.1-.9.5-.9.5.1 5.1.1 5-1.4 1.4-1.4 1.4-20.3.2-20.3.2-1.1-1.1-1.2-1.2h-2.5l-2.7 3.7-2.6 3.8.6-7.9.6-7.9.9-1.1.9-1.1.7-6.7.7-6.8.9-.5.9-.6v-6l-2.7.3-2.7.3-.8 3.5-.9 3.5-1 2.5-1.1 2.5-1.4 3-1.3 3-.7 2.8-.7 2.9-2.2 4.1-2.2 4.2-19.3.3-19.2.2-1.4-1.1-1.4-1.1V609.3l.7-.6.6-.7z"/><path d="m440.8 504.2-1.5-.3-1.2 1.5-1.2 1.4.9.6.9.5 2.2-.6 2.2-.6-.4-1.1-.4-1.1zM132.7 506h-.8l.3 2.2.3 2.1 1.2.5 1.3.4.6-1.7.7-1.7-1.4-.9-1.4-.9zm49.4.2-1.1-.4v3.4l1.1-.4 1.1-.4v-1.9zm141 0-1.1-.4v3.4l1.1-.4 1.1-.4v-1.9zm74.9-.2h-.9l-.7 1.1-.6 1.1 1.1 1.1 1.1 1.1 1.1-1.1 1.1-1.1-.6-1.1-.7-1.1zm125.2.8-1-1-.7 1.2-.7 1.2 1 1 1 1 .7-1.2.7-1.2zm-308.1.4-1.1-.4v3.4l1.1-.4 1.1-.4v-1.9zm140.5-.2h-.4l-.6 1.5-.5 1.5h1.9v-3zm-235.7 20h-.9v3h4.2l-1.2-1.5-1.2-1.5zm70.9 3h-.7l-.6 1.1-.7 1 .3.3.4.4 2.3.7 2.3.7-1.3-2.1-1.3-2.1zm56.4 0h-.9l-.6.6-.6.7.5.8.5.9h1.9v-3zm14.4 2h-1.5l-2 2.6-2.1 2.7v6.3l-1.2 1.2-1.1 1.1 1.3 1.6 1.3 1.5 2.3-1.5 2.3-1.5H271v-5.5l-4-4.3-3.9-4.2zm1.7 7.9 1.1 1.1-.7.6-.6.6-1-.7-1.1-.6.6-1.1.6-1zm-18.9-2.9-1-1-1.7 1.7-1.6 1.8.8 1.3.7 1.2 1.9-2 1.9-2zm-32.5 1h-2l.6 1 .6 1h2.9v-2zm-64.5 4.1-1.9.1 1.3.5 1.3.5.6-.6.6-.6zm42.7.9h-1.6l-1.7 3.8-1.6 3.7-.6 3.2-.5 3.3.6 3.1.6 3.1 3.6-.7 3.6-.7 1.6-1.4 1.6-1.4h2.3l.1-1.8.1-1.7-.1-1.3-.2-1.2-3.1-5-3.1-5zm2.2 8.9 1.9 1.9-1.1 2.1-1.2 2.1H188v-5.6l1.2-1.2 1.2-1.2zm51.4 2.4-.7-.6v2.6l.7-.6.6-.7zM121.2 556h-1.9l-1.6 6-1.7 6v4.2l5.3-.7 5.2-.7 1.3-1 1.2-1v-3l-3-3.8-3-3.8V556zm142.4 2.3-.6-.6.1 1.9.1 1.9.5-1.3.5-1.3zM150.2 561h-.9l-2.1 2.3-2.1 2.2.8 1.3.7 1.2 2.2-2 2.2-2.1V561zm64 2h-.9l-.6.7-.7.6v1.7h3v-3zm40.2 2h-.4v3.1l1-.6 1-.6-.5-1-.6-.9zm60.1-31-1.5-1.2v4.2h1.9l.5-.9.6-.9zm10.9 1h-1.6l.4 1.2.4 1.2 1.2.4 1.2.4V535zm11.4 14h-1.6l-1 1.2-1 1.3-.6 3.5-.7 3.5-1.1 2.2-1.1 2.2 1.4 1.7 1.3 1.6 4.1-.5 4-.6 3.2-1.6 3.3-1.6.5-.9.5-.8-1.5-1.2-1.5-1.2v-2.4l-3.3-3.2-3.3-3.2zm1.1 7h.9l.6 1.6.6 1.6v1.8h-2.9l-.6-1-.7-1.1.6-1.4.5-1.5zm-38.3 2.3-.6-.6.1 1.9.1 1.9.5-1.3.5-1.3zm226.5-35.7-.8-.6-1.6 1.8-1.5 1.7-.7 3.2-.7 3.3-.9.5-.9.6v5.9h10.6l1.2-1.2 1.2-1.2v-3.4l-2.5-5.1-2.6-5zm-22.8 2.4h-1.5l.6 1.6.6 1.6v1l1.5-1.2 1.5-1.2-.6-.9-.5-.9zm-84.7 5h-1.5l-.9 1.7-.9 1.8-.7 6.4-.7 6.3 6-.4 6.1-.4.7-.7.7-.7-1.9-5.3-1.8-5.2-1.8-1.8-1.8-1.7zm36.5 2.2-1.3-.5.4 1.4.4 1.3 1.3.4 1.4.4-.5-1.3-.4-1.3zm-63.9 1-1.2-.4-.6 1.5-.5 1.5.3 2.8.3 2.7 1.1.4 1 .3 1.4-2.5 1.4-2.6-1-1.7-1-1.6zm103.3 4.8H493v4h3v-4zm-57.2 4.1-.8.1-1.2.5-1.3.5v2.9l1.7-.3 1.8-.3.3-1.8.3-1.7zm38.8 5-.8-1.3-.7 1-.6 1.1 1.1.6 1 .7.4-.4.4-.4zm18.8 10-2.8-2.1-2.5 3.3-2.6 3.4-.2 4.9-.3 4.9 7-.3 7-.3.9-1 1-.9-1.4-2.7-1.3-2.8-.9-2.1-1-2.2zm-1.8 6.1 1.1.3v1.9l-1.1.4-1.1.4v-3.4zm-64.9-4-1.2-.4v3.2h3.2l-.4-1.2-.4-1.2zm80.3 1.8h-.5v1h1v-1zm-113.3 2h-.7l-1.2 2-1.3 1.9 1.1.7 1.1.6 1.5-1.5 1.5-1.5-.6-1.1-.7-1.1zm5.3 2h-.5v1h1v-1zm7.6 1.2-1.1-.4v3.4l1.1-.4 1.1-.4v-1.9zm51.9-.2h-1v2h2v-2zm76.6 2h-1.4l-1.1 1.4-1.2 1.4 1.1.7 1.1.7 1.4-1.2 1.5-1.2V568zm-346.2 22.3-1-.3-.7.6-.7.7v2.7h4.1l-.3-1.7-.3-1.6zm63.9 1-.8-.2-2.2.9-2.3.9v3l1 .6 1 .6v-1.6l2.3-1 2.2-1-.2-1-.1-1zm90.8-.3h-1l-.6 1-.6 1h2l.6-1 .6-1zm32.5 0H375v3.1l2.2-.3 2.1-.3.5-1.3.4-1.2zm-69.2 3h-1.6l.4 1.2.4 1.2 1.2.4 1.2.4V594zm96.2 0h-1.5l-.6.9-.5 1 1 .6 1 .6 1-.6 1-.6V594zm42.4 0h-1v3h2v-3zm33.7 1.1-1.4-1.1-1.3 1.5-1.2 1.5 1.7.6 1.6.7 1-1 1-1zm58.8-1.1h-1.6l.3 1.6.3 1.5 1 .2 1 .2.3-1.8.3-1.7z"/></svg>