<svg xmlns="http://www.w3.org/2000/svg" version="1.0" viewBox="0 0 915 1026"><path d="m203.5 52-1.5-1.2v5.1l-1 .6-1 .6v6.5l-1.2 1.2-1.2 1.2h-9.5l-.6-1-.6-1h-14.8l-1.3 2.7-1.3 2.8 1 2.2 1 2.3h25.2l1.7 1.8 1.6 1.9-.2 34.4-.3 34.4-11.1.3-11.1.3-2.3 2.4-2.2 2.4 1.5 1.5 1.6 1.6h21.2l1.5 1.4 1.4 1.5v80.2l-2.4 2.4-2.4 2.4-9.3.3-9.2.3-1.1 1.7-1.1 1.8 1.1 1.7 1.1 1.8 10.7.3 10.6.3v12.8l1 .6 1 .6v9.8l-1 .6-1.1.7 1.1 1.3 1.1 1.3-1.1.7-1 .6v4.8l1 .6 1 .6v11.5l-1.2 1.3-1.3 1.3 1.3.5 1.2.5v6.8h-2v33.7l-1.8 1.6-1.9 1.7H177v5.5l2.7 1.2 2.7 1.3H198v77.8l-1.2.5-1.3.4 1.4 1.7 1.4 1.6-1.8 2-1.8 2h-15.3l-1.2 1.2-1.2 1.2v5.6h8.9l.6 1 .6 1h8.9v80h-16.6l-1.2 1.2-1.2 1.2v5.1l3 1.4 3.1 1.3 1.3-1.2 1.4-1.1.7 1.2.8 1.1.8-1.3.8-1.4 1.3 1.3 1.2 1.2h4.6v17h1.7l3.1-1.6 3.2-1.5V539h4.6l1.2-1.2 1.2-1.2 2 1.2 2 1.2h67v15.7l1.8 1.6 1.9 1.7h3.4l1.5-1.4 1.4-1.5V539h85.6l1.2 1.2 1.2 1.2v4.2l1.2 1.2 1.2 1.2h3.3l1.8-2 1.8-2 1.1-2.3 1.2-2.2 28.4-.3 28.4-.2 1 1 1 1h11.2l1.2-1.2 1.2-1.2 2 1.2 2 1.2h10l2-1.2 2-1.3 1.8 1.1 1.7 1.1.3 2.4.4 2.4 1 1.3 1 1.2h2.8l2-1.7 2-1.7v-1.1l.1-1 1.4-1.9 1.4-1.9 1.6 1.3 1.6 1.3 1.1-1.1 1.2-1.2h12.5l.6 1 .6 1h8.7l.5-1.3.4-1.2 1.6 1.4 1.7 1.3 1.6-1.3 1.6-1.3.7 1.2.7 1.2 18.9.2 18.8.3 1.7 3 1.7 3h6.6l1.7-3 1.7-3 28.3-.3 28.4-.2 1 1 1 1h21.4l.4-1 .3-1 2.7 1.2 2.8 1.3v3.1l1.3 2.7 1.2 2.7h4.6l1.5-1.4 1.4-1.5v-3.7l1.2-1.2 1.2-1.2h9l2.7-2.6 2.6-2.5-1.1-2.5-1.1-2.4h-12.1l-1.2-1.2-1.2-1.2v-75.7l1.4-1.4 1.4-1.4 9.2-.3 9.3-.3 1.1-1.7 1.1-1.8-2.6-2.6-2.6-2.6-2.2 1.3-2.1 1.4-2-1.3-2-1.2h-10v-84.1l1.4-1.5 1.5-1.4h9l.5.9.6.9 2.7-.3 2.8-.3 2.3-.7 2.2-.7V349h-20.1l-1.5-1.4-1.4-1.5.1-21.2v-21.1l1.2-1.9 1.2-1.9-1.3-2-1.2-2 1.2-2 1.3-2-1.3-2.1-1.3-2.1 1.2-1.4 1.1-1.4-1.1-1.4-1.2-1.4 1.1-.7 1-.6v-5.5l-1.2-1.2-1.1-1.1 1.3-1.6 1.2-1.5-1.2-1.5-1.3-1.6 1.1-1.1 1.2-1.2v-7.2l1.2-1.2 1.2-1.2h19.4l1.1-1.4 1.1-1.3-.6-1.7-.6-1.6H701v-2h-17v-84.9l11.6-.3 11.7-.3 1-1.6 1.1-1.7-1.7-1.6-1.6-1.6h-19.7l-1.2-1.2-1.2-1.2V85.4l1.2-2.7 1.3-2.7h23.3l1.1-1.4 1.1-1.4-1-2.6-1-2.6h-23.8l-1-1.3-1-1.2-.4-2.5-.3-2.5h-5l-.3 3.7-.3 3.8h-84.5l-2.7-1.3-2.7-1.2v-7.6l-2.4-2.4-2.4-2.4-2.6 1.2-2.6 1.2v10l-2.7 1.2-2.7 1.3-.7-1.2-.8-1.2-2.5 1.3-2.5 1.4-1.4-1.1-1.3-1.2-1.1 1.1-1.1 1.1-.6-1.1-.7-1.1h-60l-1.5-1.4-1.4-1.5V53.4l-1.2-1.2-1.2-1.2-2.3 2.2-2.3 2.1v11.8l-1.4 1.5-1.5 1.4h-30l-.6-1-.6-1h-9.8l-.6 1-.6 1h-21.5l-1.1-1.1-1.1-1.1-.6 1.1-.7 1.1-2.1-1.3-2.1-1.2-.4 1.2-.5 1.3h-5.7l-.6-1-.6-1H396v-4.9l-1-.6-1-.6v-5.6l-2.1-1.9-2-1.8-1.7 1-1.7 1.1-.3 6.7-.3 6.6H296V57h-2v-4h-3.1l-1.2 1.2-1.2 1.3-1.4 2.8-1.5 2.7 1.1 1.1 1 1-1.1 2.5-1.1 2.4H249l-2-1.2-2-1.3-2.1 1.3-2.1 1.4-1.1-1.1-1.1-1.1h-31.1l-1.2-2.7-1.3-2.7v-7.4zm9.8 23.4.7 1.1 1.1-1.5 1.1-1.5.5 1.2.5 1.3H286v25.6l1.3 1.3 1.2 1.4-1.2.4-1.3.5v14.6l1.3.6 1.2.6-1.2.6-1.3.6V149h-75.6l-2.7-2.8-2.7-2.8V82.2l1.4-2.7 1.4-2.7 2.4-1.2 2.3-1.2zm125 .6h42.3l2.7 1.2 2.7 1.3v23.6l-1.4 1.5-1.5 1.4h-6.9l-1.6 3.4-1.6 3.4v.9l.1.8 1.8 2.2 1.8 2.2 4.4.3 4.4.3.3 11.9.3 11.9-1.1 1.1-1 1v3.7l-1.4 1.5-1.5 1.4h-74.7l-1.2-1.2-1.2-1.2-2 1.2-1.9 1.2-.6-1-.6-1H294V84.1l1-.6 1-.6V76zm96.7 0h1v2l26.8.2 26.7.3v28l-39.4.3-39.5.2-1-1-1-1H403v2.4l-1.2-1.2-1.2-1.2H394V88.4l1.2-1.2 1.2-1.2H394v-2.6l1.3-2.7 1.2-2.7H434v-2zm97.1 2h31.8l.6 1 .6 1 1.9-1.2 2-1.2 1.2 1.2 1.2 1.2h6.6l-.2 36.2-.3 36.3-38.4.3-38.4.2-1.9-1.6-1.8-1.7v-28.5l1.6-1.3 1.6-1.3 2.2-1.1 2.1-1.1.3-2.3.4-2.3-1.9-2-1.8-2-2.2-.9-2.3-.9V81.7l1.7-1.9 1.6-1.8zm65.2.9 1.1 1.1h13.5l.6-1 .6-1h4.8l.6 1 .6 1h6.7l.6-1.3.6-1.2.6 1.2.6 1.3H676v71.3l-1.7 1.9-1.6 1.8H609v-2.2l-4.7.2-4.8.3-6.7-.2-6.8-.1V91h2.4l-1.2-1.2-1.2-1.2v-3.2l1.3-2.7 1.2-2.7h6.4l.7-1.1.6-1.1zM401.6 116h3.4v2h47.6l1.2-1.2 1.2-1.2 1.2 1.2 1.2 1.2h28.9l1.9 1.7 1.8 1.6v21.3l-2.6 5.2-2.6 5.2h-36.7l-.7-1.1-.6-1.1-1.1 1.1-1.1 1.1h-4.4l-.5-1.3-.4-1.2-1.4 1.2-1.3 1.3h-7.5l-.6-1-.6-1h-27.2l-1.9-1.7-1.8-1.6v-2.5l-1.5-1.2-1.5-1.2v-19.7l-1-.6-1-.6V118h4.9l.6-1 .6-1zm-189.7 39h3l.6 1 .6 1h5.8l.6-1 .6-1h8.5l1.2 1.2 1.2 1.2V155h3.9l.6 1 .6 1h9.8l.7-1.1.6-1.1 1.1 1.1 1.1 1.1H286v83.6l-1.2 1.2-1.2 1.2h-8.5l-.6 1-.6 1H265v-2h-29v-3.1l-1.5-1.6-1.6-1.5-1.4.6-1.5.5-1 2.6-1 2.5h-19.3l-1.9-1.7-1.8-1.6v-81.9l2-.5 2-.5V155zm111.3 2H350l2 1.2 2 1.3 2.1-1.3 2.1-1.4 1.1 1.1 1.1 1.1h11.1l-7.3 6.9-7.2 6.9v3.2h-2.7l-23.1 23-23.1 23h-1.5l-5.2 5.1-5.2 5.1-1.1-.6-1.1-.7v-13.5l-1.2-1.3-1.3-1.3 1.3-.5 1.2-.5v-54.4l1.2-1.2 1.2-1.2zm115.8 2.1 44.5.1 3 .7 3 .6.3 33.3.2 33.3-1.6.6-1.6.6-4-2.2-4-2.1h-3.7l-.6-1.1-.7-1-1.9 1.7-1.9 1.7v3.4l2.3 1.9 2.2 2 5 2.4 5 2.4 1.8 1.5 1.7 1.4v3l-1.7 1.9-1.6 1.8h-5.3l-1.2-1.2-1.3-1.3-.9 1.5-.9 1.5-2.1-1.3-2-1.2h-12v2h-4.9l-.6-1-.6-1h-14.8l-.7 1.1-.6 1.1-.9-1.3-.9-1.4-1.1 1.5-1.1 1.5-.5-1.3-.5-1.2h-39.4l-1.2-1.2-1.2-1.2v-66.5l1-.6 1-.6v-10.5l1.3-2.7 1.2-2.7zm107.5.7 27.9.3 1.8 1.6 1.8 1.6v62.4l-1.6 3.1-1.5 3.2h-1.5l-4.1-4.3-4-4.2-.6-1.8-.6-1.7H561v-2.6l-2.8-2.7-2.8-2.7H553v-2.5L539.5 196 526 182.5v-2.2l-2.2-2-2.3-2-1.7-.6-1.8-.6v-2.5l-4.6-4.7-4.7-4.7.6-1.6.6-1.5 4.3-.3 4.3-.3zm70.1.2h27l1 1 .9.9 15 .3 15 .3.3 42.2.2 42.3h-37.7l-1.8-2-1.8-2H630v2h-4v2l-19.2-.2-19.1-.3-1.8-3-1.8-3v-18.3L584 204l1.2-1.9 1.1-1.8-.8-1.9-.8-1.9-.4-4.8-.4-4.7h2.1v-8.8l-1.2-.5-1.3-.5 1.3-1.3 1.2-1.3v-11.9l1.8-1.3 1.7-1.3zm-233.1 6.2 2 .3.3 5.9.3 5.9-1 1-1.1 1.1v61.7l-1.4 1.5-1.5 1.4h-63.7l-1.2-1.2-1.2-1.2v2.4h-6v-2h-3v-1.6l7.5-7.4 7.5-7.4v-2.1l9.8-9.6 9.7-9.6 1.8-.6 1.7-.6v-2.6l8.8-8.6 8.7-8.6 1.8-.6 1.7-.6V180h3.2l.5-2 .5-2h2.4l4.9-5 5-5.1zm124.5 9.7 10 9.8v1.9l2.8 2.7 2.8 2.7h2.4v3.1l9.5 9.1 9.5 9.1v2.2l11 11 11.1 11 1.4 2.9 1.5 2.9v2.7h-61v-2h-4v-3.1l-2.5-2.4-2.4-2.5h-2.6l-1.2-2.7-1.3-2.7v-22.5l.9-.6.9-.5v-10.5l-.1-10.5h-1.8l.8-1.3.8-1.2.2-7.8.2-7.9.5-1.4.5-1.4zM215.7 251h9.6l1.9 1.7 1.8 1.6v84.4l-1.6 3.1-1.5 3.2h-19.7l-1.2-1.5-1.2-1.5.5-44.4.5-44.4.7-1.1.6-1.1zm41.2 0h16.4l1.9 1.7 1.8 1.6v3.6l4.3.3 4.2.3.3 36.5.2 36.5-.9 2-1 2-.3 2-.3 1.9-2.3 1.2-2.2 1.1-1.8 1.6-1.9 1.7h-33.6l-1.9-1.7-1.8-1.6v-88.3l1.2-1.2 1.2-1.2zm57.1.1 15.6-.1 1.2 1.2 1.2 1.2 1.2-1.2 1.2-1.2h16.2l1.2 1.2 1.2 1.2V251l5.1.2 5.1.2.4.8.5.8h6.9v1.6l-1.2 2.7-1.3 2.7H367v6h-2v4.9l-1 .6-1 .6v6.8l-1 .6-1 .6v23.5l1.2 1.2 1.2 1.2h5.2l1.2-1.2 1.2-1.2V281h2v-8.2l3.8-7.9 3.7-7.9h1.5v13.9l1 .6 1 .6v10.8l-1 .6-1 .6V335h-1.1l-1.5-1.4-1.4-1.5v-1.8l-1.9-1.7-2-1.8-.3-2.6-.3-2.7-2.2-1.1-2.3-1.1-1.8-1.6-1.9-1.7H361v6.9l1 .6 1 .6v3.6l4 7.8 4 7.8v.6l-3.2 1.5-3.1 1.6h-10.6l-.6-1-.6-1h-4.8l-.7 1.1-.6 1.1-1.1-1.1-1.1-1.1h-19.5l-.7 1.1-.6 1.1-1.1-1.1-1.1-1.1H292v-58h2.4l-1.1-1.1-1.2-1.2 1.2-1.7 1.1-1.8-1.4-1.7-1.3-1.6 1.4-2.6 1.4-2.6-1.2-.4-1.3-.5V266h2.4l-1.2-1.2-1.2-1.2v-4.5l1-.6 1-.6v-4.4l2.3-1.1 2.2-1.2zm124.2 2.1 48.2.3 2 3.8 2 3.8-1.3 2.1-1.3 2 1.1 1.1 1.1 1.1v47.2l-1 1-.9.9-.3 15-.3 15-48.7.3-48.8.2v-94zm61.7-.1.4-.1 1.8 1.6 1.7 1.6 8.1-.8 8.1-.7V253h3.6l1.2 1.2 1.1 1.1 1.3-1 1.3-1 4.8-.1h4.7v2.2l1.2-1.2 1.2-1.2h6.5l.6 1 .6 1H576v13h2v4h-2v29.9l1 .6 1 .6v6.8l-1 .6-1 .6v35.7l-1.5.6-1.5.5-1.5-.5-1.5-.6v2.2h-21.6l-1.2-1.2-1.3-1.3-.9 1.5-.9 1.4-2.5-1.3-2.5-1.4-1.6 1.3-1.5 1.2V347h-3.6l-1.2 1.2-1.2 1.2-1.2-1.2-1.2-1.2H513l.1-1.8v-1.7l1.9-3 1.9-3 2.5-4.9 2.6-5V324h2v-10h-6.5l-1.2 2.7-1.3 2.7v2.3l-3.2 6.4-3.3 6.4-.7.3-.8.4v2.9l-4.6 4.5-4.5 4.6-1.5-.6-1.4-.5v-57.8l.7-.7.7-.7.3-4.4.3-4.4-1-.6-1-.6v-21.4l2.3-1.1 2.2-1.2zm110.4 1.9h13.3l1.2 1.2 1.2 1.2V314h-2l-.2 17.2-.3 17.3h-31.8l-1.7-3-1.6-3-2.2-1-2.2-1V260h1.8l4.1 2.2 4 2.1 1.6-1.3 1.5-1.2V255zm45.5 0h17.7l1.3 2.7 1.2 2.7v5.6h-2v6h2v18.8l-1.2.6-1.3.6 1.3.6 1.2.6v4.4l-1 1-1 1-.2 24.4-.3 24.5-17.4.3-17.3.2-1.4-1.1-1.4-1.1V258h2v-3zm-438.6 98H229v6.6l1.1 1.1 1 1 2.4-1.1 2.3-1.1 1.3-3.2 1.3-3.3h39.4l3.1 2.9 3.1 2.9v79.7l-2.7 1.2-2.7 1.3h-14.5l-.6-1-.6-1H259l-2 1.2-2 1.2-1.2-1.2-1.2-1.2h-46.2l-1.2-1.2-1.2-1.2v-82.3l.7-.6.6-.7zm120.6.1 37.7.1 3 .7 3 .6.3 32.8.2 32.7h-2v7h-3.7l-2.3-2.5-2.3-2.5h-1.8l-12.3-12.5-12.4-12.5h-2.4l-11.2-11.5-11.1-11.5h-2l-9.2-9.2-9.3-9.3V353zm74.7.6 5 .1 33.8.1 33.8.1.5 1.5.6 1.4-2.4 2.3-2.3 2.3-4.4 2.2-4.3 2.3h-3.7l-.6 1-.6 1h-3.8l-3.6 2-3.6 2H451v2h-3.1l-1.3 1.2-1.3 1.2 2.5 1.3 2.4 1.3h10.7l.5-.9.6-.9 5-.7 5-.7V374h3.9l3.6-2 3.6-2h4.9v69.9l-3.2 1.5-3.1 1.6h-73.6l-.6-1-.6-1h-14l-1.2-1.3-1.2-1.3-1.2-2.2-1.3-2.2v-5l1.2-2 1.2-2-1.2-1.2-1.2-1.2v-6.5l1-.6 1-.6V366h3.7l9.8 5 9.8 5 4.8.6 4.9.7.6.8.5.9h5.5l1.2-1.2 1.2-1.2v-4.2l-1.2-1.2-1.2-1.2h-8.5l-.6-1-.6-1h-6.5l-1.4-2-1.4-2H405v-2h-2.8l-1.2-1.5-1.3-1.5-3.4-1.7-3.5-1.6-.8 1.4-.9 1.3-.7-.6-.6-.7.5-1.5.6-1.5 8.3-.3 8.3-.3zm110.4.3h22.7l1.2 1.2 1.2 1.2 1.2-1.2 1.2-1.2h12.2l2.7 1.2 2.7 1.3v1.1l-6.5 6.4-6.5 6.4v2.1l-9.2 9.2-9.3 9.3h-1.9l-2.3 2.2-2.3 2.1v2.2l-15.9 15.9-15.9 15.9-1.6-.6-1.6-.6v-63.7l2.6-5.2 2.6-5.2zm82.1 2.3 18.5.2.3 2.7.3 2.8h1.9v4h4.7l2.3-2.5 2.3-2.4 1.1-2.3 1.2-2.3 16.3-.3 16.4-.3 1.8 1.7 1.9 1.7v15.6l1 .6 1 .6v6.8l-1 .6-1 .6v4.7l1.3.5 1.2.4-1.4 2.7-1.5 2.6 1.2 1.2 1.2 1.2v4.5l-1 .6-1 .6v38.8l-.9.6-1 .5-15.7.1h-15.6l-1.9 1.2-1.9 1.1-1.2-1.2-1.2-1.2h-10.5l-.6 1-.6 1H611v-2h-27v-20.9l-1-.6-1-.6v-4.8l1-.6 1-.6v-56l1.3-1.4 1.2-1.5zM295 368h.5l1.3 2 1.2 2h2.5l8.5 8.5 8.5 8.5h2.1l6.4 6.5 6.4 6.5h2.6l1 2.5 1 2.5 2.2.9 2.3.9 14.9 15 14.9 15-.7 1.1-.7 1.1h-72.5l-2.7-1.3-2.7-1.2v-65.1l1.3-2.7 1.2-2.7zm279.3 2h1.7v64.9l-1 .6-1 .6v6.9l-34.2-.2-34.3-.3-.3-2.2-.3-2.3 6-5.9 6.1-6v-1.9l21.5-21.6L560 381h2.8l.5-2.1.6-2 1.8-.5 1.8-.5 2.5-2.9 2.5-2.9zM217 447h1.9l.6 1 .6 1h28.5l1.3-1.3 1.4-1.2.4 1.2.5 1.3h13.4l1.2-1.2 1.2-1.2 1.2 1.2 1.2 1.2h11.2l1.2 1.2 1.2 1.2v46.5l-1.1.7-1.1.6 1.1 1.1 1.1 1.1v23.5l-1 .6-1 .6v4.9h-33.9l-.7-1.1-.6-1.1-.9 1.3-.8 1.4-1.3-1.3-1.2-1.2h-21.4l-.5 1.2-.5 1.3-1.3-1.3-1.3-1.2H204v-80h9.9l.6-1 .6-1zm137 0h.9l.6 1 .6 1h24l-.3 11.2-.3 11.2-3 .9-3 .9-1.3 2.6-1.2 2.6 4.5 4.6 4.5 4.6v41l-1.2 1.2-1.2 1.2H292v-82h59.9l.6-1 .6-1zm81.1 2.3 41.1.5.5.6.6.6 1.1 2.2 1.1 2.3 4 .5 4 .5.3 8.2.3 8.3-45.8-.1-45.8-.1-3-.7-3-.6-.3-8.4-.3-8.3 2.1-1.8 2-1.7v-2.6zm105.4.5 31 .2 1.3.5 1.2.4v18l1.1.7 1.1.6-1.1 1.1-1.1 1.1v8.4l1.3.5 1.2.4-1.2 1.4-1.3 1.3v46.2l-1.2 1.2-1.2 1.2h-16.4l-.6-1.3-.6-1.2-.6 1.2-.6 1.3h-54.5l-1.7-1.9-1.6-1.8.2-20.9.3-20.9 2.5-.3 2.5-.4 1.3-1 1.2-1V479h-2v-2.9l-2.7-1.3-2.8-1.3v-23l7-.5 7-.5zm63.6.2h16.5l1.2 1.2 1.2 1.2 1.2-1.2 1.2-1.2h5.5l.6 1 .6 1h38.2l1.9 1.7 1.8 1.6v75.2l-2.7 1.2-2.7 1.3h-79.2l-2.7-1.3-2.7-1.2v-77.8l1.8-1.3 1.7-1.3zm-181.6 35H455v2h3.8l.6-1.3.6-1.2.6 1.2.6 1.3h23.9l1.5 1.4 1.4 1.5V506h-2v5.8l1.3.5 1.2.4-1.2 2.1-1.3 2.1 1.1.7 1.1.6-1.1 1.1-1.1 1.1V531h-6.9l-.7 1.1-.6 1.1-1.1-1.1-1.1-1.1h-6.2l-1.2 1.2-1.2 1.2-2-1.2-1.9-1.2-.6 1-.6 1H455v-2.4l-1.2 1.2-1.2 1.2h-4.5l-.6-1-.7-1.1-1.3 1.1-1.3 1.1-.7-1.1-.6-1H390v-46z"/><path d="M439.9 219.2 438 218v2h-12.9l-.6 1-.6 1h-6.8l-.6 1-.6 1-2.2.1-2.2.1-5 2.7-5 2.7-.3 2.7-.3 2.7h8.9l2.8-1.5 2.9-1.5h4.4l.6-1 .6-1h4.9v-2h33.3l1.8-1.6 1.8-1.6-2.4-2.4-2.4-2.4h-5.7l-1.2-1.2-1.2-1.2-2 1.2-1.9 1.2-.6-1.1-.7-1-1.5 1.2-1.5 1.3zM514 258h-1.7l-.6.7-.7.6v8.6l1 .6 1 .6v3.9l.9 1.8.9 1.7 1.2 2.6 1.2 2.6.6 11.4.7 11.4 3.1.3 3.2.3 1.6-3.2 1.6-3.2v-12.6l-1-.6-1-.6v-7.8l-2-3.6-2-3.6V267l-1.2-2.3-1.3-2.2-1.9-2.3-1.9-2.2zm-66.1 265H446v2h5.1l-.6-1-.6-1zM104.3 624.7l-1.8-1.5-1.2 1.4-1.3 1.3v61.7l-1 1-.9.9-.3 12.9-.3 12.9-3 1.8-3 1.8h-1.7l-1.7.1-3.6 2-3.6 2H77v2h-4v2h-6v2l-2.2.1-2.3.1-5 2.7-5 2.7-.3 1.8-.4 1.9 5.7-.6 5.8-.6 1-1 1.1-1.1h6.5l.6-1 .6-1h4.8l.6-1 .6-1h6.8l.6-1 .6-1H92v-2h8v2.7l-2 1.8-2 1.8v60.1l-2.2 2.3-2.1 2.3 2.1 2.3 2.2 2.3V817h3.1l1.5-1.4 1.4-1.5V802h4.9l.6-1 .6-1h44.5l1.2 1.2 1.2 1.2 2-1.2 1.9-1.2.6 1 .6 1h190.5l1.2 1.2 1.2 1.2v102.2l-1.2 1.2-1.2 1.2h2.4v3.6l-1.2 1.2-1.1 1.1 1.3 1.6 1.3 1.6-1.1 1.1-1.2 1.2v15.5l-10.2.3-10.3.3v5l11 .3 11 .3.9.9 1 1h4.6v-2h58.6l1.1 1.1 1.1 1.1.6-1.1.7-1.1h4.8l.6 1 .6 1h6.9v6.9l-1 .6-1 .6V969h-2.5l3.2 3.2 3.2 3.1 1.5-1.2 1.5-1.3 3.5-7.1 3.5-7.2.6-3.1.6-3 1.9-1.4 2-1.4v-2.7l1.4-1.5 1.5-1.4h7.1v-2.4l1.2 1.2 1.2 1.2H480v-2h6.6l1.1 1.1 1.1 1.1.6-1.1.7-1.1h6.8l.6 1 .6 1H530v-3.1l-1.4-1.5-1.5-1.4h-11.7l-1.2-1.2-1.2-1.2V806.4l1.2-1.2 1.2-1.2h198.2l1.2 1.2 1.2 1.2V804h7.6l1.2 1.2 1.2 1.2 1.2-1.2 1.2-1.2h4.5l.6 1 .6 1h35.8l.3 11.2.3 11.3h5l.5-46 .5-45.9 5-2.7 5-2.7 2.3-.1 2.2-.1v-2h6v-2h4.9l.6-1 .6-1h4.8l.6-1 .6-1h4.8l.6-1 .6-1h3.9l2.3-1.3 2.2-1.2 2.3-1.9 2.2-1.9V712h-7.9l-.5.9-.6.9-8.5.7-8.5.7-.6.9-.5.9h-4.8l-.6 1-.6 1h-8.8l-.6 1-.6 1h-13.2l2.1-2.3 2.1-2.3.2-23.9.1-24 .9-1.2 1-1.1-1.1-.7-1-.6V661l1.2-2 1.3-2-1.3-2.1-1.4-2.1 1.1-1.1 1.1-1.1v-19.9l-1.6-1.8-1.6-1.8-1.4 1.4-1.4 1.4v19.2l-1.4 1.5-1.5 1.4H555v-2h-6.6l-1.2 1.2-1.2 1.2-2.5-1.4-2.5-1.4-1.2 1.2-1.2 1.2h-27.5l-.6-1-.6-1h-5.8l-.6 1-.6 1h-12.5l-1.1-1.1-1.1-1.1-.6 1.1-.7 1.1h-4.7l-.5-1.3-.4-1.2-2.2 1.2-2.1 1.3h-7.9l-.6-1-.6-1H350.1l-.6-1-.7-1.1-1.3 1.1-1.3 1.1-.7-1.1-.6-1h-94.8l-.6 1-.7 1.1-6.4-.3-6.4-.2V648h-51.8l-.5-1.3-.4-1.2-2.1 1.2-2.1 1.3-.6-1-.6-1h-7.8l-.6 1-.6 1h-14.8l-.6-1-.6-1h-5.5l-1.2 1.2-1.1 1.1-1.6-1.3-1.6-1.3-1.1 1.1-1.2 1.2H106v-21.7zm38.6 33.3h2.9l.5 1.2.4 1.3 2.2-1.3 2.1-1.2h66v2.6l-1 1-1 1 2 1.9 2 1.9 1.2-1.2 1.2-1.2-1.1-1.9-1.2-1.8 1.2-1.2 1.1-1.1h22.4l.5 1.2.4 1.3 2.2-1.3 2.1-1.2h139v2h4.9l.7-1.1.6-1.1 1.1 1.1 1.1 1.1h4.5l.6-1 .6-1h42.8l.6 1 .6 1h6.9v-1.7h6v2.1l1.2-1.2 1.2-1.2h4.5l.6 1 .7 1.1 1.3-1.1 1.3-1.1.7 1.1.6 1h25.8l.6-1 .7-1.1 1.4 1.2 1.4 1.1V658h3.9l.6 1 .6 1h26.8l.6-1 .6-1h4.8l.6 1 .6 1H663l2 1.2 2.1 1.3.9-1.5.9-1.5 1.3 1.3 1.2 1.2h86.5l.6 1 .6 1 1.2-.7 1.2-.7 3.8-.4 3.9-.3 1.4 1.2 1.4 1.1v9.9l-2.5 2.4-2.4 2.5H651.2l-.6-1.3-.6-1.2-.6 1.2-.6 1.3h-3.5l-3.1-1.6-3.2-1.5v-2.7l-1.4-1.1-1.5-1.2-.3 2.8-.3 2.8-2 .3-2 .3-2.3 1.2-2.3 1.1-1-1.4-1.1-1.5-.5 1.2-.5 1.3h-8.7l-.6-1-.6-1-1.9 1.2-2 1.2-1.2-1.2-1.2-1.2h-23.2l-1.2 1.2-1.2 1.2V677h-8.9l-.6 1-.6 1h-4.8l-.6-1-.6-1h-21.8l-.7 1.1-.6 1.1-1.1-1.1-1.1-1.1h-64.4l-.5-1.3-.4-1.2-2.2 1.2-2.1 1.3h-5.9l-.6-1-.6-1h-29.3l-2.3-2.2-2.3-2.1-2.3 2.1-2.3 2.2h-131l-1.2-1.2-1.2-1.2v2.4h-33v-2H148v-4.6l-1.2-1.2-1.2-1.2H142v2.9l1.1.6 1 .7-2.6 1.4-2.7 1.4h-13.4l-1.2-1.2-1.2-1.2v2.4h-6v-2h-4.9l-.5.9-.6.9-2.5-1.1-2.5-1.2V660h34v-2zm8.2 23h44.8l.3 3.7.3 3.7 3 1.7 3 1.8h3l3.1.1 1.2-1.2 1.2-1.2V685h2v-4h64.9l.6 1 .6 1h4.9v4.4l2.2 2.3 2.1 2.3h5.1l3.3-3.2 3.3-3.2v-2.1l3.1-1.4 3.1-1.3 1.1 1.1 1.1 1.1h4.6v-2h5.8l.5 1.2.4 1.3 2.1-1.2 2.1-1.3.6 1.1.7 1 1.3-1.1 1.3-1.1.7 1.1.6 1h13.8l.6-1 .6-1h4.8l.6 1 .6 1H369v2.9l-1 .6-1 .6v6.8l1 .6 1 .6V765h-69.2l.6-2.3.5-2.2-.6-3.7-.6-3.8-2.8-1.4-2.8-1.4-1.8 2.2-1.8 2.1-1.2 2.2-1.3 2.3v6h-81v-5h2v-3.6l-1.2-1.2-1.2-1.2-3.1.1h-3l-3 1.8-3 1.8-.3 2.4-.4 2.4-1 1.3-1 1.2h-39.4l-39.3-.1-.6-.9-.6-1H102v-27.4l2.2-2.3 2.1-2.3h4.4l1.8-2 1.8-2h2.7v-2h4v-2h4v-2h4v-7.3l-7.2.7-7.3.7-.9 1-1 .9H104v-33.6l1.2-1.2 1.2-1.2zm597.1 0h.8v4h2.6l1.2-1.2 1.3-1.3.7 1 .7 1 2.2 1.2 2.3 1.3h9.5l1.3 2.7 1.2 2.7v7.6h-2v4h2.4l-1.2 1.2-1.2 1.2v8.1l-2.7 1.2-2.7 1.3h-5.5l-.6 1-.6 1H753v2h-4v2l-2.2.1-2.3.1-5 2.7-5 2.7-.3 3-.3 3.1 1.5 1.3 1.6 1.2V735h6.9l.6-1 .6-1h8.8l.6-1 .6-1h8.7l.4-1.1.3-1 5 .3 5 .3-4.2 2-4.3 2v2.2l2 1.8 2 1.8v4.3l1.2 1.2 1.2 1.2H770v3.8l1.3.6 1.2.6-1.2.6-1.3.6V767h-86v-8.1l-1.4-1.5-1.5-1.4h-2.9l-.4-1-.3-1-2.6 1.2-2.5 1.2-1.2 2.5-1.2 2.5v3.2l-1.2 1.2-1.2 1.2H588v-4h2v-6.1l-1.7-.6-1.8-.7-.7-1-.7-1.1-1.3 1.3-1.2 1.2H578v11h-76.6l-1.2-1.2-1.2-1.2v-70l2.3-4.8 2.2-4.8h66.1l1.2 1.2 1.2 1.2v4.2l1.2 1.2 1.2 1.2h9.3l1.8-2 1.8-2 1.1-2.3 1.2-2.2 21.2-.2 21.2-.2v2.3l1.2-1.2 1.2-1.2h5.6l2 1.2 2.1 1.3.9-1.4.8-1.5 1.7 1.4 1.6 1.3 1.1-1.1 1.2-1.2H670v8.6l1.2 1.2 1.2 1.2h7.6v-2.7l2-1.8 2-1.8V687h9.9l.6-1 .6-1h48.6l1.8-2 1.8-2zm-341.6 2h6.4v2.4l1.2-1.2 1.2-1.2h6.5l.7 1.1.6 1.1 1.1-1.1 1.1-1.1 1.3 1.1 1.3 1.1V683h12v2h38v5.9l2 3.6 2 3.6v3l-1.4 1.5-1.5 1.4h-2.3l-3.9 4.2-3.9 4.3.4 1 .3 1 4.2-.1 4.2-.1 3.2-2.9 3.2-2.9 2.2-1.2 2.2-1.2 1.5 3.1 1.6 3.1v32.6l-1 .6-1 .6v4.9l-4.4 2-4.4 2-1.5 3-1.5 3 .9.6 1 .6-1.2 1.4-1.1 1.4h-24.7l-.6-1-.6-1h-5.8l-.7 1.1-.6 1.1-1.1-1.1-1.1-1.1h-47.5l-2.6-1-2.7-1 1.2-1.5 1.2-1.5H390v-3.1l-1.4-1.4-1.3-1.4-4.4-.3-4.4-.3-.3-16.3-.2-16.2h-2v-3.6l1.3-2.7 1.2-2.7h4.9l2.2 2.1 2.3 2.1 4.3.5 4.3.5 1.4-2.5 1.4-2.6-.6-1.5-.6-1.4-3.8-1.8-3.8-1.8-1.6-1.8-1.6-1.8h-2.4l-3.4-3.5-3.5-3.4v-4.3l1.3.4 1.2.4 1 2.2 1 2.2h4.9l2.3-2.2 2.3-2.1V685h6.9l.6-1 .6-1zm370.9 44h1.5v2h-3v-2zm-634.6 44h41l.7 1.1.6 1.1 1.1-1.1 1.1-1.1h5.5l.6 1 .6 1h4.8l.7-1.1.6-1.1 1.1 1.1 1.1 1.1 1.2-1.1 1.2-1 .7 1.1.6 1h4.8l.6-1 .6-1h7.5l1.2 1.2 1.2 1.2 2.4-1.4 2.5-1.3 1.5 1.2 1.4 1.2.7-1.1.7-1.2 1.1 1.1 1.1 1.1 1.3-1.1 1.3-1.1v2.2h4v-2h8.9l.6 1 .6 1H269v-2.4l1.2 1.2 1.2 1.2h177.5l.6 1 .6 1h8.9v-2h4.9l.7 1.1.6 1.1 1.1-1.1 1.1-1.1h21.5l.7 1.1.6 1.1 1.1-1.1 1.1-1.1 1.2 1.1 1.2 1 .7-1.1.6-1h4.8l.7 1.1.7 1.1.8-1.3.9-1.4 1 1.5 1 1.5 1-1.5 1-1.5.9 1.4.8 1.3.7-1.1.7-1.1h12.8l.6 1 .6 1 2.1-1.3 2.1-1.2.4 1.2.5 1.3h4.7l.7-1.1.6-1.1 1.1 1.1 1.1 1.1h56.5l.7-1.1.6-1.1 1.1 1.1 1.1 1.1H626v3.1l1.2 1.3 1.2 1.2 2.8-1.3 2.8-1.4V775h46.9l.7 1.1.6 1.1 1.1-1.1 1.1-1.1 1.2 1.1 1.2 1 .7-1.1.6-1h4.5l1.2 1.2 1.2 1.2V775h54v6h2.3l1.9-1.7 1.8-1.6V775h12.1l1.5 1.4 1.4 1.5V796h-6v-2h-29.9l-.6 1-.6 1h-8.8l-.6-1-.6-1h-5.1l1.1-1.3 1.1-1.4-1.9-1.7-2-1.8-1 .7-1.1.6v2.9h2v2h-8.9l-.6 1-.6 1h-4.5l-1.2-1.2-1.2-1.2v2.4h-14.9l-.7-1.1-.6-1.1-1.1 1.1-1.1 1.1H660l-2-1.3-2.1-1.2-.9 1.4-.8 1.5-1.6-1.3-1.6-1.3v2.2h-43.9l-.6-1-.6-1h-9.8l-.6 1-.6 1h-25.8l-.6-1-.6-1h-4.8l-.6 1-.6 1H553v-2H402.1l-.7-1.1-.6-1.1-1.1 1.1-1.1 1.1h-6.2l-1.2-1.2-1.2-1.2v2.4h-5.6l-1.2-1.2-1.2-1.2-1.2 1.2-1.2 1.2h-14.5l-.6-1-.6-1H242.1l-.6-1-.6-1h-5.8l-.6 1-.6 1h-18.8l-.6-1-.6-1h-36.5l-1.2-1.2-1.2-1.2v-4.8l-1.2.4-1.2.4-1.6 3-1.7 2.9-4.2.1-4.2.1-.5-.9-.5-.8h-55.5l-1.2-1.2-1.2-1.2V771zM386 802h25v2.4l1.2-1.2 1.2-1.2h6.5l.6 1 .6 1h4.9v-2h5.9l.6 1 .6 1h49.5l1.3-1.3 1.4-1.2.4 1.2.5 1.3H503v4.9l1 .6 1 .6v5.9l-1.2 2-1.3 2.1 1.5 1 1.5 1.1-1.2.5-1.3.5v4.7l1 .6 1 .6v6.8l-1.1.7-1.1.6 1.1 1.1 1.1 1.1v4.6h-2v3.8l1.3.5 1.2.5-1.5 1.1-1.5 1 1.3 2.1 1.2 2v3.9l-1 .6-1 .6 1.2 1.9 1.2 2-1.2 1.2-1.2 1.2v11.5l1 .6 1 .6v4.8l-1 .6-1 .6v50.5l-1.2 1.2-1.2 1.2H455v-2h-4.9l-3.1 6.7-3.1 6.8-.8 1.4-.7 1.5-1.2.4-1.2.4V938h2v-16.9l1-.6 1-.6v-11.5l1.1-1.1 1-1-.3-3.9-.3-3.9-2.5-.3-2.5-.3-1.2 2.8-1.3 2.7v3.5l-1 .6-1 .6v6.9h-2v4h-2v8.9l-1 .6-1 .6v4.5l-1.2 1.2-1.2 1.2h-6.5l-.6 1-.6 1h-53.5l-2.7-1.3-2.7-1.2v-4.4l1-.6 1-.6v-8.7l-1.2-.5-1.3-.5 1.5-1.1 1.5-1-1.2-2.1-1.3-2v-7.9l1-.6 1.1-.7-1-1.2-1.1-1.2 1.1-1.1 1.1-1.1-1.1-.6-1.1-.7V892h2.4l-1.2-1.2-1.2-1.2v-12.5l1-.6 1-.6V869h-2v-44h2v-16.9l-1-.6-1-.6V802z"/><path d="M586.7 662h-.5l-1.1 1.4-1.1 1.3 1.5 1.3 1.5 1.2 1.5-1.2 1.4-1.2-1.4-1.4-1.4-1.4zM259 664h-2v5h4v-5zm34 0h-.8l-1.1 1.4-1.1 1.3 1.5 1.3 1.5 1.2 1.5-1.2 1.5-1.3-1.1-1.3-1.1-1.4zm33.4 0H325v2.5l.9 1.4.9 1.5 1.6-1.3 1.6-1.4-1.1-1.3-1.1-1.4zm65.6 0h-4v3h8v-3zm90.1 0h-1.9l-1.2 1.5-1.2 1.5h6.2v-3zm212.3.3-1-.3-1.1 1.1-1 1 1.1 2.5 1.1 2.4h1.3l1.3-1.6 1.3-1.6-1-1.6-1-1.6zM176.9 666H175v2.5l2.5 1.2 2.5 1.1.6-.9.6-1-1.2-1.4-1.2-1.5zm345.1 0h-2v3h4v-3zm211.5.3-1.1-.3-1.2 1.2-1.2 1.2 1.1 1.3 1.1 1.3h2.9l-.3-2.2-.3-2.1zm26.7.9-3.2-.3v1.7l1.2 1.2 1.2 1.2h4.7l-.3-1.8-.3-1.7zm-517 28.8H242v8h-1.5l-1.2 2.7-1.3 2.7v7.1l2.7 1.3 2.7 1.2 1-1 1-1h6.2l2.7-1.3 2.7-1.2v-6.1l-6.3-6.2-6.3-6.2zm3.7 10h.6l1.3 2 1.3 2.1-.6.9-.6 1h-4l-.5-1.5-.6-1.5 1.2-1.5 1.2-1.5zm-106.8-8h-1l-.6 1-.6 1 .6 1 .6 1h4.9v-1.1l-1.4-1.5-1.5-1.4zm195.9 2h-2v1.1l1.4 1.5 1.5 1.4h1.1v-4zm-31.5 12h-2.4l-.5.8-.4.8-.2 11.4-.2 11.5.1 1.7.1 1.8h4v2h3.9l.6-1 .6-1 2.2-.1h2.2l3-1.8 3-1.7.3-3 .3-2.9-4.1-4.3-4-4.2v-1.9l-2.7-1.3-2.8-1.3-.3-2.8-.3-2.7zm7.1 16.5 3.4 3.4v2l-3.1 1.5-3.1 1.6-.9-.6-.9-.5v-9.6l.6-.6.6-.6zm28.5-14.5H338v3h1.8l1.2-1.5 1.2-1.5zm-171.2 3h-.6l-1.4 1.7-1.4 1.8-1.2 2.2-1.3 2.3v8h-2v7h3.9l.5-.9.6-.9 5-.7 5-.7.6-.9.5-.9h4.7l1.2-1.5 1.2-1.4-.4-1.8-.3-1.7-2.4-1.2-2.3-1.2-4.7-4.6-4.7-4.6zm-.6 6h1.3l2.9 3 2.8 3-1.8 2-1.9 2.1-2-.3-2.1-.3-.3-4.8-.3-4.7zm78.2 0H244v3.5l2.6 1.2 2.5 1.2.6-1.5.5-1.4-.6-1.5-.5-1.5zM144 737h-2v5h4v-5zm-4.7 17-.8.1-1.3 1.5-1.3 1.5.3 2.2.3 2.2h3l.3-3.8.3-3.7zm122 0-1.8.1-1.2 1.4-1.3 1.4v1.9l1.5 1.2 1.5 1.2 1.5-1.2 1.5-1.2V754zm263.3-58h-1.5l-.7 1.1-.6 1.1 2.1 2.1 2.1 2.1V696zm18.3 2h-.8l-.8 1.2-.8 1.3-1.2 2.4-1.3 2.3v6.8h2v3.6l1.3 2.7 1.2 2.7h3.1l2.6-1.2 2.5-1.2.9-2.1.9-2 2.5-.3 2.5-.4 1.8-1.5 1.7-1.6V708h-3.6l-1.4-2-1.4-2h-3.4l-.5-1.4-.6-1.4-3.2-1.6-3.2-1.6zm2.4 8h1.5l1.3 1.6 1.3 1.6-1.5.9-1.4.9H545v-1.8l-.6-1.6-.6-1.6zm42.5-7.8-1.8-.3v4.2l1.8-.3 1.7-.3v-3zm-72.3 3.8H513v4h2.6l1.2-1.2 1.2-1.2V702zm95 8H609v2h3v-2zm28 0H636v1.8l1.5 1.2 1.4 1.2 1.1-.7 1-.6V710zm69.9 0H707v5h1.8l1.2-1.5 1.2-1.4-.7-1.1-.6-1zm-18.7 15h-1.4l-.6.7-.7.6v3.4l2 1.8 2 1.8V725zm-104.4 4H584v1.1l1.4 1.5 1.5 1.4h2.1v-1.6l-1.2-1.2-1.2-1.2zm60.6 2h-.9v5h1.6l1.2-1.2 1.2-1.2-1.1-1.3-1.1-1.3zm-21.8 2h-1.6l-1.2 2.7-1.3 2.7v4.5l-2 3.6-2 3.5 1.8 3.2 1.8 3.1 1.7 1.1 1.7 1.1 2-1.3 2-1.2h5.7l1.6-1.8 1.7-1.9v-4l-2.4-4.7-2.4-4.8-2.8-2.9-2.8-2.9zm1.9 11h.9l1.4 2.8 1.3 2.8-1.2 1.2-1.3 1.2h-4l-.5-.9-.6-.9 1.6-3.1 1.5-3.1zm88.7-7H712v10.9l-1 .6-1 .6v5.6l1.8 1.6 1.9 1.7h2.3v-2h4.9l.6-1 .6-1h4.6l1.7-1.9 1.7-1.9-1.9-3.3-1.9-3.4-2.2-1.1-2.2-1.1-2.3-2.2-2.2-2.1zm5.8 9h1.5v1.1l-1.5 1.6-1.6 1.5-.6-.5-.5-.6.5-1.6.6-1.5zm-180.7-3.8-1.8-.3v4.2l1.8-.3 1.7-.3v-3zm-15.1 3.4-1.5-1.5-1.2 1.4-1.2 1.5 1.2 1.6 1.3 1.5 1.5-1.5 1.5-1.5zm229.5 7.2-1.2-1.2v4.8l1.2-1.2 1.2-1.2zM450.6 694h-.4l-1.2 1.6-1.3 1.5 1.6 1.7 1.7 1.6V694zm7.2 3h-.8v5h1.1l1.4-1.4 1.4-1.3-1.2-1.2-1.1-1.1zm-37.3 11H419v4h3v-4zm26.2 32h-.3l-1.2 1.2-1.2 1.2v5.6h3v-8zm-36.3 6.2-2-.3-.6.7-.7.6 1.4 1.4 1.4 1.4h3.2l-.3-1.8-.3-1.7zm-261 30.8H148v5h1.8l1.2-1.5 1.2-1.4-.7-1.1-.6-1zm79.1 0H227v4h3v-4zm117.3.2-1.8-.3v6.2l1.8-.3 1.7-.3v-5zM197.1 779h-.9l-1.1 1.4-1.2 1.4 1.1.7 1 .6 1-.6 1-.6V779zm170.9 2h-1v3h2v-3zm134.2 0h-.8l-1.2 1.2-1.2 1.2v2.6h1.6l1.2-1.2 1.2-1.2V781zm32.4 0h-.6v5h1.6l1.1-1.1 1.2-1.2-1.4-1.3-1.4-1.4zM296 783h-2.1l.3 1.7.3 1.8h3l.3-1.8.3-1.7zm126.7 1.1-1.3-1.1-1.2 1.2-1.2 1.2 1.1 1.3 1.1 1.3h2.8v-2.8zm229.5-1.1h-.8l-1.2 1.2-1.2 1.2v2.6h4v-5zM467 785h-2v3h4v-3zm208.9 0H674v2.8l1.5 1.2 1.5 1.2 1.5-1.2 1.5-1.3-1.1-1.3-1.1-1.4z"/></svg>