<svg xmlns="http://www.w3.org/2000/svg" version="1.0" viewBox="0 0 871 953"><path d="M376.4 75H367v2h-3.1l-1.5 1.4-1.4 1.5v4.2l1.4 1.5 1.5 1.4h44.2l1.5-1.4 1.4-1.5v-1.9l1.3-.5 1.2-.5-1.2-.1-1.3-.1v-4h-4v-2h-3.8l-.6 1.2-.6 1.3-.6-1.3-.6-1.2H397v2h-6.8l-.5-1.3-.5-1.2L388 76l-1.2 1.5-.5-1.3-.5-1.2zm81.9 2-18.8.1-1.2 1.4-1.3 1.4v4.2l1.4 1.5 1.5 1.4h2.9l.6 1.2.6 1.3.6-1.3.6-1.2h32.9l1.5-1.4 1.4-1.5V79h-4v-2zm40.7 9.1h-2.5l-2.3 2.5-2.3 2.4h2.1v3.1l2.5 2.4 2.4 2.5h2.2l1.5 1.4 1.4 1.5v2.1h2.1l1.5 1.4 1.4 1.5v2.2l2.5 2.4 2.4 2.5h3.1v4h4v4.1l1.4 1.5 1.5 1.4h1.1l6.5 6.5 6.5 6.5v1.1l2.5 2.4 2.4 2.5h1.1l6.5 6.5 6.5 6.5v1.1l1.4 1.5 1.5 1.4h4.1v2.1l-1.4 1.5-1.5 1.4H559v10h-2v21h2v4h3v2h4v-2h4v-37h-2v-10h2v-3h-3.2l-2.8-3-2.8-3h-1.3l-2.4-2.5-2.5-2.4v-1.2l-4.5-4.4-4.4-4.5h-3.2l-1.5-1.4-1.4-1.5V124h-2v-2l-6.5-6.5-6.5-6.5h-1.1l-2.4-2.5-2.5-2.4v-1.3l-3-2.8-3-2.8v-2.3l-1.4-1.5-1.5-1.4H507v-2h-2.6l-1.4-2-1.4-2zM350.3 88l-3.8.1L344 91l-2.5 2.9-.8.1h-.8l-4.4 4.5-4.5 4.4v1.2l-4.5 4.4-4.4 4.5h-1.2l-1.5 1.4-1.4 1.5v2.7l-2 1.4-2 1.4v1.7l-4.5 4.4-4.4 4.5H303v2h-4v4h-4v5h-4v4h-2v9h7.2l3.8-4 3.8-4h1.3l4.4-4.5 4.5-4.4v-1.2l3.5-3.4 3.4-3.5h1.2l4.4-4.5 4.5-4.4v-1.2l4.5-4.4 4.4-4.5h1.2l4.4-4.5 4.5-4.4v-1.7l2-1.4 2-1.4V95h2v-3h-2v-4zm72.7 33h-16v3h-4v7h3.8l.5 1.2.5 1.3 1.1-1.5 1.1-1.5 1.1 1.5 1.1 1.5.5-1.3.5-1.2H430v2h10.8l.6 1.2.6 1.3.6-1.3.6-1.2h3.8v-4.1l-2.5-2.4-2.4-2.5H439v-3zm-37.4 3H384v2h-4v2h-5v2h-3.6l-1.4 2-1.4 2h-2.7l-2.4 2.5-2.5 2.4v2.1h-2.1l-2.4 2.5-2.5 2.4v2.9l-1.2.5-1.3.5 1.3.1 1.2.1v4h6.2l2.8-3 2.8-3h2.4l2.8-3 2.8-3h3.3l1.5-1.4 1.4-1.5V137h3.1l3.4-3.5 3.5-3.4v-3.2l-1.4-1.5-1.5-1.4zm79.7 10.1h-2.8l-2.3 2.5-2.3 2.4 4.5 4.5 4.5 4.5h3.2l4.4 4.5 4.5 4.4v2.1h4v2h4.1l1.5-1.4 1.4-1.5v-1.9l1.3-.5 1.2-.5-1.2-.1-1.3-.1v-3.1l-1.4-1.5-1.5-1.4H485v-2h-3.1l-3.4-3.5-3.5-3.4V138h-4v-2h-3v-2zM285.8 160l-3.3.1-1.2 1.4-1.3 1.4v3.1h-2v3h2v5h-2v4h2v4.8l-1.2.5-1.3.5 1.3.1 1.2.1v10h2v3h7v-3h2v-30h-2v-4zm61 0h-2.4l-1.4 2-1.4 2H339v5.6l-2 1.4-2 1.4v6.6h-2v13h9v-4h2v-6h2v-7h2v-4h2v-4h2v-4.1l-1.4-1.5-1.5-1.4zm149 4.1h-1.3l-2.3 2.5-2.3 2.4h2.1v4h2v5h2v3.1l3.5 3.4 3.4 3.5h3.2l1.5-1.4 1.4-1.5V179h-2v-5h-3v-3.1l-3.5-3.4-3.4-3.5zm16.8 26.9H509v30h-2v6.1l1.4 1.5 1.5 1.4h4.2l1.5-1.4 1.4-1.5V222h2v-28.1l-1.4-1.5-1.5-1.4zm-179 19H331v4.8l-1.2.5-1.3.5 1.3.1 1.2.1v10h2v8.1l1.4 1.5 1.5 1.4h5.2l1.5-1.4 1.4-1.5V231h-2v-8h-3v-10.1l-1.4-1.5-1.5-1.4zm-49.1 2H280v9h-2v22h2v4h8.1l1.5-1.4 1.4-1.5V215h-2v-3zm277.8 7-2.8.1-1.2 1.4-1.3 1.4V256h2v4.2l-4 3.8-4 3.8v1.3l-1.4 1.5-1.5 1.4H545v2h-2l-6.5 6.5-6.5 6.5v1.1l-2.5 2.4-2.4 2.5H524l-6.5 6.5-6.5 6.5v1.1l-2.5 2.4-2.4 2.5H505l-5.5 5.5-5.5 5.5v1.1l-2.5 2.4-2.4 2.5h-3.2l-2.4 2.5-2.5 2.4v3.7l2 1.4 2 1.4v2.6h5v-3h3.1l2.4-2.5 2.5-2.4v-2.2l1.4-1.5 1.5-1.4h3.1v-2h2.1l2.4-2.5 2.5-2.4V322l6.5-6.5 6.5-6.5h1.1l1.5-1.4 1.4-1.5V305l7.5-7.5 7.5-7.5h1.1l1.5-1.4 1.4-1.5V286l6.5-6.5 6.5-6.5h1.1l1.5-1.4 1.4-1.5V263h-2v-5h6v-3.8l1.3-.5 1.2-.5-1.2-.1-1.3-.1v-12h2v-7h-2v-6h2v-3h-2v-3.1l-1.4-1.5-1.5-1.4zm-56 17.1h-1.8l-2.2 2.4-2.3 2.4v4.7l-2 1.4-2 1.4v4.6h-2v7h7.6l1.4-2 1.4-2h2.6v-4h2v-5h2v-8.1l-1.4-1.5-1.5-1.4zM342.5 240h-.5v2h-3v10h3v3.2l3 2.8 3 2.8v2.8l2 1.4 2 1.4v1.7l2.5 2.4 2.4 2.5h8.1v-5.1l-2.5-2.4-2.4-2.5h-1.2l-1.5-1.4-1.4-1.5v-2.7l-2-1.4-2-1.4v-4.2l-2-1.4-2-1.4v-2.7l-2.5-2.4-2.4-2.5zm-51.9 19H289v8h-2v5.1l7 6.9 7 6.9v1.2l1.4 1.5 1.5 1.4h2.1v4h4v4h3.1l3.4 3.5 3.5 3.4v2.1h2.1l3.4 3.5 3.5 3.4v3.1h3.1l1.5 1.4 1.4 1.5v3.2l1.4 1.5 1.5 1.4h3.2l1.5 1.4 1.4 1.5v2.2l2.5 2.4 2.4 2.5h3.1v4h4v3h7v-3h2v-4.1l-2.5-2.4-2.4-2.5H358v-4h-3.1l-1.5-1.4-1.4-1.5V323l-5.5-5.5-5.5-5.5h-1.1l-2.4-2.5-2.5-2.4V305h-2v-3l-5.5-5.5-5.5-5.5h-1.1l-1.5-1.4-1.4-1.5v-1.2l-2.5-2.4-2.4-2.5h-2.3l-2.8-3-2.8-3h-1.3l-3.4-3.5-3.5-3.4V267h-2v-5.1l-1.4-1.5-1.5-1.4zm195.5 6H485v2h-4v2.1l-3.5 3.4-3.4 3.5H471v2h-3v2h-4v2h-3.1l-1.5 1.4-1.4 1.5v4.2l1.4 1.5 1.5 1.4h5.1v-2h5v-2h4v-2.1l2.5-2.4 2.4-2.5h2.7l1.4-2 1.4-2h1.7l2.4-2.5 2.5-2.4V270h-2v-2.1l-1.4-1.5-1.5-1.4zM368 274h-3v6.1l1.4 1.5 1.5 1.4h2.2l1.5 1.4 1.4 1.5v2.1h5v2h4v2h4v2h5.1l1.5-1.4 1.4-1.5V286h-4v-2h-4v-2h-3.6l-1.4-2-1.4-2H375v-2h-4v-2zm41.5 17H401v7h6v2h35.1l1.5-1.4 1.4-1.5V294h2.1l-1.5-1.5-1.5-1.5H433v2h-15v-2zm-5 44H390v2h-3.1l-1.5 1.4-1.4 1.5v2.2l1.4 1.5 1.5 1.4h34.2l1.5-1.4 1.4-1.5v-2.2l-2.5-2.4-2.4-2.5zm49.5 0h-2v2h-10.1l-1.5 1.5-1.5 1.5h2.1v4.1l1.4 1.5 1.5 1.4H464v-2h4v-5.1l-1.4-1.5-1.5-1.4H456v-2zM117.5 489H113v3h-2v81.1l-1.4 1.5-1.5 1.4H105v2h-7v2H86v3H73v2H62v2h-6v6.1l1.4 1.5 1.5 1.4H65v-2h10v-2h19v-2h25v-2h3v5h-6.1l-1.5 1.4-1.4 1.5v6.1h-2v77.8l-1.2.5-1.3.5 1.3.1 1.2.1v3h-2v24h2v3h6v-3h2v-13.9l1.8-.4 1.7-.5-1.7-.1-1.8-.1v-6h3v-4h17v-2h4v2h26.8l.6-1.3.6-1.2.6 1.2.6 1.3H183v-2h8v2h13v-2h13v2h97v30h2v3h-2v108h-2v4h-42v7h6v2h6v-2h5v2h33v3h5v-3h72v3h2v3h-2v17h-3v12h-2v9h-2v3h2v3.1l1.4 1.5 1.5 1.4h1.2l1.5-1.4 1.4-1.5V878h2v-13h2v-6h2v-7h2v-4h2v-8h2v-5h13v-2h4v2h5v2h27v-2h8v2h89v-6.1l-1.4-1.5-1.5-1.4h-19.9l-.6 1.2-.6 1.3-.6-1.3-.6-1.2H528v-51h-2v-3h2v-26h-2v-4h2v-11h-2v-20h2v-28h4v-2h36v2h6v-2h7v2h131v2h28.1l1.5 1.4 1.4 1.5V704h2.3l2 2.2 2 2.3.4-1.3.5-1.2h3.8v-17h2v-11h-2v-60.1l1.4-1.5 1.5-1.4h5.1v-2h7v-2h8v-2h11v-2h5.1l2.5-2.5 2.5-2.5H796v-5h-12v2h-17v3h-17v-3.6l2-1.4 2-1.4V535h2v-7h-2v-30h-8v4h-3v14.1l-1.4 1.5-1.5 1.4H621.2l-.6-1.3-.6-1.2-.6 1.2-.6 1.3H581v-2h-11v2h-4v-2h-12.8l-.6 1.2-.6 1.3-.6-1.3-.6-1.2H538v2h-8v-2h-4v2h-3v-2H331v-2h-42v2h-5v-2h-63v-2h-11v2h-6v-2h-6v2h-9v-2h-12v2h-3v-2h-49.1l-1.5-1.4-1.4-1.5V489zm65.4 40h60.9l.6 1.2.6 1.3.6-1.3.6-1.2h4.8v2h4v-2h6v2h120.8l.6 1.2.6 1.3.6-1.3.6-1.2h7.6l.6 1.2.6 1.3.6-1.3.6-1.2h4.8v2h8v-2h6v2h129v2h2.8l.5-1.3.5-1.2 1.2 1.5 1.2 1.5.5-1.3.5-1.2h5.8v2h7v-2h4v2h16.8l.6-1.3.6-1.2.6 1.2.6 1.3h147.6l.5 1.2.5 1.3 1.2-1.5 1.2-1.5.5 1.2.5 1.3h5.8v58h-4v2h-8v2h-13v3h-13v2h-8v5h3.6l1.4 2 1.4 2H714v-2h13v-2h16v-2h7v4.1l-2.5 2.4-2.4 2.5H743v57h-14v3h-2v-3H568.9l-1.5-1.4-1.4-1.5V665h-4v2l-1.7.1-1.8.1 1.8.5 1.7.4v4.9H407v-2h-5.8l-.5 1.2-.5 1.3-1.2-1.5-1.2-1.5-.5 1.2-.5 1.3h-2.6l-.6-1.3-.6-1.2-.6 1.2-.6 1.3H388v-2h-7.8l-.6 1.2-.6 1.3-.6-1.3-.6-1.2H238v-2h-4v-4h-13v4h-14.8l-.6 1.2-.6 1.3-.6-1.3-.6-1.2H130v-2h-8v-6h-3v-52h3v-3h-3v-5h3v-3h4v-2h8v-2h9v-2h8v-2h7v-2h8v-2h3.1l2.4-2.5 2.5-2.4V578h-19v2h-14v3h-26v-4h4v-2h3v-48zM126 588h2v3h-4v-3zm292 95h89v2h4v21h2v6l-1.2.1-1.3.1 1.3.5 1.2.5V735h-2v5h2v31h-2v3h2v3h-2v51h-11v2h-6v-2h-4v2h-6.8l-.5-1.3-.5-1.2-1.2 1.5-1.2 1.5-.5-1.3-.5-1.2H475v2h-7v-2h-61v-18h2v-13h2v-17h2v-11h-3.1l-1.5 1.4-1.4 1.5v5.1h-2v9h-2v8h-2v9h-2v8h-2v8h-3v6.1l-1.4 1.5-1.5 1.4h-61.2l-1.5-1.4-1.4-1.5V687h2v-4z"/><path d="M155.5 536H153v3h5v-3zm50.5 4h-2v2h-4v5h-2v12h-2v4.8l-1.2.5-1.3.5 1.3.1 1.2.1v4h12v-2h6.1l1.5-1.4 1.4-1.5v-6.2l-2.5-2.4-2.4-2.5h-1.2l-1.5-1.4-1.4-1.5V540zm1.3 16h.7v5h-4v-2.1l1.3-1.4 1.2-1.4zm317.5-14-1.3.1-1.2 1.4-1.3 1.4v5.1h5v-8zM387 544h-3v3.1l1.5 1.5 1.5 1.5 1.5-1.5 1.5-1.5V544zm52 0h-2v6h6v-3h-2v-3zm-111 3h-3v5h3.1l1.5-1.4 1.4-1.5V547z"/><path d="M479 547h-2v8h-80v-2h-3v2h-8v-2h-3.8l-.6 1.2-.6 1.3-.6-1.3-.6-1.2H371v2h-6v2h-4v2h-3v5h-2v76h-4v2h-54.1l-1.5-1.4-1.4-1.5v-85.2l-1.4-1.5-1.5-1.4H287v2h-2.1l-1.5 1.5-1.5 1.5h2.1v23.8l-1.2.6-1.3.6 1.3.6 1.2.6V595h-2v50h2v4h5v2h4v2h10v-2h3v2h8v-2h16.8l.6 1.2.6 1.3.6-1.3.6-1.2h3.8v2h11v7h6v-7h7v-2h5.1l1.5-1.4 1.4-1.5v-78.2l1.4-1.5 1.5-1.4h3.1v-2h98v2h9.1l1.5 1.4 1.4 1.5V647h3v4h4v2h76v3h4v-3h2.1l-1.5-1.5-1.5-1.5H568v-19h-2v-8h-2v-44h2v-15h-2v-4.1l-1.4-1.5-1.5-1.4H559v-2h-3.1l-2.4 2.5-2.5 2.4v79.2l-1.4 1.5-1.5 1.4h-47.2l-1.5-1.4-1.4-1.5V625h-2v-3h2v-62.1l-3.7-3.6-3.7-3.7-.4 1.2-.4 1.2h-5.9l-1.5-1.4-1.4-1.5V547zm129.8 2-.3.1-1.1 1.2-1.1 1.3 1.3 1.2 1.3 1.2h3.1v-2.1l-1.4-1.5-1.5-1.4z"/><path d="m534.8 553-.3.1-1.3 1.4-1.3 1.5h6.2l-1.5-1.5-1.5-1.5zm107.5 0-1.8.1-1.2 1.4-1.3 1.4v2.1h3.1l1.5-1.4 1.4-1.5V553zm15.7 2h-3v4h-3v5h-2v6h-2v9h2v3h5v-5h8v-2h4v2h7v-4.1l-1.4-1.5-1.5-1.4h-1.2l-2.4-2.5-2.5-2.4v-3.7l-2-1.4-2-1.4V555zm55.5 0H712v2.1l1.5 1.5 1.5 1.5 1.3-1.3 1.4-1.4-1.3-1.2-1.3-1.2zm-459.9 2h-.6v8h1.1l1.5-1.4 1.4-1.5v-2.2l-1.4-1.5-1.5-1.4zm-86 2H166v3.1l1.4 1.5 1.5 1.4h3.1v-3.1l-1.4-1.5-1.5-1.4zm563.4 0h-2v4h4v-4zm-145.7 5-1.8.1-1.1 1.2-1.1 1.3 1.4 1.2 1.3 1.3 1.5-1.5 1.5-1.5V564zm-258 14-1.8.1-1.2 1.4-1.3 1.4v3.1h6v-6zm112.7 2h-3v1.1l1.4 1.5 1.5 1.4 2.8-.1 2.8-.1-1.2-.5-1.3-.5V580zm72 0h-3v6h8v-3h-2v-3zm-264.9 3H246v3h5.1l-1.5-1.5-1.5-1.5zm208.9 0h-4v3h8v-3zm224.6 2h-.6v5h4v-2.1l-1.4-1.5-1.5-1.4zm-459.3 2-1.8.1-1.2 1.4-1.3 1.4v2.7l-2 1.4-2 1.4v3.6h-3v3h-2v6h-2v9h2v4.1l1.4 1.5 1.5 1.4h2.1v2h6v2h7.1l1.5-1.4 1.4-1.5V612h-2v-6h-2v-4h-2v-7.8l1.3-.5 1.2-.5-1.2-.1-1.3-.1v-6zm-7.3 18h1v3h-2v-3zm4.6 2h1.5l1.5 1.4 1.4 1.5V623h-3.1l-1.5-1.4-1.4-1.5V607zM608 589h-2v3h4v-3zm-79.2 2-.3.1-1.2 1.4-1.3 1.4v1.2l1.5 1.5 1.5 1.5 1.5-1.5 1.5-1.5v-1.2l-1.4-1.5-1.5-1.4zM187 593h-2v3h4v-3zm488.4 2h-3.7l2.1 1.9 2.2 1.8v2.3h4v-3h2.1l-1.5-1.5-1.5-1.5zm-261.9 4H411v4h5v-4zm18.6 3H430v6h-2v6h-2v7h-2v9h17v-2h4v-2.6l-2-1.4-2-1.4V618h-2v-6h-2v-7.1l-1.4-1.5-1.5-1.4zm195.9 0h-1v6.1l1.4 1.5 1.5 1.4h3.1v-2.6l-2-1.4-2-1.4V602zm-294.4 10h-.6v5h1.1l1.3-1.2 1.3-1.2-1.3-1.3-1.3-1.3zm66.4 0h-1v11h-2v7h5.6l1.4 2 1.4 2h2.7l1.5-1.4 1.4-1.5V629h-8v-4h-2v-13zm128.8 2-.3.1-1.2 1.4-1.3 1.4v4.1h-3v3h4.1l1.5-1.4 1.4-1.5V617h2.1l-1.5-1.5-1.5-1.5zm76.2 2h-3v4h6v-4zm-290.2 5-.3.1-1.2 1.4-1.3 1.4v2.1h6v-2.1l-1.4-1.5-1.5-1.4zm316.5 4-1.8.1-1.2 1.4-1.3 1.4V638h-2v10h-2v10h8v-2h7v-3h6v-7h-2v-6h-2v-5h-2v-3.1l-1.4-1.5-1.5-1.4H633v-4zm2.2 16h2.5v7h-3v2h-2v-9zm36.5-16h-1v5h2.8l.4 1.2.4 1.2 1.6-1.4 1.5-1.4-2.3-2.3-2.3-2.3zm-146.9 2H521v5h4.1l1.3-1.2 1.3-1.2-1.3-1.3-1.3-1.3zm-365.6 2H155v2h-4v3h6.1l1.5-1.4 1.4-1.5V629zm303.5 6h-1v4h2v3.1l1.5 1.5 1.5 1.5 1.3-1.3 1.4-1.3-2.8-2.6-2.9-2.7V635zm206 0h-2v4h4v-4zm36 3h-4v3h4v2h9v-3h-5v-2zm-105.2 6-2.3.1-1.1 1.2-1 1.1 2.2 2.3 2.3 2.3h2.1v-7zm-349.3 2H246v5h5v-5zm-95.5 8h-2v3.1l2.5 2.4 2.4 2.5h3.2l1.5-1.4 1.4-1.5V657h-7v-3zm277.8 3-2.3.1-1.1 1.2-1.1 1.3 1.3 1.2 1.3 1.2h4.1v-5zm19.7 0H447v5h7v-5zm-66.5 2h-2v2.1l1.4 1.5 1.5 1.4h1.1v-5zm327 0h-1v2h-3v5h7v-3h-2v-4zm-28 4h-3v5h3.1l1.5-1.4 1.4-1.5V663zm-75.5 2H606v2.1l1.5 1.5 1.5 1.5 1.3-1.3 1.4-1.4-1.3-1.2-1.3-1.2z"/></svg>