<svg xmlns="http://www.w3.org/2000/svg" version="1.0" viewBox="0 0 969 1014"><path d="M460.4 64h-11.3l-.6 1-.6 1h-6.7l-.6 1.5-.5 1.5h-6.6l-7.2 3.5-7.1 3.6-1.2 1.4-1.2 1.5H411v7.5l2.6 1.2 2.6 1.2 2.1-1.2 2.2-1.2.8-1.3.8-1.2h2.7l1.2-1.5 1.2-1.5 3.1-1.5 3-1.5h4.6l.6-1 .6-1h4.8l.6-1 .6-1H466l2.3-1.2 2.2-1.1 1.5-.7 1.5-.7.3-1.7.4-1.7-1.2-1.4-1.2-1.5zm79.2 21h-1.3l-1.3 2.5-1.3 2.5 1.8 2 1.8 2 3 1.5 3 1.5h2.4l1.8 2 1.8 2h2.6l1.1 2 1 1.9 3.8 1.6 3.7 1.7 1.5.7 1.5.8 1 2 1.1 2.1 1.3 1.6 1.3 1.6 3.1 1.5 3 1.5h4.3l1.2-1.2 1.2-1.2v-3.7l-6.2-6-6.3-5.9-3-1.5-3-1.6-3.2-1.8-3.3-1.8-1.5-1.3-1.6-1.3-4.6-2.4-4.6-2.3h-4.8l-.5-1.5-.6-1.5zm-183.1 34.1-2-.1-5.2 5.9-5.3 5.9v2.1l-1.9 1.1-1.9 1-1.5 2.7-1.4 2.8-2.1 3.8-2.2 3.8v2.8l-2 3.6-2 3.6v4.8l-1 .6-1 .6v5l-1.5.5-1.5.6v4.8h7.5l2.3-4.8 2.2-4.8V163l1-2 1-2 1-2 1-2v-3.8l2.5-1.6 2.5-1.6v-2.3l4.8-5.6 4.8-5.6 2.7-5.7 2.8-5.7 1.2-.4 1.2-.5-2-1.6-2-1.5zM470 121h-13.8l-.6 1.5-.5 1.5h-9.8l-2.3 2.5-2.4 2.6 1 1.7 1.1 1.7 6.8.3 6.8.3 1.1-1.1 1-1h27.5l.6 1 .6 1H503v-2.7l-2.3-2.1-2.3-2.2h-4.3l-.6-1-.6-1h-8l-.5-1.5-.6-1.5zm51.6 13h-2.2l-1.2 1.2-1.2 1.2v5.6h2.7l1.8 2 1.8 2h3.3l4.4 4.6 4.5 4.6 2.3.9 2.2.9v3.9l4.5 3.7 4.5 3.6v2.5l2 1.8 2 1.8v5.3l1.2 1.2 1.2 1.2h6.6v-7.8l-1.5-1.2-1.6-1.3-1.9-4.2-1.9-4.2-1.6-1.3-1.5-1.2V157h-3.2l-.5-2-.5-2h-3.5l-1.6-1.8-1.7-1.9v-2l-2.3-2.1-2.3-2.2h-1.9l-2.8-3.5-2.8-3.5h-3.8l-.6-1-.6-1zm-113.2 6.1-2.9.2-4.7 5-4.8 5v1.3l-3 2.9-3 2.9v2.3l-1.6 3.1-1.5 3.2-1 .5-.9.6-2 4.5-2 4.4h-2v3.9l-1 .6-1 .6v4.8l-1 .6-1 .6v6.8l-1 .6-1 .6v5.5l1.2 1.2 1.2 1.2h5.1l1.3-2.7 1.2-2.7v-5.4l3-5.7 3-5.7v-3.5l1.5-3 1.5-3.1 1.5-1.2 1.5-1.2v-2.9l1.5-.5 1.5-.6v-2.4l6.8-7.5 6.7-7.4 1.1-2.1 1.2-2-1.3-1.7-1.2-1.7zm208.1 20.1-4-.3-1.4 3.1-1.3 3.2 1.1 1.1 1.1 1.1v6.5l1 .6 1 .6v11.8l1 .6 1 .6V200l1.3 2.2 1.2 2.3 1.4 1.1 1.4 1.1 2.3-1.1 2.4-1.1v-6.4l1-.6 1-.6v-15.8l-1-.6-1-.6-.1-4.7-.1-4.7-2.7-5-2.7-5zm-48.6 33.1-1.4-.3-1.7 1.4-1.8 1.3v15.1l1.5.6 1.5.5v31.2l-1.5.5-1.5.6v7.5l2.6 1.4 2.6 1.4 2.4-3 2.4-3v-10.4l1-.6 1-.6v-26.8l-1-.6-1-.6V201l-1.2-2.3-1.1-2.2-.7-1.5-.7-1.5zM376.5 234h-1.1l-1.2 1.2-1.2 1.2v6.5l1 .6 1 .6v4.8l1 .6 1 .6v5.8l1 .6 1 .6v4.9h1.9l1.5 3.2 1.6 3.1v2.4l2 1.8 2 1.8v2.4l2 1.8 2 1.8v2.3l4.7 4.7 4.7 4.7h4.2l1.2-1.2 1.2-1.2v-3.2l-4-3.9-4-3.9V276l-2.5-1.6-2.5-1.6v-2.4l-2.5-5.1-2.6-5.1-1.4-1.2-1.5-1.2V254l-.8-1.8-.9-1.7-1.1-2.2-1.2-2.3v-5l-1.2-2.2-1.3-2.3-1.5-1.2-1.5-1.2zm-53.3 10h-2.8l-1.2 1.2-1.2 1.2v11.5l1 .6 1 .6v4.8l1 .6 1 .6v5.8l1 .6 1 .6v6.9h1.9l1.5 3.2 1.6 3.1v2.4l2 1.8 2 1.8v2.2l4.5 2.2 4.5 2.1 2.5-1.1 2.5-1.2v-4.2l-2-1.8-2-1.8v-2.9l-2.5-2-2.5-1.9v-3.7l-2.1-4.4-2.2-4.3-.8-1.7-.9-1.8v-11.6l-3-3.4-2.9-3.5-.1-1.3V244zm301.4 13-1.1.1-2.5 2.2-2.5 2.2-2.1 4.5-2.2 4.5-1.6 3.7-1.7 3.7-.9.6-.9.6-1.7 3.7-1.6 3.7-1.4 3.2-1.5 3.2-1.7 1.3-1.7 1.3-1.2 2.2-1.3 2.2 2.9 2 2.8 2 5.9-6.2 5.9-6.2 1.3-2.2 1.2-2.3v-2.9l1.9-1.1 1.9-1 1.6-3.1 1.6-3.2v-3.6l1-.6 1-.6v-5.8l1-.6 1-.6v-4.5l-1.2-1.2-1.2-1.2zm-66.1 12H555v2.7l-1.5 2.9-1.4 3-2.6 2.4-2.5 2.3v2.2l-8.5 8.5-8.5 8.5v5.5h4.5l1.3-2 1.3-2.1 2.4-.9 2.5-1 1-2.5 1-2.5h4v-2.2l5-5.7 5-5.8v-2l2-1.8 2-1.8V269zm-138.4 30-1.6.1-1.7 1.3-1.8 1.3v1.1l3.7 4.1 3.6 4.1h2.5l1.2 1.5 1.3 1.5 3.6 1.6 3.6 1.6 1.7.9 1.8.9h3.9l.6 1 .6 1h6.8l.6 1 .6 1h10l.5 1.5.6 1.5h25.6l.6-1.5.5-1.5h7.7l1.2-1.2 1.2-1.2v-4.2l-1.2-1.2-1.2-1.2h-4.5l-.6 1-.6 1h-28.8l-.6-1-.6-1h-9.8l-.6-1-.6-1h-3.5l-5.2-2.6-5.2-2.6V305h-5.8l-1.2-1.5-1.2-1.5-3.1-1.5-3-1.5zm146 42h-2.9l-.6 1.5-.5 1.5h-2.9l-1.2 1.5-1.2 1.5-5.7 2.6-5.6 2.6-1.7.9-1.8.9-2.7.1h-2.8l-3 1.8-2.9 1.7-.6 2.5-.6 2.4-1.9.4-2 .3-1.1.9-1.2 1 1.2 2.4 1.1 2.5h2.3l5.7-3 5.7-3h3.7l.6-1 .6-1h3.7l.6-1.5.5-1.5h2.8l1.8-2 1.8-2h2.4l1.8-2 1.8-2h3.4l2.1-2.3 2.2-2.3V341zm-176.5 3h-3.1l-1.4 3.1-1.3 3 5.3 5.8 5.4 5.9 1.1.1 1.2.1 5.7 3 5.7 3h2.8l2.3 1.2 2.2 1.1 1.7.9 1.8.8h3.9l.6 1 .6 1h13.5l1.2-1.2 1.2-1.2v-4.2l-1.2-1.2-1.2-1.2h-5.5l-.6-1-.6-1h-7l-.5-1.5-.6-1.5H419l-1.8-.9-1.7-.9-3.7-1.6-3.7-1.7-.6-.9-.5-.9-5.4-2.6-5.4-2.6-1.8-2-1.7-1.9zm420.9 203H809v19.6l-1.1 1.1-1.1 1.1 1.1.6 1.1.7v13.8l-1 .6-1 .6v8.6l-1.8 1.6-1.9 1.7h-9.2l-.6-1-.6-1H513.4l-1.2-1.2-1.2-1.2-2 1.2-2 1.2h-29.6l-1.2-1.2-1.2-1.2-2 1.2-2 1.2h-55.6l-1.2-1.2-1.2-1.2-2 1.2-2 1.2h-3.9l-.6-1-.6-1h-15.8l-.6 1-.6 1h-7.8l-.6-1-.6-1-1.9 1.2-2 1.2-1.2-1.2-1.2-1.2H366l-2 1.2-2 1.3-2-1.3-2-1.2H191.4l-1.2-1.2-1.2-1.2-1.9 1.1-1.8 1.2-.9-.9-.9-.9-16.5-.3-16.5-.3-.3-17.4-.2-17.5-1.2-1.3-1.1-1.3-1.3 1.1-1.4 1.1v91.7l-3.3 2.4-3.2 2.4-3.2 1.4-3.3 1.4v1.4l-5.8 2.6-5.7 2.7-1.7.9-1.8.9h-2.8l-5.7 3-5.7 3H100v8h9.9l.6-1 .6-1h4.7l.6-1.5.5-1.5h6l.6-1 .6-1h4.8l.6-1 .6-1h4.8l.6-1 .6-1h5.8l.6 1 .6 1-1.5.6-1.6.6v2.6l1.5.6 1.5.5v4l1 .6 1 .6v48.8l-1 .6-1 .6v11.7l-2.5 1.6-2.5 1.6v8l2.5 1.6 2.5 1.6v34.4l1.2 1.2 1.2 1.2h2.6v-4.9l1-.6 1-.6v-28.6l1.8-1.6 1.9-1.7h31.9l1.1 1.1 1.1 1.1.6-1.1.7-1.1h7.5l1.2 1.2 1.2 1.2 2.4-1.4 2.5-1.3 1.5 1.2 1.4 1.2.7-1.1.7-1.1 1.2 1 1.2 1.1 1.2-1.2 1.2-1.2 1.2 1.2 1.2 1.2h12.5l.6-1 .7-1.1 1.4 1.2 1.5 1.2 1.1-1.1 1.2-1.2h6.2l1.2 1.2 1.2 1.2 2.5-1.4 2.5-1.4 1.2 1.2 1.2 1.2h11.2l1.1-1.1 1.1-1.1.6 1.1.7 1.1h5.5l1.1-1.1 1.1-1.1.6 1.1.7 1.1h106.6l1.6 1.8 1.7 1.9v137l-1.6 3.1-1.5 3.2h-8.7l-8.7.1-1.7 1.3-1.8 1.3v2.3h94.9l.6 1 .7 1.1 1.3-1.1 1.3-1.1.7 1.1.6 1h4.8l.6 1 .7 1.1 1.2-1 1.3-1.1.6.7.7.6v4.5l-3 5.7-3 5.7v3.3l-2 2.5-2 2.5v4.4l-1 .6-1 .6v9.9h5v-3.8l1.5-1.2 1.6-1.3 1.9-4.1 1.9-4.1 2-1.3 2.1-1.2v-2.7l1.6-3.1 1.5-3.2 1-.5.9-.6 2-4.4 2-4.5 3.1-3.5 3.1-3.5h5.7l.6 1 .6 1h4.5l1.1-1.1 1.1-1.1.6 1.1.7 1.1h96.7l1.1-1.3 1.1-1.3-1.2-1.2-1.2-1.2h-30.5l-1.5-3.2-1.6-3.1v-35.6l1-.6 1-.6v-15.5l-1.1-1.1-1.1-1.1 1.1-.6 1.1-.7v-41.5l-1.1-1.1-1.1-1.1 1.1-.6 1.1-.7v-36.6l1.8-1.6 1.9-1.7h121.2l.6 1 .6 1h21.5l1.1-1.1 1.1-1.1.6 1.1.7 1.1h80l2.4 1.6 2.5 1.6v3.7l1 .6 1 .6v4.5l-1.2 1.2-1.2 1.2 1.2 2 1.2 2v13h3v-93.6l1.1-1.1 1.1-1.1-1.1-.6-1.1-.7v-11.8l5.8-2.6 5.7-2.7 1.7-.9 1.8-.9h4v-1.9l5.3-2.4 5.2-2.5 5.2-2.3 5.3-2.4V661h-8.9l-.6 1-.6 1h-7.8l-.6 1-.6 1h-6.8l-.6 1-.6 1h-9.8l-.6 1-.6 1h-6.8l-.6-1-.6-1 2.4-.9 2.5-1 1.6-3.2 1.6-3.2V547zm-646.4 54h10.8l.6 1 .6 1h5.8l.6-1 .6-1h59.8l.7 1.1.6 1.1 1.1-1.1 1.1-1.1h47.5l.6 1 .6 1 1.9-1.2 2-1.2 1.2 1.2 1.2 1.2h7.5l.7-1.1.6-1.1 1.1 1.1 1.1 1.1h15.2l1.2-1.2 1.2-1.2 2 1.2 1.9 1.2.7-1.1.6-1.1 1.1 1.1 1.1 1.1h5.5l.7-1.1.6-1.1 1.1 1.1 1.1 1.1H386l2-1.2 2-1.2 1.2 1.2 1.2 1.2h174.5l.7 1.1.6 1.1 1.1-1.1 1.1-1.1h27.5l.6 1 .6 1h20.8l.6-1 .6-1h6.8l.6 1 .6 1h169.5l.9.9 1 .9 3 .4 3 .3.3 25.9.2 25.9-1.6 1.9-1.7 1.8h-3.6l-.6 1-.6 1h-3.8l-3.6 2-3.6 2h-3.8l-3.6 2-3.6 2h-3.6l-1.3 2.5-1.3 2.4 1.3 1.6 1.2 1.5h13.7l.6-1 .6-1h4.5l1.1-1.1 1-1 3.4.3 3.4.3.3 3.4.4 3.4 2.4 2 2.5 2-1 1-1.1 1.1 1.1 1.3 1.1 1.3-1.1 1.3-1.1 1.4-.2 26.9-.3 26.9-93.3.3-93.3.2-.5-1.5-.6-1.5h-2.6l-.6 1.5-.5 1.5h-7.2l-.5-1.5-.6-1.5h-5.6l-.7 1.7-.6 1.8-1.4-1.8-1.3-1.8-.6 1.6-.5 1.5h-3.2l-.5-1.5-.6-1.5h-9.1l-1.3 1.8-1.3 1.7-.6-1.8-.7-1.7h-32.6l-.6 1.5-.5 1.5h-3.2l-.5-1.5-.6-1.5H413.1l-.7-1.1-.6-1.1-1 1-1.1 1.1-1.8-1.2-1.9-1.1-1.2 1.2-1.2 1.2h-4.5l-.6-1-.6-1H387l-2 1.2-2 1.2-1.2-1.2-1.2-1.2h-83.5l-.7-1.1-.6-1.1-1.1 1.1-1.1 1.1h-7.5l-.6-1-.6-1H277l-2 1.2-2 1.2-1.2-1.2-1.2-1.2h-5.5l-.7 1.1-.6 1.1-1.1-1.1-1.1-1.1h-63.2l-1.2-1.2-1.2-1.2-1.2 1.2-1.2 1.2-1.2-1.1-1.2-1-.7 1.1-.6 1h-8.8l-.6-1-.6-1h-13.8l-.6 1-.7 1.1-1.2-1-1.2-1-5.9-.3-6-.3-.3-34.7-.2-34.7 3.7-1.7 3.8-1.6 10.5-5 10.5-5 2.5-1.2 2.5-1.1 2.2-2.5 2.2-2.5.1-1.3V648h-8.9l-.6 1-.6 1h-5.8l-.6 1-.6 1h-4.8l-.6 1-.6 1h-4.7l-.6 1.5-.5 1.5h-6l-.6 1-.6 1h-6.8l-.6 1-.6 1H139l-2 1.2-2 1.2-1.1-1.1-1.2-1.2 2.4-1 2.5-.9 1.3-1.6 1.3-1.6h5.4l2.2-4.1 2.2-4.1v-43.1l1.7-1.9 1.6-1.8zm259.4 154h29.1l1.2 1.2 1.2 1.2 2-1.2 1.9-1.2.6 1 .6 1h4.8l.6-1 .6-1h11.5l1 1 1 1 39.4.2 39.5.3.3 68 .2 68-1.2 2.3-1.2 2.2 1.2 1.2 1.2 1.2-1.7 1.8-1.6 1.8h-58.6l-3.6-2-3.6-2h-4.8l-.7 1.1-.6 1.1-1.1-1.1-1.1-1.1 1.3-2.7 1.3-2.8.9-1.7.9-1.8v-3.9l1-.6 1-.6v-4.8l1.3-.8 1.2-.8 1.1-2.5 1.1-2.5 2.2-4.3 2.1-4.4V862h-5v2.6l-2.9 2.2-2.9 2.1-1.6 3.2-1.6 3.2v2.5l-1.5 1.2-1.6 1.3-1.9 4.2-1.9 4.2-1.6 1.3-1.5 1.2v3.6l-2.5 1.6-2.5 1.6v2.7l-2.1 1.9-2 1.8-1.9-1.2-2-1.2h-39.9l-.6 1-.6 1h-5.8l-.6-1-.6-1h-17.2l-1.9-1.7-1.8-1.6V769.1l1-.6 1-.6v-11.6l.7-.6.6-.7z"/><path d="m292.8 618.1-1.3.1-2.6 2.8-2.5 2.8 1.7 1 1.7 1.1 2.1-2.3 2.1-2.2V618zm41.8-.1h-3.3l-2.3 4.5-2.3 4.6 1.1 1.1 1.2 1.2V725h7v-84.9l1-.6 1-.6v-5.6l.6-.6.6-.6 2.4 1.6 2.4 1.5v3.7l1 .6 1 .6v4.8l1 .6 1 .6v61.8l-1 .6-1 .6v8.7l1.3 2.5 1.3 2.5 3 3.3 3.1 3.4 2.1 1.2 2.2 1.3h4.9l.6-1 .6-1h3.8l4.5-4.8 4.6-4.7v-6.6l1.5-.5 1.5-.6v-5.7l1-.6 1-.6v-63.8l1-.6 1-.6v-5.3l2.7-2.8 2.7-2.8h15l2.8 2.7 2.8 2.7v3.5l3.5 2.8 3.5 2.8v67.2l2.4 4.7 2.4 4.8 2.8 2.9 2.8 2.9h21.5l.6-1 .6-1h3.7l1.3-1.6 1.3-1.6 2.2-.8 2.2-.9 2.7-5.8 2.7-5.8.9-1.7.9-1.8v-59.1l1.5-.5 1.5-.6v-4l4.1-4.9 4-4.8 3.1-1.6 3.1-1.5h12.4l1.4 1.7 1.4 1.8 1.3 2.2 1.2 2.3v2.8l3.5 2.6 3.5 2.7V717h3.1l.6 1.7.6 1.8 3 3.2 3.1 3.3h2.7l.5 1.5.6 1.5h22.6l.6-1.5.5-1.5h4.8l1.8-2 1.8-2h2.2l5.8-5.1 5.7-5.1v-3.7l-1-.6-1-.6v-15.5l1.2-1.2 1.2-1.2-1.2-2-1.2-2v-3.9l1-.6 1-.6v-4.5l-1.2-1.2-1.2-1.2 1.1-1.1 1.2-1.2-1.2-1.8-1.1-1.9 1.2-1.2 1.2-1.2v-4.2l-1.2-1.2-1.2-1.2 1.2-2 1.2-2v-22l2.3-.9 2.3-.9 1.3-1.6 1.3-1.6 4.7.1h4.6l2.9 1.8 2.9 1.7.7 1.4.7 1.5 1.1 2.2 1.2 2.3v47.9l-1 .6-1 .6v7.8l1 .6 1 .6v13.8l1 .6 1 .6v5.9l4.5 4.1 4.5 4.2v3.3l1.1 1.1 1 1 2.5-1.1 2.4-1.1v-3.4l1-.6 1-.6v-7l1.5-.5 1.5-.6V641l.9-1.8 1-1.7.6-2 .6-2 1.9 2.5 2 2.5v57.4l-1 .6-1 .6v18.5l1.3 2.7 1.2 2.7h6.5v-11.9l-1-.6-1.1-.7 1.1-1.3 1.1-1.3-1-.7-1.1-.6 1.2-1.9 1.2-2-1.2-1.2-1.2-1.2v-34.2l1.1-1.1 1.1-1.1-1.1-.6-1.1-.7v-5.8l1-.6 1-.6v-4.8l-1-.6-1-.6v-15.8l1-.6 1-.6v-3.5l-1.2-2.7-1.3-2.7h-5.4l-3.8 2.1-3.8 2.1-2.2 2.1-2.3 2v3.7l-.9 1.8-.9 1.7-1.3 2.8-1.3 2.7 1.2 1.2 1.2 1.2V705l-.9 1.8-1 1.7-.6 2-.6 2-1.9-2.5-2-2.5-.1-38v-38l-1.7-2.9-1.7-2.9-3.5-1.8-3.5-1.9-1.7-2-1.6-2H578v1.9l-3.7 1.7-3.8 1.7-2.2 2-2.3 2v2.5l-2.5 1.6-2.5 1.6v68.9l-1 .6-1 .6v7.5l-3.7 3.4-3.8 3.5-2.2 1.3-2.3 1.2h-8.6l-1.2 1.2-1.2 1.2-2-1.2-2-1.2h-3l-2.3-1.2-2.2-1.1-1.5-.7-1.4-.7-1.7-2.9-1.8-2.9v-33.7l-.1-33.6-2.1-4.4-2.2-4.3-.8-1.7-.9-1.8v-3.8l-3.2-2.7-3.2-2.7-2.3-.9-2.3-.9v-2h-16v1.9l-5.7 2.7-5.8 2.7-3.2 2.4-3.2 2.3-1.6 3.8-1.7 3.7-.9 1.7-.9 1.8v59.7l-1.5 3-1.5 3.1-1.5 1.2-1.5 1.2v3.5l-1.8 1.6-1.9 1.7h-3.2l-.6 1-.6 1h-6.5l-1.2 1.2-1.2 1.2-2-1.2-2-1.2h-2.6l-3.7-3.8-3.7-3.8v-15l1.2-1.2 1.1-1.1-1.2-1.5-1.2-1.4 1.1-.7 1-.6v-4.8l-1.1-.7-1.1-.6 1.1-1.1 1.1-1.1v-13.5l-1-.6-1-.6v-13.8l1-.6 1-.6v-4.8l-1-.6-1-.6v-6.7l-2-.5-2-.5v-5.9l-2-1.8-2-1.8V625h-2.9l-3.6-2-3.6-2h-14.8l-.6 1-.6 1h-2.2l-2.2.1-3.5 3.2-3.5 3.3-1.4 3-1.3 2.9-.9 1.7-.9 1.8v5.9l-1 .6-1 .6v4.8l1 .6 1 .6v7.8l-1 .6-1 .6v4.8l1 .6 1 .6v11.8l-1 .6-1.1.7 1.1 1.3 1.1 1.3-1.1.7-1 .6v11.8l1 .6 1 .6v6.6l-2 1.8-2 1.8v4.7l-1.2 2.3-1.3 2.2-2.4 2.7-2.5 2.8h-5.3l-1.6-1.8-1.7-1.9v-80.2l-1-.6-1-.6v-5.5l-5.3-5.2-5.3-5.2h-3.5l-.5-1.5-.6-1.5zm-106.2 5.1-1.9.1 1.3.5 1.3.5.6-.6.6-.6z"/><path d="M370.5 623h-1.1l-1.2 1.2-1.2 1.2 2.2 2.3 2.1 2.3h2.7v-1.6l-1.2-2.7-1.3-2.7zM194 625h-3v2.6l1.2 1.2 1.2 1.2h3.6v-5zm341.7 0h-1.3l-1.2 1.2-1.2 1.2v2.6h2.6l1.2-1.2 1.2-1.2V625zm-229.8 4h-.9v3h4.2l-1.2-1.5-1.2-1.5zm416.6 0h-.5v1h1v-1zm40 0h-.5v1h1v-1zm-213.1 2h-.4v3h3.2l-1.2-1.5-1.2-1.5zm231.1 0H779v3h3v-3zm-533 2h-1.1l-1.2 1.2-1.2 1.2v3.5l-1 .6-1 .6v4.8l-1 .6-1 .6v4.8l-1 .6-1 .6v3.6l-1.8 1.6-1.9 1.7H231v3h17.9l.6-1 .6-1h13.7l1.1-1.4 1.2-1.5-.3-2.8-.3-2.8-2.4-1.1-2.3-1.2-4.4-4.3-4.4-4.3v-4.9l-1.7-1.3-1.8-1.3zm0 12h1.1l3.4 2.8 3.3 2.9-.6 1.6-.6 1.7h-3.9l-.6 1.5-.5 1.5h-2.9l-1.6-2.4-1.6-2.5 1-.6 1-.6v-4.6l.7-.6.6-.7zm199-12H445v4h3v-4zM231 635h-2v6h4v-6zm51.5 0H280v4h2.6l1.2-1.2 1.2-1.2V635zm413.1 3-2.1.1-1.5 1.2-1.5 1.2-1.2 2.3-1.3 2.2v5.9l-1 .6-1 .6v5.9h9.9l.6 1 .6 1h4.8l.6 1 .6 1h2.2l2.2-.1 1.8-1.3 1.7-1.3v-2.1l-1.5-.6-1.5-.5v-2.8l-2.4-4.7-2.4-4.8-2.8-2.9-2.8-2.9zm3.4 10.5 2 1.8-.6.8-.5.9h-2.8l-.6-1-.7-1.1.6-1.6.6-1.6zm-40.3-7.3-1.2-1-1.8 1.2-1.7 1.3v1.7l-2 2.1-2.1 2.2 1.4 1.1 1.3 1.1 3.7-3 3.7-3v-2.7zM534.5 646h-.5v1h1v-1zm45.4 4H578v8h4v-3.9l1-.6 1.1-.7-1.2-1.4-1.1-1.4zm98.8 8-.5-1.5-.1 2.7-.1 2.8h3.2l-.9-1.3-1-1.2zm76.8-1H754v3h3v-3zm-470.7 2h-.3l-1.2 2.7-1.3 2.7v1.6h3v-7zm80.7 0H363v3h5v-3zm406 0h-.5v1h1v-1zM396 662.2l-2-1.2v5h4v-2.5zm40.1.8h-2l-.8 1.2-.8 1.3-1.2 2.4-1.3 2.3v4.8h6v-7.9l1-.6 1-.6V663zm65.5 0h-1.4l-1.2 1.5-1.2 1.5h5.2v-3zm-51.9 4.7-.5-1.2v6l.5-1.8.5-1.7zm91.1-.7h-.3l-1.1 2.4-1.1 2.3 1.4 1.9 1.3 1.8V667zm13.9 2h-1.3l-1.1 1.1-1.2 1.2 1.2 1.8 1.1 1.8 1.3-1.7 1.2-1.7.1-1.3V669zm156.3 2.2h-2.5l1.3.5 1.2.5 1.3-.5 1.2-.5zM279.5 676H278v7h3v-7zm-87.8 4h-2.3l-1.2 1.2-1.2 1.2v2.1l2.7 1.2 2.7 1.3h4.6v-2.8l-1.5-.6-1.5-.5V680zm30.8 2H221v3.2l1.5-1.2 1.5-1.2v-.8zm435.1 2-.1.1-1.9 1.4-2 1.5h6.6l-1.2-1.5-1.2-1.5zm-216.2 2h-.4v3h3.2l-1.2-1.5-1.2-1.5zm143.1 2H583v3h3v-3zm-278.6 2h-.9l-1.6 2.5-1.6 2.5h-5l1.2 1.5 1.2 1.5h4.3l3-2.4 2.9-2.4-1.3-1.6-1.3-1.6zm94.9 1.4-1.3-1.3-1.7 1.3-1.8 1.3v5.3h3.5l1.3-2.7 1.2-2.7zM545 690h-3l1.2 2 1.3 2h3.5v-4zm190 5.3-3.5-.3-1.7 1.4-1.8 1.3v4.2l-1 .6-1 .6V717h29v-2.4l-2.1-2.2-2-2.2 1.2-2 1.3-2-1.4-1.7-1.3-1.6-1.1 1.1-1 1h-3.3l-2.3-2.5-2.3-2.4-1.1-2.3-1.1-2.3zm1.4 8.7h.9l1.8 1.6 1.8 1.6-1.6 2.4-1.5 2.4h-2.6l-1.5-2.4-1.6-2.3 1.7-1.7 1.6-1.6zm-533.7-2.8-2.3-2.2-1.2 1.2-1.2 1.2v4.7l-1.5.5-1.5.6v7.7l-1 .6-1 .6v4.8l-1 .6-1.1.7 1.2 1.4 1.1 1.4H218v-3.8l-1.3-2.3-1.2-2.4-5.3-5.4-5.2-5.4v-2.4zm1 12 1.8.3v6h-4l-.3-1.8-.4-1.8.6-1.5.6-1.5zM493.5 699H492v2.2l-4.5 4-4.5 4v11.7l-1 .6-1 .6v9.9h6.9l.6-1 .6-1h5.7l.6-1.5.5-1.5h5.1v-8.8l-1.5-1.2-1.5-1.2-1.5-3.1-1.5-3V699zm-2.3 18.2 2.3.3v6h-5l-.3-1.8-.4-1.8.6-1.5.6-1.5zM253 705h-3.3l.4.3.4.3 1.6 1.2 1.6 1.2 1.3-1.5 1.2-1.5zm430.5 2H682v3.8l1.5 1.2 1.5 1.2V707zm-389 3.6-1.5-2v6.4h3v-1.3l-.1-1.2zm283.2-1.6h-1.2l-1.2 1.9-1.2 1.9 1.3 1.1 1.2 1.1 1.2-1.2 1.2-1.2V709zm-323.3 7.1-1.9.1 1.3.5 1.3.5.6-.6.6-.6zm148.1 1.9H401v3h3v-3zm366 0H767v3h3v-3zm-588.7 4.1-.3-2-1.7 1.3-1.8 1.3v4.3h1.8l1.2-1.4 1.2-1.5zm517.8 2-2.6-2.4v3.1l1.5 1.2 1.4 1.2 1.1-.4 1.1-.3zm-110.9-.1h-1.5l-1.2 1.5-1.2 1.5h3l1.2-1.5 1.2-1.5zm-341.2 2H244v4h3v-4zm531 2H775v4.2l1.5-1.2 1.5-1.2V728zM653 731h-3v3h6v-3zm-238 2h-2v5l2-1.2 2-1.3V733z"/></svg>