<svg xmlns="http://www.w3.org/2000/svg" version="1.0" viewBox="0 0 932 1043"><path d="M317.1 51h-7.9l-1.2 1.5-1.3 1.5-2.6 1.3-2.6 1.2-.3 2.8-.3 2.8-1.5.6-1.4.5v7.6l1.5.6 1.5.5v4.8l2 1.8 2 1.8v2.4l1.9 1.7 2 1.8.3 2.1.3 2 3 1.7 3 1.6 1 2.2 1 2.2h2.8l25.2 25.5 25.3 25.5h3.1l.6 1 .6 1h10.8l.6-1 .6-1h3.6l2.1-2.3 2.2-2.3v-3.3l1-.6 1-.6v-12.8l1-.6 1-.6V119l-1.2-2-1.2-2 1.2-1.2 1.2-1.2.1-17V78.5l1.8-2.9 1.7-3 3-1.7 2.9-1.8h5.3l5.2-.1 2.3 1.2 2.2 1.3 2.9 2.3 3 2.4 2.3 4.6 2.3 4.5v6.3l1.2 1.2 1.2 1.2-1.2 2-1.2 2v16.6l1.2 1.2 1.2 1.2-1.2 2-1.2 2v18l.9 1.8 1 1.7.5 1.6.5 1.7 3.2 1.6 3.2 1.6h4.6l.6 1 .6 1h4.8l.6 1 .6 1h4.8l.6-1 .6-1h10.6l3-1.5 3.1-1.5 1.2-1.5 1.2-1.5h3.8v-3.7l2-1.8 2-1.8V84.1l1-.6 1-.6v-6.7l1.6-1.3 1.6-1.3.9-2.3.9-2.3h2.8l.6-1.5.5-1.5h9.7l2.5 3.2 2.4 3.3 1.2 2.4 1.3 2.3V83l2.5 1.6 2.5 1.6v53.1l2.5 3.3 2.5 3.2 3.1 1.6 3.2 1.6h13.5l5.8-3.1 5.9-3.1.8-1.4.8-1.4h2.6l24.2-24.2L610 91.6v-2.1l2.5-2.4 2.5-2.3v-4.7l1-.6 1-.6v-4.8l-1-.6-1-.6v-5.8l-2.9-2-2.9-2.1h-4.1l-.6-1-.6-1h-4.8l-.6-1-.6-1h-7.8l-.6 1-.6 1H584v5h12.1l.5 1.5.6 1.5h2.2l2.8 2.7 2.8 2.7v6.3l-7.3 7.5-7.4 7.6-1.8 3.8-1.8 3.8-16.1 16.1-16.1 16.1-5.4 2.7-5.5 2.7h-10.3l-1.6-1.8-1.7-1.9V74.4l-3-2.9-2.9-2.8-1.6-3.4-1.7-3.4-1.6-.5-1.7-.5-1.7-1-1.8-.9h-5.6l-1.1-1.1-1.1-1.1-.6 1.1-.7 1.1h-6.5l-5.3 2.6-5.3 2.7-.5 1.6-.5 1.6-1.4 3.1-1.4 3.2-1.4.5-1.4.6-1.6 3.2-1.6 3.2v27.6l1 .6 1 .6v13.5l-1.1 1.1-1.1 1.1 1.1.6 1.1.7v6.5l-3.8 3.7-3.8 3.7h-6.2l-.6 1.5-.5 1.5h-8.2l-.5-1.5-.6-1.5h-3.7l-4.3-2.4-4.3-2.4-.3-3.3-.4-3.3 1.7-1.2 1.6-1.2-1.6-.6-1.5-.5V79.2l-1.3-2.4-1.2-2.4-4.9-5.7-4.8-5.7h-3.7l-.6-1-.6-1h-4.8l-.6-1-.6-1h-11.6l-1.8 2-1.8 2h-2.4l-1.8 2-1.8 2h-2.3l-2.2 4.1-2.2 4.1v5.9l-1.5.5-1.5.6V133l-1.2 2.3-1.3 2.2-1.4 1.7-1.4 1.8h-4.3l-2.9-3-2.9-3h-2.4l-2.7-1.4-2.7-1.4-18.5-18.6L328.8 95h-2.4l-2.7-2.8-2.7-2.8V87l-1.2-2.2-1.3-2.2-2.2-1.9-2.3-1.8v-2.6l-2-1.8-2-1.8V68l-1.2-2-1.2-1.9 1.8-2 1.9-2.1h14.6l3.6 2 3.6 2h2.8l1.9 2.5 2 2.5h3.5l1.3-1.8 1.3-1.7.1-2.3V61h-2.6l-2.9-3-2.9-3h-5.5l-.6-1-.6-1h-4.8l-.6-1-.6-1zm-41.4 52.1h-2.2l-1.8 1.2-1.8 1.2-4.9 4.6-5 4.7v6.1l-1 .6-1 .6v11.8l-1 .6-1 .6v9.9h2.3l2.2-.1 1.8-1.3 1.7-1.3v-7.2l1-.6 1-.6v-8.8l1-.6 1-.6v-5.6l1.8-1.4 1.7-1.5 2.8-1.4 2.7-1.4 1.2 1.2 1.2 1.2h3.3l1.8 2 1.8 2h1.7l21.6 21.4 21.5 21.4 1.5.6 1.4.5v2.9l1.5.6 1.5.5v2.8l2 1.8 2 1.8v7.4l-1.8 1.6-1.9 1.7h-3.2l-.6 1-.6 1h-8.6l-1.8 2-1.8 2h-9.6l-.6 1-.6 1h-30.5l-1.2-1.2-1.2-1.2-2 1.2-2 1.2h-5.9l-.6 1-.6 1h-3.5l-3.9 4.7-4 4.8-1.2 2.3-1.3 2.4v20.4l.9.9.9 1 .4 2.9.3 3 3 1.7 3 1.8h35.2l35.2.1.6 1 .6 1h4.9l2.3 1.2 2.2 1.3 1.8 1.4 1.7 1.4v11.6l-1 .6-1 .6v4.6l-1.7 1.4-1.8 1.4-2.2 1.2-2.3 1.3h-12.8l-.6 1.5-.5 1.5h-16l-.6 1-.6 1h-34.8l-.6 1-.6 1H262v5.9l-2 3.6-2 3.6v10.8l-1 .6-1 .6v5.8l1 .6 1 .6v3.5l1.3 2.7 1.2 2.7h2.4l3.6 2 3.6 2h3.8l.6 1 .6 1h20l.5 1.5.6 1.5h25.7l3.6 2 3.6 2h10.6l1.6 1.8 1.7 1.9v2.9l-.1 2.9-2.9 3.5-3 3.4v2.4l-2.5 1.6-2.5 1.6v2.6l-2.8 2.7-2.8 2.7h-1.6l-1.9 2.2-2 2.3-.9 2.2-1 2.3h-3.5l-10.2 10.5-10.2 10.5h-2.9l-5 5.5-5.1 5.5h-2.8l-1.7 1.9-1.7 1.9-3-1.5-2.9-1.4V385h-5v3.1l-1.5.5-1.5.6v19l2.3 1.9 2.2 1.9 3.3 1.6 3.3 1.7 1.2-1.2 1.1-1.1h4.6l2.3-1.3 2.2-1.2 2.7-2.4 2.7-2.4 2.2-1.1 2.3-1.1.6-2.5.6-2.4 2.4-.6 2.5-.6 1.1-2.2 1.1-2.3 2.3-2.4 2.3-2.5h2.2l9.5-9.5 9.4-9.5h2.5l7.5-7.7 7.6-7.7v-2.3l2-1.8 2-1.8v-2.4l1.6-3.1 1.5-3.2h1.9v-2.8l-1.5-.6-1.5-.5v-6.3l-2.1-2.9-2-2.9h-8.8l-.6-1-.6-1h-22.8l-.6-1-.6-1h-4.8l-.6-1-.6-1h-17.5l-2.9-3-2.9-3h-11.5l-.7 1.1-.6 1.1-2.9-2.8-2.9-2.8v-15.2l3.6-4.2 3.6-4.2h4.7l.6-1 .6-1h17.8l.6-1 .6-1h38.6l4.7-2.4 4.7-2.4 1.9-1.7 2-1.8v-3.6l1-.6 1-.6v-11l1.5-.5 1.5-.6v-7.6l-1.5-.6-1.5-.5v-4.7l-3.3-3.2-3.3-3.2h-6.5l-.5-1.5-.6-1.5h-49.7l-.6-1-.6-1H283l-2 1.2-2 1.3-2-1.3-2-1.2h-9.1l-2.4-1.6-2.5-1.6v-8.4l-1.2-1.2-1.2-1.2 1.2-1.2 1.2-1.2v-8.7l1.8-.5 1.7-.6 3.8-1.9 3.9-1.9h35.7l.6-1 .6-1h17.7l.6-1.5.5-1.5h5l.6-1 .6-1h4.6l3.1-1.5 3.1-1.6 2.5-5.1 2.6-5.2v-6.5l-1-.6-1-.6v-4.6l-2-1.8-2-1.8v-3.5l-6.7-6.1-6.8-6.1h-1.8L313 132.2l-15.6-15.7-.7-1.8-.6-1.7-2.4-.9-2.3-.9-1.3-1.6-1.3-1.6h-2.9l-.5-1.5-.6-1.5h-5.7l-.6-1-.6-1zM647 103h-1.9l-.6 1-.6 1h-4.1l-2 2.5-1.9 2.5h-3.1l-20.9 21-20.8 21H588v3.1l-1.7.6-1.8.6-5.6 5.9-5.6 6-2.2 4-2.1 4v12.6l3.2 2.7 3.2 2.7 2.3.9 2.3.9v2h8.9l.6 1 .6 1h32.8l.6 1 .6 1h8.9l2.3 1.2 2.2 1.3 1.8 1.4 1.7 1.4v15.4l-1.8 1.6-1.9 1.7h-7.2l-.6 1-.6 1h-19.8l-.6 1-.6 1h-22.5l-2.7 1.2-2.7 1.3v1.4l-3.2 1.5-3.1 1.6h-2.3l-4.2 4.3-4.2 4.3v19.3l1 .6 1 .6v5.6l2.3 2.1 2.3 2.2h5.3l.6 1 .6 1h4.8l.6 1 .7 1.1 1.3-1.1 1.3-1.1.7 1.1.6 1h30.8l.6 1 .6 1h15.3l2.8 2.7 2.8 2.7v7.5l-1 .6-1 .6v12.6l-1.6 3.1-1.5 3.2h-7.8l-.6 1-.6 1h-8.8l-.6 1-.6 1h-34.8l-.6 1-.6 1h-5.8l-3 3.7-3.1 3.8v4.1l-1.1 1.1-1.1 1.1 1.1.6 1.1.7v6.4l2 2.5 2 2.5v1.5l24.6 24.5 24.5 24.5h2.8l1.1 2 1 1.9 3.8 1.6 3.7 1.7 1.7.9 1.8.9h3.7l3.8-.1 2.8-2.4 2.7-2.4v-7l1-.6 1-.6v-15.5l1.1-1.1 1.1-1.1-1.3-3.1-1.4-3.1h-5.1l-1.2 1.2-1.2 1.2v9.5l-1 .6-1 .6v10.6l-1.8 1.6-1.9 1.7h-3.8l-2.5-2-2.5-2h-2l-21.4-21.5-21.4-21.4-1.3-2.7-1.4-2.6v-2.2l-3.1-3.2-3.2-3.3 1.7-3.5 1.7-3.6h6.8l.6-1 .7-1.1 1.3 1.1 1.3 1.1.7-1.1.6-1h38.7l.6-1.5.5-1.5 3.8-.1h3.8l3-1.8 3-1.7.3-4.5.3-4.4 1-.9.9-1v-25.3l-1.5-3.1-1.6-3.1-5.1-2.5-5.2-2.6h-27.7l-.5-1.5-.6-1.6-1.3 1.8-1.4 1.8-.6-1.8-.7-1.7h-9.7l-.6-1-.6-1h-4.8l-.6-1-.6-1h-6.4l-2.3-1.8-2.3-1.8.3-7.8.3-7.9 6.3-3.3 6.4-3.4h10.7l.6-1 .6-1 1.9 1.2 2 1.2 1.2-1.2 1.2-1.2h32.5l.6-1 .6-1h4.8l1.9-2.8 1.9-2.7.6-1.8.6-1.7h2.1v-8.6l1.2-1.2 1.2-1.2-1.2-1.2-1.2-1.2v-11.3l-4.8-5.1-4.7-5.2h-13.4l-.6-1-.6-1h-25.8l-.6-1-.6-1h-12.6l-3.1-1.6-3.2-1.5v-9.5l4-3.9 4-3.9v-2.4l7-6.8 7-6.9 1.5-.5 1.6-.6 15.9-15.9 16-15.9v-2.5l3.4-1.6 3.4-1.6 3.4.3 3.3.3.3 2.5.4 2.5.9.9.9 1v9.2l1.2 1.2 1.2 1.2 2.3-2.2 2.3-2.1v-12.6l-2-3.6-2-3.6V105h-4.9l-.6-1-.6-1zm-241.2 57H383v3.9l-1 .6-1.1.7 1.2 1.4 1.1 1.4h4.7l.6 1 .6 1h17.8l.6-1 .6-1h20.7l1.2-1.5 1.3-1.6-1.3-2.4-1.3-2.5zm71.5 3H455v4.6l1.2 1.2 1.2 1.2h21.1l21-.1 1.8-1.3 1.7-1.3v-1.6l-1.7-1.3-1.8-1.3zm56.7 0-12.5.1-1.7 1.3-1.8 1.3v4.3h3.6l1 1 .9.9 11 .3 11 .3.3 3 .4 3 .9.9.9 1V198h4.3l1.3-1.8 1.3-1.7.1-11.5v-11.6l-4.3-4.2-4.3-4.2zm-159.7 6h-3.8l-1.2 2.7-1.3 2.7v3.6l1.2 2 1.2 2-1.2 1.2-1.2 1.2v8.5l1 .6 1 .6v3.9h5.3l1.3-1.8 1.3-1.7.1-12.8V169zm-1.2 49h-2.6l-1.2 2.7-1.3 2.7v20.2l1.2 1.2 1.2 1.2h3.3l2.1-2.3 2.2-2.3v-21l-1.2-1.2-1.2-1.2zm177.2 4H548v6.9l-1 .6-1 .6v22.5l1.2 1.2 1.2 1.2h4.2l1.2-1.2 1.2-1.2v-25.2l-1.2-2.7-1.3-2.7zM373 262h-2.6l-1.2 1.2-1.2 1.2v21.1l2.7 1.2 2.6 1.3 1.4-1.1 1.3-1.1v-15.4l1.1-1.1 1.1-1.1-1.3-3.1-1.4-3.1zm179.7 8.7-2.2-2.8-1.2 1.2-1.3 1.3v5.2l-1 1-1.1 1.1.3 8.8.3 8.8 1.7 1.1 1.7 1 2.6-2.4 2.5-2.3v-19.2zM371.8 306H370v5.6l-1 1-1.1 1.1.3 11.8.3 11.8 1.8 1.1 1.7 1.1 1.8-1.1 1.7-1.1.3-13.4.3-13.4-1.2-2.3-1.2-2.2zm179.9 6.1-1.4-1.1-2.1 2.3-2.1 2.3-.3 11.9-.3 12-9 .3-9 .3-.9.9-.9.9-1.8-1.2-1.9-1.1-1.2 1.2-1.2 1.2H516v6h11l2 1.2 2 1.2 1.2-1.2 1.2-1.2h7.5l.6 1 .6.9 3.2-1.8 3.2-1.8.3-1.9.4-1.9 1.6-2 1.7-2 1.3-2.2 1.2-2.3v-3l-1.2-2-1.3-2 1.2-2 1.3-1.9-1-.6-1-.6v-8.7zM398.5 340h-17l-1.2 2.7-1.3 2.7 2.2 2.3 2.1 2.3h32.3l1.2-1.2 1.2-1.2v-5.2l-1.2-1.2-1.2-1.2zm68.4 2H444v8h15.6l1.1 1.1 1.1 1.1.6-1.1.7-1.1h7.5l1.1 1.1 1.1 1.1.6-1.1.7-1.1h6.8l.6 1 .6 1h4.7l2.3-1.3 2.4-1.2 1.3-.8 1.2-.8-2-3-2.1-2.9zm-82.6 22.1-2.8.1-3.5 1.8-3.5 1.8-3.5 1.6-3.5 1.6-13.9 14-14 14H338l-5.7 5.5-5.8 5.5h-2.1l-9.5 9.5-9.4 9.5H303v2.9l-2.5 1.9-2.5 2v10.3l3.6 3.2 3.7 3.2 1.8.7 1.9.7v1.3l.1 1.3 1-1.8 1-1.7h24.5l1.2-1.2 1.2-1.2v-4.2l-1.2-1.2-1.2-1.2h-5.2l-1.2 1.2-1.2 1.2-2.4-1.4-2.5-1.3-1.5 1.2-1.4 1.2-5.9-.3-5.8-.3-.3-3.5-.3-3.5 3.6-4.3 3.7-4.2h3.8v-2.6l4.8-4.7 4.8-4.7h1.5l10.1-10 10.1-10h1.5l.4-1.8.5-1.8 3.6-1.7 3.6-1.8 6.3-6.9 6.3-7h2.3l4.1-2.2 4.1-2.1 2 1.8 2 1.8v9.6l-1 .6-1.1.7 1 1.2 1.1 1.2-1.1 1.1-1.1 1.1 1.1.6 1.1.7v4.5l-1.1 1.1-1.1 1.1 1.3 2.1 1.3 2.1-1.1 1.1-1.2 1.2 1.2 1.8 1.1 1.9-1.2 1.2-1.2 1.2v7.5l1 .6 1 .6v4.5l-1.1 1.1-1.1 1.1 1.1.6 1.1.7V440l1.3 2.3 1.2 2.2 1.3.8 1.2.8v1.2l.1 1.2 3.4 3.7 3.5 3.8h7.9l.6 1 .6 1h9.8l.6-1 .6-1h4.7l.6-1.5.5-1.5h3.7l3.9-4.3 4-4.2 1.3-2.2 1.2-2.3v-6.6l1.2-1.2 1.2-1.2-1.2-2-1.2-2v-12.9l1-.6 1-.6v-8.5l-1.1-1.1-1.1-1.1 1.1-.6 1.1-.7v-15.2l5.2-5.4 5.3-5.3h4.4l.6-1 .6-1h4.8l.6 1 .6 1h5.8l1.5 3.2 1.6 3.1v2.4l2 1.8 2 1.8v42.3l-1.1 1.1-1.1 1.1 1.1.6 1.1.7v9.7l1.5 1.2 1.5 1.3 1.7 3.6 1.7 3.5 1.7 1.6 1.6 1.5 2.1 1.2 2.2 1.3h14l2.3-1.3 2.2-1.2.8-1.3.8-1.2h4.4l5.8-5.1 5.7-5.1v-26.4l1.1-1.1 1.1-1.1-1.1-.6-1.1-.7v-22.8l2-3.6 2-3.6v-2.6l2.1-1.9 2-1.8 1.9 1.2 2 1.2h2.5l2.8 3.5 2.8 3.5h2.6l9.4 9.3 9.5 9.3 1.7.7 1.7.6v3.1h4l.9 2.3.9 2.3 7.5 8 7.5 7.9 2.8 1.5 2.9 1.4 1.8 1.5 1.7 1.4v5.4l-1.7 1.4-1.8 1.4-2.2 1.2-2.3 1.3h-6.9l-.6 1-.6 1h-3.2l-3.2.1-2.7 2.4-2.8 2.4v3.1h3.6l1.2 1.2 1.2 1.2 2-1.2 2-1.2h7.8l.6-1.5.5-1.5h4l.6-1 .6-1h4.2l1.9-1.7 1.8-1.6 2.3-1.1 2.2-1.1.3-5.6.3-5.5-1.4-2.7-1.4-2.8-6.3-6.4-6.2-6.5h-2.6l-9-9.5-9.1-9.5h-2.6l-12-12-12-12-2.9-1.5-2.9-1.5h-4.6l-.6-1-.6-1h-3.6l-3.1 1.5-3.1 1.6-2.7 5.5-2.7 5.6-1.4.5-1.3.5v48.7l-1 .6-1 .6v5.5l-4.8 4.7-4.8 4.7h-9.3l-.6.9-.5 1-2.6-1.4-2.6-1.3-2.4-4.8-2.4-4.7v-8.6l-1-.6-1-.6v-42.7l-1.5-.6-1.5-.5v-6.8l-1.5-3-1.5-3-1.7-1.4-1.8-1.4-2.2-1.3-2.3-1.2h-16.9l-.6 1-.6 1h-4.4l-2.5 2-2.5 2h-4.2l-2.1 2.3-2.2 2.3v7.3l-1 .6-1 .6v48.8l-1 .6-1 .6v3.8l-1.2.8-1.3.8-1.1 2-1.1 1.9-2.9 1.7-2.9 1.8h-7.1l-7.2.1-2.7-1.4-2.7-1.4-1.4-2.7-1.4-2.7v-4.7l-1-.6-1-.6v-53.8l1-.6 1-.6v-4.5l-.9-1-.9-.9-.4-2.4-.3-2.4-1.5-.7-1.5-.7-2.2-1.1-2.3-1.2zm415.4 227.1-1.2-1-1.7 1.2-1.7 1.3-.3 12.9-.3 12.9-91.4.3-91.5.2-1-1-1-1h-6.2l-1.2 1.2-1.2 1.2-2-1.2-2-1.2h-20.6l-1.2 1.2-1.1 1.1-1.5-1.2-1.4-1.2-.7 1.1-.6 1h-95.5l-1.1-1.1-1.1-1.1-.6 1.1-.7 1.1h-9.5l-1.2-1.2-1.2-1.2-2 1.2-2 1.2h-20.9l-.6-1-.6-1h-7.8l-.6 1-.6 1h-8.8l-.6-1-.6-1h-7.5l-1.2 1.2-1.2 1.2-2-1.2-2-1.2h-3.9l-.6 1-.6 1h-5.8l-.6-1-.7-1.1-1.3 1.1-1.3 1.1-.7-1.1-.6-1H180.4l-1.1-1.1-1.1-1.1-.6 1.1-.7 1.1h-7.5l-1-1-1-1-18.4-.2-18.5-.3-.3-9.3-.3-9.2H125v80.7l-1.5 2.9-1.4 2.9-3.3 1.3-3.3 1.3-1.7 1-1.8.9h-2.9l-3.6 2-3.6 2h-3.8l-.6 1-.6 1H91v1.9l-3.2 1.5-3.1 1.6h-3.6l-.6 1-.6 1H74v4.8l1.4 1.1 1.4 1.2.7-1.1.6-1h7.8l.6-1 .6-1h6.8l.6-1 .6-1h5.8l.6-1 .6-1h4.8l.6-1 .6-1h7.8l.6-1 .6-1h10.7l.6-1.7.7-1.6 1.1 1.1 1.2 1.2-2.2 2.3-2.2 2.3v2l1.1 1.1 1.2 1.2 1.6-.8 1.6-.8 4.3-2.2 4.4-2.1h3.8l1.6-2.5 1.6-2.5h4.5l7.8-4 7.8-4h4.3l1.2-1.2 1.2-1.2V677h-5.9l-.6 1-.6 1h-6.8l-.6 1-.6 1h-6.8l-.6 1-.6 1h-5.8l-.6 1-.6 1h-6.8l-.6 1-.6 1h-9.8l-.6-.9-.5-1 1-.6 1-.6v-11.8l1-.6 1-.6-1.2-1.9-1.2-2 1.2-1.2 1.2-1.2v-9.2l-1.2-1.2-1.2-1.2 1.2-2 1.2-1.9-1.1-.6-1-.7 1-1.2 1-1.2.3-10 .3-9.9 11.4-.3 11.4-.3 1.1 1.1 1 1h6.5l.6-1 .6-1h26.5l1.1 1.1 1.1 1.1.6-1.1.7-1.1h21.5l1.1 1.1 1.1 1.1.6-1.1.7-1.1 1.9 1.2 1.8 1.2 1.7-1.4 1.6-1.3 1.1 1.1 1.2 1.2h4.5l.6-1 .6-1h23.8l.6 1 .6 1h398.8l.6 1 .6 1h4.8l.6-1 .6-1h19.5l1.2 1.2 1.2 1.2 1.2-1.2 1.2-1.2h4.2l1.2 1.2 1.2 1.2 2.5-1.4 2.5-1.4 1.2 1.2 1.2 1.2h11.2l1.2-1.2 1.2-1.2 2 1.2 2 1.2h71.7l1.6 1.8 1.7 1.9v61.9l-2.8 2.7-2.8 2.7h-4.3l-.6 1-.6 1h-4.8l-.6 1-.6 1h-5.8l-.6 1-.6 1h-3.8l-3.6 2-3.6 2H756l-2.2 1.2-2.3 1.3-1.2 1.5-1.2 1.5-.1 2.2v2.3h6.9l.6-1 .6-1h7.8l.6-1 .6-1h4.8l.6-1 .6-1h5.7l.6-1.5.5-1.5h7l.6-1 .6-1h6.8l.6-1 .6-1h5.8l.6-1 .6-1h4.8l.6-1 .6-1h7.6l.6.7.7.6-1.7 1.9-1.6 1.8h-2.6l-3.6 2-3.6 2h-3.2l-1.3 1.7-1.3 1.8-.1 2.2v2.3h1.7l3-1.5 3.1-1.5 1.2-1.5 1.2-1.5h2.6l.6-1.5.5-1.5h2.6l8-3.9 8-3.9 7.8-3.7 7.9-3.8.5-1.5.6-1.5-1-1.6-1-1.6-2.3-.3-2.2-.4-1.1 1.1-1.1 1.1h-4.5l-.6 1-.6 1h-7.7l-.6 1.5-.5 1.5h-5l-.6 1-.6 1h-5.8l-.6 1-.6 1h-4.5l-1.1 1.1-1.2 1.2-1.5-.6-1.6-.6v-5l-1-.6-1-.6v-15.8l1-.6 1-.6-1.3-1.9-1.2-2 1.3-2 1.2-2v-18.6l-1.1-1.1-1.1-1.1 1.1-.6 1.1-.7v-17.8l-1-.6-1-.6v-9.8l1-.6 1-.6v-25.7z"/><path d="m372.1 637.3-1.8-1.2-1.2 1.2-1.1 1.1v5.6h1.3l1.2-.1 1.8-1.3 1.7-1.3v-2.8zm115.5 3.7H485v.8l1.4 1.1 1.3 1.1 1.3-1.5 1.2-1.5zm-314.1 2H172v3h3v-3zm268 0H440v4.8l1.3 1 1.2 1 1.8-1.3 1.8-1.3-1.6-.6-1.5-.5V643zm108 0H548v3h3v-3zm-221.7 3.3-1.3-1-2.3 1.2-2.4 1.3-1.1 1.1-1.1 1.1h7.2l1.1-1.4 1.1-1.3zm-26.2 1-.6-.6.1 1.9.1 1.9.5-1.3.5-1.3zm112.4.2-.9-.5-.6 1-.6 1H408v7.9l-1 .6-1 .6v4.8l-1 .6-1 .6v4.9h10.6l2.7-1.3 2.7-1.2v-6.4l-1-.6-1-.6v-4.6l-1.6-3.1-1.5-3.2zm170.7 2.5-.5-1.5-.1 2.7-.1 2.8h3.2l-.9-1.3-1-1.2z"/><path d="M369.1 651h-1l-.6 1-.6 1H361l-2.2 1.2-2.1 1.3-2.5 2.2-2.5 2.3h-2.4l-1.8 2-1.8 2h-2.4l-10.6 10.7-10.7 10.7v1.7l-10.2 10.5-10.3 10.5-.4 1.2-.4 1.2-6.1 6.3-6.1 6.3-.7 2-.7 1.9H284v3.3l-7.5 7-7.5 6.9v5.4l1.1 1.1 1.2 1.2 1.9-1.2 2-1.2 7.9-7.4 7.9-7.4v-2.6l11.5-11.5 11.5-11.5v-2l19.9-20 20-20.1h3.1v-2.9l3.2-1.5 3.1-1.6h5l5.3 4.6 5.4 4.6v21.7l1 .6 1 .6v39.5l-1.1 1.1-1.1 1.1 1.1.6 1.1.7v10.8l1 .6 1 .6v3.6l2.3 2.1 2.3 2.2h4.3l3.6 2 3.6 2h14.8l.6-1 .6-1h3.6l3.1-1.5 3-1.6 4.1-3.9 4.1-4v-6.9l1-.6 1-.6v-53.8l1-.6 1-.6v-4.1l3.4-4.2 3.5-4.2 4.1-2.2 4.2-2.2h9.7l.6 1 .6 1h5.7l3.1 3.5 3.1 3.5 1.9 4.3 2 4.4 1.6 1.3 1.5 1.2v53.6l1.5.6 1.5.5v2.2l3.2 4 3.1 3.9h2.3l2.9 3 2.9 3h5.5l.6 1 .6 1H523l2.3-1.3 2.2-1.2 3.3-2.9 3.2-3v-2.3l1.6-3.1 1.5-3.2h1.2l1.2-.1-1.7-1-1.8-1v-67l1.5-.5 1.5-.6v-2.4l2.8-2.5 2.7-2.4 2.2-1.3 2.3-1.2h3.9l.6 1 .6 1h3.2l28.9 29 28.9 29.1 2.4.9 2.5 1v3h1.7l8.2 7.8 8.1 7.8 1.9 3.5 1.8 3.4 3.6 1.9 3.5 1.9 3.1-1.4 3.1-1.4v-2.7l-15.2-14.9-15.2-14.9h-2.5l-1.7-3.5-1.6-3.5h-3l-21.9-21.9-21.9-21.9v-1.6l-4.2-4.3-4.2-4.3h-4.7l-.5-1.5-.6-1.5h-5.4l-1.1-1.1-1.1-1.1-.6 1.1-.7 1.1H544v1.9l-3.2 1.4-3.3 1.5-1.6.5-1.6.5-3.7 7.4-3.6 7.3v4.4l1 .6 1 .6v8.8l-1 .6-1.1.7 1.2 1.4 1.2 1.5-1.1 1.1-1.2 1.2v8.2l1.2 1.2 1.2 1.2-1.2 2-1.2 2v33.1l-2.7 3.5-2.8 3.4h-3.1l-1.1 1.1-1.1 1.1-.6-1.1-.7-1.1h-8.7l-1.6-2.5-1.6-2.5-1.8-.1h-1.7l-2.9-1.8-3-1.7-1.7-3-1.8-2.9v-4.6l-.1-4.5 1.1-1.1 1.1-1.1-1.1-.6-1.1-.7v-13.5l1.2-1.2 1.2-1.2-1.2-2-1.2-2v-24.7l-2-1.8-2-1.8V672l-2.4-1.5-2.4-1.6-.5-1.8-.4-1.8-3.3-1.7-3.3-1.6h-3.6l-.6-1-.6-1h-5.8l-.6-1-.6-1h-8.8l-.6 1-.6 1h-7.5l-6.2 6.3-6.2 6.3v2.1l-1.6 3.1-1.5 3.2H427v38.9l-1 .6-1 .6v15.8l-1 .6-1 .6v3.6l-1.6 3.1-1.5 3.2h-2.7l-.6 1.5-.5 1.5h-18.2l-.5-1.5-.6-1.5h-1.9l-3.5-2.8-3.4-2.7v-13.6l1.5-.5 1.5-.6v-2.6l-1.5-.6-1.5-.5v-54.8l-2.2-4.4-2.3-4.4-2-2.5-2-2.5-3-1.4-3-1.3-1.7-.9-1.8-.9zm284.4 0H652v3.2l1.5-1.2 1.5-1.2v-.8zm-366.9 2h-.5l-.6 1-.6 1H279v4h8v-6z"/><path d="M502 658h-1.3l.6.7.7.6.7-.6.6-.7zm103.6 2.3-.6-.6.1 1.9.1 1.9.5-1.3.5-1.3zm147.9-.3h-.5v1h1v-1zm-130.8 4h-2.3l-1.2 1.2-1.1 1.1 2.2 1.2 2.2 1.2 1.3-1 1.2-.9V664zm-399.9 2H220v4.9l-1 .6-1 .6v7.8l-1 .6-1 .6V697h2l2.3-1.3 2.2-1.2.8-1.3.8-1.2h5.8l.6-1 .6-1h3.6l3.2-1.6 3.2-1.6.7-1.8.7-1.7 3.2-2.7 3.2-2.7-1.2-1.9-1.1-1.9-.9 1.4-.8 1.5h-3.4l-1 2.2-1 2.1-1.7 1.1-1.7 1-3.1-2.9-3-2.9v-2l-2.2-4.8-2.3-4.8zm2.2 16h1.1l.6 1.6.6 1.5-1.2 1.2-1.1 1.1-1.1-1.1-1.2-1.2.6-1.5.6-1.6zm516-16h-1.3l.6.7.7.6.7-.6.6-.7zm-544.7 4H195v1.2l.1 1.3 1.2 1.7 1.3 1.7 1.1-1.8 1.2-1.8-1.2-1.2-1.1-1.1zm457.2 0H652v3h3v-3zm40.6 0h-1.7l-1.2 1.2-1.2 1.2v17.2l1.2 1.2 1.2 1.2h4.3l1.8-2 1.8-2h3.6l.6-1 .6-1h4.9v-2.6l-3-2.9-3-2.9v-3.2l-4.1-2.2-4.1-2.2zm-180.6 13.4-1.5-2.9V692h3v-5.8zm245.4 5.6H757v2l2 2 2 2h2.2l-.6-1.3-.6-1.2-.6-1.8-.6-1.7zm-298.4 3-1.5-1.2v4.1l-1 .6-1 .6v6.9h2.6l1.2-1.2 1.2-1.2v-7.4zm-184 1H275v1.8l1.5 1.2 1.5 1.2V693zm128.8 9H404v2.6l1.2 1.2 1.2 1.2h3.6v-2.3l-1.7-1.3-1.8-1.3zm329.4 0h-.3l-1.2 1.2-1.2 1.2v2.6h3v-5zm14.8 0h-.5v1h1v-1zm-623 6H125v11.9l-1 .6-1 .6v83.7l1.3 1.1 1.3 1.1 1.2-1.2 1.2-1.2v-22.3l1.8-1.6 1.9-1.7h28.2l.6 1 .6 1H294l2 1.2 2 1.3 2-1.3 2-1.2h26.9l.6 1 .7 1.1 1.2-1 1.2-1.1 1.2 1.2 1.1 1.1 1.5-1.2 1.4-1.2.7 1 .6 1.1 1.9-1.2 2-1.2 1.1 1.1 1.2 1.2 1.7-1.2 1.8-1.1 1.4 1.2 1.4 1.2 1.2-1.2 1.1-1.1 1.3 1.1 1.3 1 3.5.4 3.5.3.3 29.4.2 29.4 1.2 1.4 1.1 1.4-1.2 2.2-1.1 2.2-.3 40-.2 40-2.5.3-2.5.4-.9.8-.9.9-1.8-1.2-1.9-1.2-2 1.3-2 1.2h-3.9l-.6-1-.6-1h-6.8l-.6 1-.6 1H332v1.6l1.2 1.2 1.2 1.2h64.2l1.2 1.2 1.2 1.2 2-1.2 1.9-1.2.6 1.1.7 1 1.4-1.2 1.4-1.1 1.4 1.1 1.4 1.2.7-1.1.7-1.1 1.3 1.1 1.3 1.1.7-1.1.6-1h6.5l1.1 1.1 1.1 1.1.6-1.1.7-1.1h9.9v-2.7l1.5-3 1.5-3.1 1.5-1.2 1.5-1.2v-2.6l2.5-1.6 2.5-1.7.7 1.6.6 1.6-1.2 1.2-1.1 1.1v6.7l-1.5.5-1.5.6v9.7l-1 .6-1 .6v4.8l-1 .6-1 .6v7.8l-1 .6-1 .6v6.8l-1 .6-1 .6v5.8l-1 .6-1 .6v6.7l1.4 1.1 1.4 1.2.7-1.1.6-1h4.1l2.9-2.1 2.9-2V972l.9-1.8.9-1.7 1.6-3.7 1.7-3.7.9-.6.9-.5 1.5-3.2 1.6-3.1v-2.4l2-1.8 2-1.8v-2.5l2.5-1.6 2.5-1.6v-7h-3.7l-1.9 2.2-2 2.3-3.3 6.7-3.3 6.6-2.9 2.8-2.8 2.7-.7-1.7-.7-1.7 1.2-1.2 1.1-1.1v-9.5l1-.6 1-.6v-6.8l1-.6 1-.6v-7.8l1-.6 1-.6v-4.8l1-.6 1-.6v-7.8l1-.6 1-.6v-8.8l1-.6 1-.6v-5.8l1-.6 1-.6v-4.7l-1.4-1.1-1.4-1.2-.9 1.3-.8 1.3-1 2-1 2-2.3 1-2.2 1v2.1l-2.6 5.2-2.6 5.2h-1.3l-1.3 3.2-1.4 3.3-3.6 7.4-3.7 7.5-3 1.7-3 1.8h-24.6l-24.6.1-1.6-1.8-1.7-1.9V822.4l1.2-1.2 1.2-1.2-1.2-2-1.2-2v-3.6l1.2-1.2 1.2-1.2-1.4-2.5-1.3-2.5 1.1-2.2 1.2-2.3.2-8.5.3-8.5 78.5-.3 78.5-.2 1 1.4 1.1 1.4 2.9.4 3 .3.3 48.9.2 49-1 1-1 1v5.6l1.2 2 1.2 1.9-1.2 2.3-1.2 2.3-.2 15.5-.3 15.5-33.4.3-33.4.2-1.3 1.8-1.3 1.7-.1 1.2v1.3h113v-3h-22.1l-.5-1.5-.6-1.6-1.2 1.7-1.2 1.6-1.8-.3-1.8-.4-2.4-4.3-2.4-4.3v-7.5l1.1-1.1 1.1-1.1-1.1-.6-1.1-.7v-15.8l1-.6 1-.6v-22.5l-1.1-1.1-1.1-1.1 1.1-.6 1.1-.7v-27.5l-1.1-1.1-1.1-1.1 1.1-.6 1.1-.7v-53l1.6-2.4 1.6-2.5h94.9l.5 1.5.6 1.5h2.6l.6-1.5.5-1.5h3l.9 1.6.9 1.6.6-1.6.6-1.6h8.2l.5 1.5.6 1.5h2.6l.6-1.5.5-1.5h5.2l.5 1.5.6 1.5h5.6l.6-1.5.5-1.5h7.2l.5 1.5.6 1.5h45.6l.7-1.8.6-1.7 1.3 1.7 1.3 1.8h41.6l1.2-1.7 1.2-1.6 1.7.6 1.6.6v16l1 .6 1 .6v5.5l-1.1 1.1-1.1 1.1 1.1.6 1.1.7V824h4v-58.6l1.2-1.2 1.2-1.2-1.2-2-1.2-2v-18.9l1-.6 1.1-.7-1-1.2-1.1-1.2 1.1-1.1 1.1-1.1-1.1-.6-1.1-.7V725h-4v40.6l-1.2 1.2-1.1 1.1 1.2 1.5 1.2 1.4-1.1.7-1 .6v5l-1.6.6-1.5.6-1.2-1.2-1.1-1.1H576.4l-1.2-1.2-1.2-1.2-1.2 1.2-1.2 1.2h-10.5l-.6-1-.6-1h-24.5l-1.1 1.1-1.1 1.1-.6-1.1-.7-1.1H419.4l-1.1-1.1-1.1-1.1-.6 1.1-.7 1.1h-49.8l-.6-1-.6-1h-15.8l-.6 1-.6 1h-4.8l-.6-1-.6-1H138.4l-.9-.9-1-1-4-.3-4-.3-.3-30.8-.2-30.7z"/><path d="m228.5 709-1.5-1.2v6.5l.3-.4.3-.4 1.2-1.6 1.2-1.6zm415.9 1h-1.6l1.3 1.7 1.3 1.8.3.4.3.4V710zm-298.1 5H345v5h5v-2.6l-1.2-1.2-1.2-1.2zm364.2 0H709v5h3v-5zm-517.8 3.2-1.3-1.1-2.9 2.4-3 2.4 3.1.1h3.2l1.1-1.4 1.1-1.3zm325.3 3h-2.5l1.3.5 1.2.5 1.3-.5 1.2-.5zm163.7 6.5-.5-1.2v5l.5-1.3.5-1.2zm87.8-.7H766v4h7v-4zm-583 2H184v7.9l-1 .6-1 .6v6.3l-2.1 2.3-2.2 2.2 1.3 1.6 1.2 1.5h4.8l1.6-2.5 1.6-2.5h9.9l.5 1.5.6 1.5h2.8v-5.6l-3-2.9-3-2.9v-1l-.1-1.1-3.4-3.8-3.5-3.7zm220 3h-.5v1h1v-1zm185.3 4H590v8l-1 2-1 2-1 2-1 2v8h4.5l2.5-2 2.5-2h3.3l2.3-1.3 2.4-1.2 1.2-.8 1.3-.8-1.3-1.9-1.2-2h-2.1l-2.6-2.8-2.5-2.7-1.4-3.3-1.4-3.2zm149.1 0h-.6l-2.1 2.3-2.2 2.3v2.1l-2 1.8-2 1.8v2.6l-2 3.6-2 3.6v3.5l1.2 1.2 1.2 1.2h4.5l.6-1 .6-1H754v-1.8l-2.1-4.4-2.2-4.3-.8-1.7-.9-1.8v-3.6l-3.3-3.2-3.3-3.2zm0 9h.8l1.7 1.9 1.7 1.9-.3 2.9-.3 2.8-4.3.3-4.2.3-.6-1.6-.6-1.5 2.6-3.5 2.7-3.5zm-503.4-7h-.5v1h1v-1zm87.2 8h-.3l-1.2 1.2-1.2 1.2v1.6h3v-4zm361.3 0h-1.3l.6.7.7.6.7-.6.6-.7zm-373.6 7.1-1.9.1 1.3.5 1.3.5.6-.6.6-.6zm455 0-1.9.1 1.3.5 1.3.5.6-.6.6-.6zm-535 2-1.9.1 1.3.5 1.3.5.6-.6.6-.6zm223.3.9-.5-1.5-.1 3.9-.1 3.8 1.5-1.2 1.5-1.3-.9-1.1-.8-1.1zm225.9-.7-.6-.6.1 1.9.1 1.9.5-1.3.5-1.3zM173.5 757H172v.8l1.5 1.2 1.5 1.2V757zm189 6h-.5v1h1v-1z"/></svg>