<svg xmlns="http://www.w3.org/2000/svg" version="1.0" viewBox="0 0 888 1042"><path d="M344.6 53h-33.2l-3.2 3.3-3.2 3.3v3.3l-1 .6-1 .6v6.8l1 .6 1 .6v4.8l-1 .6-1 .6v9.5l1.1 1.1 1.1 1.1-1.2.7-1.1.7 1.1 1.3 1.1 1.3-1.1.7-1 .6v7.5l1.1 1.1 1.1 1.1-1.1.6-1.1.7v19.5l1.2 1.2 1.2 1.2-1.2 2-1.2 2v205.9l-1 .6-1 .6v4.8l1 .6 1 .6v23.5l1.2 1.2 1.2 1.2h7.7l.5 1.5.6 1.5h2.6l.6-1.5.5-1.5h98.2l.5 1.5.6 1.5h2.6l.6-1.5.5-1.5h33l.9 1.6.9 1.6.6-1.6.6-1.6h42l.9 1.6.9 1.6.6-1.6.6-1.6h12.2l.5 1.5.6 1.5h91.1l1.3-1.8 1.3-1.7.1-2.2v-2.2l1-.6 1-.6v-99.5l-1.2-1.2-1.1-1.1 1.1-1.4 1.2-1.3-1.1-1.1-1.1-1.1 1.1-.6 1.1-.7V104.1l1-.6 1-.6V70.1l-1-.6-1-.6v-9.5l-1.2-1.2-1.2-1.2h-3.3l-1.8-2-1.8-2h-46.3l-1.1 1.1-1.1 1.1-.6-1.1-.7-1.1h-15.5l-1.1 1.1-1.1 1.1-.6-1.1-.7-1.1h-34.8l-.6 1-.6 1h-15.5l-1.1-1.1-1.1-1.1-.6 1.1-.7 1.1h-20.5l-1.1-1.1-1.1-1.1-.6 1.1-.7 1.1h-6.5l-1.2-1.2-1.2-1.2-2.5 1.4-2.6 1.4-1.9-1.2-2-1.2h-16.6l-1.2 1.2-1.2 1.2-2-1.2-2-1.2h-7.9l-.6 1-.6 1h-5.8l-.6-1-.6-1h-8.5l-1.1 1.1-1.1 1.1-2-1.3-2-1.3-1.5 1.3-1.5 1.2-.7-1.1-.6-1zm-16.4 14.1 3.7-.1.7 1.1.6 1.1 1.1-1.1 1.1-1.1h6.5l.7 1.1.6 1.1 1.1-1.1 1.1-1.1h138.5l.7 1.1.6 1.1 1.1-1.1 1.1-1.1h4.5l.7 1.1.6 1.1 1.1-1.1 1.1-1.1h15.2l1.2 1.2 1.1 1.1 1.5-1.2 1.4-1.2.7 1.1.7 1.2 1.1-1.1 1.1-1.1h10.2l1.2 1.2 1.1 1.1 1.5-1.2 1.4-1.2.7 1.1.7 1.1 1.3-1.1 1.3-1.1.7 1.1.6 1h13.5l1.2-1.2 1.2-1.2 2 1.2 1.9 1.2.6-1.1.7-1 1.2 1 1.2 1.1 17.5.2 17.4.3.3 11.9.3 12 1 1.2 1 1.2-1.1.7-1 .6v214.8l-1.1.7-1.1.6 1.1 1.1 1.1 1.1v5.5l-1.1.7-1.1.6 1.1 1.1 1.1 1.1v13.2l-1 1-.9.9-.3 11-.3 11-8 .3-7.9.3-1.2 1-1.2 1-.7-1.1-.6-1H394.1l-.7-1.1-.6-1.1-1.1 1.1-1.1 1.1h-26.2l-1.2-1.2-1.2-1.2-2.5 1.4-2.5 1.4-1.2-1.2-1.2-1.2h-30.2l-.9-.9-1-.9-2.5-.4-2.5-.3-.3-123.4-.2-123.4 1-1.3 1.1-1.2-1.1-.7-1.2-.7 1.1-1.1 1.1-1.1-1.1-1.2-1-1.2 1.1-.7 1-.6v-5.8l-1-.6-1-.6v-4.8l1-.6 1-.6V70.1l2.8-1.4 2.7-1.5z"/><path d="M369 119h-4.7l-2.1 2.3-2.2 2.3v4l1.2 1.2 1.2 1.2h26.2l1.2-1.2 1.2-1.2V121h-9.9l-.6-1-.6-1-1.9 1.2-2 1.2-1.2-1.2-1.2-1.2zm48.6 2h-2.2l-1.2 1.2-1.2 1.2v6.6l18.6-.2 18.7-.3 1.1-1.7 1-1.7-2.4-2.6-2.3-2.5h-13.6l-.6 1-.6 1-1.9-1.2-2-1.2-1.2 1.2-1.2 1.2h-5.5l-.6-1-.6-1zm87.5 1.7-3.1-1.5-.6.9-.5.9h-24.5l-1.2 1.2-1.2 1.2v4.6h32.8l1.2-1.5 1.2-1.5-.5-1.4-.6-1.4zm22-1.7h-2l-.6 1-.6 1H517v4.6l1.2 1.2 1.2 1.2h10.2l1 .9.9 1 5 .3 5 .3.3 4.5.3 4.5 1.5 3.2 1.5 3.2 1 .7 1.1.6 2.4-1.3 2.4-1.2v-6.3l1.1-1.1 1.1-1.1-1.1-.6-1.1-.7v-7.7l-3.3-1.5-3.2-1.6-2.4-2.5-2.4-2.6H537l-2 1.2-2 1.3-2-1.3-2-1.2zm-168.6 19h-2.1l-1.2 1.2-1.2 1.2v38.2l1.2 1.2 1.2 1.2h4.2l1.2-1.2 1.2-1.2v-38.2l-1.2-1.2-1.2-1.2zm187.8 27H544v5.6l-1.1 1.1-1.1 1.1 1.1.6 1.1.7v4.8l-1 .6-1 .6v11.5l1.2 1.2 1.2 1.2h7.6v-19.6l1.1-1.1 1.1-1.1-1.1-.6-1.1-.7v-3.2l-1.7-1.3-1.8-1.3zm-187.9 38h-2.2l-1.1 1.4-1.2 1.4.3 14.2.3 14.3 1.7 1.1 1.7 1 2.6-2.4 2.5-2.3v-11.6l-1-.6-1-.6v-6.8l1-.6 1-.6v-5.5l-1.2-1.2-1.2-1.2zm188.1 7h-2.1l-1.2 1.2-1.2 1.2v30.1l2.4 1.1 2.4 1.1 2.6-2.9 2.6-3v-26.1l-1.7-1.3-1.8-1.3zm-185.7 46.4-2.3-2-2.3 1-2.2 1.1.2 18.4.3 18.4 1.7 1.1 1.7 1 2.6-2.4 2.5-2.3v-32.4zM545.7 271h-3.3l-1.2 1.2-1.2 1.2v6.2l1.2 1.2 1.1 1.1-1.1 1.4-1.1 1.3-.3 9-.3 8.9-8.9.3-9 .3-1.3 1.1-1.3 1v4.4l1.2 1.2 1.2 1.2h19.3l2.1-2.3 2.2-2.3v-4.6l2-.5 2-.5v-3.9l1.5-.5 1.5-.6v-2.6l-1.5-.6-1.5-.5V271zm-172.1 32h-13.2l-1.2 1.2-1.2 1.2v4.1l2.7 1.2 2.7 1.3h6.2l1.2-1.2 1.2-1.2 2 1.2 1.9 1.2.6-1.1.7-1 1.4 1.2 1.5 1.2 2.2-1.1 2.2-1 1.8-.6 1.7-.6.6-1.5.6-1.5-1.2-1.5-1.2-1.5zm55.9 0h-20.3l-1.3 1.6-1.3 1.6 1.1 1.6 1 1.7 6.9.3 6.8.3 1.2 1 1.2 1 .7-1.1.7-1.1 1.2 1 1.2 1.1 1-1 .9-.9 9.9-.3 9.9-.3 1-1.7 1.1-1.6-1.3-1.6-1.3-1.6zm55 0h-14.1l-1.2 1.2-1.2 1.2v4.6h9.9l.6 1 .6 1h19.5l1.2-1.2 1.2-1.2v-4.2l-1.2-1.2-1.2-1.2zm318 179H800v6h5v-6zm6.5 5h-1v5h2v-5zm-676.4 72-2.1.1-1.7 1.3-1.8 1.3v25.2l-1 .6-1 .6v81.7l2.7 2 2.6 1.9-.5 1.5-.6 1.5-5.6 2.7-5.7 2.8-2.1 2.9-2.2 2.9h-2.1l-3.5 2.8-3.5 2.8-3.7 1.7-3.7 1.8-.6.9-.5.9-2.8 1.4-2.7 1.3-2.5 1.5-2.4 1.4-2.1 2.5-2 2.4-1.2 2.4-1.3 2.4v1.8h6.7l1.8-2 1.8-2h2.3l5.3-2.6 5.3-2.7.5-1.3.5-1.4 3.7-1.6 3.6-1.6 6.2-3 6.1-3 1.1.7 1.1.6v102.5l1.2 1.2 1.2 1.2h5.6v-27.7l1.6-3.1 1.5-3.2h6.8l.6-1 .6-1 1.9 1.2 1.9 1.2 2.6-1.4 2.5-1.4 1.2 1.2 1.2 1.2h19.5l.6-1 .6-1h15.8l.6 1 .6 1h9.8l.6-1 .6-1 1.9 1.2 2 1.2 1.2-1.2 1.2-1.2h4.5l.6 1 .7 1.1 1.4-1.2 1.5-1.2 1.1 1.1 1.1 1.1 1.7-1.2 1.8-1.1 1.5 1.3 1.5 1.2.7-1.1.6-1h11.8l.6 1 .6 1h19.8l.6-1 .6-1h6.8l.6 1 .6 1h5.8l.6-1 .6-1 1.9 1.2 1.8 1.2 1.5-1.3 1.5-1.2.7 1.1.6 1h57.8l1.4 2.8 1.4 2.8-1.1 1.7-1.1 1.7 1.3 2 1.2 2v18.9l-1 .6-1 .6v21.5l1.1 1.1 1.1 1.1-1.1.6-1.1.7v15.8l1 .6 1 .6v19.8l-1 .6-1 .6v4.8l1 .6 1 .6v9.8l-1 .6-1.1.7 1.1 1.3 1.1 1.3-1.1.7-1 .6v13.8l1 .6 1 .6v4.5l-1 1-.9.9-.3 11.5-.3 11.5-12.9.3-12.8.3-1.3-1.1-1.3-1.1-.7 1.1-.6 1h-4.6l-3.1-1.6-3.2-1.5v-1.4l-3.1-1.4-3.1-1.3-1.1 1.1-1.1 1.1h-2.7l-2.4 2.8-2.4 2.7-.1 2.1v2.1l2.3 2.1 2.3 2.2h56l1.2 1.2 1.2 1.2 2-1.2 2-1.2h71.7l2.1-2.3 2.2-2.3v-2.1l1.9-1.7 2-1.8.3-1.9.3-2h2l.3 2.7.4 2.6-1.1 1.1-1.1 1.1v4.5l-1 .6-1 .6v4.8l-1 .6-1 .6v4.8l-2 3.6-2 3.6v3.8l-1 .6-1 .6v5.8l-1 .6-1 .6v4.8l-1.2.8-1.3.8-1.2 2.2-1.3 2.3v7.1l3.1-.3 3.2-.3.8-1.5.7-1.5 2.7-5.7 2.6-5.8.9-.5.9-.6 1.6-3.4 1.5-3.5 1.5-3.4 1.5-3.4 1.4-.5 1.5-.6 2.1-4.5 2-4.6 3.1-3.5 3.1-3.5h34.7l.6 1 .6 1h21.5l1.2-1.2 1.2-1.2 1.2 1.2 1.2 1.2h14.5l.6-1 .6-1h13.8l.6 1 .6 1h5.5l1.1-1.1 1.1-1.1.6 1.1.7 1.1h4.8l.6-1 .6-1h4.5l1.1 1.1 1.1 1.1.6-1.1.7-1.1h15.8l.6 1 .6 1h32.5l1.2-1.2 1.2-1.2v-4.2l-1.2-1.2-1.2-1.2H611l-2 1.2-1.9 1.2-2.5-1.3-2.5-1.4-1.4 1.1-1.3 1.2-1.1-1.1-1.1-1.1-.6 1.1-.7 1.1h-32.5l-1.1-1.1-1.1-1.1-.6 1.1-.7 1.1h-4.8l-.6-1-.6-1h-7.6l-1.6-1.8-1.7-1.9V798.4l1.2-1.2 1.2-1.2-1.2-1.2-1.2-1.2v-16.3l1.6-3.1 1.5-3.2h13.8l.6-1 .6-1h161.5l1.1-1.1 1.1-1.1.6 1.1.7 1.1h6.8l.6-1 .6-1h20.8l.6 1 .6 1h6.6l1.6 1.7 1.6 1.8.3 3.9.3 3.9 1.8 1.1 1.7 1.1 1.8-1.1 1.7-1.1.3-26.9.2-26.8 1-1 1-1v-7.5l-1-.6-1-.6v-6.8l1-.6 1-.6v-12.5l-1.3-2.7-1.2-2.7h-5.4l-.6-.9-.5-1 5.2-5 5.3-5.1h2.2l2.4-2.6 2.4-2.5 3.3-1.6 3.3-1.6 1.6-2.3 1.5-2.4h2.4l4.9-5 4.9-5h3.2l2.9-3 2.9-3h2.6v-3.6l1-1 1.1-1.1-1.6-1.3-1.6-1.3-4.2 2.1-4.2 2-3.2 1.4-3.3 1.3v1.4l-5.7 2.6-5.8 2.7-6.2 3-6.1 3-1.1-.7-1.1-.6V578h-2.9l-1.1-1.8-1-1.7-1 1.7-1.1 1.8H766v23.7l-1.8 1.6-1.9 1.7h-42.2l-.6-1-.7-1.1-1.4 1.2-1.4 1.1-1.4-1.1-1.4-1.2-.7 1.1-.6 1h-4.5l-1.2-1.2-1.2-1.2-2.5 1.4-2.5 1.4-1.2-1.2-1.2-1.2h-13.2l-1.1 1.1-1.1 1.1-.6-1.1-.7-1.1H666l-2 1.2-1.9 1.2-2.5-1.3-2.5-1.4-1.5 1.2-1.4 1.2-.7-1.1-.6-1h-4.8l-.6 1-.6 1h-5.8l-.6-1-.6-1-1.9 1.2-1.8 1.2-1.5-1.3-1.5-1.2-.7 1.1-.6 1h-19.5l-1.2-1.2-1.2-1.2-2.1 1.3-2.1 1.3-1.1-1.1-1.1-1.1h-4.2l-1.1 1.1-1.1 1.1-.6-1.1-.7-1.1h-38.8l-.6 1-.6 1h-17.8l-.6-1-.6-1h-24.5l-1.1 1.1-1.1 1.1-.6-1.1-.7-1.1h-6.8l-.6 1-.7 1.1-1.3-1.1-1.3-1.1-.7 1.1-.6 1h-5.8l-.6-1-.6-1h-6.8l-.6 1-.6 1h-15.5l-1.2-1.2-1.2-1.2-2 1.2-2 1.2h-10.6l-1.1-1.1-1.1-1.1-.6 1.1-.7 1.1h-13.8l-.6-1-.6-1h-6.8l-.6 1-.6 1h-5.8l-.6-1-.6-1h-10.5l-1.2 1.2-1.2 1.2-1.2-1.2-1.2-1.2h-10.2l-1.1 1.1-1.1 1.1-.6-1.1-.7-1.1h-81.5l-1.1 1.1-1.1 1.1-.6-1.1-.7-1.1h-11.8l-.6 1-.6 1H172.4l-1.1-1.1-1.1-1.1-.6 1.1-.7 1.1h-13.8l-.6-1-.6-1h-15.8l-1.5-3.2-1.6-3.1v-21.6l1-.6 1-.6v-12.5l-1.2-1.2-1.2-1.2zm62 57.1 1.2 1 .7-1.1.6-1h5.8l.7 1.1.6 1.1 1.1-1.1 1.1-1.1h4.5l.6 1 .6 1h28.8l.6-1 .6-1h19.8l.6 1 .6 1h4.8l.6-1 .6-1H295l2 1.2 2 1.2 1.2-1.2 1.2-1.2h34.5l.6 1 .6 1h5.9l2-1.2 2-1.3 2 1.3 2 1.2h305.9l.6 1 .6 1 1.9-1.3 2-1.2 1.9 1.2 1.8 1.2 1.2-1.2 1.1-1.1 2 1.2 1.9 1.2.6-1 .6-1h28.8l.7 1.1.6 1.1 1.1-1.1 1.1-1.1h25.2l1 1 .9.9 16.5.3 16.5.3.3 25.2.2 25.3h7.6l1.1-1.1 1.2-1.2 1.7.7 1.7.6-1.8 2-1.8 2h-2.4l-4.6 4-4.5 4h-2.1l-3.7 4.5-3.6 4.5h-3.4l-2.9 3-2.9 3h-2.1l-5.5 5.5-5.5 5.4-1 .1h-1.1l-6.1 6.2-6.2 6.3 1.3 1.7 1.3 1.8h2.3v-1.9l5.5-2.5 5.5-2.6 5.5-2.6 5.5-2.5.5-.9.5-.9 3.2-1.5 3.1-1.6h2.7v-1.9l3.5-1.7 3.6-1.7 1.9 1.8 2 1.8v49l-1.7 1.9-1.6 1.8H660.1l-.7-1.1-.6-1.1-1.1 1.1-1.1 1.1h-43.3l-3.1-1.6-3.2-1.5V744l-2-2-2-2h-18.9l-.6-1-.6-1h-4.8l-.6 1-.6 1h-11.8l-.6-1-.6-1H379.1l-.6-1-.6-1h-4.8l-.7 1.1-.6 1.1-1.1-1.1-1.1-1.1-1.3 1.2-1.4 1.1-1.1-1.1-1.2-1.2-1.2 1.1-1.2 1-.7-1.1-.6-1h-57.3l-2.3 2.2-2.3 2.1v13l-1.7 1.9-1.6 1.8h-17.6l-.6-1-.6-1H176.4l-1.2-1.2-1.2-1.2-1.9 1.1-1.8 1.2-.9-.9-.9-.9-16.5-.3-16.5-.3-.3-29.9-.2-29.9-1.1-1.3-1-1.3-3.2-.3-3.2-.3v-4.8l3.4-1.8 3.4-1.8 2.7-2.6 2.6-2.5h2.1l1.8-2 1.8-2h3.4l1.8-2 1.8-2h2.5l.6-1.5.5-1.5h2.8l1.8-2 1.8-2h3.4l1.8-2 1.8-2h2.4l1.7-1.9 1.8-2 1.9 1.2 1.9 1.1 1.2-1.2 1.2-1.2h9.6v-3h-9.9l-.6 1-.6 1H175l-1.8-1.1-1.8-1.1-3.8 2.2-3.9 2.1-1-1-1.1-1.1h-6.3l-1.8 2-1.8 2h-5.4l-1.8 2-1.9 2.1-2.5-.3-2.6-.3-.3-6-.3-6-1-1-.9-.9v-17.2l.9-.9 1-1 .3-4.5.3-4.5 27-.3 26.9-.2 1-1 1-1zM443.8 767h83.5l1.9 1.7 1.8 1.6v17.6l-1.1.7-1.1.6 1.1 1.1 1.1 1.1v135.9l-1.7 1.9-1.6 1.8h-23.6l-.6-1-.6-1-1.9 1.2-2 1.2-1.2-1.2-1.2-1.2h-41.2l-.9.9-1 .9-2.5.4-2.5.3-1.2 2.5-1.2 2.6-2.5 2.3-2.5 2.3-1-.7-1.1-.6v-3l1.5-.5 1.5-.6v-3.7l2-3.6 2-3.6v-4.8l1-.6 1-.6v-4.8l1-.6 1-.6V909l.8-1.8.9-1.7 1.1-2.2 1.2-2.3v-3.9l1-.6 1-.6v-5l1.5-.5 1.5-.6V884h-3.9l-3 3.7-3.1 3.8v2.2l-2 1.8-2 1.8v2.6l-2.5 1.9-2.5 2v1.9l-1.6 3.1-1.5 3.2-.9.5-.9.6-1.8 3.7-1.7 3.7-3.4 4.2-3.4 4.3H406l-2 1.2-2 1.3-2-1.3-2-1.2h-14.9l-.7 1.1-.6 1.1-1.1-1.1-1.1-1.1-1.3 1.2-1.4 1.1-2.2-1.1-2.2-1.2-6.5-.2-6.5-.3-.3-20.9-.2-20.9-1.1-1.3-1-1.2 1.1-.7 1-.6v-8.8l-1.1-.7-1.1-.6 1.1-1.1 1.1-1.1v-9.5l-1.1-.7-1.1-.6 1.1-1.1 1.1-1.1V854l-1.2-2-1.3-2 1.2-1.9 1.2-1.8-1.2-1.2-1.1-1.1 1.2-2 1.2-2v-10.9l-1-.6-1-.6v-8.8l1-.6 1-.6v-11.8l-1.1-.7-1.1-.6 1.1-1.1 1.1-1.1v-34.3l.7-.6.6-.7z"/><path d="m308.4 629-1.1-1.1-1.2 1.5-1.3 1.5.6 1 .6 1 3.2 1.5 3.1 1.6 1.3-1.1 1.3-1.1-1.2-1.9-1.2-1.9h-3.1zm146.3 6h-1.4l-2.1 2.3-2.2 2.3v6l-.9.9-.9 1-2.1 3.8-2.1 3.8v4l-1.5.5-1.6.6 1.8 1.4 1.8 1.3 4.1.1h4l1-.9.9-1 4.9-.3 4.9-.3 1.1-1.7 1.1-1.7-3.3-3.4-3.2-3.3v-3.2l-1.5-.6-1.5-.5V635zm-1.8 18.2 1.6.3v4l-1.8.3-1.8.4-1.6-.6-1.6-.6 1.9-2.1 1.8-2zm71.8-17-1.3-1.2-1.2 1.2-1.2 1.2v2.6h2.8l1.1-1.4 1.1-1.3zm181.7-1.2h-1l-3.2 3.3-3.2 3.3v7.5l-1.5.5-1.5.6v4.7l-1 .6-1 .6v6.9h3.9l.6-1 .6-1h4.6l1.8-2 1.8-2h6.7v-4l-.8-1.8-.9-1.7-1.1-2.2-1.2-2.3v-4.6l-1.2-2.7-1.3-2.7zm-.3 14.6.9.5v3l-1.5.5-1.4.6-1.1-.7-1.1-.7 1.7-1.9 1.7-1.9zm-461.3-4.5-.3.1-2.2 1.2-2.3 1.1v3.5h5v-6zM387 645h-2v3.5l2 1.3 2 1.2v-6zm353 0h-6l2 2 2 2h5.5l1.3-2 1.2-2zm-128.5 5H610v2.8l1.5 1.2 1.5 1.2V650zm-197.6 2.5-.9-.6v3.7l1.3 2.7 1.2 2.7h2.5v-1.7l-1.6-3.1-1.5-3.2zm243.6 1.5H656v.8l1.5 1.2 1.5 1.2V654zm-122.2 6H534v2.9l1 .6 1 .6v4.3l1.3-1.8 1.4-1.9-1.1-2.3-1.1-2.4zm-271.9 6H261v2.7l-1.6 3.1-1.5 3.2h-1.4l-1.4 3.2-1.4 3.3-2.9 3.5-2.8 3.5v2.5h4.9l.6-1 .6-1h3.8l1.5-2.1 1.4-2.1 2.7-1.4 2.7-1.4h2.7l2.6-.1 1.8-1.3 1.7-1.3v-1.4l-3-2.5-3-2.6-1.6-3.4-1.6-3.4zm80.1 7H341l1.9 3.2 1.8 3.3 2.1.3 2.2.3v-2.9l-1.5-.6-1.5-.5V673zm227.6 0-1.6.1-3.2 6.7-3.3 6.7v4.4l-1 .6-1 .6V703h6.2l2.6-1.8 2.7-1.8 3-1.4 3-1.4 2.2-1.9 2.1-1.9-1.9-3.4-1.9-3.4-2-3.5-2-3.6v-3.5l-1.2-1.2-1.2-1.2zm3.1 15.7 1.8 1.6-1.6 1.9-1.7 1.8h-3.8l-.6-1.6-.6-1.7 2.4-1.8 2.4-1.8zm144.6-9.7-.3.1-1.9 1.4-2 1.5h4.4v-3zm-524.3 6H193v10.1l-2.2.9-2.3.9h3.8l3.7.1v-12zm436 0H629v3.9l1 .6 1 .6v3.7l1.3 2.5 1.4 2.6 1.1-1.1 1-1-1.9-3.4-1.9-3.5V685zm-138 7H491v.8l1.5 1.2 1.5 1.2V692zm145.9 2.1-1.9.1 1.3.5 1.3.5.6-.6.6-.6zM476.9 696h-.9v5h1.6l1.2-1.2 1.2-1.2-1.1-1.3-1.1-1.3zm47.6 4H523v1.2l.1 1.3 1.4 1.9 1.5 2V700zm171.5 7h-2v3h4v-3zm-266.5 6H428v3h3v-3zm32 6H460v4h3v-4zM249 724.2l-2.5-.3-1.2 2.8-1.3 2.7v4.5l-2 3.6-2 3.6v3l-1.5.5-1.4.6 2.6 2.3 2.7 2.2 3.3-1.8 3.4-1.9h3.8l.6-1 .6-1h7.9v-5.8l-3.2-2.7-3.2-2.7-2.1-4.2-2-4.1zm2.2 11.6 1.1 1.1-.7 1.7-.7 1.7-1.1-1.1-1.1-1.1.7-1.7.7-1.7zm108.4-8.7-1.3-1.1-1.2 1.4-1.1 1.3 1.4 1.2 1.3 1.1 1.2-1.4 1.1-1.3zm219-.8-.6-.6.1 1.9.1 1.9.5-1.3.5-1.3zm78.9 4.7-1.5-1.2v3l1.5 1.2 1.5 1.2v-3zm-473.7 3h-2.1l.4.3.4.3 1.8 1.3 1.7 1.3V734zm562.7 0H745v3h3v-3zM697 745h-1v3h2v-3z"/></svg>